<?xml version="1.0" encoding="utf-8" standalone="no"?>
<!DOCTYPE svg PUBLIC "-//W3C//DTD SVG 1.1//EN"
  "http://www.w3.org/Graphics/SVG/1.1/DTD/svg11.dtd">
<!-- Created with matplotlib (http://matplotlib.org/) -->
<svg height="345pt" version="1.1" viewBox="0 0 460 345" width="460pt" xmlns="http://www.w3.org/2000/svg" xmlns:xlink="http://www.w3.org/1999/xlink">
 <defs>
  <style type="text/css">
*{stroke-linecap:butt;stroke-linejoin:round;}
  </style>
 </defs>
 <g id="figure_1">
  <g id="patch_1">
   <path d="M 0 345.6 
L 460.8 345.6 
L 460.8 0 
L 0 0 
z
" style="fill:#ffffff;"/>
  </g>
  <g id="axes_1">
   <g id="patch_2">
    <path d="M 57.6 307.584 
L 414.72 307.584 
L 414.72 41.472 
L 57.6 41.472 
z
" style="fill:#ffffff;"/>
   </g>
   <g id="matplotlib.axis_1">
    <g id="xtick_1">
     <g id="line2d_1">
      <defs>
       <path d="M 0 0 
L 0 3.5 
" id="mb87c23b7bc" style="stroke:#000000;stroke-width:0.8;"/>
      </defs>
      <g>
       <use style="stroke:#000000;stroke-width:0.8;" x="57.6" xlink:href="#mb87c23b7bc" y="307.584"/>
      </g>
     </g>
     <g id="text_1">
      <!-- 0 -->
      <defs>
       <path d="M 31.78125 66.40625 
Q 24.171875 66.40625 20.328125 58.90625 
Q 16.5 51.421875 16.5 36.375 
Q 16.5 21.390625 20.328125 13.890625 
Q 24.171875 6.390625 31.78125 6.390625 
Q 39.453125 6.390625 43.28125 13.890625 
Q 47.125 21.390625 47.125 36.375 
Q 47.125 51.421875 43.28125 58.90625 
Q 39.453125 66.40625 31.78125 66.40625 
z
M 31.78125 74.21875 
Q 44.046875 74.21875 50.515625 64.515625 
Q 56.984375 54.828125 56.984375 36.375 
Q 56.984375 17.96875 50.515625 8.265625 
Q 44.046875 -1.421875 31.78125 -1.421875 
Q 19.53125 -1.421875 13.0625 8.265625 
Q 6.59375 17.96875 6.59375 36.375 
Q 6.59375 54.828125 13.0625 64.515625 
Q 19.53125 74.21875 31.78125 74.21875 
z
" id="DejaVuSans-30"/>
      </defs>
      <g transform="translate(54.41875 322.182437)scale(0.1 -0.1)">
       <use xlink:href="#DejaVuSans-30"/>
      </g>
     </g>
    </g>
    <g id="xtick_2">
     <g id="line2d_2">
      <g>
       <use style="stroke:#000000;stroke-width:0.8;" x="129.024" xlink:href="#mb87c23b7bc" y="307.584"/>
      </g>
     </g>
     <g id="text_2">
      <!-- 10 -->
      <defs>
       <path d="M 12.40625 8.296875 
L 28.515625 8.296875 
L 28.515625 63.921875 
L 10.984375 60.40625 
L 10.984375 69.390625 
L 28.421875 72.90625 
L 38.28125 72.90625 
L 38.28125 8.296875 
L 54.390625 8.296875 
L 54.390625 0 
L 12.40625 0 
z
" id="DejaVuSans-31"/>
      </defs>
      <g transform="translate(122.6615 322.182437)scale(0.1 -0.1)">
       <use xlink:href="#DejaVuSans-31"/>
       <use x="63.623047" xlink:href="#DejaVuSans-30"/>
      </g>
     </g>
    </g>
    <g id="xtick_3">
     <g id="line2d_3">
      <g>
       <use style="stroke:#000000;stroke-width:0.8;" x="200.448" xlink:href="#mb87c23b7bc" y="307.584"/>
      </g>
     </g>
     <g id="text_3">
      <!-- 20 -->
      <defs>
       <path d="M 19.1875 8.296875 
L 53.609375 8.296875 
L 53.609375 0 
L 7.328125 0 
L 7.328125 8.296875 
Q 12.9375 14.109375 22.625 23.890625 
Q 32.328125 33.6875 34.8125 36.53125 
Q 39.546875 41.84375 41.421875 45.53125 
Q 43.3125 49.21875 43.3125 52.78125 
Q 43.3125 58.59375 39.234375 62.25 
Q 35.15625 65.921875 28.609375 65.921875 
Q 23.96875 65.921875 18.8125 64.3125 
Q 13.671875 62.703125 7.8125 59.421875 
L 7.8125 69.390625 
Q 13.765625 71.78125 18.9375 73 
Q 24.125 74.21875 28.421875 74.21875 
Q 39.75 74.21875 46.484375 68.546875 
Q 53.21875 62.890625 53.21875 53.421875 
Q 53.21875 48.921875 51.53125 44.890625 
Q 49.859375 40.875 45.40625 35.40625 
Q 44.1875 33.984375 37.640625 27.21875 
Q 31.109375 20.453125 19.1875 8.296875 
z
" id="DejaVuSans-32"/>
      </defs>
      <g transform="translate(194.0855 322.182437)scale(0.1 -0.1)">
       <use xlink:href="#DejaVuSans-32"/>
       <use x="63.623047" xlink:href="#DejaVuSans-30"/>
      </g>
     </g>
    </g>
    <g id="xtick_4">
     <g id="line2d_4">
      <g>
       <use style="stroke:#000000;stroke-width:0.8;" x="271.872" xlink:href="#mb87c23b7bc" y="307.584"/>
      </g>
     </g>
     <g id="text_4">
      <!-- 30 -->
      <defs>
       <path d="M 40.578125 39.3125 
Q 47.65625 37.796875 51.625 33 
Q 55.609375 28.21875 55.609375 21.1875 
Q 55.609375 10.40625 48.1875 4.484375 
Q 40.765625 -1.421875 27.09375 -1.421875 
Q 22.515625 -1.421875 17.65625 -0.515625 
Q 12.796875 0.390625 7.625 2.203125 
L 7.625 11.71875 
Q 11.71875 9.328125 16.59375 8.109375 
Q 21.484375 6.890625 26.8125 6.890625 
Q 36.078125 6.890625 40.9375 10.546875 
Q 45.796875 14.203125 45.796875 21.1875 
Q 45.796875 27.640625 41.28125 31.265625 
Q 36.765625 34.90625 28.71875 34.90625 
L 20.21875 34.90625 
L 20.21875 43.015625 
L 29.109375 43.015625 
Q 36.375 43.015625 40.234375 45.921875 
Q 44.09375 48.828125 44.09375 54.296875 
Q 44.09375 59.90625 40.109375 62.90625 
Q 36.140625 65.921875 28.71875 65.921875 
Q 24.65625 65.921875 20.015625 65.03125 
Q 15.375 64.15625 9.8125 62.3125 
L 9.8125 71.09375 
Q 15.4375 72.65625 20.34375 73.4375 
Q 25.25 74.21875 29.59375 74.21875 
Q 40.828125 74.21875 47.359375 69.109375 
Q 53.90625 64.015625 53.90625 55.328125 
Q 53.90625 49.265625 50.4375 45.09375 
Q 46.96875 40.921875 40.578125 39.3125 
z
" id="DejaVuSans-33"/>
      </defs>
      <g transform="translate(265.5095 322.182437)scale(0.1 -0.1)">
       <use xlink:href="#DejaVuSans-33"/>
       <use x="63.623047" xlink:href="#DejaVuSans-30"/>
      </g>
     </g>
    </g>
    <g id="xtick_5">
     <g id="line2d_5">
      <g>
       <use style="stroke:#000000;stroke-width:0.8;" x="343.296" xlink:href="#mb87c23b7bc" y="307.584"/>
      </g>
     </g>
     <g id="text_5">
      <!-- 40 -->
      <defs>
       <path d="M 37.796875 64.3125 
L 12.890625 25.390625 
L 37.796875 25.390625 
z
M 35.203125 72.90625 
L 47.609375 72.90625 
L 47.609375 25.390625 
L 58.015625 25.390625 
L 58.015625 17.1875 
L 47.609375 17.1875 
L 47.609375 0 
L 37.796875 0 
L 37.796875 17.1875 
L 4.890625 17.1875 
L 4.890625 26.703125 
z
" id="DejaVuSans-34"/>
      </defs>
      <g transform="translate(336.9335 322.182437)scale(0.1 -0.1)">
       <use xlink:href="#DejaVuSans-34"/>
       <use x="63.623047" xlink:href="#DejaVuSans-30"/>
      </g>
     </g>
    </g>
    <g id="xtick_6">
     <g id="line2d_6">
      <g>
       <use style="stroke:#000000;stroke-width:0.8;" x="414.72" xlink:href="#mb87c23b7bc" y="307.584"/>
      </g>
     </g>
     <g id="text_6">
      <!-- 50 -->
      <defs>
       <path d="M 10.796875 72.90625 
L 49.515625 72.90625 
L 49.515625 64.59375 
L 19.828125 64.59375 
L 19.828125 46.734375 
Q 21.96875 47.46875 24.109375 47.828125 
Q 26.265625 48.1875 28.421875 48.1875 
Q 40.625 48.1875 47.75 41.5 
Q 54.890625 34.8125 54.890625 23.390625 
Q 54.890625 11.625 47.5625 5.09375 
Q 40.234375 -1.421875 26.90625 -1.421875 
Q 22.3125 -1.421875 17.546875 -0.640625 
Q 12.796875 0.140625 7.71875 1.703125 
L 7.71875 11.625 
Q 12.109375 9.234375 16.796875 8.0625 
Q 21.484375 6.890625 26.703125 6.890625 
Q 35.15625 6.890625 40.078125 11.328125 
Q 45.015625 15.765625 45.015625 23.390625 
Q 45.015625 31 40.078125 35.4375 
Q 35.15625 39.890625 26.703125 39.890625 
Q 22.75 39.890625 18.8125 39.015625 
Q 14.890625 38.140625 10.796875 36.28125 
z
" id="DejaVuSans-35"/>
      </defs>
      <g transform="translate(408.3575 322.182437)scale(0.1 -0.1)">
       <use xlink:href="#DejaVuSans-35"/>
       <use x="63.623047" xlink:href="#DejaVuSans-30"/>
      </g>
     </g>
    </g>
    <g id="text_7">
     <!-- Frequency -->
     <defs>
      <path d="M 9.8125 72.90625 
L 51.703125 72.90625 
L 51.703125 64.59375 
L 19.671875 64.59375 
L 19.671875 43.109375 
L 48.578125 43.109375 
L 48.578125 34.8125 
L 19.671875 34.8125 
L 19.671875 0 
L 9.8125 0 
z
" id="DejaVuSans-46"/>
      <path d="M 41.109375 46.296875 
Q 39.59375 47.171875 37.8125 47.578125 
Q 36.03125 48 33.890625 48 
Q 26.265625 48 22.1875 43.046875 
Q 18.109375 38.09375 18.109375 28.8125 
L 18.109375 0 
L 9.078125 0 
L 9.078125 54.6875 
L 18.109375 54.6875 
L 18.109375 46.1875 
Q 20.953125 51.171875 25.484375 53.578125 
Q 30.03125 56 36.53125 56 
Q 37.453125 56 38.578125 55.875 
Q 39.703125 55.765625 41.0625 55.515625 
z
" id="DejaVuSans-72"/>
      <path d="M 56.203125 29.59375 
L 56.203125 25.203125 
L 14.890625 25.203125 
Q 15.484375 15.921875 20.484375 11.0625 
Q 25.484375 6.203125 34.421875 6.203125 
Q 39.59375 6.203125 44.453125 7.46875 
Q 49.3125 8.734375 54.109375 11.28125 
L 54.109375 2.78125 
Q 49.265625 0.734375 44.1875 -0.34375 
Q 39.109375 -1.421875 33.890625 -1.421875 
Q 20.796875 -1.421875 13.15625 6.1875 
Q 5.515625 13.8125 5.515625 26.8125 
Q 5.515625 40.234375 12.765625 48.109375 
Q 20.015625 56 32.328125 56 
Q 43.359375 56 49.78125 48.890625 
Q 56.203125 41.796875 56.203125 29.59375 
z
M 47.21875 32.234375 
Q 47.125 39.59375 43.09375 43.984375 
Q 39.0625 48.390625 32.421875 48.390625 
Q 24.90625 48.390625 20.390625 44.140625 
Q 15.875 39.890625 15.1875 32.171875 
z
" id="DejaVuSans-65"/>
      <path d="M 14.796875 27.296875 
Q 14.796875 17.390625 18.875 11.75 
Q 22.953125 6.109375 30.078125 6.109375 
Q 37.203125 6.109375 41.296875 11.75 
Q 45.40625 17.390625 45.40625 27.296875 
Q 45.40625 37.203125 41.296875 42.84375 
Q 37.203125 48.484375 30.078125 48.484375 
Q 22.953125 48.484375 18.875 42.84375 
Q 14.796875 37.203125 14.796875 27.296875 
z
M 45.40625 8.203125 
Q 42.578125 3.328125 38.25 0.953125 
Q 33.9375 -1.421875 27.875 -1.421875 
Q 17.96875 -1.421875 11.734375 6.484375 
Q 5.515625 14.40625 5.515625 27.296875 
Q 5.515625 40.1875 11.734375 48.09375 
Q 17.96875 56 27.875 56 
Q 33.9375 56 38.25 53.625 
Q 42.578125 51.265625 45.40625 46.390625 
L 45.40625 54.6875 
L 54.390625 54.6875 
L 54.390625 -20.796875 
L 45.40625 -20.796875 
z
" id="DejaVuSans-71"/>
      <path d="M 8.5 21.578125 
L 8.5 54.6875 
L 17.484375 54.6875 
L 17.484375 21.921875 
Q 17.484375 14.15625 20.5 10.265625 
Q 23.53125 6.390625 29.59375 6.390625 
Q 36.859375 6.390625 41.078125 11.03125 
Q 45.3125 15.671875 45.3125 23.6875 
L 45.3125 54.6875 
L 54.296875 54.6875 
L 54.296875 0 
L 45.3125 0 
L 45.3125 8.40625 
Q 42.046875 3.421875 37.71875 1 
Q 33.40625 -1.421875 27.6875 -1.421875 
Q 18.265625 -1.421875 13.375 4.4375 
Q 8.5 10.296875 8.5 21.578125 
z
M 31.109375 56 
z
" id="DejaVuSans-75"/>
      <path d="M 54.890625 33.015625 
L 54.890625 0 
L 45.90625 0 
L 45.90625 32.71875 
Q 45.90625 40.484375 42.875 44.328125 
Q 39.84375 48.1875 33.796875 48.1875 
Q 26.515625 48.1875 22.3125 43.546875 
Q 18.109375 38.921875 18.109375 30.90625 
L 18.109375 0 
L 9.078125 0 
L 9.078125 54.6875 
L 18.109375 54.6875 
L 18.109375 46.1875 
Q 21.34375 51.125 25.703125 53.5625 
Q 30.078125 56 35.796875 56 
Q 45.21875 56 50.046875 50.171875 
Q 54.890625 44.34375 54.890625 33.015625 
z
" id="DejaVuSans-6e"/>
      <path d="M 48.78125 52.59375 
L 48.78125 44.1875 
Q 44.96875 46.296875 41.140625 47.34375 
Q 37.3125 48.390625 33.40625 48.390625 
Q 24.65625 48.390625 19.8125 42.84375 
Q 14.984375 37.3125 14.984375 27.296875 
Q 14.984375 17.28125 19.8125 11.734375 
Q 24.65625 6.203125 33.40625 6.203125 
Q 37.3125 6.203125 41.140625 7.25 
Q 44.96875 8.296875 48.78125 10.40625 
L 48.78125 2.09375 
Q 45.015625 0.34375 40.984375 -0.53125 
Q 36.96875 -1.421875 32.421875 -1.421875 
Q 20.0625 -1.421875 12.78125 6.34375 
Q 5.515625 14.109375 5.515625 27.296875 
Q 5.515625 40.671875 12.859375 48.328125 
Q 20.21875 56 33.015625 56 
Q 37.15625 56 41.109375 55.140625 
Q 45.0625 54.296875 48.78125 52.59375 
z
" id="DejaVuSans-63"/>
      <path d="M 32.171875 -5.078125 
Q 28.375 -14.84375 24.75 -17.8125 
Q 21.140625 -20.796875 15.09375 -20.796875 
L 7.90625 -20.796875 
L 7.90625 -13.28125 
L 13.1875 -13.28125 
Q 16.890625 -13.28125 18.9375 -11.515625 
Q 21 -9.765625 23.484375 -3.21875 
L 25.09375 0.875 
L 2.984375 54.6875 
L 12.5 54.6875 
L 29.59375 11.921875 
L 46.6875 54.6875 
L 56.203125 54.6875 
z
" id="DejaVuSans-79"/>
     </defs>
     <g transform="translate(194.08375 340.419625)scale(0.16 -0.16)">
      <use xlink:href="#DejaVuSans-46"/>
      <use x="57.410156" xlink:href="#DejaVuSans-72"/>
      <use x="98.492188" xlink:href="#DejaVuSans-65"/>
      <use x="160.015625" xlink:href="#DejaVuSans-71"/>
      <use x="223.492188" xlink:href="#DejaVuSans-75"/>
      <use x="286.871094" xlink:href="#DejaVuSans-65"/>
      <use x="348.394531" xlink:href="#DejaVuSans-6e"/>
      <use x="411.773438" xlink:href="#DejaVuSans-63"/>
      <use x="466.753906" xlink:href="#DejaVuSans-79"/>
     </g>
    </g>
   </g>
   <g id="matplotlib.axis_2">
    <g id="ytick_1">
     <g id="line2d_7">
      <defs>
       <path d="M 0 0 
L -3.5 0 
" id="mf814d86f5f" style="stroke:#000000;stroke-width:0.8;"/>
      </defs>
      <g>
       <use style="stroke:#000000;stroke-width:0.8;" x="57.6" xlink:href="#mf814d86f5f" y="307.584"/>
      </g>
     </g>
     <g id="text_8">
      <!-- 0.0 -->
      <defs>
       <path d="M 10.6875 12.40625 
L 21 12.40625 
L 21 0 
L 10.6875 0 
z
" id="DejaVuSans-2e"/>
      </defs>
      <g transform="translate(34.696875 311.383219)scale(0.1 -0.1)">
       <use xlink:href="#DejaVuSans-30"/>
       <use x="63.623047" xlink:href="#DejaVuSans-2e"/>
       <use x="95.410156" xlink:href="#DejaVuSans-30"/>
      </g>
     </g>
    </g>
    <g id="ytick_2">
     <g id="line2d_8">
      <g>
       <use style="stroke:#000000;stroke-width:0.8;" x="57.6" xlink:href="#mf814d86f5f" y="277.274616"/>
      </g>
     </g>
     <g id="text_9">
      <!-- 0.2 -->
      <g transform="translate(34.696875 281.073835)scale(0.1 -0.1)">
       <use xlink:href="#DejaVuSans-30"/>
       <use x="63.623047" xlink:href="#DejaVuSans-2e"/>
       <use x="95.410156" xlink:href="#DejaVuSans-32"/>
      </g>
     </g>
    </g>
    <g id="ytick_3">
     <g id="line2d_9">
      <g>
       <use style="stroke:#000000;stroke-width:0.8;" x="57.6" xlink:href="#mf814d86f5f" y="246.965233"/>
      </g>
     </g>
     <g id="text_10">
      <!-- 0.4 -->
      <g transform="translate(34.696875 250.764452)scale(0.1 -0.1)">
       <use xlink:href="#DejaVuSans-30"/>
       <use x="63.623047" xlink:href="#DejaVuSans-2e"/>
       <use x="95.410156" xlink:href="#DejaVuSans-34"/>
      </g>
     </g>
    </g>
    <g id="ytick_4">
     <g id="line2d_10">
      <g>
       <use style="stroke:#000000;stroke-width:0.8;" x="57.6" xlink:href="#mf814d86f5f" y="216.655849"/>
      </g>
     </g>
     <g id="text_11">
      <!-- 0.6 -->
      <defs>
       <path d="M 33.015625 40.375 
Q 26.375 40.375 22.484375 35.828125 
Q 18.609375 31.296875 18.609375 23.390625 
Q 18.609375 15.53125 22.484375 10.953125 
Q 26.375 6.390625 33.015625 6.390625 
Q 39.65625 6.390625 43.53125 10.953125 
Q 47.40625 15.53125 47.40625 23.390625 
Q 47.40625 31.296875 43.53125 35.828125 
Q 39.65625 40.375 33.015625 40.375 
z
M 52.59375 71.296875 
L 52.59375 62.3125 
Q 48.875 64.0625 45.09375 64.984375 
Q 41.3125 65.921875 37.59375 65.921875 
Q 27.828125 65.921875 22.671875 59.328125 
Q 17.53125 52.734375 16.796875 39.40625 
Q 19.671875 43.65625 24.015625 45.921875 
Q 28.375 48.1875 33.59375 48.1875 
Q 44.578125 48.1875 50.953125 41.515625 
Q 57.328125 34.859375 57.328125 23.390625 
Q 57.328125 12.15625 50.6875 5.359375 
Q 44.046875 -1.421875 33.015625 -1.421875 
Q 20.359375 -1.421875 13.671875 8.265625 
Q 6.984375 17.96875 6.984375 36.375 
Q 6.984375 53.65625 15.1875 63.9375 
Q 23.390625 74.21875 37.203125 74.21875 
Q 40.921875 74.21875 44.703125 73.484375 
Q 48.484375 72.75 52.59375 71.296875 
z
" id="DejaVuSans-36"/>
      </defs>
      <g transform="translate(34.696875 220.455068)scale(0.1 -0.1)">
       <use xlink:href="#DejaVuSans-30"/>
       <use x="63.623047" xlink:href="#DejaVuSans-2e"/>
       <use x="95.410156" xlink:href="#DejaVuSans-36"/>
      </g>
     </g>
    </g>
    <g id="ytick_5">
     <g id="line2d_11">
      <g>
       <use style="stroke:#000000;stroke-width:0.8;" x="57.6" xlink:href="#mf814d86f5f" y="186.346466"/>
      </g>
     </g>
     <g id="text_12">
      <!-- 0.8 -->
      <defs>
       <path d="M 31.78125 34.625 
Q 24.75 34.625 20.71875 30.859375 
Q 16.703125 27.09375 16.703125 20.515625 
Q 16.703125 13.921875 20.71875 10.15625 
Q 24.75 6.390625 31.78125 6.390625 
Q 38.8125 6.390625 42.859375 10.171875 
Q 46.921875 13.96875 46.921875 20.515625 
Q 46.921875 27.09375 42.890625 30.859375 
Q 38.875 34.625 31.78125 34.625 
z
M 21.921875 38.8125 
Q 15.578125 40.375 12.03125 44.71875 
Q 8.5 49.078125 8.5 55.328125 
Q 8.5 64.0625 14.71875 69.140625 
Q 20.953125 74.21875 31.78125 74.21875 
Q 42.671875 74.21875 48.875 69.140625 
Q 55.078125 64.0625 55.078125 55.328125 
Q 55.078125 49.078125 51.53125 44.71875 
Q 48 40.375 41.703125 38.8125 
Q 48.828125 37.15625 52.796875 32.3125 
Q 56.78125 27.484375 56.78125 20.515625 
Q 56.78125 9.90625 50.3125 4.234375 
Q 43.84375 -1.421875 31.78125 -1.421875 
Q 19.734375 -1.421875 13.25 4.234375 
Q 6.78125 9.90625 6.78125 20.515625 
Q 6.78125 27.484375 10.78125 32.3125 
Q 14.796875 37.15625 21.921875 38.8125 
z
M 18.3125 54.390625 
Q 18.3125 48.734375 21.84375 45.5625 
Q 25.390625 42.390625 31.78125 42.390625 
Q 38.140625 42.390625 41.71875 45.5625 
Q 45.3125 48.734375 45.3125 54.390625 
Q 45.3125 60.0625 41.71875 63.234375 
Q 38.140625 66.40625 31.78125 66.40625 
Q 25.390625 66.40625 21.84375 63.234375 
Q 18.3125 60.0625 18.3125 54.390625 
z
" id="DejaVuSans-38"/>
      </defs>
      <g transform="translate(34.696875 190.145684)scale(0.1 -0.1)">
       <use xlink:href="#DejaVuSans-30"/>
       <use x="63.623047" xlink:href="#DejaVuSans-2e"/>
       <use x="95.410156" xlink:href="#DejaVuSans-38"/>
      </g>
     </g>
    </g>
    <g id="ytick_6">
     <g id="line2d_12">
      <g>
       <use style="stroke:#000000;stroke-width:0.8;" x="57.6" xlink:href="#mf814d86f5f" y="156.037082"/>
      </g>
     </g>
     <g id="text_13">
      <!-- 1.0 -->
      <g transform="translate(34.696875 159.836301)scale(0.1 -0.1)">
       <use xlink:href="#DejaVuSans-31"/>
       <use x="63.623047" xlink:href="#DejaVuSans-2e"/>
       <use x="95.410156" xlink:href="#DejaVuSans-30"/>
      </g>
     </g>
    </g>
    <g id="ytick_7">
     <g id="line2d_13">
      <g>
       <use style="stroke:#000000;stroke-width:0.8;" x="57.6" xlink:href="#mf814d86f5f" y="125.727698"/>
      </g>
     </g>
     <g id="text_14">
      <!-- 1.2 -->
      <g transform="translate(34.696875 129.526917)scale(0.1 -0.1)">
       <use xlink:href="#DejaVuSans-31"/>
       <use x="63.623047" xlink:href="#DejaVuSans-2e"/>
       <use x="95.410156" xlink:href="#DejaVuSans-32"/>
      </g>
     </g>
    </g>
    <g id="ytick_8">
     <g id="line2d_14">
      <g>
       <use style="stroke:#000000;stroke-width:0.8;" x="57.6" xlink:href="#mf814d86f5f" y="95.418315"/>
      </g>
     </g>
     <g id="text_15">
      <!-- 1.4 -->
      <g transform="translate(34.696875 99.217533)scale(0.1 -0.1)">
       <use xlink:href="#DejaVuSans-31"/>
       <use x="63.623047" xlink:href="#DejaVuSans-2e"/>
       <use x="95.410156" xlink:href="#DejaVuSans-34"/>
      </g>
     </g>
    </g>
    <g id="ytick_9">
     <g id="line2d_15">
      <g>
       <use style="stroke:#000000;stroke-width:0.8;" x="57.6" xlink:href="#mf814d86f5f" y="65.108931"/>
      </g>
     </g>
     <g id="text_16">
      <!-- 1.6 -->
      <g transform="translate(34.696875 68.90815)scale(0.1 -0.1)">
       <use xlink:href="#DejaVuSans-31"/>
       <use x="63.623047" xlink:href="#DejaVuSans-2e"/>
       <use x="95.410156" xlink:href="#DejaVuSans-36"/>
      </g>
     </g>
    </g>
    <g id="text_17">
     <!-- Power -->
     <defs>
      <path d="M 19.671875 64.796875 
L 19.671875 37.40625 
L 32.078125 37.40625 
Q 38.96875 37.40625 42.71875 40.96875 
Q 46.484375 44.53125 46.484375 51.125 
Q 46.484375 57.671875 42.71875 61.234375 
Q 38.96875 64.796875 32.078125 64.796875 
z
M 9.8125 72.90625 
L 32.078125 72.90625 
Q 44.34375 72.90625 50.609375 67.359375 
Q 56.890625 61.8125 56.890625 51.125 
Q 56.890625 40.328125 50.609375 34.8125 
Q 44.34375 29.296875 32.078125 29.296875 
L 19.671875 29.296875 
L 19.671875 0 
L 9.8125 0 
z
" id="DejaVuSans-50"/>
      <path d="M 30.609375 48.390625 
Q 23.390625 48.390625 19.1875 42.75 
Q 14.984375 37.109375 14.984375 27.296875 
Q 14.984375 17.484375 19.15625 11.84375 
Q 23.34375 6.203125 30.609375 6.203125 
Q 37.796875 6.203125 41.984375 11.859375 
Q 46.1875 17.53125 46.1875 27.296875 
Q 46.1875 37.015625 41.984375 42.703125 
Q 37.796875 48.390625 30.609375 48.390625 
z
M 30.609375 56 
Q 42.328125 56 49.015625 48.375 
Q 55.71875 40.765625 55.71875 27.296875 
Q 55.71875 13.875 49.015625 6.21875 
Q 42.328125 -1.421875 30.609375 -1.421875 
Q 18.84375 -1.421875 12.171875 6.21875 
Q 5.515625 13.875 5.515625 27.296875 
Q 5.515625 40.765625 12.171875 48.375 
Q 18.84375 56 30.609375 56 
z
" id="DejaVuSans-6f"/>
      <path d="M 4.203125 54.6875 
L 13.1875 54.6875 
L 24.421875 12.015625 
L 35.59375 54.6875 
L 46.1875 54.6875 
L 57.421875 12.015625 
L 68.609375 54.6875 
L 77.59375 54.6875 
L 63.28125 0 
L 52.6875 0 
L 40.921875 44.828125 
L 29.109375 0 
L 18.5 0 
z
" id="DejaVuSans-77"/>
     </defs>
     <g transform="translate(27.369375 198.99675)rotate(-90)scale(0.16 -0.16)">
      <use xlink:href="#DejaVuSans-50"/>
      <use x="60.255859" xlink:href="#DejaVuSans-6f"/>
      <use x="121.4375" xlink:href="#DejaVuSans-77"/>
      <use x="203.224609" xlink:href="#DejaVuSans-65"/>
      <use x="264.748047" xlink:href="#DejaVuSans-72"/>
     </g>
    </g>
    <g id="text_18">
     <!-- 1e8 -->
     <g transform="translate(57.6 38.472)scale(0.1 -0.1)">
      <use xlink:href="#DejaVuSans-31"/>
      <use x="63.623047" xlink:href="#DejaVuSans-65"/>
      <use x="125.146484" xlink:href="#DejaVuSans-38"/>
     </g>
    </g>
   </g>
   <g id="line2d_16">
    <path clip-path="url(#p54f4555d45)" d="M 58.190639 -1 
L 58.491157 245.582981 
L 58.936735 161.689932 
L 59.360783 -1 
M 59.393972 -1 
L 59.827892 306.445014 
L 60.273471 261.437045 
L 60.719049 238.973323 
L 61.164628 303.545252 
L 61.610206 113.312142 
L 62.055785 289.142154 
L 62.501363 226.598631 
L 62.946942 285.455579 
L 63.39252 274.439959 
L 63.838099 297.774918 
L 64.283677 292.77453 
L 64.729255 296.78561 
L 65.174834 198.510021 
L 65.620412 300.511312 
L 66.065991 292.350448 
L 66.511569 304.803364 
L 66.957148 294.286591 
L 67.402726 301.427175 
L 67.848305 289.313255 
L 68.739462 307.260365 
L 69.18504 281.758657 
L 69.630619 275.290315 
L 70.076197 307.515461 
L 70.967354 286.64324 
L 71.412932 299.72775 
L 71.858511 290.561868 
L 72.304089 277.166582 
L 72.749668 302.903361 
L 73.195246 302.948925 
L 73.640825 260.951828 
L 74.086403 290.138401 
L 74.531982 272.22277 
L 74.97756 300.67224 
L 75.423139 292.625867 
L 75.868717 289.87476 
L 76.314296 277.443513 
L 76.759874 305.819616 
L 77.205452 283.754554 
L 77.651031 300.023465 
L 78.096609 202.406041 
L 78.542188 271.205205 
L 78.987766 249.982288 
L 79.433345 292.386227 
L 79.878923 279.460629 
L 80.324502 286.201566 
L 80.77008 281.312929 
L 81.215659 285.021617 
L 81.661237 278.085096 
L 82.106816 304.353096 
L 82.552394 290.134001 
L 82.997972 284.299217 
L 83.443551 298.023167 
L 83.889129 303.229663 
L 84.334708 303.83155 
L 84.780286 292.859717 
L 85.225865 292.019794 
L 85.671443 266.511473 
L 86.5626 297.969592 
L 87.008179 254.444359 
L 87.453757 295.233058 
L 87.899336 297.381164 
L 88.790493 304.546178 
L 89.236071 290.599954 
L 89.681649 303.3426 
L 90.127228 304.629106 
L 90.572806 299.860035 
L 91.018385 299.327577 
L 91.463963 300.402607 
L 91.909542 307.506545 
L 92.35512 301.689012 
L 92.800699 302.337959 
L 93.246277 285.27948 
L 93.691856 277.307121 
L 94.137434 297.595423 
L 94.583013 307.561947 
L 95.028591 298.625437 
L 95.474169 283.912894 
L 95.919748 295.04471 
L 96.365326 300.308852 
L 96.810905 282.15882 
L 97.256483 304.63277 
L 97.702062 254.047594 
L 98.14764 288.204573 
L 98.593219 297.044969 
L 99.038797 287.134648 
L 99.484376 297.1909 
L 100.375533 261.782725 
L 101.26669 283.353292 
L 101.712268 256.710857 
L 102.157846 289.829041 
L 102.603425 287.211814 
L 103.049003 298.572589 
L 103.94016 277.564788 
L 104.385739 294.83034 
L 104.831317 230.442877 
L 105.276896 285.629074 
L 105.722474 61.971717 
L 106.168053 195.805489 
L 106.613631 263.612239 
L 107.05921 305.247225 
L 107.504788 251.861032 
L 107.950367 146.045581 
L 108.395945 235.117801 
L 109.287102 245.97808 
L 109.73268 42.343708 
L 110.178259 304.419922 
L 110.623837 301.463132 
L 111.069416 185.423456 
L 111.514994 240.886404 
L 111.960573 277.485902 
L 112.406151 300.138276 
L 112.85173 245.865237 
L 113.297308 223.476749 
L 113.742887 279.181409 
L 114.188465 201.348608 
L 114.634043 259.865724 
L 115.5252 289.211772 
L 115.970779 294.731381 
L 116.861936 270.153101 
L 117.307514 295.393459 
L 117.753093 289.14969 
L 118.198671 273.972624 
L 118.64425 284.036754 
L 119.089828 269.868427 
L 119.535407 301.1706 
L 119.980985 292.303166 
L 120.426564 261.888749 
L 120.872142 300.875343 
L 121.31772 228.8992 
L 121.763299 283.024266 
L 122.208877 295.227507 
L 122.654456 293.855623 
L 123.100034 307.129684 
L 123.545613 306.26874 
L 123.991191 286.942903 
L 124.882348 293.118429 
L 125.327927 303.764849 
L 125.773505 301.699101 
L 126.219084 278.845917 
L 126.664662 302.687901 
L 127.11024 307.520506 
L 127.555819 292.574708 
L 128.001397 303.168251 
L 128.446976 306.036091 
L 128.892554 302.453505 
L 129.338133 302.911869 
L 129.783711 299.186603 
L 130.22929 299.479118 
L 130.674868 304.225006 
L 131.120447 303.629929 
L 131.566025 301.607262 
L 132.011604 300.322336 
L 132.457182 300.572804 
L 132.902761 296.649187 
L 133.348339 301.410958 
L 133.793917 301.583373 
L 134.239496 291.453072 
L 134.685074 307.048996 
L 135.130653 304.582803 
L 136.02181 285.138021 
L 136.467388 305.471142 
L 136.912967 304.315402 
L 137.358545 304.498168 
L 137.804124 286.909239 
L 138.249702 295.224103 
L 138.695281 306.084877 
L 139.140859 301.401903 
L 139.586438 306.498899 
L 140.032016 295.038093 
L 140.477594 298.867133 
L 140.923173 305.035415 
L 141.368751 303.913085 
L 141.81433 306.370118 
L 142.259908 307.255988 
L 143.151065 299.862402 
L 143.596644 304.970215 
L 144.042222 298.962583 
L 144.487801 307.139396 
L 144.933379 307.142409 
L 145.824536 298.902312 
L 146.270114 299.09165 
L 146.715693 292.582748 
L 147.161271 303.903591 
L 147.60685 301.515651 
L 148.052428 301.387252 
L 148.498007 302.262094 
L 148.943585 298.513033 
L 149.389164 300.88202 
L 149.834742 301.047975 
L 150.280321 306.258196 
L 150.725899 306.385194 
L 151.171478 296.234184 
L 151.617056 298.493944 
L 152.062635 297.437972 
L 152.508213 262.33942 
L 152.953791 277.962605 
L 153.39937 304.133874 
L 153.844948 298.42393 
L 154.290527 295.120747 
L 154.736105 305.176813 
L 155.181684 301.629646 
L 155.627262 288.624436 
L 156.072841 294.282754 
L 156.518419 304.698076 
L 156.963998 302.024304 
L 157.409576 302.815102 
L 157.855155 297.42755 
L 158.746311 305.316254 
L 159.19189 306.377603 
L 159.637468 301.431683 
L 160.083047 304.099828 
L 160.528625 305.820637 
L 160.974204 305.71251 
L 161.419782 274.483291 
L 161.865361 303.674486 
L 163.202096 301.345899 
L 163.647675 295.212505 
L 164.093253 294.382665 
L 164.538832 307.113415 
L 164.98441 304.275933 
L 165.429988 307.552032 
L 165.875567 301.376179 
L 166.321145 301.467456 
L 166.766724 305.350431 
L 167.212302 305.911263 
L 167.657881 304.552474 
L 168.103459 306.566774 
L 168.549038 301.266503 
L 168.994616 304.304875 
L 169.440195 305.174967 
L 169.885773 297.183811 
L 170.331352 300.065166 
L 170.77693 300.506652 
L 171.222508 306.860209 
L 171.668087 304.704978 
L 172.113665 304.726124 
L 172.559244 304.915919 
L 173.004822 301.256381 
L 173.450401 305.524283 
L 173.895979 304.201733 
L 174.341558 295.710432 
L 174.787136 295.168988 
L 175.232715 304.770475 
L 175.678293 299.649774 
L 176.123872 306.932265 
L 176.56945 305.477076 
L 177.015029 305.694158 
L 177.460607 305.144671 
L 177.906185 306.237526 
L 178.797342 301.190641 
L 179.242921 301.78044 
L 179.688499 301.430572 
L 180.134078 304.962097 
L 180.579656 306.247705 
L 181.025235 306.929208 
L 181.470813 295.301373 
L 181.916392 290.274248 
L 182.36197 306.730511 
L 182.807549 306.179105 
L 183.253127 306.564739 
L 183.698706 306.39079 
L 184.144284 302.798873 
L 184.589862 306.994186 
L 185.035441 306.512125 
L 185.481019 301.635026 
L 186.372176 305.79077 
L 186.817755 307.498525 
L 187.263333 306.349609 
L 187.708912 307.334616 
L 188.15449 306.399126 
L 188.600069 307.192659 
L 189.045647 306.986521 
L 189.491226 305.865039 
L 189.936804 301.57622 
L 190.382382 305.645704 
L 190.827961 305.028711 
L 191.273539 305.316517 
L 191.719118 306.702315 
L 192.164696 301.497673 
L 192.610275 303.207461 
L 193.055853 300.622006 
L 193.501432 304.99214 
L 194.392589 305.806995 
L 194.838167 305.952794 
L 195.283746 307.08016 
L 195.729324 307.004368 
L 196.174903 302.363444 
L 196.620481 306.555464 
L 197.066059 294.695151 
L 197.511638 307.171297 
L 197.957216 306.841937 
L 198.402795 303.644488 
L 198.848373 304.805785 
L 199.293952 306.990358 
L 199.73953 306.628928 
L 200.185109 303.331622 
L 200.630687 305.288751 
L 201.076266 302.749778 
L 201.521844 306.974803 
L 201.967423 306.71165 
L 202.413001 304.824515 
L 202.858579 297.461927 
L 203.749736 307.259188 
L 204.640893 302.917144 
L 205.086472 305.152879 
L 205.53205 302.905991 
L 205.977629 306.49566 
L 206.423207 303.769885 
L 206.868786 306.357161 
L 207.314364 306.565335 
L 207.759943 305.499167 
L 208.205521 307.105123 
L 208.6511 306.587834 
L 209.096678 305.074802 
L 209.542256 305.396898 
L 209.987835 307.154502 
L 210.433413 306.827022 
L 210.878992 306.047437 
L 211.32457 306.593371 
L 211.770149 307.55014 
L 212.215727 306.276088 
L 212.661306 306.678084 
L 213.106884 304.444576 
L 213.552463 306.464839 
L 213.998041 303.719292 
L 214.44362 306.374529 
L 214.889198 307.398733 
L 215.334777 306.505731 
L 215.780355 303.028946 
L 216.225933 307.453085 
L 216.671512 304.808543 
L 217.11709 307.337767 
L 217.562669 307.519043 
L 218.008247 307.343497 
L 218.453826 305.749959 
L 218.899404 306.317108 
L 219.344983 305.813824 
L 219.790561 306.351054 
L 220.23614 304.604653 
L 220.681718 305.288465 
L 221.127297 306.577893 
L 221.572875 306.653591 
L 222.018453 306.205013 
L 222.464032 306.364232 
L 222.90961 307.39916 
L 223.355189 306.729075 
L 223.800767 306.546815 
L 224.246346 307.448249 
L 224.691924 305.242666 
L 225.137503 304.575836 
L 225.583081 307.276842 
L 226.02866 307.067349 
L 226.474238 306.103712 
L 226.919817 307.2662 
L 227.365395 306.656045 
L 227.810974 300.72402 
L 228.256552 304.673642 
L 228.70213 303.94204 
L 229.147709 305.051686 
L 229.593287 299.716182 
L 230.038866 304.305247 
L 230.484444 307.412939 
L 230.930023 307.365791 
L 231.375601 307.098741 
L 232.266758 305.354721 
L 233.157915 307.561108 
L 233.603494 305.511719 
L 234.049072 306.72296 
L 234.49465 306.367596 
L 234.940229 306.331254 
L 235.385807 305.557322 
L 235.831386 306.957687 
L 236.276964 307.331303 
L 236.722543 306.885396 
L 237.168121 305.023331 
L 237.6137 303.884809 
L 238.059278 305.38231 
L 238.504857 304.64387 
L 238.950435 306.003085 
L 239.396014 305.927504 
L 239.841592 305.041881 
L 240.287171 305.877787 
L 240.732749 306.291391 
L 241.178327 307.092903 
L 241.623906 306.627851 
L 242.069484 306.826601 
L 242.515063 304.284513 
L 242.960641 307.381352 
L 243.40622 307.14234 
L 243.851798 307.123453 
L 244.297377 307.455657 
L 244.742955 307.491901 
L 245.188534 306.832307 
L 245.634112 304.195553 
L 246.079691 303.747234 
L 246.525269 305.78843 
L 246.970847 305.660831 
L 247.416426 306.282978 
L 247.862004 307.532475 
L 248.307583 307.153722 
L 248.753161 305.176205 
L 249.19874 306.835181 
L 249.644318 306.945357 
L 250.089897 306.705669 
L 250.535475 306.682823 
L 250.981054 307.360864 
L 251.426632 307.134139 
L 252.763368 307.43996 
L 253.208946 306.957184 
L 253.654524 306.277079 
L 254.100103 305.041395 
L 254.545681 305.595307 
L 254.99126 307.359725 
L 255.436838 307.456733 
L 255.882417 307.156137 
L 256.327995 307.273216 
L 256.773574 307.23849 
L 257.219152 307.327766 
L 257.664731 305.144025 
L 258.110309 306.844215 
L 258.555888 306.318364 
L 259.001466 307.55882 
L 259.447045 306.468671 
L 259.892623 307.42384 
L 260.338201 306.26141 
L 260.78378 306.471029 
L 261.229358 307.203821 
L 262.120515 307.00204 
L 262.566094 307.283447 
L 263.011672 303.528327 
L 263.457251 307.164418 
L 263.902829 306.451192 
L 264.348408 306.910135 
L 264.793986 306.348147 
L 265.239565 305.267139 
L 265.685143 307.182408 
L 266.130721 307.507562 
L 266.5763 307.522168 
L 267.021878 305.871512 
L 267.467457 306.284766 
L 268.358614 307.546065 
L 268.804192 306.865475 
L 270.140928 305.956277 
L 270.586506 306.921464 
L 271.032085 307.386239 
L 271.477663 306.457806 
L 271.923242 307.486234 
L 272.36882 305.822708 
L 272.814398 306.352271 
L 273.259977 306.044829 
L 273.705555 304.236691 
L 274.151134 306.926755 
L 274.596712 307.398225 
L 275.487869 307.128623 
L 275.933448 307.463444 
L 276.379026 307.338088 
L 276.824605 304.964912 
L 277.270183 306.770159 
L 277.715762 307.248141 
L 278.16134 307.156523 
L 278.606918 307.262085 
L 279.052497 306.214751 
L 279.498075 307.545265 
L 279.943654 306.857727 
L 280.389232 307.340255 
L 281.280389 306.877989 
L 281.725968 307.511201 
L 282.171546 307.157577 
L 282.617125 307.036789 
L 283.062703 306.215156 
L 283.508282 307.483997 
L 283.95386 306.017861 
L 284.845017 307.497985 
L 285.290595 307.021178 
L 285.736174 306.845558 
L 286.181752 307.569925 
L 286.627331 306.756849 
L 287.072909 307.083871 
L 287.518488 307.55636 
L 287.964066 307.247208 
L 288.855223 306.131865 
L 289.300802 306.955321 
L 289.74638 307.308353 
L 290.191959 307.497886 
L 291.083116 307.269014 
L 291.528694 307.555435 
L 291.974272 306.087449 
L 292.419851 306.661429 
L 293.311008 304.779322 
L 293.756586 307.369792 
L 294.202165 307.259725 
L 294.647743 306.43022 
L 295.093322 306.588274 
L 295.5389 307.112194 
L 295.984479 307.232032 
L 296.430057 307.541809 
L 296.875636 307.068699 
L 297.321214 307.438819 
L 297.766792 307.215081 
L 298.212371 307.369792 
L 298.657949 306.758315 
L 299.103528 307.283521 
L 299.549106 306.635438 
L 299.994685 306.755938 
L 300.440263 306.744326 
L 300.885842 307.506415 
L 301.776999 307.382127 
L 302.222577 306.062807 
L 302.668156 304.241939 
L 303.113734 306.318191 
L 303.559313 307.044783 
L 304.004891 306.936117 
L 304.450469 307.35956 
L 305.341626 307.580095 
L 305.787205 307.290258 
L 306.232783 307.221258 
L 306.678362 307.514466 
L 307.12394 307.576456 
L 307.569519 307.341435 
L 308.015097 306.656433 
L 308.460676 304.574533 
L 308.906254 307.519038 
L 309.351833 307.300802 
L 309.797411 306.876692 
L 310.242989 306.993786 
L 310.688568 306.910527 
L 311.134146 306.606685 
L 311.579725 307.295699 
L 312.025303 307.031429 
L 312.470882 307.562596 
L 312.91646 307.272608 
L 313.807617 307.260408 
L 314.253196 305.989227 
L 314.698774 307.177534 
L 315.144353 307.110797 
L 315.589931 307.365399 
L 316.03551 307.414651 
L 316.481088 307.192788 
L 316.926666 307.128523 
L 318.70898 307.345807 
L 319.154559 306.787594 
L 319.600137 307.570282 
L 320.045716 307.482564 
L 320.491294 307.019749 
L 320.936873 306.939397 
L 321.382451 307.071966 
L 321.82803 307.5037 
L 322.273608 307.286 
L 322.719186 307.569177 
L 323.164765 307.519794 
L 323.610343 307.164147 
L 324.055922 306.377298 
L 324.5015 307.42818 
L 324.947079 307.455104 
L 325.392657 307.016987 
L 325.838236 306.262172 
L 326.283814 307.544577 
L 326.729393 307.143824 
L 327.174971 307.392011 
L 328.066128 307.424641 
L 328.511707 307.363425 
L 328.957285 307.457705 
L 329.402863 306.923372 
L 329.848442 307.4364 
L 330.29402 307.141754 
L 330.739599 307.491577 
L 331.185177 307.176424 
L 331.630756 307.553269 
L 332.076334 307.168337 
L 332.521913 307.537362 
L 332.967491 307.465501 
L 333.41307 306.850739 
L 333.858648 307.245892 
L 334.304227 307.23745 
L 334.749805 307.502962 
L 335.195384 305.99523 
L 336.08654 307.118708 
L 336.532119 307.222707 
L 336.977697 307.502979 
L 337.423276 307.536353 
L 337.868854 307.227381 
L 338.314433 307.363319 
L 339.20559 307.320956 
L 339.651168 307.208257 
L 340.096747 307.406923 
L 340.542325 307.190415 
L 340.987904 307.140675 
L 341.87906 307.525697 
L 342.770217 307.312561 
L 343.661374 306.31164 
L 344.106953 307.279257 
L 344.552531 306.884982 
L 344.99811 306.807018 
L 345.443688 307.55075 
L 345.889267 307.030805 
L 346.334845 307.228718 
L 346.780424 306.939581 
L 347.226002 307.214902 
L 347.671581 306.809267 
L 348.117159 307.499271 
L 348.562737 307.436736 
L 349.008316 306.965832 
L 349.453894 307.395794 
L 349.899473 306.736117 
L 350.345051 307.53305 
L 350.79063 307.355305 
L 351.236208 306.861778 
L 351.681787 307.373223 
L 352.572944 307.004953 
L 353.018522 307.378444 
L 353.464101 307.39519 
L 353.909679 307.547295 
L 354.355257 306.544642 
L 354.800836 307.564389 
L 355.246414 307.245024 
L 355.691993 307.504419 
L 356.137571 307.178765 
L 356.58315 307.480037 
L 357.028728 307.067207 
L 357.474307 307.519316 
L 358.365464 307.458414 
L 358.811042 307.308598 
L 359.256621 307.517236 
L 360.147778 306.876672 
L 361.038934 307.44225 
L 361.930091 307.560479 
L 362.37567 307.278586 
L 363.266827 307.229963 
L 363.712405 307.436405 
L 364.157984 307.390556 
L 364.603562 306.961719 
L 365.049141 307.411794 
L 365.494719 307.265398 
L 365.940298 306.771392 
L 366.831455 307.295646 
L 367.277033 307.443171 
L 367.722611 305.778587 
L 368.16819 307.570916 
L 368.613768 306.705226 
L 369.059347 307.446116 
L 369.504925 307.529017 
L 369.950504 306.827822 
L 370.396082 307.350384 
L 370.841661 307.43841 
L 371.287239 306.966616 
L 371.732818 307.227121 
L 372.623975 307.284336 
L 373.069553 307.085838 
L 373.515131 307.371478 
L 373.96071 307.283919 
L 374.406288 307.376993 
L 374.851867 307.120611 
L 375.297445 307.463124 
L 375.743024 307.088911 
L 376.188602 307.081013 
L 376.634181 307.539199 
L 377.525338 307.306217 
L 377.970916 307.555097 
L 378.416495 307.291734 
L 378.862073 307.54838 
L 379.307652 307.445344 
L 379.75323 307.507909 
L 380.198808 306.347721 
L 380.644387 307.248437 
L 381.089965 306.96825 
L 381.981122 307.417956 
L 382.426701 306.740179 
L 383.317858 307.550984 
L 383.763436 307.269444 
L 384.209015 307.186204 
L 384.654593 306.661154 
L 385.100172 307.255146 
L 385.54575 307.480386 
L 385.991328 307.296438 
L 386.436907 306.804493 
L 386.882485 307.30956 
L 388.664799 307.467753 
L 389.110378 307.337481 
L 389.555956 307.538481 
L 390.447113 307.398821 
L 390.892692 307.050888 
L 391.33827 307.566077 
L 391.783849 306.832055 
L 392.229427 307.570872 
L 392.675005 307.514012 
L 393.120584 307.041778 
L 394.011741 307.583321 
L 394.457319 307.325554 
L 395.348476 307.544509 
L 395.794055 307.400185 
L 396.239633 307.500402 
L 396.685212 307.154617 
L 397.13079 307.388678 
L 398.021947 307.268351 
L 398.913104 307.43439 
L 399.358682 307.065687 
L 399.804261 307.515276 
L 400.249839 307.568047 
L 400.695418 307.183511 
L 401.140996 307.446353 
L 401.586575 307.527091 
L 402.032153 307.245306 
L 402.477732 306.428902 
L 402.92331 307.299058 
L 403.368889 307.489996 
L 404.260046 307.539563 
L 404.705624 307.221079 
L 405.151202 307.235506 
L 405.596781 307.491795 
L 406.042359 307.319986 
L 406.933516 307.509319 
L 407.379095 306.855066 
L 407.824673 307.352489 
L 408.270252 306.515693 
L 408.71583 307.350813 
L 409.161409 307.503942 
L 409.606987 307.500264 
L 410.052566 307.25287 
L 410.498144 307.527336 
L 411.389301 307.429437 
L 411.834879 307.578774 
L 412.280458 306.707961 
L 412.726036 307.389016 
L 413.171615 307.537234 
L 413.617193 307.19116 
L 414.062772 307.48549 
L 414.50835 307.396812 
L 414.953929 307.560729 
L 414.953929 307.560729 
" style="fill:none;stroke:#000000;stroke-linecap:square;stroke-width:1.5;"/>
   </g>
   <g id="line2d_17">
    <path clip-path="url(#p54f4555d45)" d="M 58.19791 -1 
L 58.491101 248.007321 
L 58.936652 168.462621 
L 59.379078 -1 
M 59.383929 -1 
L 59.827753 306.633982 
L 60.273304 265.032866 
L 60.718855 238.811442 
L 61.164405 302.809912 
L 61.609956 122.335929 
L 62.055507 286.155999 
L 62.501057 231.289053 
L 62.946608 284.895076 
L 63.392159 274.082522 
L 63.837709 298.786455 
L 64.28326 294.741682 
L 64.728811 294.803312 
L 65.174361 199.277424 
L 65.619912 299.968529 
L 66.065463 295.027708 
L 66.511013 303.439364 
L 66.956564 292.507949 
L 67.402115 302.568548 
L 67.847665 289.808008 
L 68.293216 296.061742 
L 68.738767 307.516808 
L 69.184317 280.804376 
L 69.629868 272.104574 
L 70.075419 307.25212 
L 70.520969 297.905583 
L 70.96652 283.278309 
L 71.412071 299.71039 
L 71.857621 293.993056 
L 72.303172 271.938068 
L 72.748723 300.86775 
L 73.194273 302.777606 
L 73.639824 264.427063 
L 74.085375 291.948796 
L 74.530925 270.457701 
L 74.976476 298.49271 
L 75.422027 296.060097 
L 75.867577 294.833368 
L 76.313128 279.376528 
L 76.758679 304.063741 
L 77.204229 290.620396 
L 77.64978 299.841896 
L 78.095331 252.00184 
L 78.540881 297.016363 
L 78.986432 296.47503 
L 79.431983 303.630606 
L 79.877533 304.441403 
L 80.323084 307.375857 
L 80.768635 307.500677 
L 81.214185 307.144007 
L 81.659736 307.395247 
L 82.550837 307.51027 
L 115.076036 307.573589 
L 414.931637 307.583743 
L 414.931637 307.583743 
" style="fill:none;stroke:#008000;stroke-linecap:square;stroke-width:1.5;"/>
   </g>
   <g id="line2d_18">
    <path clip-path="url(#p54f4555d45)" d="M 57.154449 307.577929 
L 57.6 307.538109 
L 58.045551 307.577929 
L 91.0163 307.549671 
L 91.461851 307.380872 
L 91.907402 307.537616 
L 92.352952 307.259643 
L 92.798503 306.769926 
L 93.244054 301.826201 
L 93.689604 298.140026 
L 94.580706 307.436664 
L 95.026256 301.284595 
L 95.471807 286.046403 
L 95.917358 295.944277 
L 96.362908 299.747945 
L 96.808459 279.976453 
L 97.25401 304.472794 
L 97.69956 255.325198 
L 98.145111 287.083633 
L 98.590662 298.290536 
L 99.036212 288.540618 
L 99.481763 298.812734 
L 100.372864 260.797592 
L 100.818415 270.377428 
L 101.263966 284.012251 
L 101.709516 255.802323 
L 102.155067 289.778566 
L 102.600618 288.571422 
L 103.046168 297.664472 
L 103.93727 278.716001 
L 104.38282 295.277593 
L 104.828371 230.916142 
L 105.273922 284.760149 
L 105.719472 60.925798 
L 106.165023 194.794083 
L 106.610574 264.110843 
L 107.056124 305.440153 
L 107.501675 253.101286 
L 107.947226 148.100695 
L 108.392776 233.309632 
L 109.283878 249.174714 
L 109.729428 41.472 
L 110.174979 303.861161 
L 110.62053 302.084063 
L 111.06608 186.881216 
L 111.957182 278.725053 
L 112.402732 299.57732 
L 112.848283 247.817033 
L 113.293834 221.426533 
L 113.739384 280.261789 
L 114.184935 200.274317 
L 114.630486 260.147684 
L 115.076036 272.909474 
L 115.521587 289.151749 
L 115.967138 294.208158 
L 116.412688 283.737747 
L 116.858239 270.358109 
L 117.30379 295.516237 
L 117.74934 288.662412 
L 118.194891 274.295841 
L 118.640442 283.442037 
L 119.085992 269.438999 
L 119.531543 301.178196 
L 119.977094 293.09516 
L 120.422644 260.970082 
L 120.868195 301.367973 
L 121.313746 228.087665 
L 121.759296 282.702053 
L 122.204847 295.358069 
L 122.650398 293.832759 
L 123.095948 307.12171 
L 123.541499 306.321531 
L 123.98705 286.956077 
L 124.878151 292.954118 
L 125.323702 303.703401 
L 125.769252 302.090733 
L 126.214803 278.274765 
L 126.660354 302.666264 
L 127.105904 307.54287 
L 127.551455 292.444572 
L 127.997006 303.24215 
L 128.442556 305.971211 
L 128.888107 302.404615 
L 129.333658 303.12093 
L 129.779208 298.924369 
L 130.224759 299.548567 
L 130.67031 304.298033 
L 131.11586 303.68227 
L 131.561411 301.558403 
L 132.006962 300.42246 
L 132.452512 300.353966 
L 132.898063 296.914514 
L 133.343614 301.823602 
L 133.789164 301.9351 
L 134.234715 294.54059 
L 134.680266 307.171101 
L 135.125816 305.802702 
L 135.571367 302.535896 
L 136.016918 300.785026 
L 136.462468 307.285448 
L 136.908019 307.172831 
L 137.35357 307.386499 
L 137.79912 307.07482 
L 138.244671 307.555858 
L 146.710134 307.577399 
L 313.791635 307.583695 
L 414.931637 307.58385 
L 414.931637 307.58385 
" style="fill:none;stroke:#0000ff;stroke-linecap:square;stroke-width:1.5;"/>
   </g>
   <g id="patch_3">
    <path d="M 57.6 307.584 
L 57.6 41.472 
" style="fill:none;stroke:#000000;stroke-linecap:square;stroke-linejoin:miter;stroke-width:0.8;"/>
   </g>
   <g id="patch_4">
    <path d="M 414.72 307.584 
L 414.72 41.472 
" style="fill:none;stroke:#000000;stroke-linecap:square;stroke-linejoin:miter;stroke-width:0.8;"/>
   </g>
   <g id="patch_5">
    <path d="M 57.6 307.584 
L 414.72 307.584 
" style="fill:none;stroke:#000000;stroke-linecap:square;stroke-linejoin:miter;stroke-width:0.8;"/>
   </g>
   <g id="patch_6">
    <path d="M 57.6 41.472 
L 414.72 41.472 
" style="fill:none;stroke:#000000;stroke-linecap:square;stroke-linejoin:miter;stroke-width:0.8;"/>
   </g>
   <g id="legend_1">
    <g id="patch_7">
     <path d="M 305.66 124.727 
L 403.52 124.727 
Q 406.72 124.727 406.72 121.527 
L 406.72 52.672 
Q 406.72 49.472 403.52 49.472 
L 305.66 49.472 
Q 302.46 49.472 302.46 52.672 
L 302.46 121.527 
Q 302.46 124.727 305.66 124.727 
z
" style="fill:#ffffff;opacity:0.8;stroke:#cccccc;stroke-linejoin:miter;"/>
    </g>
    <g id="line2d_19">
     <path d="M 308.86 62.4295 
L 340.86 62.4295 
" style="fill:none;stroke:#000000;stroke-linecap:square;stroke-width:1.5;"/>
    </g>
    <g id="line2d_20"/>
    <g id="text_19">
     <!-- V -->
     <defs>
      <path d="M 28.609375 0 
L 0.78125 72.90625 
L 11.078125 72.90625 
L 34.1875 11.53125 
L 57.328125 72.90625 
L 67.578125 72.90625 
L 39.796875 0 
z
" id="DejaVuSans-56"/>
     </defs>
     <g transform="translate(353.66 68.0295)scale(0.16 -0.16)">
      <use xlink:href="#DejaVuSans-56"/>
     </g>
    </g>
    <g id="line2d_21">
     <path d="M 308.86 85.9145 
L 340.86 85.9145 
" style="fill:none;stroke:#008000;stroke-linecap:square;stroke-width:1.5;"/>
    </g>
    <g id="line2d_22"/>
    <g id="text_20">
     <!-- Ramp -->
     <defs>
      <path d="M 44.390625 34.1875 
Q 47.5625 33.109375 50.5625 29.59375 
Q 53.5625 26.078125 56.59375 19.921875 
L 66.609375 0 
L 56 0 
L 46.6875 18.703125 
Q 43.0625 26.03125 39.671875 28.421875 
Q 36.28125 30.8125 30.421875 30.8125 
L 19.671875 30.8125 
L 19.671875 0 
L 9.8125 0 
L 9.8125 72.90625 
L 32.078125 72.90625 
Q 44.578125 72.90625 50.734375 67.671875 
Q 56.890625 62.453125 56.890625 51.90625 
Q 56.890625 45.015625 53.6875 40.46875 
Q 50.484375 35.9375 44.390625 34.1875 
z
M 19.671875 64.796875 
L 19.671875 38.921875 
L 32.078125 38.921875 
Q 39.203125 38.921875 42.84375 42.21875 
Q 46.484375 45.515625 46.484375 51.90625 
Q 46.484375 58.296875 42.84375 61.546875 
Q 39.203125 64.796875 32.078125 64.796875 
z
" id="DejaVuSans-52"/>
      <path d="M 34.28125 27.484375 
Q 23.390625 27.484375 19.1875 25 
Q 14.984375 22.515625 14.984375 16.5 
Q 14.984375 11.71875 18.140625 8.90625 
Q 21.296875 6.109375 26.703125 6.109375 
Q 34.1875 6.109375 38.703125 11.40625 
Q 43.21875 16.703125 43.21875 25.484375 
L 43.21875 27.484375 
z
M 52.203125 31.203125 
L 52.203125 0 
L 43.21875 0 
L 43.21875 8.296875 
Q 40.140625 3.328125 35.546875 0.953125 
Q 30.953125 -1.421875 24.3125 -1.421875 
Q 15.921875 -1.421875 10.953125 3.296875 
Q 6 8.015625 6 15.921875 
Q 6 25.140625 12.171875 29.828125 
Q 18.359375 34.515625 30.609375 34.515625 
L 43.21875 34.515625 
L 43.21875 35.40625 
Q 43.21875 41.609375 39.140625 45 
Q 35.0625 48.390625 27.6875 48.390625 
Q 23 48.390625 18.546875 47.265625 
Q 14.109375 46.140625 10.015625 43.890625 
L 10.015625 52.203125 
Q 14.9375 54.109375 19.578125 55.046875 
Q 24.21875 56 28.609375 56 
Q 40.484375 56 46.34375 49.84375 
Q 52.203125 43.703125 52.203125 31.203125 
z
" id="DejaVuSans-61"/>
      <path d="M 52 44.1875 
Q 55.375 50.25 60.0625 53.125 
Q 64.75 56 71.09375 56 
Q 79.640625 56 84.28125 50.015625 
Q 88.921875 44.046875 88.921875 33.015625 
L 88.921875 0 
L 79.890625 0 
L 79.890625 32.71875 
Q 79.890625 40.578125 77.09375 44.375 
Q 74.3125 48.1875 68.609375 48.1875 
Q 61.625 48.1875 57.5625 43.546875 
Q 53.515625 38.921875 53.515625 30.90625 
L 53.515625 0 
L 44.484375 0 
L 44.484375 32.71875 
Q 44.484375 40.625 41.703125 44.40625 
Q 38.921875 48.1875 33.109375 48.1875 
Q 26.21875 48.1875 22.15625 43.53125 
Q 18.109375 38.875 18.109375 30.90625 
L 18.109375 0 
L 9.078125 0 
L 9.078125 54.6875 
L 18.109375 54.6875 
L 18.109375 46.1875 
Q 21.1875 51.21875 25.484375 53.609375 
Q 29.78125 56 35.6875 56 
Q 41.65625 56 45.828125 52.96875 
Q 50 49.953125 52 44.1875 
z
" id="DejaVuSans-6d"/>
      <path d="M 18.109375 8.203125 
L 18.109375 -20.796875 
L 9.078125 -20.796875 
L 9.078125 54.6875 
L 18.109375 54.6875 
L 18.109375 46.390625 
Q 20.953125 51.265625 25.265625 53.625 
Q 29.59375 56 35.59375 56 
Q 45.5625 56 51.78125 48.09375 
Q 58.015625 40.1875 58.015625 27.296875 
Q 58.015625 14.40625 51.78125 6.484375 
Q 45.5625 -1.421875 35.59375 -1.421875 
Q 29.59375 -1.421875 25.265625 0.953125 
Q 20.953125 3.328125 18.109375 8.203125 
z
M 48.6875 27.296875 
Q 48.6875 37.203125 44.609375 42.84375 
Q 40.53125 48.484375 33.40625 48.484375 
Q 26.265625 48.484375 22.1875 42.84375 
Q 18.109375 37.203125 18.109375 27.296875 
Q 18.109375 17.390625 22.1875 11.75 
Q 26.265625 6.109375 33.40625 6.109375 
Q 40.53125 6.109375 44.609375 11.75 
Q 48.6875 17.390625 48.6875 27.296875 
z
" id="DejaVuSans-70"/>
     </defs>
     <g transform="translate(353.66 91.5145)scale(0.16 -0.16)">
      <use xlink:href="#DejaVuSans-52"/>
      <use x="69.451172" xlink:href="#DejaVuSans-61"/>
      <use x="130.730469" xlink:href="#DejaVuSans-6d"/>
      <use x="228.142578" xlink:href="#DejaVuSans-70"/>
     </g>
    </g>
    <g id="line2d_23">
     <path d="M 308.86 109.3995 
L 340.86 109.3995 
" style="fill:none;stroke:#0000ff;stroke-linecap:square;stroke-width:1.5;"/>
    </g>
    <g id="line2d_24"/>
    <g id="text_21">
     <!-- Theta -->
     <defs>
      <path d="M -0.296875 72.90625 
L 61.375 72.90625 
L 61.375 64.59375 
L 35.5 64.59375 
L 35.5 0 
L 25.59375 0 
L 25.59375 64.59375 
L -0.296875 64.59375 
z
" id="DejaVuSans-54"/>
      <path d="M 54.890625 33.015625 
L 54.890625 0 
L 45.90625 0 
L 45.90625 32.71875 
Q 45.90625 40.484375 42.875 44.328125 
Q 39.84375 48.1875 33.796875 48.1875 
Q 26.515625 48.1875 22.3125 43.546875 
Q 18.109375 38.921875 18.109375 30.90625 
L 18.109375 0 
L 9.078125 0 
L 9.078125 75.984375 
L 18.109375 75.984375 
L 18.109375 46.1875 
Q 21.34375 51.125 25.703125 53.5625 
Q 30.078125 56 35.796875 56 
Q 45.21875 56 50.046875 50.171875 
Q 54.890625 44.34375 54.890625 33.015625 
z
" id="DejaVuSans-68"/>
      <path d="M 18.3125 70.21875 
L 18.3125 54.6875 
L 36.8125 54.6875 
L 36.8125 47.703125 
L 18.3125 47.703125 
L 18.3125 18.015625 
Q 18.3125 11.328125 20.140625 9.421875 
Q 21.96875 7.515625 27.59375 7.515625 
L 36.8125 7.515625 
L 36.8125 0 
L 27.59375 0 
Q 17.1875 0 13.234375 3.875 
Q 9.28125 7.765625 9.28125 18.015625 
L 9.28125 47.703125 
L 2.6875 47.703125 
L 2.6875 54.6875 
L 9.28125 54.6875 
L 9.28125 70.21875 
z
" id="DejaVuSans-74"/>
     </defs>
     <g transform="translate(353.66 114.9995)scale(0.16 -0.16)">
      <use xlink:href="#DejaVuSans-54"/>
      <use x="61.083984" xlink:href="#DejaVuSans-68"/>
      <use x="124.462891" xlink:href="#DejaVuSans-65"/>
      <use x="185.986328" xlink:href="#DejaVuSans-74"/>
      <use x="225.195312" xlink:href="#DejaVuSans-61"/>
     </g>
    </g>
   </g>
  </g>
 </g>
 <defs>
  <clipPath id="p54f4555d45">
   <rect height="266.112" width="357.12" x="57.6" y="41.472"/>
  </clipPath>
 </defs>
</svg>
