<?xml version="1.0" encoding="utf-8" standalone="no"?>
<!DOCTYPE svg PUBLIC "-//W3C//DTD SVG 1.1//EN"
  "http://www.w3.org/Graphics/SVG/1.1/DTD/svg11.dtd">
<!-- Created with matplotlib (http://matplotlib.org/) -->
<svg height="345pt" version="1.1" viewBox="0 0 460 345" width="460pt" xmlns="http://www.w3.org/2000/svg" xmlns:xlink="http://www.w3.org/1999/xlink">
 <defs>
  <style type="text/css">
*{stroke-linecap:butt;stroke-linejoin:round;}
  </style>
 </defs>
 <g id="figure_1">
  <g id="patch_1">
   <path d="M 0 345.6 
L 460.8 345.6 
L 460.8 0 
L 0 0 
z
" style="fill:#ffffff;"/>
  </g>
  <g id="axes_1">
   <g id="patch_2">
    <path d="M 57.6 307.584 
L 414.72 307.584 
L 414.72 41.472 
L 57.6 41.472 
z
" style="fill:#ffffff;"/>
   </g>
   <g id="matplotlib.axis_1">
    <g id="xtick_1">
     <g id="line2d_1">
      <defs>
       <path d="M 0 0 
L 0 3.5 
" id="m416dd18893" style="stroke:#000000;stroke-width:0.8;"/>
      </defs>
      <g>
       <use style="stroke:#000000;stroke-width:0.8;" x="73.832727" xlink:href="#m416dd18893" y="307.584"/>
      </g>
     </g>
     <g id="text_1">
      <!-- 0 -->
      <defs>
       <path d="M 31.78125 66.40625 
Q 24.171875 66.40625 20.328125 58.90625 
Q 16.5 51.421875 16.5 36.375 
Q 16.5 21.390625 20.328125 13.890625 
Q 24.171875 6.390625 31.78125 6.390625 
Q 39.453125 6.390625 43.28125 13.890625 
Q 47.125 21.390625 47.125 36.375 
Q 47.125 51.421875 43.28125 58.90625 
Q 39.453125 66.40625 31.78125 66.40625 
z
M 31.78125 74.21875 
Q 44.046875 74.21875 50.515625 64.515625 
Q 56.984375 54.828125 56.984375 36.375 
Q 56.984375 17.96875 50.515625 8.265625 
Q 44.046875 -1.421875 31.78125 -1.421875 
Q 19.53125 -1.421875 13.0625 8.265625 
Q 6.59375 17.96875 6.59375 36.375 
Q 6.59375 54.828125 13.0625 64.515625 
Q 19.53125 74.21875 31.78125 74.21875 
z
" id="DejaVuSans-30"/>
      </defs>
      <g transform="translate(70.651477 322.182437)scale(0.1 -0.1)">
       <use xlink:href="#DejaVuSans-30"/>
      </g>
     </g>
    </g>
    <g id="xtick_2">
     <g id="line2d_2">
      <g>
       <use style="stroke:#000000;stroke-width:0.8;" x="148.949466" xlink:href="#m416dd18893" y="307.584"/>
      </g>
     </g>
     <g id="text_2">
      <!-- 1000 -->
      <defs>
       <path d="M 12.40625 8.296875 
L 28.515625 8.296875 
L 28.515625 63.921875 
L 10.984375 60.40625 
L 10.984375 69.390625 
L 28.421875 72.90625 
L 38.28125 72.90625 
L 38.28125 8.296875 
L 54.390625 8.296875 
L 54.390625 0 
L 12.40625 0 
z
" id="DejaVuSans-31"/>
      </defs>
      <g transform="translate(136.224466 322.182437)scale(0.1 -0.1)">
       <use xlink:href="#DejaVuSans-31"/>
       <use x="63.623047" xlink:href="#DejaVuSans-30"/>
       <use x="127.246094" xlink:href="#DejaVuSans-30"/>
       <use x="190.869141" xlink:href="#DejaVuSans-30"/>
      </g>
     </g>
    </g>
    <g id="xtick_3">
     <g id="line2d_3">
      <g>
       <use style="stroke:#000000;stroke-width:0.8;" x="224.066205" xlink:href="#m416dd18893" y="307.584"/>
      </g>
     </g>
     <g id="text_3">
      <!-- 2000 -->
      <defs>
       <path d="M 19.1875 8.296875 
L 53.609375 8.296875 
L 53.609375 0 
L 7.328125 0 
L 7.328125 8.296875 
Q 12.9375 14.109375 22.625 23.890625 
Q 32.328125 33.6875 34.8125 36.53125 
Q 39.546875 41.84375 41.421875 45.53125 
Q 43.3125 49.21875 43.3125 52.78125 
Q 43.3125 58.59375 39.234375 62.25 
Q 35.15625 65.921875 28.609375 65.921875 
Q 23.96875 65.921875 18.8125 64.3125 
Q 13.671875 62.703125 7.8125 59.421875 
L 7.8125 69.390625 
Q 13.765625 71.78125 18.9375 73 
Q 24.125 74.21875 28.421875 74.21875 
Q 39.75 74.21875 46.484375 68.546875 
Q 53.21875 62.890625 53.21875 53.421875 
Q 53.21875 48.921875 51.53125 44.890625 
Q 49.859375 40.875 45.40625 35.40625 
Q 44.1875 33.984375 37.640625 27.21875 
Q 31.109375 20.453125 19.1875 8.296875 
z
" id="DejaVuSans-32"/>
      </defs>
      <g transform="translate(211.341205 322.182437)scale(0.1 -0.1)">
       <use xlink:href="#DejaVuSans-32"/>
       <use x="63.623047" xlink:href="#DejaVuSans-30"/>
       <use x="127.246094" xlink:href="#DejaVuSans-30"/>
       <use x="190.869141" xlink:href="#DejaVuSans-30"/>
      </g>
     </g>
    </g>
    <g id="xtick_4">
     <g id="line2d_4">
      <g>
       <use style="stroke:#000000;stroke-width:0.8;" x="299.182944" xlink:href="#m416dd18893" y="307.584"/>
      </g>
     </g>
     <g id="text_4">
      <!-- 3000 -->
      <defs>
       <path d="M 40.578125 39.3125 
Q 47.65625 37.796875 51.625 33 
Q 55.609375 28.21875 55.609375 21.1875 
Q 55.609375 10.40625 48.1875 4.484375 
Q 40.765625 -1.421875 27.09375 -1.421875 
Q 22.515625 -1.421875 17.65625 -0.515625 
Q 12.796875 0.390625 7.625 2.203125 
L 7.625 11.71875 
Q 11.71875 9.328125 16.59375 8.109375 
Q 21.484375 6.890625 26.8125 6.890625 
Q 36.078125 6.890625 40.9375 10.546875 
Q 45.796875 14.203125 45.796875 21.1875 
Q 45.796875 27.640625 41.28125 31.265625 
Q 36.765625 34.90625 28.71875 34.90625 
L 20.21875 34.90625 
L 20.21875 43.015625 
L 29.109375 43.015625 
Q 36.375 43.015625 40.234375 45.921875 
Q 44.09375 48.828125 44.09375 54.296875 
Q 44.09375 59.90625 40.109375 62.90625 
Q 36.140625 65.921875 28.71875 65.921875 
Q 24.65625 65.921875 20.015625 65.03125 
Q 15.375 64.15625 9.8125 62.3125 
L 9.8125 71.09375 
Q 15.4375 72.65625 20.34375 73.4375 
Q 25.25 74.21875 29.59375 74.21875 
Q 40.828125 74.21875 47.359375 69.109375 
Q 53.90625 64.015625 53.90625 55.328125 
Q 53.90625 49.265625 50.4375 45.09375 
Q 46.96875 40.921875 40.578125 39.3125 
z
" id="DejaVuSans-33"/>
      </defs>
      <g transform="translate(286.457944 322.182437)scale(0.1 -0.1)">
       <use xlink:href="#DejaVuSans-33"/>
       <use x="63.623047" xlink:href="#DejaVuSans-30"/>
       <use x="127.246094" xlink:href="#DejaVuSans-30"/>
       <use x="190.869141" xlink:href="#DejaVuSans-30"/>
      </g>
     </g>
    </g>
    <g id="xtick_5">
     <g id="line2d_5">
      <g>
       <use style="stroke:#000000;stroke-width:0.8;" x="374.299683" xlink:href="#m416dd18893" y="307.584"/>
      </g>
     </g>
     <g id="text_5">
      <!-- 4000 -->
      <defs>
       <path d="M 37.796875 64.3125 
L 12.890625 25.390625 
L 37.796875 25.390625 
z
M 35.203125 72.90625 
L 47.609375 72.90625 
L 47.609375 25.390625 
L 58.015625 25.390625 
L 58.015625 17.1875 
L 47.609375 17.1875 
L 47.609375 0 
L 37.796875 0 
L 37.796875 17.1875 
L 4.890625 17.1875 
L 4.890625 26.703125 
z
" id="DejaVuSans-34"/>
      </defs>
      <g transform="translate(361.574683 322.182437)scale(0.1 -0.1)">
       <use xlink:href="#DejaVuSans-34"/>
       <use x="63.623047" xlink:href="#DejaVuSans-30"/>
       <use x="127.246094" xlink:href="#DejaVuSans-30"/>
       <use x="190.869141" xlink:href="#DejaVuSans-30"/>
      </g>
     </g>
    </g>
    <g id="text_6">
     <!-- Time (ms) -->
     <defs>
      <path d="M -0.296875 72.90625 
L 61.375 72.90625 
L 61.375 64.59375 
L 35.5 64.59375 
L 35.5 0 
L 25.59375 0 
L 25.59375 64.59375 
L -0.296875 64.59375 
z
" id="DejaVuSans-54"/>
      <path d="M 9.421875 54.6875 
L 18.40625 54.6875 
L 18.40625 0 
L 9.421875 0 
z
M 9.421875 75.984375 
L 18.40625 75.984375 
L 18.40625 64.59375 
L 9.421875 64.59375 
z
" id="DejaVuSans-69"/>
      <path d="M 52 44.1875 
Q 55.375 50.25 60.0625 53.125 
Q 64.75 56 71.09375 56 
Q 79.640625 56 84.28125 50.015625 
Q 88.921875 44.046875 88.921875 33.015625 
L 88.921875 0 
L 79.890625 0 
L 79.890625 32.71875 
Q 79.890625 40.578125 77.09375 44.375 
Q 74.3125 48.1875 68.609375 48.1875 
Q 61.625 48.1875 57.5625 43.546875 
Q 53.515625 38.921875 53.515625 30.90625 
L 53.515625 0 
L 44.484375 0 
L 44.484375 32.71875 
Q 44.484375 40.625 41.703125 44.40625 
Q 38.921875 48.1875 33.109375 48.1875 
Q 26.21875 48.1875 22.15625 43.53125 
Q 18.109375 38.875 18.109375 30.90625 
L 18.109375 0 
L 9.078125 0 
L 9.078125 54.6875 
L 18.109375 54.6875 
L 18.109375 46.1875 
Q 21.1875 51.21875 25.484375 53.609375 
Q 29.78125 56 35.6875 56 
Q 41.65625 56 45.828125 52.96875 
Q 50 49.953125 52 44.1875 
z
" id="DejaVuSans-6d"/>
      <path d="M 56.203125 29.59375 
L 56.203125 25.203125 
L 14.890625 25.203125 
Q 15.484375 15.921875 20.484375 11.0625 
Q 25.484375 6.203125 34.421875 6.203125 
Q 39.59375 6.203125 44.453125 7.46875 
Q 49.3125 8.734375 54.109375 11.28125 
L 54.109375 2.78125 
Q 49.265625 0.734375 44.1875 -0.34375 
Q 39.109375 -1.421875 33.890625 -1.421875 
Q 20.796875 -1.421875 13.15625 6.1875 
Q 5.515625 13.8125 5.515625 26.8125 
Q 5.515625 40.234375 12.765625 48.109375 
Q 20.015625 56 32.328125 56 
Q 43.359375 56 49.78125 48.890625 
Q 56.203125 41.796875 56.203125 29.59375 
z
M 47.21875 32.234375 
Q 47.125 39.59375 43.09375 43.984375 
Q 39.0625 48.390625 32.421875 48.390625 
Q 24.90625 48.390625 20.390625 44.140625 
Q 15.875 39.890625 15.1875 32.171875 
z
" id="DejaVuSans-65"/>
      <path id="DejaVuSans-20"/>
      <path d="M 31 75.875 
Q 24.46875 64.65625 21.28125 53.65625 
Q 18.109375 42.671875 18.109375 31.390625 
Q 18.109375 20.125 21.3125 9.0625 
Q 24.515625 -2 31 -13.1875 
L 23.1875 -13.1875 
Q 15.875 -1.703125 12.234375 9.375 
Q 8.59375 20.453125 8.59375 31.390625 
Q 8.59375 42.28125 12.203125 53.3125 
Q 15.828125 64.359375 23.1875 75.875 
z
" id="DejaVuSans-28"/>
      <path d="M 44.28125 53.078125 
L 44.28125 44.578125 
Q 40.484375 46.53125 36.375 47.5 
Q 32.28125 48.484375 27.875 48.484375 
Q 21.1875 48.484375 17.84375 46.4375 
Q 14.5 44.390625 14.5 40.28125 
Q 14.5 37.15625 16.890625 35.375 
Q 19.28125 33.59375 26.515625 31.984375 
L 29.59375 31.296875 
Q 39.15625 29.25 43.1875 25.515625 
Q 47.21875 21.78125 47.21875 15.09375 
Q 47.21875 7.46875 41.1875 3.015625 
Q 35.15625 -1.421875 24.609375 -1.421875 
Q 20.21875 -1.421875 15.453125 -0.5625 
Q 10.6875 0.296875 5.421875 2 
L 5.421875 11.28125 
Q 10.40625 8.6875 15.234375 7.390625 
Q 20.0625 6.109375 24.8125 6.109375 
Q 31.15625 6.109375 34.5625 8.28125 
Q 37.984375 10.453125 37.984375 14.40625 
Q 37.984375 18.0625 35.515625 20.015625 
Q 33.0625 21.96875 24.703125 23.78125 
L 21.578125 24.515625 
Q 13.234375 26.265625 9.515625 29.90625 
Q 5.8125 33.546875 5.8125 39.890625 
Q 5.8125 47.609375 11.28125 51.796875 
Q 16.75 56 26.8125 56 
Q 31.78125 56 36.171875 55.265625 
Q 40.578125 54.546875 44.28125 53.078125 
z
" id="DejaVuSans-73"/>
      <path d="M 8.015625 75.875 
L 15.828125 75.875 
Q 23.140625 64.359375 26.78125 53.3125 
Q 30.421875 42.28125 30.421875 31.390625 
Q 30.421875 20.453125 26.78125 9.375 
Q 23.140625 -1.703125 15.828125 -13.1875 
L 8.015625 -13.1875 
Q 14.5 -2 17.703125 9.0625 
Q 20.90625 20.125 20.90625 31.390625 
Q 20.90625 42.671875 17.703125 53.65625 
Q 14.5 64.65625 8.015625 75.875 
z
" id="DejaVuSans-29"/>
     </defs>
     <g transform="translate(195.595 340.419625)scale(0.16 -0.16)">
      <use xlink:href="#DejaVuSans-54"/>
      <use x="61.037109" xlink:href="#DejaVuSans-69"/>
      <use x="88.820312" xlink:href="#DejaVuSans-6d"/>
      <use x="186.232422" xlink:href="#DejaVuSans-65"/>
      <use x="247.755859" xlink:href="#DejaVuSans-20"/>
      <use x="279.542969" xlink:href="#DejaVuSans-28"/>
      <use x="318.556641" xlink:href="#DejaVuSans-6d"/>
      <use x="415.96875" xlink:href="#DejaVuSans-73"/>
      <use x="468.068359" xlink:href="#DejaVuSans-29"/>
     </g>
    </g>
   </g>
   <g id="matplotlib.axis_2">
    <g id="ytick_1">
     <g id="line2d_6">
      <defs>
       <path d="M 0 0 
L -3.5 0 
" id="mfdd802e3df" style="stroke:#000000;stroke-width:0.8;"/>
      </defs>
      <g>
       <use style="stroke:#000000;stroke-width:0.8;" x="57.6" xlink:href="#mfdd802e3df" y="266.139212"/>
      </g>
     </g>
     <g id="text_7">
      <!-- −70 -->
      <defs>
       <path d="M 10.59375 35.5 
L 73.1875 35.5 
L 73.1875 27.203125 
L 10.59375 27.203125 
z
" id="DejaVuSans-2212"/>
       <path d="M 8.203125 72.90625 
L 55.078125 72.90625 
L 55.078125 68.703125 
L 28.609375 0 
L 18.3125 0 
L 43.21875 64.59375 
L 8.203125 64.59375 
z
" id="DejaVuSans-37"/>
      </defs>
      <g transform="translate(29.495313 269.938431)scale(0.1 -0.1)">
       <use xlink:href="#DejaVuSans-2212"/>
       <use x="83.789062" xlink:href="#DejaVuSans-37"/>
       <use x="147.412109" xlink:href="#DejaVuSans-30"/>
      </g>
     </g>
    </g>
    <g id="ytick_2">
     <g id="line2d_7">
      <g>
       <use style="stroke:#000000;stroke-width:0.8;" x="57.6" xlink:href="#mfdd802e3df" y="218.841685"/>
      </g>
     </g>
     <g id="text_8">
      <!-- −65 -->
      <defs>
       <path d="M 33.015625 40.375 
Q 26.375 40.375 22.484375 35.828125 
Q 18.609375 31.296875 18.609375 23.390625 
Q 18.609375 15.53125 22.484375 10.953125 
Q 26.375 6.390625 33.015625 6.390625 
Q 39.65625 6.390625 43.53125 10.953125 
Q 47.40625 15.53125 47.40625 23.390625 
Q 47.40625 31.296875 43.53125 35.828125 
Q 39.65625 40.375 33.015625 40.375 
z
M 52.59375 71.296875 
L 52.59375 62.3125 
Q 48.875 64.0625 45.09375 64.984375 
Q 41.3125 65.921875 37.59375 65.921875 
Q 27.828125 65.921875 22.671875 59.328125 
Q 17.53125 52.734375 16.796875 39.40625 
Q 19.671875 43.65625 24.015625 45.921875 
Q 28.375 48.1875 33.59375 48.1875 
Q 44.578125 48.1875 50.953125 41.515625 
Q 57.328125 34.859375 57.328125 23.390625 
Q 57.328125 12.15625 50.6875 5.359375 
Q 44.046875 -1.421875 33.015625 -1.421875 
Q 20.359375 -1.421875 13.671875 8.265625 
Q 6.984375 17.96875 6.984375 36.375 
Q 6.984375 53.65625 15.1875 63.9375 
Q 23.390625 74.21875 37.203125 74.21875 
Q 40.921875 74.21875 44.703125 73.484375 
Q 48.484375 72.75 52.59375 71.296875 
z
" id="DejaVuSans-36"/>
       <path d="M 10.796875 72.90625 
L 49.515625 72.90625 
L 49.515625 64.59375 
L 19.828125 64.59375 
L 19.828125 46.734375 
Q 21.96875 47.46875 24.109375 47.828125 
Q 26.265625 48.1875 28.421875 48.1875 
Q 40.625 48.1875 47.75 41.5 
Q 54.890625 34.8125 54.890625 23.390625 
Q 54.890625 11.625 47.5625 5.09375 
Q 40.234375 -1.421875 26.90625 -1.421875 
Q 22.3125 -1.421875 17.546875 -0.640625 
Q 12.796875 0.140625 7.71875 1.703125 
L 7.71875 11.625 
Q 12.109375 9.234375 16.796875 8.0625 
Q 21.484375 6.890625 26.703125 6.890625 
Q 35.15625 6.890625 40.078125 11.328125 
Q 45.015625 15.765625 45.015625 23.390625 
Q 45.015625 31 40.078125 35.4375 
Q 35.15625 39.890625 26.703125 39.890625 
Q 22.75 39.890625 18.8125 39.015625 
Q 14.890625 38.140625 10.796875 36.28125 
z
" id="DejaVuSans-35"/>
      </defs>
      <g transform="translate(29.495313 222.640903)scale(0.1 -0.1)">
       <use xlink:href="#DejaVuSans-2212"/>
       <use x="83.789062" xlink:href="#DejaVuSans-36"/>
       <use x="147.412109" xlink:href="#DejaVuSans-35"/>
      </g>
     </g>
    </g>
    <g id="ytick_3">
     <g id="line2d_8">
      <g>
       <use style="stroke:#000000;stroke-width:0.8;" x="57.6" xlink:href="#mfdd802e3df" y="171.544157"/>
      </g>
     </g>
     <g id="text_9">
      <!-- −60 -->
      <g transform="translate(29.495313 175.343376)scale(0.1 -0.1)">
       <use xlink:href="#DejaVuSans-2212"/>
       <use x="83.789062" xlink:href="#DejaVuSans-36"/>
       <use x="147.412109" xlink:href="#DejaVuSans-30"/>
      </g>
     </g>
    </g>
    <g id="ytick_4">
     <g id="line2d_9">
      <g>
       <use style="stroke:#000000;stroke-width:0.8;" x="57.6" xlink:href="#mfdd802e3df" y="124.24663"/>
      </g>
     </g>
     <g id="text_10">
      <!-- −55 -->
      <g transform="translate(29.495313 128.045849)scale(0.1 -0.1)">
       <use xlink:href="#DejaVuSans-2212"/>
       <use x="83.789062" xlink:href="#DejaVuSans-35"/>
       <use x="147.412109" xlink:href="#DejaVuSans-35"/>
      </g>
     </g>
    </g>
    <g id="ytick_5">
     <g id="line2d_10">
      <g>
       <use style="stroke:#000000;stroke-width:0.8;" x="57.6" xlink:href="#mfdd802e3df" y="76.949102"/>
      </g>
     </g>
     <g id="text_11">
      <!-- −50 -->
      <g transform="translate(29.495313 80.748321)scale(0.1 -0.1)">
       <use xlink:href="#DejaVuSans-2212"/>
       <use x="83.789062" xlink:href="#DejaVuSans-35"/>
       <use x="147.412109" xlink:href="#DejaVuSans-30"/>
      </g>
     </g>
    </g>
    <g id="text_12">
     <!-- Voltage (mV) -->
     <defs>
      <path d="M 28.609375 0 
L 0.78125 72.90625 
L 11.078125 72.90625 
L 34.1875 11.53125 
L 57.328125 72.90625 
L 67.578125 72.90625 
L 39.796875 0 
z
" id="DejaVuSans-56"/>
      <path d="M 30.609375 48.390625 
Q 23.390625 48.390625 19.1875 42.75 
Q 14.984375 37.109375 14.984375 27.296875 
Q 14.984375 17.484375 19.15625 11.84375 
Q 23.34375 6.203125 30.609375 6.203125 
Q 37.796875 6.203125 41.984375 11.859375 
Q 46.1875 17.53125 46.1875 27.296875 
Q 46.1875 37.015625 41.984375 42.703125 
Q 37.796875 48.390625 30.609375 48.390625 
z
M 30.609375 56 
Q 42.328125 56 49.015625 48.375 
Q 55.71875 40.765625 55.71875 27.296875 
Q 55.71875 13.875 49.015625 6.21875 
Q 42.328125 -1.421875 30.609375 -1.421875 
Q 18.84375 -1.421875 12.171875 6.21875 
Q 5.515625 13.875 5.515625 27.296875 
Q 5.515625 40.765625 12.171875 48.375 
Q 18.84375 56 30.609375 56 
z
" id="DejaVuSans-6f"/>
      <path d="M 9.421875 75.984375 
L 18.40625 75.984375 
L 18.40625 0 
L 9.421875 0 
z
" id="DejaVuSans-6c"/>
      <path d="M 18.3125 70.21875 
L 18.3125 54.6875 
L 36.8125 54.6875 
L 36.8125 47.703125 
L 18.3125 47.703125 
L 18.3125 18.015625 
Q 18.3125 11.328125 20.140625 9.421875 
Q 21.96875 7.515625 27.59375 7.515625 
L 36.8125 7.515625 
L 36.8125 0 
L 27.59375 0 
Q 17.1875 0 13.234375 3.875 
Q 9.28125 7.765625 9.28125 18.015625 
L 9.28125 47.703125 
L 2.6875 47.703125 
L 2.6875 54.6875 
L 9.28125 54.6875 
L 9.28125 70.21875 
z
" id="DejaVuSans-74"/>
      <path d="M 34.28125 27.484375 
Q 23.390625 27.484375 19.1875 25 
Q 14.984375 22.515625 14.984375 16.5 
Q 14.984375 11.71875 18.140625 8.90625 
Q 21.296875 6.109375 26.703125 6.109375 
Q 34.1875 6.109375 38.703125 11.40625 
Q 43.21875 16.703125 43.21875 25.484375 
L 43.21875 27.484375 
z
M 52.203125 31.203125 
L 52.203125 0 
L 43.21875 0 
L 43.21875 8.296875 
Q 40.140625 3.328125 35.546875 0.953125 
Q 30.953125 -1.421875 24.3125 -1.421875 
Q 15.921875 -1.421875 10.953125 3.296875 
Q 6 8.015625 6 15.921875 
Q 6 25.140625 12.171875 29.828125 
Q 18.359375 34.515625 30.609375 34.515625 
L 43.21875 34.515625 
L 43.21875 35.40625 
Q 43.21875 41.609375 39.140625 45 
Q 35.0625 48.390625 27.6875 48.390625 
Q 23 48.390625 18.546875 47.265625 
Q 14.109375 46.140625 10.015625 43.890625 
L 10.015625 52.203125 
Q 14.9375 54.109375 19.578125 55.046875 
Q 24.21875 56 28.609375 56 
Q 40.484375 56 46.34375 49.84375 
Q 52.203125 43.703125 52.203125 31.203125 
z
" id="DejaVuSans-61"/>
      <path d="M 45.40625 27.984375 
Q 45.40625 37.75 41.375 43.109375 
Q 37.359375 48.484375 30.078125 48.484375 
Q 22.859375 48.484375 18.828125 43.109375 
Q 14.796875 37.75 14.796875 27.984375 
Q 14.796875 18.265625 18.828125 12.890625 
Q 22.859375 7.515625 30.078125 7.515625 
Q 37.359375 7.515625 41.375 12.890625 
Q 45.40625 18.265625 45.40625 27.984375 
z
M 54.390625 6.78125 
Q 54.390625 -7.171875 48.1875 -13.984375 
Q 42 -20.796875 29.203125 -20.796875 
Q 24.46875 -20.796875 20.265625 -20.09375 
Q 16.0625 -19.390625 12.109375 -17.921875 
L 12.109375 -9.1875 
Q 16.0625 -11.328125 19.921875 -12.34375 
Q 23.78125 -13.375 27.78125 -13.375 
Q 36.625 -13.375 41.015625 -8.765625 
Q 45.40625 -4.15625 45.40625 5.171875 
L 45.40625 9.625 
Q 42.625 4.78125 38.28125 2.390625 
Q 33.9375 0 27.875 0 
Q 17.828125 0 11.671875 7.65625 
Q 5.515625 15.328125 5.515625 27.984375 
Q 5.515625 40.671875 11.671875 48.328125 
Q 17.828125 56 27.875 56 
Q 33.9375 56 38.28125 53.609375 
Q 42.625 51.21875 45.40625 46.390625 
L 45.40625 54.6875 
L 54.390625 54.6875 
z
" id="DejaVuSans-67"/>
     </defs>
     <g transform="translate(22.167812 227.19925)rotate(-90)scale(0.16 -0.16)">
      <use xlink:href="#DejaVuSans-56"/>
      <use x="68.298828" xlink:href="#DejaVuSans-6f"/>
      <use x="129.480469" xlink:href="#DejaVuSans-6c"/>
      <use x="157.263672" xlink:href="#DejaVuSans-74"/>
      <use x="196.472656" xlink:href="#DejaVuSans-61"/>
      <use x="257.751953" xlink:href="#DejaVuSans-67"/>
      <use x="321.228516" xlink:href="#DejaVuSans-65"/>
      <use x="382.751953" xlink:href="#DejaVuSans-20"/>
      <use x="414.539062" xlink:href="#DejaVuSans-28"/>
      <use x="453.552734" xlink:href="#DejaVuSans-6d"/>
      <use x="550.964844" xlink:href="#DejaVuSans-56"/>
      <use x="619.373047" xlink:href="#DejaVuSans-29"/>
     </g>
    </g>
   </g>
   <g id="line2d_11">
    <path clip-path="url(#p0ec3f717a3)" d="M 73.832727 246.396307 
L 73.945402 241.091468 
L 74.208311 229.856119 
L 74.546336 218.023587 
L 74.583895 217.761139 
L 74.621453 217.909757 
L 74.997037 226.943179 
L 75.485296 242.480335 
L 75.522854 240.232745 
L 75.710646 227.658567 
L 75.748204 228.050235 
L 75.898438 232.442172 
L 75.973554 233.649638 
L 76.011113 233.09135 
L 76.048671 233.097754 
L 76.161346 231.598893 
L 76.31158 234.245074 
L 76.349138 233.828716 
L 76.386696 233.495948 
L 76.386696 233.495948 
L 76.386696 233.495948 
L 76.424255 234.004602 
L 76.461813 233.5164 
L 76.612047 228.676312 
L 76.649605 229.131093 
L 76.837397 233.901555 
L 76.874955 233.889539 
L 76.912514 233.939859 
L 77.025189 236.367134 
L 77.588564 256.782902 
L 77.626123 256.882971 
L 77.776356 259.507983 
L 77.813914 259.387597 
L 77.851473 259.327294 
L 77.889031 259.006436 
L 78.15194 251.037823 
L 78.189498 251.551933 
L 78.37729 248.196853 
L 78.865549 229.725064 
L 79.015782 226.91269 
L 79.203574 219.713521 
L 79.278691 220.734469 
L 79.353808 222.818617 
L 79.391366 222.153522 
L 79.541599 215.254093 
L 80.21765 174.727334 
L 80.292767 173.13801 
L 80.330325 173.422455 
L 80.480559 181.493729 
L 80.630792 189.703604 
L 80.668351 188.619001 
L 80.705909 187.97272 
L 80.743467 188.097499 
L 81.119051 206.31605 
L 81.344401 191.514538 
L 81.457076 193.96505 
L 81.870218 207.691576 
L 82.05801 209.814513 
L 82.095569 210.171188 
L 82.095569 210.171188 
L 82.095569 210.171188 
L 82.208244 207.357565 
L 82.358477 199.909521 
L 82.396036 200.036938 
L 82.621386 208.894847 
L 83.259878 235.979938 
L 83.44767 239.471317 
L 83.522787 238.797936 
L 83.560345 239.049931 
L 83.89837 251.17812 
L 84.048604 249.345586 
L 84.349071 240.892557 
L 84.724654 235.248336 
L 85.025121 225.121524 
L 85.175355 221.797786 
L 85.51338 212.615044 
L 85.550939 212.736106 
L 85.776289 210.220128 
L 85.926522 208.844932 
L 85.964081 208.381603 
L 86.001639 208.609736 
L 86.302106 216.879738 
L 86.565015 224.302406 
L 86.602573 224.237118 
L 86.790365 221.15052 
L 86.90304 218.834577 
L 87.466415 232.162452 
L 87.503974 232.094439 
L 87.57909 230.750389 
L 87.616649 231.096507 
L 87.729324 233.066198 
L 87.804441 232.439686 
L 87.879557 231.43015 
L 88.067349 226.962416 
L 88.104908 227.38142 
L 88.255141 230.01034 
L 88.480491 233.904125 
L 88.705842 226.198065 
L 88.931192 217.350334 
L 88.96875 217.52715 
L 89.006309 218.124997 
L 89.043867 217.993686 
L 89.231659 211.554423 
L 89.381892 204.447659 
L 89.419451 204.475875 
L 89.795034 191.255038 
L 90.057943 181.133612 
L 90.095501 182.028466 
L 90.13306 181.89848 
L 90.395968 176.244303 
L 90.508643 179.960207 
L 90.58376 178.656242 
L 90.696435 176.428434 
L 90.771552 174.635684 
L 90.80911 175.396556 
L 91.109577 185.319275 
L 91.184694 183.740833 
L 91.222252 183.671089 
L 91.485161 190.636711 
L 91.597836 194.724403 
L 91.672953 193.914478 
L 91.710511 194.180568 
L 91.710511 194.180568 
L 91.710511 194.180568 
L 91.748069 193.816615 
L 91.785628 194.161046 
L 91.860745 196.407061 
L 92.010978 201.724722 
L 92.048536 201.723489 
L 92.161212 195.811512 
L 92.311445 184.399557 
L 92.349003 184.675756 
L 92.687029 193.499304 
L 92.724587 193.677542 
L 92.799704 193.576415 
L 92.874821 192.638033 
L 93.025054 188.921258 
L 93.100171 190.574316 
L 93.137729 190.116748 
L 93.325521 186.615032 
L 93.550871 181.877309 
L 93.663546 177.072164 
L 93.701105 177.748172 
L 93.851338 180.132659 
L 93.888897 179.898984 
L 94.03913 166.825703 
L 94.151805 159.762118 
L 94.226922 159.834157 
L 94.790297 160.500421 
L 94.902973 172.903247 
L 95.165881 204.493304 
L 95.391231 208.772279 
L 95.466348 214.485411 
L 95.616582 221.280492 
L 95.65414 221.236539 
L 95.691698 222.253714 
L 95.691698 222.253714 
L 95.691698 222.253714 
L 96.292632 200.638879 
L 96.593099 178.502492 
L 96.630658 179.338185 
L 96.668216 179.205162 
L 96.780891 177.374166 
L 96.818449 178.066951 
L 96.856008 177.757397 
L 97.231591 158.089442 
L 98.395901 145.334544 
L 98.433459 145.854621 
L 98.583693 155.125564 
L 98.88416 173.601834 
L 99.034393 177.744397 
L 99.10951 181.235445 
L 99.147068 180.156756 
L 99.259743 179.444443 
L 99.710444 206.839263 
L 99.823119 212.201069 
L 99.860677 210.76874 
L 100.010911 208.358613 
L 100.236261 218.595902 
L 100.348936 221.823835 
L 100.386494 221.531844 
L 100.461611 223.20714 
L 101.17522 264.903039 
L 101.212779 265.340071 
L 101.287895 264.407529 
L 101.40057 267.322846 
L 101.438129 267.303914 
L 101.513246 266.488593 
L 101.851271 250.142362 
L 102.039063 248.20833 
L 102.602438 259.151239 
L 102.902905 252.00266 
L 103.992098 202.710481 
L 104.104773 198.666764 
L 104.480357 167.129585 
L 104.593032 169.01048 
L 104.705707 170.634543 
L 104.780824 168.65541 
L 104.818382 169.353417 
L 105.156407 182.2641 
L 105.193966 181.246598 
L 105.456874 170.876135 
L 105.494433 171.3024 
L 105.531991 171.022667 
L 105.607108 168.002257 
L 105.757341 160.159493 
L 105.7949 160.451523 
L 105.907575 167.148354 
L 105.982692 165.962893 
L 106.02025 165.575831 
L 106.02025 165.575831 
L 106.02025 165.575831 
L 106.057808 165.971063 
L 106.283158 174.678632 
L 106.508509 156.160404 
L 106.583625 160.243845 
L 106.658742 162.953915 
L 106.884092 153.215355 
L 106.921651 153.404547 
L 107.222118 177.12904 
L 107.297234 179.863458 
L 107.485026 190.163526 
L 107.63526 188.655993 
L 107.672818 187.976447 
L 107.710377 188.638236 
L 107.747935 188.634735 
L 107.823052 186.775457 
L 107.86061 187.129042 
L 108.048402 198.383006 
L 108.348869 213.659902 
L 108.574219 208.88294 
L 108.611777 209.311951 
L 108.649336 209.771442 
L 108.762011 207.3608 
L 108.799569 207.418898 
L 109.400503 241.992686 
L 109.738528 261.134095 
L 109.92632 259.363516 
L 110.114112 261.920244 
L 110.151671 261.211563 
L 110.377021 255.733959 
L 110.414579 256.055224 
L 110.489696 255.306562 
L 110.564813 255.364276 
L 110.940396 262.365478 
L 111.053071 261.865203 
L 111.09063 261.840361 
L 111.240863 264.336889 
L 111.278422 265.118247 
L 111.31598 264.709106 
L 111.578889 259.272491 
L 111.841797 251.960024 
L 112.104706 257.797618 
L 112.217381 259.905611 
L 112.330056 258.078187 
L 112.367614 258.476858 
L 112.405173 258.708348 
L 112.70564 248.186952 
L 113.081223 228.720436 
L 113.118782 228.86683 
L 113.15634 229.816578 
L 113.15634 229.816578 
L 113.15634 229.816578 
L 113.306574 225.930556 
L 113.344132 226.538374 
L 113.38169 226.64547 
L 113.832391 238.541237 
L 114.057741 232.102335 
L 114.170416 232.131615 
L 114.283091 233.174548 
L 114.32065 232.696966 
L 114.433325 230.140651 
L 114.470883 230.834195 
L 114.546 230.553078 
L 114.621116 231.802314 
L 114.658675 231.24182 
L 114.733792 229.271023 
L 114.959142 220.758025 
L 115.034259 222.112407 
L 115.22205 227.006356 
L 115.259609 226.891401 
L 115.297167 228.443116 
L 115.334726 227.135195 
L 115.372284 226.749022 
L 115.672751 208.729162 
L 115.710309 207.655447 
L 115.710309 207.655447 
L 115.710309 207.655447 
L 115.747868 209.279541 
L 115.747868 209.279541 
L 115.747868 209.279541 
L 116.16101 181.353028 
L 116.423918 155.865592 
L 116.499035 156.187209 
L 117.099969 157.782798 
L 117.362877 173.12557 
L 117.888695 217.367624 
L 117.926253 216.555564 
L 118.114045 224.794747 
L 118.151603 221.942231 
L 118.22672 222.338799 
L 118.527187 229.647084 
L 118.602304 228.109272 
L 118.67742 227.61407 
L 118.752537 229.385687 
L 118.790095 226.201406 
L 118.827654 228.184187 
L 119.203238 244.545399 
L 119.278354 242.416909 
L 119.466146 252.384788 
L 119.541263 250.564428 
L 119.729055 261.405453 
L 119.766613 260.947978 
L 119.84173 259.075558 
L 119.879288 259.511433 
L 119.991963 260.679227 
L 120.029522 262.407861 
L 120.06708 261.49745 
L 120.104638 260.198694 
L 120.142197 261.468833 
L 120.179755 262.175074 
L 120.179755 262.175074 
L 120.179755 262.175074 
L 120.367547 258.88568 
L 120.442664 260.232211 
L 120.480222 259.573841 
L 120.668014 257.395331 
L 120.705572 258.704876 
L 120.743131 257.725696 
L 120.780689 257.280618 
L 120.930923 264.519554 
L 121.006039 263.987098 
L 121.043598 263.88477 
L 121.23139 268.214341 
L 121.644532 257.406579 
L 121.68209 257.974883 
L 121.68209 257.974883 
L 121.68209 257.974883 
L 121.719648 257.091033 
L 121.757207 252.716197 
L 121.832323 254.505111 
L 121.90744 252.904462 
L 121.944999 253.57496 
L 121.982557 254.1379 
L 121.982557 254.1379 
L 121.982557 254.1379 
L 122.095232 252.389785 
L 122.245465 244.692158 
L 122.433257 248.072934 
L 122.470816 245.663792 
L 122.545932 247.892354 
L 122.733724 242.539847 
L 122.996633 231.162709 
L 123.484892 199.853655 
L 123.52245 201.545765 
L 124.236059 168.599968 
L 124.498968 176.355192 
L 124.686759 184.562424 
L 124.724318 185.480883 
L 124.724318 185.480883 
L 124.724318 185.480883 
L 125.250135 168.261203 
L 125.775952 161.157739 
L 126.038861 190.846762 
L 126.189094 193.347491 
L 126.301769 193.374864 
L 126.414444 198.949667 
L 127.466079 242.485851 
L 127.728987 257.489345 
L 127.766546 256.987078 
L 127.841663 255.77184 
L 127.879221 256.583749 
L 128.029454 258.38424 
L 128.142129 257.315153 
L 128.442596 249.689122 
L 128.480155 250.786625 
L 128.59283 249.747828 
L 128.630388 249.943432 
L 128.667947 251.382925 
L 128.743063 250.995207 
L 128.780622 250.885801 
L 128.855739 251.893205 
L 128.893297 251.860124 
L 129.081089 255.218342 
L 129.193764 257.64979 
L 129.268881 256.621334 
L 129.306439 256.450333 
L 129.306439 256.450333 
L 129.306439 256.450333 
L 129.343997 256.685263 
L 129.531789 260.03605 
L 129.569348 259.883304 
L 129.682023 262.045213 
L 129.757139 261.876541 
L 129.794698 261.738011 
L 130.132723 248.377612 
L 130.395632 235.069294 
L 130.545865 232.031706 
L 130.808774 220.902512 
L 130.846332 221.976597 
L 130.921449 221.850437 
L 131.146799 214.083237 
L 131.372149 206.68119 
L 131.409708 206.468063 
L 131.447266 206.668198 
L 131.559941 211.356078 
L 131.747733 221.492657 
L 131.785291 220.135657 
L 132.010642 214.45405 
L 132.160875 212.461257 
L 132.198433 212.05282 
L 132.198433 212.05282 
L 132.198433 212.05282 
L 132.423784 215.46279 
L 132.461342 215.096303 
L 132.4989 214.211851 
L 132.4989 214.211851 
L 132.4989 214.211851 
L 132.574017 215.84772 
L 132.611575 215.54786 
L 132.649134 215.147909 
L 132.874484 199.429115 
L 133.287626 159.031703 
L 133.512976 172.438472 
L 133.66321 172.237576 
L 134.33926 161.8799 
L 134.564611 174.525193 
L 134.789961 166.90982 
L 135.240661 154.214152 
L 135.27822 154.29252 
L 135.466012 168.723244 
L 135.578687 165.912 
L 135.653803 166.654228 
L 135.72892 167.429451 
L 135.879154 175.658732 
L 136.029387 181.507044 
L 136.329854 175.335528 
L 136.480088 165.52159 
L 136.517646 165.691654 
L 137.156138 190.760359 
L 137.381488 194.506571 
L 137.719514 213.739066 
L 137.944864 222.562872 
L 137.982422 222.377364 
L 138.057539 220.92759 
L 138.095097 221.047179 
L 138.395564 233.642424 
L 138.470681 236.822456 
L 138.545798 236.49197 
L 138.583356 236.433954 
L 138.696031 233.704143 
L 138.883823 238.500902 
L 138.921382 238.082613 
L 138.996498 240.158632 
L 139.034057 238.81628 
L 139.296965 241.38805 
L 139.559874 246.768191 
L 139.597432 246.371932 
L 139.785224 254.623318 
L 140.010574 256.71625 
L 140.123249 255.694828 
L 140.273483 250.396919 
L 140.3486 250.573801 
L 140.57395 245.113953 
L 140.686625 245.91387 
L 140.761742 248.010496 
L 140.7993 247.727053 
L 140.836858 247.693794 
L 140.911975 248.581882 
L 140.949533 248.3623 
L 140.987092 247.586228 
L 140.987092 247.586228 
L 140.987092 247.586228 
L 141.325117 257.538828 
L 141.362676 256.447298 
L 141.400234 256.410549 
L 141.437792 257.074361 
L 141.625584 253.112794 
L 141.663142 253.349061 
L 141.700701 253.301261 
L 141.738259 253.049299 
L 141.813376 248.13137 
L 142.489427 198.968927 
L 142.63966 177.947506 
L 142.752335 180.098322 
L 143.315711 193.947521 
L 143.428386 195.620896 
L 143.465944 194.855749 
L 143.541061 193.888342 
L 143.954203 167.33393 
L 143.991761 167.552035 
L 144.592695 170.180512 
L 144.630254 170.051083 
L 144.855604 162.59689 
L 145.456538 143.127871 
L 145.944797 193.6757 
L 146.170147 202.167534 
L 146.282822 203.544088 
L 146.32038 203.518903 
L 146.433055 205.224317 
L 146.583289 212.760167 
L 147.221781 248.889449 
L 147.25934 248.973815 
L 147.522248 254.150675 
L 147.559806 254.828381 
L 147.634923 254.561927 
L 147.672482 254.488852 
L 147.747598 255.357639 
L 147.785157 254.728394 
L 147.822715 254.720307 
L 147.897832 255.150908 
L 148.235857 245.970093 
L 148.273416 246.046153 
L 148.310974 245.808547 
L 148.386091 243.714048 
L 148.461207 244.077185 
L 148.536324 246.949243 
L 148.799233 253.328048 
L 148.836791 253.069458 
L 149.32505 239.914279 
L 149.362608 240.10727 
L 149.738192 249.035706 
L 149.77575 249.153853 
L 149.925984 252.076068 
L 149.963542 251.856996 
L 150.076217 252.346117 
L 150.113776 252.150799 
L 150.339126 245.042689 
L 150.602034 233.60059 
L 150.864943 227.552061 
L 151.052735 220.051441 
L 151.16541 218.558602 
L 151.315643 223.55083 
L 151.353202 223.523431 
L 151.503435 218.468532 
L 151.61611 219.840177 
L 151.691227 219.560105 
L 151.916577 208.614639 
L 152.292161 187.372952 
L 152.667745 178.744304 
L 152.742861 180.291088 
L 152.78042 179.329068 
L 152.968212 176.177621 
L 153.043328 176.224223 
L 153.080887 176.443819 
L 153.118445 176.304383 
L 153.23112 171.129016 
L 153.306237 172.797951 
L 153.381354 176.56072 
L 153.45647 175.197942 
L 153.531587 175.687646 
L 153.644262 181.820969 
L 153.681821 181.103333 
L 153.869613 175.087874 
L 154.094963 168.951356 
L 154.733455 155.005837 
L 155.371947 150.665638 
L 156.085556 199.152206 
L 156.123115 199.124672 
L 156.198231 196.374945 
L 156.273348 197.027344 
L 156.536257 211.382448 
L 156.648932 213.570433 
L 156.68649 213.302438 
L 156.799165 212.19757 
L 157.099632 221.54107 
L 157.137191 221.536239 
L 157.362541 225.646559 
L 157.587891 237.301424 
L 157.625449 235.8372 
L 157.700566 236.634769 
L 157.8508 240.64699 
L 157.888358 239.740981 
L 157.925916 239.215724 
L 158.001033 240.746047 
L 158.038592 239.393369 
L 158.07615 238.709294 
L 158.226383 243.154465 
L 158.3015 243.477604 
L 158.339059 243.297545 
L 158.451734 241.318009 
L 158.489292 241.549641 
L 158.677084 244.382622 
L 158.827317 244.108592 
L 158.939992 243.834278 
L 159.052668 245.282365 
L 159.090226 244.47159 
L 159.165343 242.333602 
L 159.353134 238.832579 
L 159.390693 238.706499 
L 159.46581 237.399389 
L 159.503368 239.109827 
L 159.540926 238.169374 
L 159.578485 236.602853 
L 159.616043 237.711267 
L 159.91651 249.858467 
L 160.14186 253.387983 
L 160.442327 246.302421 
L 160.630119 240.419877 
L 160.705236 238.781091 
L 160.780353 239.068295 
L 160.817911 238.234594 
L 160.817911 238.234594 
L 160.817911 238.234594 
L 160.893028 240.305336 
L 160.968144 239.699753 
L 161.005703 239.429716 
L 161.193495 233.064198 
L 161.606637 222.518323 
L 161.644195 222.784127 
L 161.794429 219.403168 
L 161.831987 219.33181 
L 161.907104 222.092397 
L 161.98222 221.06587 
L 162.019779 221.419232 
L 162.057337 221.364409 
L 162.357804 206.885583 
L 162.395362 207.137291 
L 162.432921 207.26929 
L 162.658271 216.285812 
L 162.846063 221.290032 
L 162.92118 224.818395 
L 162.958738 222.796463 
L 163.409438 208.165131 
L 163.446997 210.118562 
L 163.559672 214.19523 
L 163.634789 212.887591 
L 163.82258 206.238828 
L 163.860139 206.817189 
L 164.010372 202.473344 
L 164.423514 161.6043 
L 164.461073 162.237665 
L 164.648865 163.55908 
L 164.686423 163.067863 
L 164.723981 163.130604 
L 164.76154 163.855046 
L 164.76154 163.855046 
L 164.76154 163.855046 
L 164.911773 158.722859 
L 165.43759 138.49038 
L 165.475149 140.671076 
L 165.625382 150.152194 
L 165.662941 149.596394 
L 165.700499 148.132308 
L 165.775616 149.320565 
L 165.813174 149.807269 
L 166.038524 166.225782 
L 166.414108 192.231425 
L 166.677017 215.99571 
L 166.977483 238.608168 
L 167.540859 265.158003 
L 167.578417 264.989509 
L 167.578417 264.989509 
L 167.578417 264.989509 
L 167.803768 267.481855 
L 167.954001 267.443403 
L 167.991559 267.296605 
L 168.179351 270.1716 
L 168.21691 270.086036 
L 168.329585 269.100838 
L 168.367143 269.669259 
L 168.404702 269.43901 
L 168.66761 262.487688 
L 168.705168 262.563271 
L 168.817844 265.24864 
L 168.89296 264.887092 
L 169.043194 262.418043 
L 169.080752 262.326781 
L 169.118311 261.421867 
L 169.118311 261.421867 
L 169.118311 261.421867 
L 169.155869 262.406212 
L 169.155869 262.406212 
L 169.155869 262.406212 
L 169.268544 256.51235 
L 169.606569 240.438399 
L 169.756803 239.082304 
L 169.794361 239.249683 
L 169.83192 240.061437 
L 169.907036 239.415474 
L 169.944595 239.530671 
L 170.019711 237.663038 
L 170.432853 218.102624 
L 170.470412 217.042006 
L 170.545529 217.378067 
L 170.770879 222.457012 
L 170.808437 221.690894 
L 170.845996 221.866336 
L 171.108904 216.849236 
L 171.146462 217.050575 
L 171.296696 214.490332 
L 171.371813 213.904187 
L 171.409371 214.067192 
L 171.935188 223.554413 
L 171.972747 222.581595 
L 172.498564 208.415754 
L 172.536122 208.431252 
L 172.573681 208.280203 
L 172.648797 206.005989 
L 172.723914 206.154292 
L 172.761472 206.033764 
L 172.874147 205.21773 
L 173.399965 230.523395 
L 173.437523 231.110697 
L 173.51264 231.058187 
L 173.700432 222.796222 
L 173.888223 218.583335 
L 174.000899 216.622745 
L 174.038457 216.88377 
L 174.18869 219.156645 
L 174.226249 218.603621 
L 174.789624 189.339652 
L 174.864741 190.441589 
L 174.977416 193.917703 
L 175.57835 226.861981 
L 175.841259 230.781563 
L 175.953934 234.583006 
L 176.329517 244.743792 
L 176.404634 246.548991 
L 176.442193 245.801323 
L 176.517309 244.142687 
L 176.592426 241.041841 
L 176.667543 241.222576 
L 176.817776 243.312181 
L 176.855335 243.121087 
L 178.320111 187.223123 
L 178.507903 172.072967 
L 179.146395 149.321149 
L 179.221512 154.360675 
L 179.25907 154.286705 
L 179.371745 150.570685 
L 179.409304 152.262738 
L 179.597096 161.186273 
L 179.672212 159.727244 
L 180.085354 137.688318 
L 180.460938 126.062696 
L 180.498496 126.370239 
L 180.686288 136.618246 
L 181.136989 165.071434 
L 181.324781 173.596322 
L 181.399897 175.706118 
L 181.662806 186.859174 
L 181.700364 186.29896 
L 181.737923 186.530911 
L 181.775481 187.624962 
L 181.813039 186.608801 
L 181.925715 178.703791 
L 182.188623 163.118723 
L 182.226181 161.821953 
L 182.301298 162.511143 
L 182.413973 167.298142 
L 182.864674 194.950705 
L 183.052466 206.148241 
L 183.615841 232.636572 
L 183.690958 234.057199 
L 183.728516 233.979893 
L 184.1041 223.347092 
L 184.179217 223.41169 
L 184.216775 223.422727 
L 184.32945 222.934939 
L 184.367009 223.183735 
L 184.667475 227.488907 
L 184.705034 226.980989 
L 184.930384 231.651468 
L 184.967942 231.496738 
L 185.193293 236.863732 
L 185.268409 236.271939 
L 185.343526 233.978013 
L 185.418643 234.987429 
L 185.643993 241.343082 
L 185.681551 241.299093 
L 185.756668 239.741053 
L 185.831785 240.75023 
L 185.94446 241.912829 
L 185.982018 241.535556 
L 186.057135 240.675325 
L 186.094694 241.163935 
L 186.432719 246.953922 
L 186.470277 246.798285 
L 187.146328 225.267258 
L 187.183886 225.281946 
L 187.221445 225.053805 
L 187.221445 225.053805 
L 187.221445 225.053805 
L 187.446795 227.570017 
L 187.634587 235.752194 
L 187.859937 232.738168 
L 188.348196 217.671805 
L 188.611104 221.9675 
L 188.648663 221.357296 
L 188.686221 220.266285 
L 188.761338 221.219751 
L 189.061805 217.900054 
L 189.17448 209.568706 
L 189.700297 170.247211 
L 190.977282 130.897856 
L 191.01484 132.263323 
L 191.503099 179.857856 
L 191.578215 180.839175 
L 191.615774 180.281196 
L 192.028916 165.001503 
L 192.066474 166.929644 
L 192.291824 176.912077 
L 192.329383 177.082518 
L 192.366941 176.994214 
L 193.042992 132.935552 
L 193.08055 138.287774 
L 193.456134 177.145668 
L 193.794159 195.618052 
L 193.944393 200.78506 
L 193.981951 200.555976 
L 194.019509 200.682045 
L 194.357535 191.33258 
L 194.395093 192.231332 
L 194.507768 193.084782 
L 194.658002 191.409731 
L 194.883352 194.288599 
L 194.92091 193.746208 
L 195.108702 188.301882 
L 195.146261 188.55624 
L 195.709636 171.559343 
L 195.747194 172.946388 
L 195.784753 172.590236 
L 195.822311 171.573693 
L 195.897428 172.005258 
L 195.934986 172.128122 
L 196.08522 176.756923 
L 196.53592 199.13175 
L 196.573479 197.902299 
L 196.798829 190.707742 
L 197.061737 181.490537 
L 197.099296 181.442098 
L 197.099296 181.442098 
L 197.099296 181.442098 
L 197.136854 181.555845 
L 197.174413 181.116038 
L 197.174413 181.116038 
L 197.174413 181.116038 
L 197.399763 184.436171 
L 197.662671 168.329105 
L 197.888022 152.728324 
L 198.038255 157.372094 
L 198.113372 155.463965 
L 198.526514 138.604416 
L 199.277681 110.095551 
L 199.578148 132.039749 
L 199.615707 131.117819 
L 199.653265 131.238379 
L 199.690823 132.029043 
L 199.916173 147.462747 
L 199.953732 146.136094 
L 199.99129 146.869549 
L 200.028849 148.086757 
L 200.028849 148.086757 
L 200.028849 148.086757 
L 200.291757 135.722635 
L 200.780016 111.399759 
L 200.855133 112.426843 
L 200.892691 111.395683 
L 201.38095 133.881702 
L 201.568742 144.881427 
L 201.643858 141.641511 
L 201.681417 141.966765 
L 201.869209 154.64969 
L 201.906767 153.441585 
L 201.944325 153.65158 
L 202.019442 157.71078 
L 202.057001 157.462033 
L 202.319909 147.752726 
L 202.357468 148.369484 
L 202.395026 148.652399 
L 202.395026 148.652399 
L 202.395026 148.652399 
L 203.409102 136.444205 
L 203.484219 143.20782 
L 203.709569 158.52118 
L 204.723645 234.374933 
L 205.136787 245.179363 
L 205.174345 244.269416 
L 205.211904 244.431437 
L 205.737721 224.865206 
L 206.000629 213.76194 
L 206.864472 155.746347 
L 207.089822 153.233034 
L 207.352731 141.208901 
L 208.329248 93.654107 
L 208.366807 93.955381 
L 208.629715 133.65009 
L 208.855065 141.400689 
L 209.305766 160.023668 
L 209.380883 158.750059 
L 209.9067 147.229953 
L 209.981816 147.682025 
L 210.13205 149.61666 
L 210.319842 145.273563 
L 210.3574 144.560972 
L 210.507634 148.971392 
L 210.545192 148.877903 
L 211.634385 109.113617 
L 211.671943 111.669966 
L 211.859735 127.942569 
L 212.235319 163.561086 
L 212.347994 158.215542 
L 212.385552 158.685817 
L 212.460669 161.938005 
L 212.986486 196.243095 
L 213.099161 195.529012 
L 213.13672 194.856054 
L 213.211836 195.141405 
L 213.474745 198.377576 
L 213.512303 197.838221 
L 213.549862 198.246921 
L 213.624978 199.174576 
L 213.662537 198.730281 
L 213.925445 195.236343 
L 214.338587 172.661046 
L 215.840922 86.027167 
L 216.141389 123.011037 
L 216.178947 122.836225 
L 216.216506 122.878735 
L 216.366739 125.35348 
L 216.930115 127.413344 
L 216.967673 130.199095 
L 217.04279 128.497536 
L 217.681282 102.362726 
L 217.831516 109.651619 
L 218.470008 113.506391 
L 218.507566 115.698311 
L 218.545125 115.658572 
L 218.582683 112.744654 
L 218.6578 113.71648 
L 219.296292 123.626189 
L 219.559201 148.502211 
L 219.822109 169.121032 
L 220.085018 179.998873 
L 220.122576 179.763784 
L 220.460602 163.059386 
L 220.535718 166.787697 
L 220.94886 192.033288 
L 220.986419 191.074203 
L 221.174211 182.998741 
L 221.286886 180.185303 
L 221.737586 157.36979 
L 222.56387 89.280427 
L 222.601429 89.733815 
L 222.676545 98.605828 
L 222.751662 96.737002 
L 223.352596 83.184764 
L 223.615505 101.095445 
L 224.253997 103.6675 
L 224.40423 107.57934 
L 225.005164 110.640132 
L 225.080281 110.517505 
L 225.643657 109.864181 
L 225.681215 111.112677 
L 226.01924 155.849503 
L 226.056799 155.949409 
L 226.24459 152.553634 
L 226.282149 153.393744 
L 226.357266 153.059955 
L 226.394824 153.387677 
L 226.582616 161.79732 
L 226.620174 161.789031 
L 226.732849 157.328515 
L 226.883083 151.31617 
L 226.920641 151.421123 
L 226.958199 150.997337 
L 226.995758 151.043495 
L 227.070875 152.536289 
L 227.108433 151.096271 
L 227.18355 148.919057 
L 227.221108 149.714931 
L 227.258666 149.590123 
L 227.333783 145.968818 
L 227.4089 148.07034 
L 227.521575 153.39705 
L 227.596692 152.587525 
L 227.784484 145.136833 
L 228.685884 97.222406 
L 228.723443 100.480318 
L 228.911235 112.229262 
L 229.211702 134.629119 
L 229.24926 135.053576 
L 229.286818 134.651015 
L 229.324377 134.336843 
L 229.925311 110.729396 
L 230.451128 88.559038 
L 230.714036 118.293187 
L 231.502762 152.32339 
L 231.690554 150.290925 
L 231.728112 150.487913 
L 232.25393 127.02758 
L 233.15533 53.568 
L 233.192889 55.626037 
L 233.906498 103.679119 
L 234.019173 112.921653 
L 234.056731 111.765487 
L 234.657665 93.571966 
L 234.695224 93.757925 
L 234.883015 109.680952 
L 234.920574 109.634285 
L 235.596624 87.2346 
L 235.634183 89.478123 
L 235.821975 98.936783 
L 236.38535 109.872345 
L 236.573142 121.151422 
L 236.6107 121.242781 
L 236.798492 117.609841 
L 236.911167 114.210791 
L 236.948726 114.871938 
L 236.986284 115.540742 
L 236.986284 115.540742 
L 236.986284 115.540742 
L 237.023842 114.376742 
L 237.023842 114.376742 
L 237.023842 114.376742 
L 237.211634 119.542886 
L 237.361868 112.10916 
L 238.00036 78.292856 
L 238.300827 114.427601 
L 238.338385 112.81801 
L 238.413502 110.835213 
L 238.451061 111.764718 
L 238.713969 123.447406 
L 238.751527 127.240683 
L 238.826644 124.756542 
L 239.39002 106.821772 
L 239.427578 107.073748 
L 239.728045 140.31464 
L 239.953395 152.083339 
L 240.06607 156.969309 
L 240.253862 164.186127 
L 240.291421 163.869557 
L 240.291421 163.869557 
L 240.291421 163.869557 
L 240.404096 164.396806 
L 240.516771 171.771832 
L 240.591888 170.672736 
L 240.629446 170.599502 
L 240.742121 172.424319 
L 240.779679 171.72068 
L 240.817238 171.860217 
L 240.854796 173.06609 
L 240.892355 172.60326 
L 241.00503 170.382631 
L 241.042588 170.580983 
L 241.080146 170.697606 
L 241.267938 175.538825 
L 241.643522 188.398654 
L 241.68108 188.397838 
L 241.868872 183.979685 
L 241.906431 183.420086 
L 241.943989 183.687871 
L 242.169339 186.40721 
L 242.206897 186.332062 
L 242.244456 186.46573 
L 242.357131 184.942916 
L 242.394689 185.719816 
L 242.582481 190.640495 
L 242.657598 193.046245 
L 242.732715 192.322304 
L 242.84539 192.761825 
L 243.145857 180.483215 
L 243.52144 155.135481 
L 243.671674 153.567841 
L 243.859466 148.802308 
L 244.835983 86.241397 
L 244.873542 89.355373 
L 244.948658 93.759761 
L 245.023775 93.124612 
L 245.587151 88.618491 
L 245.624709 89.624925 
L 245.699826 96.943798 
L 245.774943 96.094057 
L 246.375876 87.29294 
L 246.488552 104.095454 
L 246.676343 122.265021 
L 246.713902 121.247781 
L 247.352394 102.836115 
L 247.502628 110.224311 
L 248.066003 111.493733 
L 248.103561 113.263837 
L 248.253795 132.607987 
L 248.291353 132.005389 
L 248.817171 113.17665 
L 248.967404 107.965638 
L 249.004962 108.138334 
L 249.342988 148.168285 
L 249.380546 148.348581 
L 249.493221 144.735478 
L 249.568338 145.259577 
L 249.681013 148.259213 
L 249.718571 147.384889 
L 249.75613 146.750716 
L 249.793688 147.274767 
L 250.094155 156.568587 
L 250.131713 156.659198 
L 250.169272 156.362812 
L 250.43218 173.182253 
L 250.807764 193.971945 
L 250.845322 194.288214 
L 250.845322 194.288214 
L 250.845322 194.288214 
L 250.882881 193.92727 
L 250.882881 193.92727 
L 250.882881 193.92727 
L 251.408698 201.507094 
L 251.446256 200.643918 
L 251.558931 198.613243 
L 251.634048 198.857984 
L 251.671607 198.652428 
L 251.934515 190.62714 
L 251.972074 190.843065 
L 252.122307 194.877918 
L 252.159865 194.672515 
L 252.27254 192.972133 
L 252.310099 193.81914 
L 252.422774 194.719284 
L 252.535449 196.432946 
L 252.685683 190.262884 
L 253.136383 155.318277 
L 253.2115 155.533442 
L 253.324175 151.120821 
L 253.812434 129.850009 
L 254.864068 85.100519 
L 254.901626 86.377655 
L 255.05186 104.382166 
L 255.089418 104.241505 
L 255.164535 102.429697 
L 255.202093 100.262862 
L 255.27721 101.019613 
L 255.878144 107.250317 
L 256.141053 127.604135 
L 256.328844 132.487514 
L 256.366403 131.957192 
L 256.366403 131.957192 
L 256.366403 131.957192 
L 256.516636 132.975442 
L 256.66687 133.268963 
L 256.704428 131.938944 
L 256.704428 131.938944 
L 256.704428 131.938944 
L 256.817103 134.425811 
L 256.854662 133.600408 
L 256.89222 133.292107 
L 257.042453 130.491507 
L 257.080012 130.5455 
L 257.11757 130.60393 
L 257.230245 127.237578 
L 257.530712 118.317455 
L 258.50723 81.223439 
L 258.73258 108.444797 
L 258.995489 100.32563 
L 259.558864 86.690302 
L 259.859331 112.220424 
L 259.896889 112.314217 
L 261.136316 60.944177 
L 261.662133 108.668114 
L 261.849925 115.079578 
L 262.18795 132.050353 
L 262.4133 139.209657 
L 262.450859 139.554855 
L 262.713767 129.458967 
L 263.352259 89.253748 
L 263.389818 92.90465 
L 263.57761 102.390846 
L 263.915635 95.339518 
L 264.25366 88.787856 
L 264.291219 89.172267 
L 264.479011 100.528405 
L 265.079944 102.848922 
L 265.267736 115.547987 
L 265.305295 114.407413 
L 265.380411 114.434881 
L 265.943787 114.608285 
L 266.244254 141.519302 
L 266.281812 139.536176 
L 266.507163 129.122274 
L 267.596355 98.926882 
L 267.859264 126.51555 
L 267.934381 129.257021 
L 268.009497 128.738667 
L 268.234848 120.024996 
L 269.399157 90.936497 
L 269.662066 116.194025 
L 269.737182 116.767383 
L 269.774741 115.962338 
L 269.774741 115.962338 
L 269.774741 115.962338 
L 269.887416 119.627031 
L 269.924974 117.205668 
L 270.000091 111.673894 
L 270.075208 112.404772 
L 270.225441 104.836974 
L 270.262999 107.65922 
L 270.300558 110.837287 
L 270.338116 108.366132 
L 270.976608 68.23305 
L 271.089284 74.175093 
L 271.126842 73.50082 
L 271.201959 78.334156 
L 271.464867 95.304206 
L 271.878009 109.52198 
L 272.253593 116.946553 
L 272.291151 116.625265 
L 273.605694 70.395643 
L 273.643253 68.937958 
L 273.868603 82.014945 
L 274.356862 82.411078 
L 274.39442 82.364002 
L 274.61977 95.722707 
L 274.657329 95.2646 
L 275.258263 87.836473 
L 275.295821 88.657625 
L 275.596288 127.100522 
L 275.633846 128.169304 
L 275.671405 127.885937 
L 275.78408 123.351597 
L 275.821638 124.284259 
L 275.859196 125.297359 
L 275.934313 124.563628 
L 275.971872 124.944414 
L 276.197222 119.752535 
L 276.23478 121.362381 
L 276.572806 130.335657 
L 276.610364 129.819039 
L 276.723039 127.032255 
L 276.910831 118.857071 
L 277.774673 79.971667 
L 278.037582 108.591679 
L 278.150257 109.49244 
L 278.187815 109.27963 
L 278.300491 106.920363 
L 278.338049 107.437178 
L 278.488282 115.111521 
L 278.713633 130.180451 
L 278.751191 129.809225 
L 278.826308 126.422215 
L 278.863866 129.586275 
L 279.126775 155.627254 
L 279.164333 156.096036 
L 279.201891 155.823968 
L 279.502358 142.372838 
L 279.727709 130.114564 
L 279.765267 128.658146 
L 279.802825 129.710357 
L 279.877942 135.176886 
L 279.953059 135.0021 
L 280.065734 129.426986 
L 280.666668 94.848552 
L 281.07981 123.079481 
L 281.230043 129.786066 
L 281.680744 145.416829 
L 281.793419 144.28497 
L 281.868536 143.730148 
L 281.906094 144.5235 
L 281.906094 144.5235 
L 281.906094 144.5235 
L 282.169003 134.319546 
L 282.356794 125.663533 
L 284.197155 81.675472 
L 284.234713 82.344731 
L 284.497621 111.969578 
L 284.572738 114.269303 
L 284.610297 113.828625 
L 285.136114 86.357438 
L 285.399022 72.599301 
L 285.436581 75.90411 
L 285.849723 107.63872 
L 285.962398 113.224079 
L 286.037515 112.957449 
L 286.450657 99.26141 
L 286.901357 81.533564 
L 286.938915 83.182935 
L 287.126707 99.406322 
L 287.352058 89.870117 
L 287.877875 63.420811 
L 288.253458 100.557331 
L 288.891951 94.768282 
L 288.929509 95.630281 
L 289.154859 116.247165 
L 289.380209 139.623464 
L 289.455326 138.800126 
L 289.680676 146.826289 
L 289.793352 157.858273 
L 289.868468 156.203286 
L 290.018702 148.562955 
L 290.093819 152.272186 
L 290.131377 151.716984 
L 290.394285 143.766781 
L 290.431844 143.174742 
L 290.431844 143.174742 
L 290.431844 143.174742 
L 290.544519 148.898054 
L 290.769869 166.397805 
L 290.882544 164.794048 
L 290.995219 168.860913 
L 291.070336 168.609476 
L 291.333245 154.796481 
L 291.44592 157.25692 
L 291.483478 157.426892 
L 291.746387 166.142284 
L 292.197087 176.992607 
L 292.234646 176.801092 
L 292.272204 176.758202 
L 292.647788 184.577365 
L 292.685346 184.925023 
L 292.722904 184.765705 
L 293.361397 175.70297 
L 293.398955 175.893516 
L 293.474072 178.454905 
L 293.51163 177.816386 
L 293.586747 177.314682 
L 293.887214 166.859083 
L 293.924772 165.304798 
L 293.999889 166.626398 
L 294.337914 172.20378 
L 294.450589 177.296009 
L 294.525706 176.606835 
L 294.67594 173.1276 
L 294.938848 159.790297 
L 295.051523 161.799511 
L 295.35199 153.120978 
L 295.802691 143.16922 
L 295.840249 143.268275 
L 295.915366 145.217148 
L 295.990483 144.95834 
L 296.178274 142.856378 
L 296.441183 152.217599 
L 296.5163 151.352386 
L 296.666533 152.825051 
L 296.779208 148.27733 
L 297.643051 105.942103 
L 297.793284 117.693929 
L 297.830843 117.283055 
L 297.943518 125.362623 
L 298.168868 147.573754 
L 298.319101 138.116638 
L 298.35666 138.648224 
L 298.431777 140.22441 
L 298.469335 139.844496 
L 298.506893 138.810382 
L 298.619568 144.549244 
L 298.657127 142.921888 
L 298.769802 131.036018 
L 298.844919 133.781334 
L 298.995152 138.007851 
L 299.03271 136.870893 
L 299.070269 137.657175 
L 299.107827 138.2238 
L 299.370736 121.648109 
L 299.483411 134.409833 
L 299.558528 131.801709 
L 300.121903 112.764846 
L 300.159462 113.390046 
L 300.309695 129.517796 
L 300.685279 157.60876 
L 300.797954 158.523676 
L 300.835512 158.331186 
L 301.060862 148.88603 
L 301.173538 152.68207 
L 301.211096 151.59126 
L 301.248654 151.37203 
L 301.398888 155.916561 
L 301.887147 183.596944 
L 302.112497 177.242284 
L 302.48808 148.216426 
L 303.164131 172.473158 
L 303.239248 170.586976 
L 303.389481 168.017883 
L 303.502156 165.22024 
L 303.727507 156.174192 
L 303.952857 147.701557 
L 304.027974 148.348564 
L 304.290882 158.696914 
L 304.591349 172.690555 
L 304.779141 176.42314 
L 304.891816 180.606488 
L 304.929374 180.364913 
L 305.004491 178.634692 
L 305.2674 170.793011 
L 305.304958 170.951897 
L 305.342517 170.914009 
L 305.380075 170.587514 
L 305.417633 170.884737 
L 305.793217 183.824905 
L 305.830775 183.53767 
L 306.243917 191.107687 
L 306.281476 190.942587 
L 306.506826 193.843385 
L 306.657059 193.298389 
L 306.694618 193.185904 
L 306.732176 194.083837 
L 306.769735 193.271148 
L 306.807293 192.301863 
L 306.844851 192.920402 
L 306.919968 195.938035 
L 307.145318 199.624478 
L 307.182877 199.535255 
L 307.633577 185.120572 
L 307.671135 185.306088 
L 307.934044 189.746143 
L 308.196953 176.904571 
L 308.234511 177.650489 
L 308.534978 190.543663 
L 308.572536 190.557731 
L 308.610095 191.044983 
L 308.610095 191.044983 
L 308.610095 191.044983 
L 308.647653 190.251647 
L 308.72277 190.668045 
L 308.760328 190.613326 
L 308.835445 189.87765 
L 309.323704 176.568238 
L 309.473937 175.067709 
L 309.624171 177.027835 
L 309.661729 177.337364 
L 309.661729 177.337364 
L 309.661729 177.337364 
L 309.811962 174.334768 
L 309.999754 167.57606 
L 310.037313 168.413291 
L 310.149988 172.570426 
L 310.187546 171.317347 
L 310.375338 163.844622 
L 310.412896 164.031696 
L 310.525571 167.327786 
L 310.56313 166.675011 
L 310.826038 161.842992 
L 311.088947 147.910107 
L 311.126505 148.115538 
L 311.539647 144.387372 
L 312.666399 136.847516 
L 312.703957 138.52093 
L 312.966866 183.675708 
L 313.004424 185.869865 
L 313.079541 185.279507 
L 313.117099 185.156096 
L 313.229774 189.342795 
L 313.605358 207.541288 
L 313.680475 209.824301 
L 313.755591 209.337517 
L 313.79315 209.461628 
L 314.168733 216.186888 
L 314.206292 216.034067 
L 314.281408 217.454529 
L 314.694551 234.121397 
L 314.732109 234.029493 
L 314.769667 233.887062 
L 314.807226 234.53819 
L 314.844784 234.264344 
L 315.070134 221.101377 
L 315.333043 206.453401 
L 315.445718 202.607818 
L 315.85886 183.526661 
L 315.896418 183.115183 
L 315.933977 183.147528 
L 316.08421 184.600294 
L 316.121769 183.983962 
L 316.196885 184.300622 
L 316.384677 187.712189 
L 316.497352 188.944831 
L 316.534911 188.349029 
L 316.797819 183.472448 
L 317.023169 172.352277 
L 317.098286 173.294333 
L 317.286078 175.409264 
L 317.323636 175.049831 
L 317.548987 170.99005 
L 317.624103 171.286134 
L 317.661662 171.162667 
L 317.69922 171.109964 
L 318.225037 161.529552 
L 318.300154 162.727967 
L 318.337712 162.180018 
L 318.450387 161.158531 
L 318.750854 168.352512 
L 318.825971 168.055409 
L 318.901088 167.280477 
L 319.163996 176.901163 
L 319.276672 175.773039 
L 319.76493 163.977347 
L 319.840047 166.572002 
L 319.915164 169.62184 
L 319.952722 168.846103 
L 320.102956 163.577385 
L 320.140514 165.410371 
L 320.328306 181.108862 
L 320.365864 179.583819 
L 320.478539 174.472643 
L 320.553656 175.260254 
L 320.70389 178.168167 
L 320.891681 187.758057 
L 320.966798 187.740309 
L 321.117032 189.639051 
L 321.192148 189.703965 
L 321.229707 189.994561 
L 321.304824 187.939147 
L 321.37994 188.502787 
L 321.417499 188.480645 
L 321.455057 188.796684 
L 321.455057 188.796684 
L 321.455057 188.796684 
L 321.530174 187.829893 
L 321.567732 188.422253 
L 321.60529 188.271289 
L 321.680407 189.698671 
L 321.793082 180.482933 
L 321.943316 164.93762 
L 322.018433 165.748575 
L 322.581808 151.285262 
L 323.483209 132.637272 
L 323.708559 142.385407 
L 323.858793 145.564323 
L 323.933909 144.204659 
L 323.971468 145.091722 
L 324.009026 145.245925 
L 324.722635 171.145571 
L 325.06066 177.124879 
L 325.173336 179.738456 
L 325.210894 178.685268 
L 325.661594 171.801104 
L 325.699153 172.84673 
L 325.736711 172.169055 
L 325.811828 171.117977 
L 326.037178 176.078957 
L 326.149853 178.159514 
L 326.187412 177.412132 
L 326.262528 175.791281 
L 326.45032 172.506685 
L 326.487879 173.163566 
L 326.67567 161.999764 
L 326.863462 149.50326 
L 326.901021 150.41237 
L 327.126371 154.613811 
L 327.201488 154.054018 
L 327.802421 182.084911 
L 327.952655 184.931684 
L 328.215564 180.200865 
L 328.253122 180.723833 
L 328.591147 190.961173 
L 328.628706 191.037997 
L 328.666264 192.068177 
L 328.703822 191.627579 
L 329.417431 180.60281 
L 329.45499 181.484881 
L 329.492548 180.685958 
L 329.642782 177.045842 
L 330.093482 153.580202 
L 330.206157 155.343501 
L 330.694416 135.721474 
L 331.595817 102.368134 
L 331.821167 119.732377 
L 332.309426 157.009877 
L 332.422101 153.572205 
L 332.497218 151.87921 
L 332.534776 152.724486 
L 332.609893 153.166951 
L 332.647451 152.7062 
L 332.685009 152.736624 
L 332.722568 153.152699 
L 333.060593 167.773442 
L 333.173268 170.320114 
L 333.210827 169.885447 
L 333.285943 169.097537 
L 333.661527 158.695375 
L 333.924436 145.689769 
L 333.999552 146.693395 
L 334.337578 153.057099 
L 334.600486 158.186995 
L 334.638045 157.831646 
L 334.713161 157.108434 
L 334.788278 157.400872 
L 334.825837 157.61349 
L 334.938512 155.446472 
L 335.389212 139.661407 
L 335.42677 140.092054 
L 336.778872 97.491162 
L 336.81643 100.050124 
L 337.079339 123.670652 
L 337.267131 127.329326 
L 337.454922 132.845455 
L 337.492481 132.342376 
L 337.792948 119.265517 
L 338.318765 81.904987 
L 338.356323 83.628449 
L 338.544115 88.574631 
L 339.032374 97.866618 
L 339.483074 138.803886 
L 339.633308 140.665307 
L 339.670866 140.65571 
L 340.121567 118.371626 
L 340.572267 94.18041 
L 340.609825 96.309787 
L 340.872734 114.615426 
L 341.135643 124.46347 
L 341.548785 143.572882 
L 341.623901 145.140848 
L 341.736577 151.904481 
L 342.149719 184.860797 
L 342.299952 189.468238 
L 342.450186 191.636476 
L 342.487744 194.115432 
L 342.525302 193.034861 
L 342.750652 168.2226 
L 342.825769 172.405502 
L 342.938444 177.972857 
L 343.201353 193.249268 
L 343.238911 191.598264 
L 343.389145 186.413602 
L 343.426703 186.705852 
L 343.689612 209.147485 
L 343.877404 219.267329 
L 343.914962 219.345031 
L 343.990079 218.83324 
L 344.215429 206.405845 
L 344.328104 208.69621 
L 344.365662 208.644913 
L 344.591013 211.149622 
L 345.154388 228.762002 
L 345.34218 234.127433 
L 345.379738 234.087399 
L 345.417297 233.881595 
L 345.454855 233.948207 
L 345.492413 234.160762 
L 345.680205 236.517615 
L 345.717764 235.803035 
L 345.717764 235.803035 
L 345.717764 235.803035 
L 345.755322 236.708462 
L 345.830439 236.151495 
L 346.093347 231.481945 
L 346.318698 225.789256 
L 346.694281 203.925041 
L 347.069865 174.4589 
L 348.046383 106.310624 
L 348.309291 129.478029 
L 348.534641 138.025007 
L 348.722433 135.770141 
L 348.759992 136.547665 
L 348.872667 142.36381 
L 349.135575 159.795997 
L 349.173134 158.883905 
L 349.360925 161.551764 
L 349.398484 160.633987 
L 349.473601 159.442592 
L 349.511159 160.025235 
L 349.811626 171.043739 
L 349.999418 174.213239 
L 350.074535 176.346127 
L 350.112093 175.846004 
L 350.224768 173.560198 
L 350.299885 173.810213 
L 350.41256 172.033911 
L 350.525235 170.392281 
L 350.600352 170.755931 
L 350.675468 169.376496 
L 350.975935 157.898986 
L 351.013494 159.415091 
L 351.163727 162.301363 
L 351.351519 156.884435 
L 351.576869 165.594167 
L 351.689544 167.567632 
L 351.764661 170.4211 
L 351.80222 169.804017 
L 351.877336 165.273243 
L 351.952453 166.6621 
L 352.102686 168.052867 
L 352.290478 189.569632 
L 352.328037 189.173224 
L 352.515829 186.875232 
L 352.666062 190.165092 
L 352.853854 176.090315 
L 352.891412 176.584168 
L 352.928971 176.019385 
L 352.966529 176.267069 
L 353.004087 176.881403 
L 353.041646 176.344819 
L 353.379671 166.872597 
L 353.492346 160.511202 
L 353.529905 160.80454 
L 353.717696 166.107063 
L 353.86793 163.235769 
L 354.018163 170.933545 
L 354.055722 169.686735 
L 354.243514 153.30745 
L 354.281072 154.266925 
L 354.393747 159.048638 
L 354.468864 157.853379 
L 354.844447 165.293348 
L 355.820965 213.004025 
L 355.858523 213.187318 
L 356.15899 200.764982 
L 356.234107 200.771931 
L 356.271665 200.758723 
L 356.309224 200.49005 
L 356.346782 200.750259 
L 356.534574 203.428685 
L 356.572132 202.667069 
L 356.609691 202.522843 
L 356.609691 202.522843 
L 356.609691 202.522843 
L 356.647249 202.751057 
L 356.647249 202.751057 
L 356.647249 202.751057 
L 356.722366 201.723531 
L 356.835041 197.17029 
L 356.872599 197.988231 
L 357.022833 200.666951 
L 357.09795 200.08476 
L 357.360858 206.014996 
L 357.961792 229.986239 
L 358.036909 229.813754 
L 358.112026 227.755542 
L 358.187142 228.753698 
L 358.863193 244.188711 
L 358.93831 243.104051 
L 359.464127 218.106114 
L 359.989944 179.924595 
L 360.102619 179.211637 
L 360.55332 198.930974 
L 360.590878 198.712335 
L 360.928903 185.432607 
L 360.966462 186.326057 
L 361.00402 186.578618 
L 361.079137 188.300224 
L 361.154254 188.231518 
L 361.191812 188.309141 
L 361.342045 190.636153 
L 361.45472 195.501744 
L 361.529837 194.932879 
L 361.717629 186.913378 
L 361.830304 184.056348 
L 361.867863 184.759415 
L 362.205888 204.169194 
L 362.281005 205.265216 
L 362.39368 200.211951 
L 362.506355 193.629701 
L 362.543913 194.142317 
L 362.731705 197.453598 
L 362.769263 196.750183 
L 362.919497 190.774855 
L 362.994614 192.737922 
L 363.257522 199.394469 
L 363.332639 201.13121 
L 363.370197 200.415592 
L 363.445314 199.79494 
L 363.783339 177.107328 
L 363.896014 180.987398 
L 364.046248 189.66211 
L 364.346715 158.459304 
L 364.421832 165.577014 
L 364.647182 176.885414 
L 365.323233 160.335233 
L 365.360791 161.726793 
L 365.698816 179.158539 
L 365.773933 176.768088 
L 365.961725 171.183255 
L 365.999283 171.345673 
L 366.0744 175.762966 
L 366.187075 185.487074 
L 366.224633 183.874638 
L 366.262192 183.294832 
L 366.262192 183.294832 
L 366.262192 183.294832 
L 366.374867 187.732722 
L 366.750451 212.000591 
L 367.050918 228.376004 
L 367.088476 228.296133 
L 367.163593 227.93655 
L 367.201151 226.289859 
L 367.276268 226.952611 
L 367.388943 228.026447 
L 367.426501 227.483076 
L 367.651851 226.13168 
L 367.726968 222.740236 
L 367.877202 216.795541 
L 367.91476 217.051338 
L 368.064993 219.533155 
L 368.553252 240.93024 
L 368.741044 245.32333 
L 368.778602 244.827872 
L 368.778602 244.827872 
L 368.778602 244.827872 
L 368.966394 246.252932 
L 369.116628 244.410996 
L 369.642445 256.43945 
L 369.680003 256.122884 
L 369.830237 252.489501 
L 370.055587 241.048713 
L 370.280937 236.26132 
L 370.393612 235.400849 
L 370.656521 226.287234 
L 370.694079 225.360787 
L 370.769196 225.957109 
L 370.956988 229.4077 
L 370.994546 229.046463 
L 371.069663 228.40892 
L 371.107221 228.483006 
L 371.445247 241.861889 
L 371.482805 241.655367 
L 371.482805 241.655367 
L 371.482805 241.655367 
L 371.520363 242.038409 
L 371.557922 241.144693 
L 371.633039 241.693618 
L 371.670597 241.95375 
L 371.895947 238.346477 
L 372.008622 238.135767 
L 372.421764 216.015517 
L 372.534439 218.10799 
L 372.609556 218.395275 
L 372.647115 218.233904 
L 372.797348 217.310209 
L 372.834906 217.814566 
L 372.834906 217.814566 
L 372.834906 217.814566 
L 373.135373 212.132468 
L 373.698749 173.467062 
L 373.736307 172.737639 
L 373.736307 172.737639 
L 373.736307 172.737639 
L 373.886541 175.119038 
L 373.961657 175.191693 
L 374.675267 156.326818 
L 375.163525 184.130278 
L 375.201084 183.098779 
L 375.877134 152.583635 
L 375.952251 156.599531 
L 375.989809 156.128025 
L 376.027368 155.133498 
L 376.064926 155.687716 
L 376.177601 163.169432 
L 376.44051 176.635841 
L 376.66586 183.76605 
L 377.003885 195.241688 
L 377.079002 195.774858 
L 377.116561 194.828465 
L 377.154119 195.666301 
L 377.229236 197.572985 
L 377.492144 207.391149 
L 377.642378 203.29147 
L 377.679936 203.599062 
L 377.792611 206.492675 
L 377.867728 207.878518 
L 377.905286 207.763116 
L 377.980403 204.639345 
L 378.355987 185.860924 
L 378.618895 181.247919 
L 378.994479 175.227568 
L 379.219829 169.421035 
L 379.370063 166.608346 
L 379.89588 154.325913 
L 380.008555 154.56235 
L 380.046113 154.322059 
L 380.309022 146.221975 
L 381.848915 97.106659 
L 382.487407 144.737965 
L 382.637641 148.698186 
L 382.825433 152.469498 
L 383.201016 164.573352 
L 383.238575 164.33377 
L 384.215092 112.801414 
L 384.665793 85.911654 
L 385.229168 147.119776 
L 385.266727 147.032748 
L 385.304285 146.791494 
L 385.604752 137.309445 
L 385.905219 162.601232 
L 386.017894 161.713093 
L 386.055452 161.648277 
L 386.130569 166.314685 
L 386.656386 210.475487 
L 386.844178 213.299752 
L 386.919295 211.556305 
L 387.069528 206.574635 
L 387.107087 207.438104 
L 387.219762 210.06857 
L 387.25732 209.230827 
L 387.332437 207.22071 
L 387.933371 166.940103 
L 388.008488 168.13316 
L 388.046046 168.03019 
L 388.346513 178.079876 
L 388.534305 184.978047 
L 389.09768 194.490988 
L 389.623498 214.391918 
L 389.811289 218.889022 
L 389.848848 217.828695 
L 389.961523 215.830492 
L 389.999081 215.878714 
L 390.074198 216.798481 
L 390.111756 215.923465 
L 390.299548 211.365591 
L 390.337107 211.407334 
L 390.374665 211.613077 
L 390.412223 210.445414 
L 390.48734 211.134995 
L 390.524898 211.265226 
L 390.825365 204.513946 
L 391.050716 189.421047 
L 392.290142 80.434689 
L 392.665725 97.366879 
L 393.116426 99.309841 
L 393.754918 175.812549 
L 394.092944 189.674098 
L 394.130502 189.754111 
L 394.318294 192.225587 
L 394.468527 190.834124 
L 394.506086 190.885083 
L 394.543644 191.091179 
L 394.919228 184.788148 
L 394.956786 185.061536 
L 395.144578 181.061751 
L 395.182136 182.085866 
L 395.445045 193.225287 
L 395.858187 217.358729 
L 396.196212 227.33615 
L 396.759588 240.796539 
L 396.834704 238.897544 
L 397.022496 231.887659 
L 397.097613 232.224414 
L 397.135171 232.33765 
L 397.17273 232.23759 
L 397.210288 231.889762 
L 397.285405 229.293325 
L 397.360522 229.37143 
L 397.473197 225.962122 
L 397.510755 226.242527 
L 397.585872 227.043169 
L 397.62343 226.74132 
L 397.84878 221.225512 
L 398.074131 208.971437 
L 398.111689 209.362393 
L 398.337039 203.497116 
L 398.374598 204.052523 
L 398.487273 208.521524 
L 398.487273 208.521524 
" style="fill:none;stroke:#000000;stroke-linecap:square;stroke-width:1.5;"/>
   </g>
   <g id="line2d_12">
    <path clip-path="url(#p0ec3f717a3)" d="M 73.832727 239.311088 
L 75.335062 236.952485 
L 76.912514 234.038832 
L 78.565082 230.50624 
L 80.405442 226.023805 
L 82.583827 220.10027 
L 89.832593 199.842889 
L 91.259811 196.802024 
L 92.42412 194.803876 
L 93.438196 193.474903 
L 94.339597 192.647152 
L 95.128323 192.213235 
L 95.841932 192.062919 
L 96.555541 192.146369 
L 97.26915 192.464176 
L 98.020317 193.050512 
L 98.846601 193.986131 
L 99.785561 195.401283 
L 100.874753 197.474588 
L 102.151738 200.415839 
L 103.766748 204.739598 
L 106.733859 213.486146 
L 108.949803 219.675862 
L 110.452137 223.241786 
L 111.691564 225.630977 
L 112.743198 227.198844 
L 113.682157 228.213656 
L 114.508441 228.796549 
L 115.259609 229.073907 
L 116.010776 229.114738 
L 116.761944 228.927525 
L 117.550669 228.498722 
L 118.45207 227.741311 
L 119.503705 226.54205 
L 120.780689 224.719005 
L 122.508374 221.827677 
L 126.865145 214.379827 
L 128.36748 212.334763 
L 129.682023 210.911856 
L 130.88389 209.9338 
L 132.010642 209.293225 
L 133.137393 208.901005 
L 134.33926 208.721084 
L 135.691362 208.751796 
L 137.419047 209.02909 
L 142.902569 210.06182 
L 145.080954 210.137082 
L 151.315643 210.180547 
L 152.893095 210.528101 
L 154.432988 211.097307 
L 156.047998 211.935008 
L 158.038592 213.236853 
L 162.996296 216.604521 
L 164.461073 217.254889 
L 165.738057 217.579784 
L 166.902367 217.648848 
L 168.029118 217.494989 
L 169.193427 217.104867 
L 170.395295 216.463293 
L 171.709838 215.504604 
L 173.212173 214.121702 
L 174.977416 212.181212 
L 177.19336 209.396803 
L 180.010238 205.489164 
L 182.789557 201.265255 
L 185.118176 197.325556 
L 187.221445 193.321204 
L 189.287155 188.899379 
L 191.578215 183.449285 
L 195.296494 173.90915 
L 198.113372 166.965755 
L 199.953732 163.000915 
L 201.493625 160.187974 
L 202.883285 158.094569 
L 204.197828 156.505545 
L 205.512371 155.262568 
L 206.90203 154.253931 
L 208.779949 153.189537 
L 211.221243 151.781948 
L 212.535786 150.74459 
L 213.700095 149.540131 
L 214.864405 148.001153 
L 216.028714 146.086415 
L 217.305699 143.536301 
L 218.732917 140.152219 
L 220.460602 135.435784 
L 226.394824 118.64627 
L 227.596692 116.189712 
L 228.573209 114.656114 
L 229.437052 113.692142 
L 230.188219 113.176229 
L 230.86427 112.978917 
L 231.502762 113.02825 
L 232.141254 113.306211 
L 232.817305 113.846497 
L 233.606031 114.784727 
L 234.507432 116.235528 
L 235.559066 118.38092 
L 236.873609 121.61617 
L 238.789086 127.009375 
L 241.756197 135.337015 
L 243.108298 138.466367 
L 244.197491 140.459171 
L 245.098892 141.680776 
L 245.887618 142.399541 
L 246.601227 142.754127 
L 247.239719 142.827602 
L 247.878211 142.669118 
L 248.554262 142.250824 
L 249.267871 141.538139 
L 250.094155 140.381962 
L 251.033114 138.671599 
L 252.159865 136.132199 
L 253.587083 132.315073 
L 255.690352 125.956594 
L 259.108164 115.643011 
L 260.723174 111.487052 
L 262.112833 108.497743 
L 263.352259 106.342599 
L 264.479011 104.812391 
L 265.530645 103.74376 
L 266.544721 103.021939 
L 267.521238 102.588768 
L 268.535314 102.380413 
L 269.586949 102.390141 
L 270.751258 102.626772 
L 272.065801 103.127662 
L 273.568136 103.946602 
L 275.220704 105.106346 
L 276.910831 106.566124 
L 278.563399 108.292269 
L 280.140851 110.265575 
L 281.718302 112.606534 
L 283.295754 115.35169 
L 284.98588 118.756674 
L 286.863799 123.06772 
L 289.154859 128.922252 
L 298.732243 154.105972 
L 301.999822 161.570139 
L 306.506826 171.283077 
L 309.098353 176.431961 
L 310.78848 179.330672 
L 312.103023 181.165898 
L 313.154657 182.281194 
L 314.056058 182.937888 
L 314.844784 183.256055 
L 315.558393 183.318984 
L 316.272002 183.15439 
L 316.985611 182.752544 
L 317.736778 182.065822 
L 318.563063 180.995893 
L 319.502022 179.385662 
L 320.553656 177.107718 
L 321.755524 173.951587 
L 323.257859 169.334672 
L 325.548919 161.462708 
L 328.253122 152.351667 
L 329.717898 148.177533 
L 330.882208 145.488733 
L 331.858725 143.751735 
L 332.722568 142.648395 
L 333.473735 142.035553 
L 334.149786 141.764846 
L 334.788278 141.752839 
L 335.42677 141.973258 
L 336.102821 142.451286 
L 336.853988 143.262596 
L 337.717831 144.532442 
L 338.769465 146.507389 
L 340.04645 149.424413 
L 341.736577 153.894832 
L 349.24825 174.511975 
L 352.590945 182.373923 
L 356.15899 190.925842 
L 362.769263 207.214952 
L 363.933573 209.274032 
L 364.872532 210.514299 
L 365.661258 211.207007 
L 366.337308 211.515001 
L 366.938242 211.548599 
L 367.501618 211.362423 
L 368.102552 210.922228 
L 368.741044 210.173779 
L 369.454653 208.989603 
L 370.280937 207.159481 
L 371.219897 204.498496 
L 372.309089 200.690153 
L 373.586074 195.37064 
L 375.2762 187.294593 
L 379.783205 165.243502 
L 381.022631 160.498618 
L 382.036707 157.421438 
L 382.900549 155.464768 
L 383.614158 154.350345 
L 384.215092 153.780989 
L 384.74091 153.565929 
L 385.229168 153.605039 
L 385.717427 153.873389 
L 386.280803 154.464798 
L 386.919295 155.491214 
L 387.670462 157.162721 
L 388.534305 159.662151 
L 389.585939 163.443567 
L 390.862924 168.921196 
L 392.665725 177.733447 
L 396.534238 196.878623 
L 397.999014 202.892072 
L 398.487273 204.645462 
L 398.487273 204.645462 
" style="fill:none;stroke:#008000;stroke-linecap:square;stroke-width:2;"/>
   </g>
   <g id="line2d_13">
    <path clip-path="url(#p0ec3f717a3)" d="M 73.832727 248.235453 
L 74.320986 249.14 
L 74.959478 250.878517 
L 76.499372 255.328209 
L 76.837397 255.686616 
L 77.062747 255.681015 
L 77.288097 255.450183 
L 77.588564 254.758802 
L 77.964148 253.241057 
L 78.452407 250.187992 
L 79.128457 244.265286 
L 80.893701 227.834774 
L 81.306843 225.980286 
L 81.569751 225.523704 
L 81.719985 225.538892 
L 81.907777 225.850716 
L 82.170685 226.841085 
L 82.546269 229.355771 
L 83.034528 234.375579 
L 83.785695 244.82609 
L 85.100238 263.259911 
L 85.626055 267.738283 
L 86.001639 269.2772 
L 86.226989 269.479785 
L 86.377223 269.312239 
L 86.602573 268.616917 
L 86.940598 266.633876 
L 87.391299 262.488539 
L 88.180024 252.701151 
L 89.231659 240.206247 
L 89.757476 236.426613 
L 90.095501 235.258968 
L 90.320851 235.056175 
L 90.471085 235.171318 
L 90.696435 235.700203 
L 91.03446 237.211648 
L 91.560278 240.84306 
L 92.912379 250.767398 
L 93.287963 251.95761 
L 93.513313 252.111787 
L 93.663546 251.963009 
L 93.888897 251.354122 
L 94.189364 249.832219 
L 94.640064 246.164564 
L 95.316115 238.468289 
L 96.442866 225.781412 
L 96.856008 223.23251 
L 97.118916 222.600821 
L 97.26915 222.629943 
L 97.456942 223.087482 
L 97.71985 224.53644 
L 98.057876 227.785849 
L 98.546134 235.047339 
L 99.222185 248.949353 
L 100.799637 282.687093 
L 101.287895 288.421085 
L 101.588362 290.012745 
L 101.738596 290.202146 
L 101.776154 290.184595 
L 101.926388 289.852124 
L 102.151738 288.5642 
L 102.452205 285.395157 
L 102.865347 278.49271 
L 103.466281 264.082636 
L 104.780824 224.827496 
L 105.569549 205.490458 
L 106.057808 198.102451 
L 106.395834 195.588851 
L 106.583625 195.176923 
L 106.696301 195.272898 
L 106.884092 196.003786 
L 107.147001 198.205975 
L 107.522585 203.614379 
L 108.048402 215.075245 
L 108.837128 238.020444 
L 110.264346 279.61442 
L 110.827721 289.896286 
L 111.203305 293.598043 
L 111.466213 294.5396 
L 111.578889 294.517922 
L 111.729122 294.092683 
L 111.954472 292.617607 
L 112.292498 288.600188 
L 112.743198 280.225572 
L 113.419249 262.835997 
L 115.146934 216.058753 
L 115.635192 208.630537 
L 115.973218 206.056883 
L 116.198568 205.595675 
L 116.311243 205.746629 
L 116.499035 206.559248 
L 116.761944 208.844564 
L 117.137527 214.268639 
L 117.663344 225.407643 
L 118.714979 253.885796 
L 119.541263 273.62241 
L 120.029522 281.023262 
L 120.367547 283.623873 
L 120.592897 284.108316 
L 120.705572 283.9684 
L 120.893364 283.171631 
L 121.156273 280.900891 
L 121.531856 275.479786 
L 122.057674 264.316676 
L 123.109308 235.784338 
L 123.935592 216.045769 
L 124.461409 208.225141 
L 124.799435 205.823416 
L 124.987226 205.449542 
L 125.099902 205.559421 
L 125.287693 206.296604 
L 125.550602 208.465205 
L 125.926186 213.711993 
L 126.452003 224.628114 
L 127.353404 248.971356 
L 128.442596 276.68188 
L 129.005972 285.887992 
L 129.381556 289.195261 
L 129.644464 290.047138 
L 129.757139 290.03821 
L 129.907373 289.679615 
L 130.132723 288.413013 
L 130.470748 284.952106 
L 130.921449 277.737777 
L 131.597499 262.70494 
L 133.700768 212.751238 
L 134.226585 206.11423 
L 134.602169 203.82645 
L 134.827519 203.498702 
L 134.940194 203.632922 
L 135.127986 204.29709 
L 135.390895 206.138011 
L 135.766478 210.530974 
L 136.292296 219.786439 
L 137.043463 237.629782 
L 138.771148 280.124057 
L 139.296965 287.706129 
L 139.672549 290.406247 
L 139.897899 290.823866 
L 140.010574 290.683336 
L 140.198366 289.927695 
L 140.461275 287.783401 
L 140.836858 282.609338 
L 141.362676 271.683967 
L 142.151401 249.811908 
L 143.465944 213.530495 
L 143.991761 204.461108 
L 144.367345 201.119692 
L 144.592695 200.505418 
L 144.70537 200.600257 
L 144.855604 201.144422 
L 145.118512 203.229756 
L 145.456538 207.932845 
L 145.944797 218.248183 
L 146.695964 239.695975 
L 148.085624 279.500583 
L 148.611441 288.712363 
L 148.987025 292.127365 
L 149.212375 292.806985 
L 149.32505 292.756614 
L 149.475283 292.287889 
L 149.700634 290.742513 
L 150.038659 286.630811 
L 150.526918 277.378506 
L 151.240527 258.933619 
L 152.855537 216.141822 
L 153.418912 207.014132 
L 153.832054 203.375863 
L 154.094963 202.488665 
L 154.245196 202.480977 
L 154.39543 202.830622 
L 154.62078 204.007064 
L 154.958805 207.16033 
L 155.409506 213.675159 
L 156.047998 226.425213 
L 158.677084 283.468513 
L 159.165343 288.294407 
L 159.503368 289.75115 
L 159.69116 289.853028 
L 159.841393 289.563287 
L 160.066744 288.507653 
L 160.404769 285.544602 
L 160.855469 279.153943 
L 161.456403 266.93035 
L 162.508038 239.785852 
L 163.522113 215.807273 
L 164.047931 207.770799 
L 164.423514 204.71859 
L 164.648865 204.07832 
L 164.76154 204.102713 
L 164.911773 204.49328 
L 165.137123 205.836881 
L 165.475149 209.48416 
L 165.925849 217.047388 
L 166.639458 233.449975 
L 167.991559 265.073393 
L 168.517377 272.404058 
L 168.855402 274.738634 
L 169.080752 275.18944 
L 169.193427 275.083308 
L 169.381219 274.426791 
L 169.644128 272.549254 
L 170.05727 267.611945 
L 170.695762 256.654065 
L 171.935188 235.09308 
L 172.385889 230.779964 
L 172.686356 229.594424 
L 172.836589 229.546233 
L 172.986823 229.864677 
L 173.212173 231.018313 
L 173.550198 234.180175 
L 174.038457 241.280617 
L 176.029051 273.568278 
L 176.329517 274.877867 
L 176.479751 274.929129 
L 176.629984 274.563335 
L 176.855335 273.226512 
L 177.19336 269.487986 
L 177.64406 261.575161 
L 178.320111 245.1854 
L 179.672212 211.713055 
L 180.160471 204.718205 
L 180.498496 202.515216 
L 180.64873 202.289257 
L 180.686288 202.306527 
L 180.836522 202.670975 
L 181.061872 204.095424 
L 181.399897 208.127352 
L 181.850598 216.647165 
L 182.526648 234.269691 
L 184.1041 276.810522 
L 184.629917 285.234894 
L 185.005501 288.444257 
L 185.268409 289.239532 
L 185.381085 289.219324 
L 185.531318 288.864738 
L 185.756668 287.658739 
L 186.094694 284.4538 
L 186.582952 277.350963 
L 187.371678 261.92755 
L 188.94913 230.710396 
L 189.62518 221.622958 
L 190.150997 217.150066 
L 190.564139 215.302165 
L 190.827048 214.890936 
L 190.977282 214.920717 
L 191.165073 215.226149 
L 191.427982 216.148236 
L 191.803566 218.444851 
L 192.291824 223.081028 
L 192.892758 231.11378 
L 193.756601 246.052953 
L 195.296494 273.107633 
L 195.822311 278.722204 
L 196.160337 280.523165 
L 196.385687 280.817406 
L 196.53592 280.58724 
L 196.76127 279.586199 
L 197.061737 277.02362 
L 197.474879 271.301725 
L 198.038255 260.00068 
L 200.254199 211.405467 
L 200.592224 208.973095 
L 200.780016 208.618066 
L 200.892691 208.75882 
L 201.080483 209.587546 
L 201.343392 211.980836 
L 201.718975 217.757264 
L 202.244792 229.755165 
L 204.385619 284.005038 
L 204.723645 286.906991 
L 204.911437 287.376724 
L 205.024112 287.255877 
L 205.211904 286.382787 
L 205.474812 283.778744 
L 205.850396 277.456535 
L 206.376213 264.404675 
L 208.404365 209.311202 
L 208.779949 205.504809 
L 209.005299 204.816205 
L 209.117974 204.930397 
L 209.268207 205.554828 
L 209.531116 207.910008 
L 209.9067 213.842716 
L 210.432517 226.208337 
L 212.385552 276.287135 
L 212.761136 280.209608 
L 213.024044 281.175767 
L 213.13672 281.135598 
L 213.286953 280.665294 
L 213.512303 279.098643 
L 213.850329 274.974904 
L 214.376146 265.20717 
L 216.216506 227.562827 
L 216.59209 224.397461 
L 216.854998 223.651449 
L 216.967673 223.706081 
L 217.117907 224.121094 
L 217.380815 225.745715 
L 217.756399 229.829637 
L 218.319775 238.773481 
L 219.671876 261.061184 
L 220.085018 264.56564 
L 220.347926 265.477761 
L 220.49816 265.511079 
L 220.648393 265.187667 
L 220.873744 264.046914 
L 221.211769 260.954725 
L 221.700028 254.066918 
L 223.690621 222.677762 
L 224.028647 220.994445 
L 224.216439 220.817931 
L 224.366672 221.074218 
L 224.592022 222.112819 
L 224.930048 225.067043 
L 225.380748 231.250804 
L 226.169474 245.873796 
L 227.221108 264.582769 
L 227.746925 270.318845 
L 228.084951 272.16481 
L 228.310301 272.555755 
L 228.460534 272.449694 
L 228.648326 271.921686 
L 228.948793 270.233077 
L 229.399494 266.080458 
L 230.188219 256.132191 
L 231.202295 244.023671 
L 231.765671 239.755968 
L 232.178813 238.020082 
L 232.516838 237.38365 
L 232.779747 237.274412 
L 233.080214 237.433432 
L 234.056731 238.204762 
L 234.31964 238.041963 
L 234.620107 237.504253 
L 234.995691 236.258966 
L 235.521508 233.556144 
L 236.873609 226.032436 
L 237.174076 225.521342 
L 237.324309 225.574541 
L 237.512101 225.971429 
L 237.77501 227.201052 
L 238.113035 230.023899 
L 238.563736 236.011307 
L 239.16467 247.539704 
L 241.305497 292.627824 
L 241.643522 295.108816 
L 241.831314 295.488 
L 241.943989 295.354022 
L 242.131781 294.514367 
L 242.394689 292.034639 
L 242.770273 285.914582 
L 243.258532 273.877046 
L 244.009699 249.006471 
L 245.399359 202.745243 
L 245.925176 192.199581 
L 246.30076 188.48839 
L 246.52611 187.920506 
L 246.638785 188.109218 
L 246.826577 189.11679 
L 247.089486 191.93999 
L 247.465069 198.615829 
L 248.028445 213.392559 
L 249.192754 252.155147 
L 250.019038 275.780137 
L 250.544855 285.51194 
L 250.957998 289.55193 
L 251.220906 290.426866 
L 251.333581 290.409191 
L 251.483815 290.033451 
L 251.709165 288.754235 
L 252.04719 285.386797 
L 252.573007 277.424856 
L 253.699759 255.578215 
L 254.526043 241.780697 
L 255.089418 235.513035 
L 255.540119 232.587204 
L 255.878144 231.527647 
L 256.141053 231.284827 
L 256.328844 231.374149 
L 256.591753 231.797594 
L 257.004895 232.957608 
L 258.432113 237.36859 
L 258.845255 237.906133 
L 259.18328 238.026306 
L 259.521306 237.914006 
L 260.159798 237.392532 
L 260.648057 237.116369 
L 260.948524 237.167418 
L 261.248991 237.46975 
L 261.587016 238.172288 
L 262.000158 239.606342 
L 262.525975 242.337315 
L 263.277143 247.610139 
L 264.892153 259.255276 
L 265.455528 261.660013 
L 265.86867 262.548992 
L 266.131579 262.713401 
L 266.356929 262.611583 
L 266.619838 262.224071 
L 266.995421 261.215056 
L 267.521238 259.06195 
L 268.347523 254.566352 
L 270.93905 239.867324 
L 272.178476 234.277547 
L 272.929644 231.760957 
L 273.417902 230.748661 
L 273.755928 230.437854 
L 274.018836 230.45512 
L 274.281745 230.721484 
L 274.61977 231.45422 
L 275.032912 232.96764 
L 275.55873 235.856407 
L 276.23478 240.931311 
L 278.938983 262.963296 
L 279.4648 264.949388 
L 279.840384 265.639375 
L 280.103292 265.763241 
L 280.328642 265.642038 
L 280.629109 265.170293 
L 281.004693 264.118858 
L 281.53051 261.885441 
L 282.206561 257.926709 
L 283.070403 251.451575 
L 284.197155 241.190814 
L 286.15019 223.171258 
L 286.676007 220.232676 
L 287.051591 219.189268 
L 287.276941 219.069421 
L 287.464733 219.287531 
L 287.727641 220.106428 
L 288.065667 222.07406 
L 288.516367 226.307178 
L 289.079743 233.987452 
L 289.943585 249.405867 
L 291.258128 272.745266 
L 291.821504 279.103701 
L 292.197087 281.323613 
L 292.422437 281.789824 
L 292.572671 281.728892 
L 292.760463 281.233954 
L 293.023371 279.773446 
L 293.398955 276.222902 
L 293.924772 268.78489 
L 294.788615 252.753258 
L 295.952924 231.948196 
L 296.553858 224.916761 
L 297.004558 222.005301 
L 297.305025 221.216517 
L 297.492817 221.168443 
L 297.680609 221.438631 
L 297.943518 222.301054 
L 298.35666 224.602303 
L 299.03271 229.939639 
L 300.384812 240.702597 
L 301.060862 244.274426 
L 301.774471 246.858141 
L 302.788547 250.419548 
L 303.389481 253.521722 
L 304.140649 258.762073 
L 305.49275 268.45768 
L 305.905892 269.963689 
L 306.168801 270.245332 
L 306.319034 270.133483 
L 306.544384 269.564837 
L 306.844851 268.022326 
L 307.220435 264.813207 
L 307.746252 258.084478 
L 308.49742 245.151032 
L 309.849521 221.663496 
L 310.375338 216.158477 
L 310.713363 214.40583 
L 310.938714 214.088294 
L 311.088947 214.261688 
L 311.314297 215.093407 
L 311.614764 217.227393 
L 312.065465 222.388237 
L 312.741515 233.333806 
L 314.318967 259.994239 
L 314.844784 265.267799 
L 315.257926 267.453642 
L 315.520835 267.946925 
L 315.671068 267.93264 
L 315.85886 267.633459 
L 316.159327 266.573015 
L 316.610027 263.921606 
L 317.511428 256.821432 
L 318.375271 250.824445 
L 318.938646 248.352256 
L 319.389347 247.233595 
L 319.840047 246.678723 
L 321.079473 245.561864 
L 321.492615 244.576427 
L 321.980874 242.767344 
L 322.694483 239.093646 
L 323.821234 233.332742 
L 324.234376 232.219298 
L 324.497285 231.985172 
L 324.685077 232.072043 
L 324.910427 232.468664 
L 325.210894 233.496074 
L 325.624036 235.784729 
L 326.22497 240.54043 
L 327.802421 253.751595 
L 328.253122 255.655462 
L 328.553589 256.169536 
L 328.741381 256.177069 
L 328.966731 255.879705 
L 329.267198 255.009686 
L 329.717898 252.904555 
L 331.182675 245.355374 
L 331.483142 244.849112 
L 331.670933 244.851399 
L 331.858725 245.116025 
L 332.121634 245.936057 
L 332.497218 247.985098 
L 333.023035 252.293651 
L 334.562928 265.960869 
L 334.900953 267.07523 
L 335.088745 267.147421 
L 335.238979 266.895578 
L 335.464329 265.975111 
L 335.764796 263.705487 
L 336.177938 258.66968 
L 336.741313 248.682545 
L 337.98074 221.058342 
L 338.65679 208.884796 
L 339.107491 204.166064 
L 339.407958 202.962366 
L 339.520633 202.944454 
L 339.670866 203.297656 
L 339.896216 204.639201 
L 340.234242 208.442082 
L 340.684942 216.586078 
L 341.323434 232.787158 
L 343.201353 283.387133 
L 343.689612 290.26303 
L 344.027637 292.522403 
L 344.215429 292.863282 
L 344.328104 292.757224 
L 344.515896 292.075014 
L 344.778804 290.105779 
L 345.154388 285.438841 
L 345.717764 275.213467 
L 348.121499 227.234333 
L 348.609758 222.785534 
L 348.985342 221.048855 
L 349.24825 220.631876 
L 349.436042 220.693413 
L 349.661392 221.115145 
L 349.999418 222.339568 
L 350.525235 225.221982 
L 352.47827 236.786779 
L 353.379671 240.232925 
L 354.393747 244.186813 
L 355.069798 247.888745 
L 355.820965 253.3525 
L 357.961792 269.970831 
L 358.374934 271.443824 
L 358.637843 271.816007 
L 358.825635 271.786068 
L 359.013426 271.498144 
L 359.276335 270.649677 
L 359.651919 268.529052 
L 360.140178 264.233707 
L 360.77867 256.353434 
L 361.867863 239.476037 
L 362.994614 223.145672 
L 363.595548 217.295524 
L 364.00869 215.015078 
L 364.309157 214.366139 
L 364.45939 214.374543 
L 364.647182 214.701151 
L 364.91009 215.746559 
L 365.285674 218.397805 
L 365.773933 223.713859 
L 366.449984 233.849536 
L 368.741044 270.744831 
L 369.229303 274.611567 
L 369.567328 275.855929 
L 369.75512 276.015652 
L 369.905354 275.868356 
L 370.130704 275.194333 
L 370.431171 273.478452 
L 370.844313 269.720127 
L 371.445247 261.922005 
L 373.773866 228.941753 
L 374.187008 226.471447 
L 374.487475 225.75159 
L 374.637708 225.740341 
L 374.8255 226.050676 
L 375.088409 227.073843 
L 375.463992 229.642775 
L 375.989809 235.063583 
L 376.966327 248.151211 
L 377.867728 259.068266 
L 378.355987 262.765528 
L 378.694012 264.021136 
L 378.919362 264.201019 
L 379.069596 264.01919 
L 379.294946 263.291909 
L 379.595413 261.491027 
L 380.008555 257.575312 
L 380.609489 249.481935 
L 382.562524 221.049442 
L 382.975666 218.433981 
L 383.238575 217.88647 
L 383.35125 217.936916 
L 383.539042 218.411603 
L 383.80195 219.903658 
L 384.177534 223.678884 
L 384.665793 231.228088 
L 385.379402 246.266907 
L 386.956853 280.556808 
L 387.445112 286.61691 
L 387.783137 288.612609 
L 387.970929 288.865247 
L 388.083604 288.71419 
L 388.271396 287.95425 
L 388.534305 285.831733 
L 388.909889 280.748245 
L 389.435706 270.08396 
L 390.26199 247.854301 
L 391.501416 215.150272 
L 392.064792 205.77595 
L 392.440375 202.519669 
L 392.665725 201.820848 
L 392.778401 201.829746 
L 392.928634 202.210684 
L 393.153984 203.556543 
L 393.49201 207.223273 
L 393.980268 215.547375 
L 394.731436 233.041473 
L 396.083537 264.809717 
L 396.646913 273.209074 
L 397.060055 276.564313 
L 397.322963 277.404246 
L 397.473197 277.441088 
L 397.62343 277.167894 
L 397.84878 276.207722 
L 398.186806 273.653045 
L 398.487273 270.445655 
L 398.487273 270.445655 
" style="fill:none;stroke:#0000ff;stroke-linecap:square;stroke-width:2;"/>
   </g>
   <g id="patch_3">
    <path d="M 57.6 307.584 
L 57.6 41.472 
" style="fill:none;stroke:#000000;stroke-linecap:square;stroke-linejoin:miter;stroke-width:0.8;"/>
   </g>
   <g id="patch_4">
    <path d="M 414.72 307.584 
L 414.72 41.472 
" style="fill:none;stroke:#000000;stroke-linecap:square;stroke-linejoin:miter;stroke-width:0.8;"/>
   </g>
   <g id="patch_5">
    <path d="M 57.6 307.584 
L 414.72 307.584 
" style="fill:none;stroke:#000000;stroke-linecap:square;stroke-linejoin:miter;stroke-width:0.8;"/>
   </g>
   <g id="patch_6">
    <path d="M 57.6 41.472 
L 414.72 41.472 
" style="fill:none;stroke:#000000;stroke-linecap:square;stroke-linejoin:miter;stroke-width:0.8;"/>
   </g>
   <g id="legend_1">
    <g id="patch_7">
     <path d="M 68.8 124.727 
L 282.0175 124.727 
Q 285.2175 124.727 285.2175 121.527 
L 285.2175 52.672 
Q 285.2175 49.472 282.0175 49.472 
L 68.8 49.472 
Q 65.6 49.472 65.6 52.672 
L 65.6 121.527 
Q 65.6 124.727 68.8 124.727 
z
" style="fill:#ffffff;opacity:0.8;stroke:#cccccc;stroke-linejoin:miter;"/>
    </g>
    <g id="line2d_14">
     <path d="M 72 62.4295 
L 104 62.4295 
" style="fill:none;stroke:#000000;stroke-linecap:square;stroke-width:1.5;"/>
    </g>
    <g id="line2d_15"/>
    <g id="text_13">
     <!-- Membrane potential -->
     <defs>
      <path d="M 9.8125 72.90625 
L 24.515625 72.90625 
L 43.109375 23.296875 
L 61.8125 72.90625 
L 76.515625 72.90625 
L 76.515625 0 
L 66.890625 0 
L 66.890625 64.015625 
L 48.09375 14.015625 
L 38.1875 14.015625 
L 19.390625 64.015625 
L 19.390625 0 
L 9.8125 0 
z
" id="DejaVuSans-4d"/>
      <path d="M 48.6875 27.296875 
Q 48.6875 37.203125 44.609375 42.84375 
Q 40.53125 48.484375 33.40625 48.484375 
Q 26.265625 48.484375 22.1875 42.84375 
Q 18.109375 37.203125 18.109375 27.296875 
Q 18.109375 17.390625 22.1875 11.75 
Q 26.265625 6.109375 33.40625 6.109375 
Q 40.53125 6.109375 44.609375 11.75 
Q 48.6875 17.390625 48.6875 27.296875 
z
M 18.109375 46.390625 
Q 20.953125 51.265625 25.265625 53.625 
Q 29.59375 56 35.59375 56 
Q 45.5625 56 51.78125 48.09375 
Q 58.015625 40.1875 58.015625 27.296875 
Q 58.015625 14.40625 51.78125 6.484375 
Q 45.5625 -1.421875 35.59375 -1.421875 
Q 29.59375 -1.421875 25.265625 0.953125 
Q 20.953125 3.328125 18.109375 8.203125 
L 18.109375 0 
L 9.078125 0 
L 9.078125 75.984375 
L 18.109375 75.984375 
z
" id="DejaVuSans-62"/>
      <path d="M 41.109375 46.296875 
Q 39.59375 47.171875 37.8125 47.578125 
Q 36.03125 48 33.890625 48 
Q 26.265625 48 22.1875 43.046875 
Q 18.109375 38.09375 18.109375 28.8125 
L 18.109375 0 
L 9.078125 0 
L 9.078125 54.6875 
L 18.109375 54.6875 
L 18.109375 46.1875 
Q 20.953125 51.171875 25.484375 53.578125 
Q 30.03125 56 36.53125 56 
Q 37.453125 56 38.578125 55.875 
Q 39.703125 55.765625 41.0625 55.515625 
z
" id="DejaVuSans-72"/>
      <path d="M 54.890625 33.015625 
L 54.890625 0 
L 45.90625 0 
L 45.90625 32.71875 
Q 45.90625 40.484375 42.875 44.328125 
Q 39.84375 48.1875 33.796875 48.1875 
Q 26.515625 48.1875 22.3125 43.546875 
Q 18.109375 38.921875 18.109375 30.90625 
L 18.109375 0 
L 9.078125 0 
L 9.078125 54.6875 
L 18.109375 54.6875 
L 18.109375 46.1875 
Q 21.34375 51.125 25.703125 53.5625 
Q 30.078125 56 35.796875 56 
Q 45.21875 56 50.046875 50.171875 
Q 54.890625 44.34375 54.890625 33.015625 
z
" id="DejaVuSans-6e"/>
      <path d="M 18.109375 8.203125 
L 18.109375 -20.796875 
L 9.078125 -20.796875 
L 9.078125 54.6875 
L 18.109375 54.6875 
L 18.109375 46.390625 
Q 20.953125 51.265625 25.265625 53.625 
Q 29.59375 56 35.59375 56 
Q 45.5625 56 51.78125 48.09375 
Q 58.015625 40.1875 58.015625 27.296875 
Q 58.015625 14.40625 51.78125 6.484375 
Q 45.5625 -1.421875 35.59375 -1.421875 
Q 29.59375 -1.421875 25.265625 0.953125 
Q 20.953125 3.328125 18.109375 8.203125 
z
M 48.6875 27.296875 
Q 48.6875 37.203125 44.609375 42.84375 
Q 40.53125 48.484375 33.40625 48.484375 
Q 26.265625 48.484375 22.1875 42.84375 
Q 18.109375 37.203125 18.109375 27.296875 
Q 18.109375 17.390625 22.1875 11.75 
Q 26.265625 6.109375 33.40625 6.109375 
Q 40.53125 6.109375 44.609375 11.75 
Q 48.6875 17.390625 48.6875 27.296875 
z
" id="DejaVuSans-70"/>
     </defs>
     <g transform="translate(116.8 68.0295)scale(0.16 -0.16)">
      <use xlink:href="#DejaVuSans-4d"/>
      <use x="86.279297" xlink:href="#DejaVuSans-65"/>
      <use x="147.802734" xlink:href="#DejaVuSans-6d"/>
      <use x="245.214844" xlink:href="#DejaVuSans-62"/>
      <use x="308.691406" xlink:href="#DejaVuSans-72"/>
      <use x="349.804688" xlink:href="#DejaVuSans-61"/>
      <use x="411.083984" xlink:href="#DejaVuSans-6e"/>
      <use x="474.462891" xlink:href="#DejaVuSans-65"/>
      <use x="535.986328" xlink:href="#DejaVuSans-20"/>
      <use x="567.773438" xlink:href="#DejaVuSans-70"/>
      <use x="631.25" xlink:href="#DejaVuSans-6f"/>
      <use x="692.431641" xlink:href="#DejaVuSans-74"/>
      <use x="731.640625" xlink:href="#DejaVuSans-65"/>
      <use x="793.164062" xlink:href="#DejaVuSans-6e"/>
      <use x="856.542969" xlink:href="#DejaVuSans-74"/>
      <use x="895.751953" xlink:href="#DejaVuSans-69"/>
      <use x="923.535156" xlink:href="#DejaVuSans-61"/>
      <use x="984.814453" xlink:href="#DejaVuSans-6c"/>
     </g>
    </g>
    <g id="line2d_16">
     <path d="M 72 85.9145 
L 104 85.9145 
" style="fill:none;stroke:#008000;stroke-linecap:square;stroke-width:2;"/>
    </g>
    <g id="line2d_17"/>
    <g id="text_14">
     <!-- Ramp -->
     <defs>
      <path d="M 44.390625 34.1875 
Q 47.5625 33.109375 50.5625 29.59375 
Q 53.5625 26.078125 56.59375 19.921875 
L 66.609375 0 
L 56 0 
L 46.6875 18.703125 
Q 43.0625 26.03125 39.671875 28.421875 
Q 36.28125 30.8125 30.421875 30.8125 
L 19.671875 30.8125 
L 19.671875 0 
L 9.8125 0 
L 9.8125 72.90625 
L 32.078125 72.90625 
Q 44.578125 72.90625 50.734375 67.671875 
Q 56.890625 62.453125 56.890625 51.90625 
Q 56.890625 45.015625 53.6875 40.46875 
Q 50.484375 35.9375 44.390625 34.1875 
z
M 19.671875 64.796875 
L 19.671875 38.921875 
L 32.078125 38.921875 
Q 39.203125 38.921875 42.84375 42.21875 
Q 46.484375 45.515625 46.484375 51.90625 
Q 46.484375 58.296875 42.84375 61.546875 
Q 39.203125 64.796875 32.078125 64.796875 
z
" id="DejaVuSans-52"/>
     </defs>
     <g transform="translate(116.8 91.5145)scale(0.16 -0.16)">
      <use xlink:href="#DejaVuSans-52"/>
      <use x="69.451172" xlink:href="#DejaVuSans-61"/>
      <use x="130.730469" xlink:href="#DejaVuSans-6d"/>
      <use x="228.142578" xlink:href="#DejaVuSans-70"/>
     </g>
    </g>
    <g id="line2d_18">
     <path d="M 72 109.3995 
L 104 109.3995 
" style="fill:none;stroke:#0000ff;stroke-linecap:square;stroke-width:2;"/>
    </g>
    <g id="line2d_19"/>
    <g id="text_15">
     <!-- Theta -->
     <defs>
      <path d="M 54.890625 33.015625 
L 54.890625 0 
L 45.90625 0 
L 45.90625 32.71875 
Q 45.90625 40.484375 42.875 44.328125 
Q 39.84375 48.1875 33.796875 48.1875 
Q 26.515625 48.1875 22.3125 43.546875 
Q 18.109375 38.921875 18.109375 30.90625 
L 18.109375 0 
L 9.078125 0 
L 9.078125 75.984375 
L 18.109375 75.984375 
L 18.109375 46.1875 
Q 21.34375 51.125 25.703125 53.5625 
Q 30.078125 56 35.796875 56 
Q 45.21875 56 50.046875 50.171875 
Q 54.890625 44.34375 54.890625 33.015625 
z
" id="DejaVuSans-68"/>
     </defs>
     <g transform="translate(116.8 114.9995)scale(0.16 -0.16)">
      <use xlink:href="#DejaVuSans-54"/>
      <use x="61.083984" xlink:href="#DejaVuSans-68"/>
      <use x="124.462891" xlink:href="#DejaVuSans-65"/>
      <use x="185.986328" xlink:href="#DejaVuSans-74"/>
      <use x="225.195312" xlink:href="#DejaVuSans-61"/>
     </g>
    </g>
   </g>
  </g>
 </g>
 <defs>
  <clipPath id="p0ec3f717a3">
   <rect height="266.112" width="357.12" x="57.6" y="41.472"/>
  </clipPath>
 </defs>
</svg>
