<?xml version="1.0" encoding="utf-8" standalone="no"?>
<!DOCTYPE svg PUBLIC "-//W3C//DTD SVG 1.1//EN"
  "http://www.w3.org/Graphics/SVG/1.1/DTD/svg11.dtd">
<!-- Created with matplotlib (http://matplotlib.org/) -->
<svg height="345pt" version="1.1" viewBox="0 0 460 345" width="460pt" xmlns="http://www.w3.org/2000/svg" xmlns:xlink="http://www.w3.org/1999/xlink">
 <defs>
  <style type="text/css">
*{stroke-linecap:butt;stroke-linejoin:round;}
  </style>
 </defs>
 <g id="figure_1">
  <g id="patch_1">
   <path d="M 0 345.6 
L 460.8 345.6 
L 460.8 0 
L 0 0 
z
" style="fill:#ffffff;"/>
  </g>
  <g id="axes_1">
   <g id="patch_2">
    <path d="M 57.6 307.584 
L 414.72 307.584 
L 414.72 41.472 
L 57.6 41.472 
z
" style="fill:#ffffff;"/>
   </g>
   <g id="matplotlib.axis_1">
    <g id="xtick_1">
     <g id="line2d_1">
      <defs>
       <path d="M 0 0 
L 0 3.5 
" id="me2e53cb31b" style="stroke:#000000;stroke-width:0.8;"/>
      </defs>
      <g>
       <use style="stroke:#000000;stroke-width:0.8;" x="73.832727" xlink:href="#me2e53cb31b" y="307.584"/>
      </g>
     </g>
     <g id="text_1">
      <!-- 0 -->
      <defs>
       <path d="M 31.78125 66.40625 
Q 24.171875 66.40625 20.328125 58.90625 
Q 16.5 51.421875 16.5 36.375 
Q 16.5 21.390625 20.328125 13.890625 
Q 24.171875 6.390625 31.78125 6.390625 
Q 39.453125 6.390625 43.28125 13.890625 
Q 47.125 21.390625 47.125 36.375 
Q 47.125 51.421875 43.28125 58.90625 
Q 39.453125 66.40625 31.78125 66.40625 
z
M 31.78125 74.21875 
Q 44.046875 74.21875 50.515625 64.515625 
Q 56.984375 54.828125 56.984375 36.375 
Q 56.984375 17.96875 50.515625 8.265625 
Q 44.046875 -1.421875 31.78125 -1.421875 
Q 19.53125 -1.421875 13.0625 8.265625 
Q 6.59375 17.96875 6.59375 36.375 
Q 6.59375 54.828125 13.0625 64.515625 
Q 19.53125 74.21875 31.78125 74.21875 
z
" id="DejaVuSans-30"/>
      </defs>
      <g transform="translate(70.651477 322.182437)scale(0.1 -0.1)">
       <use xlink:href="#DejaVuSans-30"/>
      </g>
     </g>
    </g>
    <g id="xtick_2">
     <g id="line2d_2">
      <g>
       <use style="stroke:#000000;stroke-width:0.8;" x="122.404622" xlink:href="#me2e53cb31b" y="307.584"/>
      </g>
     </g>
     <g id="text_2">
      <!-- 500 -->
      <defs>
       <path d="M 10.796875 72.90625 
L 49.515625 72.90625 
L 49.515625 64.59375 
L 19.828125 64.59375 
L 19.828125 46.734375 
Q 21.96875 47.46875 24.109375 47.828125 
Q 26.265625 48.1875 28.421875 48.1875 
Q 40.625 48.1875 47.75 41.5 
Q 54.890625 34.8125 54.890625 23.390625 
Q 54.890625 11.625 47.5625 5.09375 
Q 40.234375 -1.421875 26.90625 -1.421875 
Q 22.3125 -1.421875 17.546875 -0.640625 
Q 12.796875 0.140625 7.71875 1.703125 
L 7.71875 11.625 
Q 12.109375 9.234375 16.796875 8.0625 
Q 21.484375 6.890625 26.703125 6.890625 
Q 35.15625 6.890625 40.078125 11.328125 
Q 45.015625 15.765625 45.015625 23.390625 
Q 45.015625 31 40.078125 35.4375 
Q 35.15625 39.890625 26.703125 39.890625 
Q 22.75 39.890625 18.8125 39.015625 
Q 14.890625 38.140625 10.796875 36.28125 
z
" id="DejaVuSans-35"/>
      </defs>
      <g transform="translate(112.860872 322.182437)scale(0.1 -0.1)">
       <use xlink:href="#DejaVuSans-35"/>
       <use x="63.623047" xlink:href="#DejaVuSans-30"/>
       <use x="127.246094" xlink:href="#DejaVuSans-30"/>
      </g>
     </g>
    </g>
    <g id="xtick_3">
     <g id="line2d_3">
      <g>
       <use style="stroke:#000000;stroke-width:0.8;" x="170.976517" xlink:href="#me2e53cb31b" y="307.584"/>
      </g>
     </g>
     <g id="text_3">
      <!-- 1000 -->
      <defs>
       <path d="M 12.40625 8.296875 
L 28.515625 8.296875 
L 28.515625 63.921875 
L 10.984375 60.40625 
L 10.984375 69.390625 
L 28.421875 72.90625 
L 38.28125 72.90625 
L 38.28125 8.296875 
L 54.390625 8.296875 
L 54.390625 0 
L 12.40625 0 
z
" id="DejaVuSans-31"/>
      </defs>
      <g transform="translate(158.251517 322.182437)scale(0.1 -0.1)">
       <use xlink:href="#DejaVuSans-31"/>
       <use x="63.623047" xlink:href="#DejaVuSans-30"/>
       <use x="127.246094" xlink:href="#DejaVuSans-30"/>
       <use x="190.869141" xlink:href="#DejaVuSans-30"/>
      </g>
     </g>
    </g>
    <g id="xtick_4">
     <g id="line2d_4">
      <g>
       <use style="stroke:#000000;stroke-width:0.8;" x="219.548412" xlink:href="#me2e53cb31b" y="307.584"/>
      </g>
     </g>
     <g id="text_4">
      <!-- 1500 -->
      <g transform="translate(206.823412 322.182437)scale(0.1 -0.1)">
       <use xlink:href="#DejaVuSans-31"/>
       <use x="63.623047" xlink:href="#DejaVuSans-35"/>
       <use x="127.246094" xlink:href="#DejaVuSans-30"/>
       <use x="190.869141" xlink:href="#DejaVuSans-30"/>
      </g>
     </g>
    </g>
    <g id="xtick_5">
     <g id="line2d_5">
      <g>
       <use style="stroke:#000000;stroke-width:0.8;" x="268.120307" xlink:href="#me2e53cb31b" y="307.584"/>
      </g>
     </g>
     <g id="text_5">
      <!-- 2000 -->
      <defs>
       <path d="M 19.1875 8.296875 
L 53.609375 8.296875 
L 53.609375 0 
L 7.328125 0 
L 7.328125 8.296875 
Q 12.9375 14.109375 22.625 23.890625 
Q 32.328125 33.6875 34.8125 36.53125 
Q 39.546875 41.84375 41.421875 45.53125 
Q 43.3125 49.21875 43.3125 52.78125 
Q 43.3125 58.59375 39.234375 62.25 
Q 35.15625 65.921875 28.609375 65.921875 
Q 23.96875 65.921875 18.8125 64.3125 
Q 13.671875 62.703125 7.8125 59.421875 
L 7.8125 69.390625 
Q 13.765625 71.78125 18.9375 73 
Q 24.125 74.21875 28.421875 74.21875 
Q 39.75 74.21875 46.484375 68.546875 
Q 53.21875 62.890625 53.21875 53.421875 
Q 53.21875 48.921875 51.53125 44.890625 
Q 49.859375 40.875 45.40625 35.40625 
Q 44.1875 33.984375 37.640625 27.21875 
Q 31.109375 20.453125 19.1875 8.296875 
z
" id="DejaVuSans-32"/>
      </defs>
      <g transform="translate(255.395307 322.182437)scale(0.1 -0.1)">
       <use xlink:href="#DejaVuSans-32"/>
       <use x="63.623047" xlink:href="#DejaVuSans-30"/>
       <use x="127.246094" xlink:href="#DejaVuSans-30"/>
       <use x="190.869141" xlink:href="#DejaVuSans-30"/>
      </g>
     </g>
    </g>
    <g id="xtick_6">
     <g id="line2d_6">
      <g>
       <use style="stroke:#000000;stroke-width:0.8;" x="316.692202" xlink:href="#me2e53cb31b" y="307.584"/>
      </g>
     </g>
     <g id="text_6">
      <!-- 2500 -->
      <g transform="translate(303.967202 322.182437)scale(0.1 -0.1)">
       <use xlink:href="#DejaVuSans-32"/>
       <use x="63.623047" xlink:href="#DejaVuSans-35"/>
       <use x="127.246094" xlink:href="#DejaVuSans-30"/>
       <use x="190.869141" xlink:href="#DejaVuSans-30"/>
      </g>
     </g>
    </g>
    <g id="xtick_7">
     <g id="line2d_7">
      <g>
       <use style="stroke:#000000;stroke-width:0.8;" x="365.264097" xlink:href="#me2e53cb31b" y="307.584"/>
      </g>
     </g>
     <g id="text_7">
      <!-- 3000 -->
      <defs>
       <path d="M 40.578125 39.3125 
Q 47.65625 37.796875 51.625 33 
Q 55.609375 28.21875 55.609375 21.1875 
Q 55.609375 10.40625 48.1875 4.484375 
Q 40.765625 -1.421875 27.09375 -1.421875 
Q 22.515625 -1.421875 17.65625 -0.515625 
Q 12.796875 0.390625 7.625 2.203125 
L 7.625 11.71875 
Q 11.71875 9.328125 16.59375 8.109375 
Q 21.484375 6.890625 26.8125 6.890625 
Q 36.078125 6.890625 40.9375 10.546875 
Q 45.796875 14.203125 45.796875 21.1875 
Q 45.796875 27.640625 41.28125 31.265625 
Q 36.765625 34.90625 28.71875 34.90625 
L 20.21875 34.90625 
L 20.21875 43.015625 
L 29.109375 43.015625 
Q 36.375 43.015625 40.234375 45.921875 
Q 44.09375 48.828125 44.09375 54.296875 
Q 44.09375 59.90625 40.109375 62.90625 
Q 36.140625 65.921875 28.71875 65.921875 
Q 24.65625 65.921875 20.015625 65.03125 
Q 15.375 64.15625 9.8125 62.3125 
L 9.8125 71.09375 
Q 15.4375 72.65625 20.34375 73.4375 
Q 25.25 74.21875 29.59375 74.21875 
Q 40.828125 74.21875 47.359375 69.109375 
Q 53.90625 64.015625 53.90625 55.328125 
Q 53.90625 49.265625 50.4375 45.09375 
Q 46.96875 40.921875 40.578125 39.3125 
z
" id="DejaVuSans-33"/>
      </defs>
      <g transform="translate(352.539097 322.182437)scale(0.1 -0.1)">
       <use xlink:href="#DejaVuSans-33"/>
       <use x="63.623047" xlink:href="#DejaVuSans-30"/>
       <use x="127.246094" xlink:href="#DejaVuSans-30"/>
       <use x="190.869141" xlink:href="#DejaVuSans-30"/>
      </g>
     </g>
    </g>
    <g id="xtick_8">
     <g id="line2d_8">
      <g>
       <use style="stroke:#000000;stroke-width:0.8;" x="413.835992" xlink:href="#me2e53cb31b" y="307.584"/>
      </g>
     </g>
     <g id="text_8">
      <!-- 3500 -->
      <g transform="translate(401.110992 322.182437)scale(0.1 -0.1)">
       <use xlink:href="#DejaVuSans-33"/>
       <use x="63.623047" xlink:href="#DejaVuSans-35"/>
       <use x="127.246094" xlink:href="#DejaVuSans-30"/>
       <use x="190.869141" xlink:href="#DejaVuSans-30"/>
      </g>
     </g>
    </g>
    <g id="text_9">
     <!-- Time (ms) -->
     <defs>
      <path d="M -0.296875 72.90625 
L 61.375 72.90625 
L 61.375 64.59375 
L 35.5 64.59375 
L 35.5 0 
L 25.59375 0 
L 25.59375 64.59375 
L -0.296875 64.59375 
z
" id="DejaVuSans-54"/>
      <path d="M 9.421875 54.6875 
L 18.40625 54.6875 
L 18.40625 0 
L 9.421875 0 
z
M 9.421875 75.984375 
L 18.40625 75.984375 
L 18.40625 64.59375 
L 9.421875 64.59375 
z
" id="DejaVuSans-69"/>
      <path d="M 52 44.1875 
Q 55.375 50.25 60.0625 53.125 
Q 64.75 56 71.09375 56 
Q 79.640625 56 84.28125 50.015625 
Q 88.921875 44.046875 88.921875 33.015625 
L 88.921875 0 
L 79.890625 0 
L 79.890625 32.71875 
Q 79.890625 40.578125 77.09375 44.375 
Q 74.3125 48.1875 68.609375 48.1875 
Q 61.625 48.1875 57.5625 43.546875 
Q 53.515625 38.921875 53.515625 30.90625 
L 53.515625 0 
L 44.484375 0 
L 44.484375 32.71875 
Q 44.484375 40.625 41.703125 44.40625 
Q 38.921875 48.1875 33.109375 48.1875 
Q 26.21875 48.1875 22.15625 43.53125 
Q 18.109375 38.875 18.109375 30.90625 
L 18.109375 0 
L 9.078125 0 
L 9.078125 54.6875 
L 18.109375 54.6875 
L 18.109375 46.1875 
Q 21.1875 51.21875 25.484375 53.609375 
Q 29.78125 56 35.6875 56 
Q 41.65625 56 45.828125 52.96875 
Q 50 49.953125 52 44.1875 
z
" id="DejaVuSans-6d"/>
      <path d="M 56.203125 29.59375 
L 56.203125 25.203125 
L 14.890625 25.203125 
Q 15.484375 15.921875 20.484375 11.0625 
Q 25.484375 6.203125 34.421875 6.203125 
Q 39.59375 6.203125 44.453125 7.46875 
Q 49.3125 8.734375 54.109375 11.28125 
L 54.109375 2.78125 
Q 49.265625 0.734375 44.1875 -0.34375 
Q 39.109375 -1.421875 33.890625 -1.421875 
Q 20.796875 -1.421875 13.15625 6.1875 
Q 5.515625 13.8125 5.515625 26.8125 
Q 5.515625 40.234375 12.765625 48.109375 
Q 20.015625 56 32.328125 56 
Q 43.359375 56 49.78125 48.890625 
Q 56.203125 41.796875 56.203125 29.59375 
z
M 47.21875 32.234375 
Q 47.125 39.59375 43.09375 43.984375 
Q 39.0625 48.390625 32.421875 48.390625 
Q 24.90625 48.390625 20.390625 44.140625 
Q 15.875 39.890625 15.1875 32.171875 
z
" id="DejaVuSans-65"/>
      <path id="DejaVuSans-20"/>
      <path d="M 31 75.875 
Q 24.46875 64.65625 21.28125 53.65625 
Q 18.109375 42.671875 18.109375 31.390625 
Q 18.109375 20.125 21.3125 9.0625 
Q 24.515625 -2 31 -13.1875 
L 23.1875 -13.1875 
Q 15.875 -1.703125 12.234375 9.375 
Q 8.59375 20.453125 8.59375 31.390625 
Q 8.59375 42.28125 12.203125 53.3125 
Q 15.828125 64.359375 23.1875 75.875 
z
" id="DejaVuSans-28"/>
      <path d="M 44.28125 53.078125 
L 44.28125 44.578125 
Q 40.484375 46.53125 36.375 47.5 
Q 32.28125 48.484375 27.875 48.484375 
Q 21.1875 48.484375 17.84375 46.4375 
Q 14.5 44.390625 14.5 40.28125 
Q 14.5 37.15625 16.890625 35.375 
Q 19.28125 33.59375 26.515625 31.984375 
L 29.59375 31.296875 
Q 39.15625 29.25 43.1875 25.515625 
Q 47.21875 21.78125 47.21875 15.09375 
Q 47.21875 7.46875 41.1875 3.015625 
Q 35.15625 -1.421875 24.609375 -1.421875 
Q 20.21875 -1.421875 15.453125 -0.5625 
Q 10.6875 0.296875 5.421875 2 
L 5.421875 11.28125 
Q 10.40625 8.6875 15.234375 7.390625 
Q 20.0625 6.109375 24.8125 6.109375 
Q 31.15625 6.109375 34.5625 8.28125 
Q 37.984375 10.453125 37.984375 14.40625 
Q 37.984375 18.0625 35.515625 20.015625 
Q 33.0625 21.96875 24.703125 23.78125 
L 21.578125 24.515625 
Q 13.234375 26.265625 9.515625 29.90625 
Q 5.8125 33.546875 5.8125 39.890625 
Q 5.8125 47.609375 11.28125 51.796875 
Q 16.75 56 26.8125 56 
Q 31.78125 56 36.171875 55.265625 
Q 40.578125 54.546875 44.28125 53.078125 
z
" id="DejaVuSans-73"/>
      <path d="M 8.015625 75.875 
L 15.828125 75.875 
Q 23.140625 64.359375 26.78125 53.3125 
Q 30.421875 42.28125 30.421875 31.390625 
Q 30.421875 20.453125 26.78125 9.375 
Q 23.140625 -1.703125 15.828125 -13.1875 
L 8.015625 -13.1875 
Q 14.5 -2 17.703125 9.0625 
Q 20.90625 20.125 20.90625 31.390625 
Q 20.90625 42.671875 17.703125 53.65625 
Q 14.5 64.65625 8.015625 75.875 
z
" id="DejaVuSans-29"/>
     </defs>
     <g transform="translate(195.595 340.419625)scale(0.16 -0.16)">
      <use xlink:href="#DejaVuSans-54"/>
      <use x="61.037109" xlink:href="#DejaVuSans-69"/>
      <use x="88.820312" xlink:href="#DejaVuSans-6d"/>
      <use x="186.232422" xlink:href="#DejaVuSans-65"/>
      <use x="247.755859" xlink:href="#DejaVuSans-20"/>
      <use x="279.542969" xlink:href="#DejaVuSans-28"/>
      <use x="318.556641" xlink:href="#DejaVuSans-6d"/>
      <use x="415.96875" xlink:href="#DejaVuSans-73"/>
      <use x="468.068359" xlink:href="#DejaVuSans-29"/>
     </g>
    </g>
   </g>
   <g id="matplotlib.axis_2">
    <g id="ytick_1">
     <g id="line2d_9">
      <defs>
       <path d="M 0 0 
L -3.5 0 
" id="m5d4b7a03cc" style="stroke:#000000;stroke-width:0.8;"/>
      </defs>
      <g>
       <use style="stroke:#000000;stroke-width:0.8;" x="57.6" xlink:href="#m5d4b7a03cc" y="285.057207"/>
      </g>
     </g>
     <g id="text_10">
      <!-- −75 -->
      <defs>
       <path d="M 10.59375 35.5 
L 73.1875 35.5 
L 73.1875 27.203125 
L 10.59375 27.203125 
z
" id="DejaVuSans-2212"/>
       <path d="M 8.203125 72.90625 
L 55.078125 72.90625 
L 55.078125 68.703125 
L 28.609375 0 
L 18.3125 0 
L 43.21875 64.59375 
L 8.203125 64.59375 
z
" id="DejaVuSans-37"/>
      </defs>
      <g transform="translate(29.495313 288.856426)scale(0.1 -0.1)">
       <use xlink:href="#DejaVuSans-2212"/>
       <use x="83.789062" xlink:href="#DejaVuSans-37"/>
       <use x="147.412109" xlink:href="#DejaVuSans-35"/>
      </g>
     </g>
    </g>
    <g id="ytick_2">
     <g id="line2d_10">
      <g>
       <use style="stroke:#000000;stroke-width:0.8;" x="57.6" xlink:href="#m5d4b7a03cc" y="232.711675"/>
      </g>
     </g>
     <g id="text_11">
      <!-- −70 -->
      <g transform="translate(29.495313 236.510894)scale(0.1 -0.1)">
       <use xlink:href="#DejaVuSans-2212"/>
       <use x="83.789062" xlink:href="#DejaVuSans-37"/>
       <use x="147.412109" xlink:href="#DejaVuSans-30"/>
      </g>
     </g>
    </g>
    <g id="ytick_3">
     <g id="line2d_11">
      <g>
       <use style="stroke:#000000;stroke-width:0.8;" x="57.6" xlink:href="#m5d4b7a03cc" y="180.366143"/>
      </g>
     </g>
     <g id="text_12">
      <!-- −65 -->
      <defs>
       <path d="M 33.015625 40.375 
Q 26.375 40.375 22.484375 35.828125 
Q 18.609375 31.296875 18.609375 23.390625 
Q 18.609375 15.53125 22.484375 10.953125 
Q 26.375 6.390625 33.015625 6.390625 
Q 39.65625 6.390625 43.53125 10.953125 
Q 47.40625 15.53125 47.40625 23.390625 
Q 47.40625 31.296875 43.53125 35.828125 
Q 39.65625 40.375 33.015625 40.375 
z
M 52.59375 71.296875 
L 52.59375 62.3125 
Q 48.875 64.0625 45.09375 64.984375 
Q 41.3125 65.921875 37.59375 65.921875 
Q 27.828125 65.921875 22.671875 59.328125 
Q 17.53125 52.734375 16.796875 39.40625 
Q 19.671875 43.65625 24.015625 45.921875 
Q 28.375 48.1875 33.59375 48.1875 
Q 44.578125 48.1875 50.953125 41.515625 
Q 57.328125 34.859375 57.328125 23.390625 
Q 57.328125 12.15625 50.6875 5.359375 
Q 44.046875 -1.421875 33.015625 -1.421875 
Q 20.359375 -1.421875 13.671875 8.265625 
Q 6.984375 17.96875 6.984375 36.375 
Q 6.984375 53.65625 15.1875 63.9375 
Q 23.390625 74.21875 37.203125 74.21875 
Q 40.921875 74.21875 44.703125 73.484375 
Q 48.484375 72.75 52.59375 71.296875 
z
" id="DejaVuSans-36"/>
      </defs>
      <g transform="translate(29.495313 184.165362)scale(0.1 -0.1)">
       <use xlink:href="#DejaVuSans-2212"/>
       <use x="83.789062" xlink:href="#DejaVuSans-36"/>
       <use x="147.412109" xlink:href="#DejaVuSans-35"/>
      </g>
     </g>
    </g>
    <g id="ytick_4">
     <g id="line2d_12">
      <g>
       <use style="stroke:#000000;stroke-width:0.8;" x="57.6" xlink:href="#m5d4b7a03cc" y="128.020611"/>
      </g>
     </g>
     <g id="text_13">
      <!-- −60 -->
      <g transform="translate(29.495313 131.81983)scale(0.1 -0.1)">
       <use xlink:href="#DejaVuSans-2212"/>
       <use x="83.789062" xlink:href="#DejaVuSans-36"/>
       <use x="147.412109" xlink:href="#DejaVuSans-30"/>
      </g>
     </g>
    </g>
    <g id="ytick_5">
     <g id="line2d_13">
      <g>
       <use style="stroke:#000000;stroke-width:0.8;" x="57.6" xlink:href="#m5d4b7a03cc" y="75.675079"/>
      </g>
     </g>
     <g id="text_14">
      <!-- −55 -->
      <g transform="translate(29.495313 79.474298)scale(0.1 -0.1)">
       <use xlink:href="#DejaVuSans-2212"/>
       <use x="83.789062" xlink:href="#DejaVuSans-35"/>
       <use x="147.412109" xlink:href="#DejaVuSans-35"/>
      </g>
     </g>
    </g>
    <g id="text_15">
     <!-- Voltage (mV) -->
     <defs>
      <path d="M 28.609375 0 
L 0.78125 72.90625 
L 11.078125 72.90625 
L 34.1875 11.53125 
L 57.328125 72.90625 
L 67.578125 72.90625 
L 39.796875 0 
z
" id="DejaVuSans-56"/>
      <path d="M 30.609375 48.390625 
Q 23.390625 48.390625 19.1875 42.75 
Q 14.984375 37.109375 14.984375 27.296875 
Q 14.984375 17.484375 19.15625 11.84375 
Q 23.34375 6.203125 30.609375 6.203125 
Q 37.796875 6.203125 41.984375 11.859375 
Q 46.1875 17.53125 46.1875 27.296875 
Q 46.1875 37.015625 41.984375 42.703125 
Q 37.796875 48.390625 30.609375 48.390625 
z
M 30.609375 56 
Q 42.328125 56 49.015625 48.375 
Q 55.71875 40.765625 55.71875 27.296875 
Q 55.71875 13.875 49.015625 6.21875 
Q 42.328125 -1.421875 30.609375 -1.421875 
Q 18.84375 -1.421875 12.171875 6.21875 
Q 5.515625 13.875 5.515625 27.296875 
Q 5.515625 40.765625 12.171875 48.375 
Q 18.84375 56 30.609375 56 
z
" id="DejaVuSans-6f"/>
      <path d="M 9.421875 75.984375 
L 18.40625 75.984375 
L 18.40625 0 
L 9.421875 0 
z
" id="DejaVuSans-6c"/>
      <path d="M 18.3125 70.21875 
L 18.3125 54.6875 
L 36.8125 54.6875 
L 36.8125 47.703125 
L 18.3125 47.703125 
L 18.3125 18.015625 
Q 18.3125 11.328125 20.140625 9.421875 
Q 21.96875 7.515625 27.59375 7.515625 
L 36.8125 7.515625 
L 36.8125 0 
L 27.59375 0 
Q 17.1875 0 13.234375 3.875 
Q 9.28125 7.765625 9.28125 18.015625 
L 9.28125 47.703125 
L 2.6875 47.703125 
L 2.6875 54.6875 
L 9.28125 54.6875 
L 9.28125 70.21875 
z
" id="DejaVuSans-74"/>
      <path d="M 34.28125 27.484375 
Q 23.390625 27.484375 19.1875 25 
Q 14.984375 22.515625 14.984375 16.5 
Q 14.984375 11.71875 18.140625 8.90625 
Q 21.296875 6.109375 26.703125 6.109375 
Q 34.1875 6.109375 38.703125 11.40625 
Q 43.21875 16.703125 43.21875 25.484375 
L 43.21875 27.484375 
z
M 52.203125 31.203125 
L 52.203125 0 
L 43.21875 0 
L 43.21875 8.296875 
Q 40.140625 3.328125 35.546875 0.953125 
Q 30.953125 -1.421875 24.3125 -1.421875 
Q 15.921875 -1.421875 10.953125 3.296875 
Q 6 8.015625 6 15.921875 
Q 6 25.140625 12.171875 29.828125 
Q 18.359375 34.515625 30.609375 34.515625 
L 43.21875 34.515625 
L 43.21875 35.40625 
Q 43.21875 41.609375 39.140625 45 
Q 35.0625 48.390625 27.6875 48.390625 
Q 23 48.390625 18.546875 47.265625 
Q 14.109375 46.140625 10.015625 43.890625 
L 10.015625 52.203125 
Q 14.9375 54.109375 19.578125 55.046875 
Q 24.21875 56 28.609375 56 
Q 40.484375 56 46.34375 49.84375 
Q 52.203125 43.703125 52.203125 31.203125 
z
" id="DejaVuSans-61"/>
      <path d="M 45.40625 27.984375 
Q 45.40625 37.75 41.375 43.109375 
Q 37.359375 48.484375 30.078125 48.484375 
Q 22.859375 48.484375 18.828125 43.109375 
Q 14.796875 37.75 14.796875 27.984375 
Q 14.796875 18.265625 18.828125 12.890625 
Q 22.859375 7.515625 30.078125 7.515625 
Q 37.359375 7.515625 41.375 12.890625 
Q 45.40625 18.265625 45.40625 27.984375 
z
M 54.390625 6.78125 
Q 54.390625 -7.171875 48.1875 -13.984375 
Q 42 -20.796875 29.203125 -20.796875 
Q 24.46875 -20.796875 20.265625 -20.09375 
Q 16.0625 -19.390625 12.109375 -17.921875 
L 12.109375 -9.1875 
Q 16.0625 -11.328125 19.921875 -12.34375 
Q 23.78125 -13.375 27.78125 -13.375 
Q 36.625 -13.375 41.015625 -8.765625 
Q 45.40625 -4.15625 45.40625 5.171875 
L 45.40625 9.625 
Q 42.625 4.78125 38.28125 2.390625 
Q 33.9375 0 27.875 0 
Q 17.828125 0 11.671875 7.65625 
Q 5.515625 15.328125 5.515625 27.984375 
Q 5.515625 40.671875 11.671875 48.328125 
Q 17.828125 56 27.875 56 
Q 33.9375 56 38.28125 53.609375 
Q 42.625 51.21875 45.40625 46.390625 
L 45.40625 54.6875 
L 54.390625 54.6875 
z
" id="DejaVuSans-67"/>
     </defs>
     <g transform="translate(22.167812 227.19925)rotate(-90)scale(0.16 -0.16)">
      <use xlink:href="#DejaVuSans-56"/>
      <use x="68.298828" xlink:href="#DejaVuSans-6f"/>
      <use x="129.480469" xlink:href="#DejaVuSans-6c"/>
      <use x="157.263672" xlink:href="#DejaVuSans-74"/>
      <use x="196.472656" xlink:href="#DejaVuSans-61"/>
      <use x="257.751953" xlink:href="#DejaVuSans-67"/>
      <use x="321.228516" xlink:href="#DejaVuSans-65"/>
      <use x="382.751953" xlink:href="#DejaVuSans-20"/>
      <use x="414.539062" xlink:href="#DejaVuSans-28"/>
      <use x="453.552734" xlink:href="#DejaVuSans-6d"/>
      <use x="550.964844" xlink:href="#DejaVuSans-56"/>
      <use x="619.373047" xlink:href="#DejaVuSans-29"/>
     </g>
    </g>
   </g>
   <g id="line2d_14">
    <path clip-path="url(#p852a96231b)" d="M 73.832727 221.631356 
L 74.172731 236.871377 
L 74.269874 238.050485 
L 74.512734 243.582505 
L 74.561306 243.100518 
L 74.561306 243.100518 
L 74.561306 243.100518 
L 74.609878 243.719926 
L 74.609878 243.719926 
L 74.609878 243.719926 
L 74.755593 242.68211 
L 74.804165 243.165525 
L 74.852737 242.733937 
L 74.998453 237.609387 
L 75.047025 237.848359 
L 75.144168 238.736182 
L 75.289884 237.421133 
L 75.338456 237.579505 
L 75.484172 236.325775 
L 75.727031 229.182626 
L 75.872747 227.9478 
L 75.921319 226.284831 
L 75.969891 226.559188 
L 76.164178 231.562952 
L 76.21275 231.29865 
L 76.407038 228.276452 
L 76.795613 222.234631 
L 77.23276 232.838004 
L 77.281332 232.776738 
L 77.378476 231.251365 
L 77.427047 231.687742 
L 77.524191 234.324959 
L 77.572763 234.0504 
L 77.669907 231.33421 
L 77.718479 231.858211 
L 77.767051 231.232897 
L 77.815623 231.274226 
L 78.058482 222.606298 
L 78.107054 220.699129 
L 78.204198 221.123614 
L 78.25277 221.484661 
L 78.301342 222.894022 
L 78.349913 221.975209 
L 78.398485 221.679312 
L 78.884204 211.378722 
L 78.932776 211.293793 
L 78.981348 211.659934 
L 79.02992 211.531273 
L 79.127064 211.162166 
L 79.27278 206.036531 
L 79.467067 201.494017 
L 79.564211 200.680527 
L 80.04993 187.341748 
L 80.341361 171.163277 
L 80.487077 165.181164 
L 80.584221 165.510691 
L 80.632793 165.248706 
L 80.681364 165.92163 
L 80.729936 165.381632 
L 81.361371 150.038108 
L 81.749946 131.97994 
L 81.798518 132.492092 
L 81.84709 134.318314 
L 81.944234 133.813307 
L 82.089949 131.571771 
L 82.187093 133.178096 
L 82.235665 133.152732 
L 82.478525 129.591825 
L 82.575668 127.968015 
L 82.62424 128.256524 
L 82.672812 128.260758 
L 83.64425 90.913227 
L 83.692822 92.061025 
L 83.984253 105.613877 
L 84.227113 120.854989 
L 84.275685 121.770013 
L 85.149979 85.881786 
L 85.635698 132.445611 
L 86.169989 170.411685 
L 86.801423 201.935376 
L 86.898567 199.920379 
L 86.995711 197.334953 
L 87.044283 197.667055 
L 87.23857 202.233885 
L 87.530002 212.347397 
L 87.627145 214.824941 
L 87.821433 218.972638 
L 88.064292 229.801137 
L 88.161436 229.4991 
L 88.355724 231.926447 
L 88.550011 235.349166 
L 88.598583 234.877476 
L 88.647155 235.012184 
L 88.987158 245.626651 
L 89.181446 242.562079 
L 89.230018 243.29563 
L 89.27859 243.232345 
L 89.375734 241.50466 
L 89.424306 241.884548 
L 89.472877 243.423568 
L 89.521449 242.916888 
L 89.570021 241.84798 
L 89.618593 242.83906 
L 89.715737 243.661157 
L 90.152884 228.664279 
L 90.201456 228.841114 
L 90.735747 241.537446 
L 90.83289 243.230473 
L 90.881462 242.740518 
L 90.930034 242.887861 
L 90.978606 242.54432 
L 91.318609 230.530316 
L 91.415753 233.249313 
L 91.464325 232.128611 
L 91.561469 230.076338 
L 91.901472 235.626672 
L 91.950044 235.277581 
L 92.241475 224.763883 
L 92.290047 226.744497 
L 92.338619 226.272821 
L 92.532907 221.329411 
L 92.630051 222.15496 
L 92.678622 221.860909 
L 93.018626 214.493339 
L 93.067198 213.615018 
L 93.11577 213.723332 
L 93.261485 217.270966 
L 93.358629 215.682945 
L 93.407201 216.251893 
L 93.552917 214.587901 
L 93.747204 211.745998 
L 93.990064 215.947389 
L 94.184351 220.716537 
L 94.232923 220.505879 
L 94.621498 207.761248 
L 94.67007 209.090803 
L 94.767214 211.15546 
L 94.815786 210.512201 
L 94.961502 209.075094 
L 95.155789 205.245757 
L 95.204361 206.076174 
L 95.544364 217.15586 
L 95.592936 216.243668 
L 95.835796 209.713586 
L 96.224371 213.999381 
L 96.272943 213.179906 
L 96.321515 213.378111 
L 96.564374 218.044313 
L 96.612946 217.780474 
L 96.661518 217.697299 
L 96.855805 209.120859 
L 96.904377 210.221321 
L 96.952949 212.996239 
L 97.001521 212.496757 
L 97.098665 209.792362 
L 97.292953 203.632199 
L 97.7301 219.680682 
L 97.827243 221.209577 
L 97.924387 219.528062 
L 98.361534 208.111951 
L 98.652966 205.181755 
L 98.701537 205.333038 
L 98.798681 206.328539 
L 98.895825 204.666884 
L 98.944397 205.61142 
L 99.332972 211.260876 
L 99.672975 228.938268 
L 99.818691 224.001162 
L 99.867263 224.5477 
L 99.964407 224.091072 
L 100.207266 213.798437 
L 100.255838 214.256388 
L 100.401554 218.392519 
L 100.450126 217.961798 
L 100.838701 201.544825 
L 101.032988 189.770035 
L 101.130132 188.699005 
L 101.178704 189.625374 
L 101.227276 189.622814 
L 101.421564 187.271551 
L 101.470135 184.254987 
L 101.567279 184.45402 
L 101.664423 186.000313 
L 101.712995 185.521459 
L 101.761567 185.305228 
L 102.004426 188.131045 
L 102.052998 187.189087 
L 102.198714 183.347271 
L 102.247286 183.899743 
L 102.295858 184.199592 
L 102.34443 181.219103 
L 102.393001 182.564143 
L 102.441573 182.485293 
L 102.490145 181.4825 
L 102.635861 174.290139 
L 102.733005 177.595597 
L 102.781577 176.404774 
L 102.87872 175.414521 
L 103.364439 185.516837 
L 103.510155 187.899371 
L 103.558727 189.401336 
L 103.607299 188.053062 
L 103.655871 186.055039 
L 103.704443 186.197522 
L 103.89873 192.009024 
L 104.044446 197.360581 
L 104.14159 197.330836 
L 104.287305 201.078883 
L 104.335877 199.86152 
L 104.821596 177.738901 
L 104.870168 178.273506 
L 104.91874 178.146366 
L 105.064456 175.161733 
L 105.307315 178.790361 
L 105.355887 178.742493 
L 105.550175 182.245071 
L 105.744462 186.908198 
L 105.793034 187.517478 
L 105.841606 187.123905 
L 105.890178 186.812121 
L 105.93875 186.823615 
L 106.084465 187.801683 
L 106.424469 174.213446 
L 106.521613 176.85935 
L 106.618756 179.63811 
L 106.667328 178.686601 
L 106.764472 175.866976 
L 106.813044 175.935282 
L 106.861616 176.572232 
L 106.861616 176.572232 
L 106.861616 176.572232 
L 106.910188 175.777993 
L 106.910188 175.777993 
L 106.910188 175.777993 
L 106.95876 176.786824 
L 107.007331 176.186059 
L 107.104475 175.220285 
L 107.153047 175.836288 
L 107.201619 175.71772 
L 107.298763 173.592381 
L 107.347335 174.810557 
L 107.444479 178.026341 
L 107.49305 177.707896 
L 107.541622 174.930473 
L 107.590194 175.456444 
L 107.638766 176.230427 
L 107.687338 175.026959 
L 107.833054 180.279748 
L 107.881626 178.972995 
L 108.075913 174.037142 
L 108.464488 164.832254 
L 108.51306 166.466278 
L 108.610204 167.694225 
L 108.707348 164.768403 
L 108.998779 151.385915 
L 109.193067 154.726199 
L 109.241639 153.834823 
L 109.290211 153.865899 
L 109.581642 161.936656 
L 109.678786 157.890728 
L 109.727358 159.150228 
L 109.873073 164.766881 
L 109.921645 164.424415 
L 109.970217 164.239107 
L 110.067361 160.229112 
L 110.115933 161.162906 
L 110.164505 162.229681 
L 110.213077 162.202202 
L 110.358792 158.74031 
L 110.455936 158.759455 
L 110.601652 163.60281 
L 110.698795 170.703804 
L 110.747367 169.915058 
L 111.184514 182.990814 
L 111.475946 175.451617 
L 111.621661 172.856221 
L 111.670233 173.567209 
L 111.864521 176.083554 
L 112.10738 185.391335 
L 112.204524 185.362011 
L 112.253096 185.06252 
L 112.301668 185.748057 
L 112.35024 185.610109 
L 112.447384 184.145169 
L 112.495956 184.381256 
L 112.641671 186.450349 
L 112.690243 186.161663 
L 112.787387 186.712385 
L 112.835959 186.129235 
L 112.835959 186.129235 
L 112.835959 186.129235 
L 112.933103 187.396026 
L 112.981675 186.334467 
L 113.37025 196.428672 
L 113.467394 198.91106 
L 113.515965 201.191035 
L 113.564537 200.749373 
L 113.613109 198.921833 
L 113.661681 198.965313 
L 114.098828 208.109136 
L 114.1474 208.123556 
L 114.293116 201.062419 
L 114.438831 197.044541 
L 114.633119 191.243542 
L 114.681691 189.491709 
L 114.730263 190.800208 
L 115.16741 197.452418 
L 115.215982 196.969941 
L 115.264554 197.135538 
L 115.361697 198.50663 
L 115.555985 202.26521 
L 115.604557 202.147834 
L 115.701701 199.887697 
L 115.847416 206.753591 
L 115.895988 206.388989 
L 115.94456 204.619918 
L 115.993132 205.95784 
L 116.235992 213.029726 
L 116.333135 214.463154 
L 116.381707 213.937795 
L 116.430279 212.651411 
L 116.478851 213.765885 
L 116.673139 217.427339 
L 116.72171 217.591487 
L 116.867426 222.459835 
L 116.96457 220.530493 
L 117.013142 220.817954 
L 117.061714 220.390385 
L 117.158858 223.215201 
L 117.256001 222.685842 
L 117.304573 222.988099 
L 117.401717 220.478512 
L 117.450289 221.343286 
L 117.547433 220.147657 
L 117.887436 207.487473 
L 117.936008 208.638941 
L 118.033152 209.193097 
L 118.130295 206.836337 
L 118.178867 207.44379 
L 118.276011 210.385071 
L 118.324583 210.335979 
L 118.810302 205.103617 
L 119.101733 210.14812 
L 119.150305 210.268475 
L 119.393165 206.302841 
L 119.441737 207.19296 
L 119.490308 207.121228 
L 119.636024 205.42454 
L 119.684596 205.27421 
L 119.927456 207.079859 
L 119.976027 206.714756 
L 120.121743 205.823167 
L 120.170315 205.725211 
L 120.364603 201.671427 
L 120.55889 193.272908 
L 120.607462 193.684109 
L 120.704606 195.4789 
L 120.80175 200.126697 
L 120.898893 199.787169 
L 120.947465 201.084008 
L 120.996037 200.344654 
L 121.141753 197.392006 
L 121.384612 188.646581 
L 121.433184 188.252157 
L 122.210335 157.327995 
L 122.550338 138.838305 
L 123.181772 127.111478 
L 123.230344 127.105509 
L 123.37606 128.025446 
L 123.424632 128.135877 
L 123.473204 127.99035 
L 123.61892 132.336738 
L 124.201782 156.688768 
L 124.250354 156.489957 
L 124.638929 143.440384 
L 124.687501 143.447023 
L 124.736073 144.463195 
L 124.784645 144.448676 
L 124.833217 143.370192 
L 124.881789 143.709387 
L 124.930361 143.971489 
L 125.707511 111.519164 
L 125.95037 108.48395 
L 126.096086 113.621689 
L 127.067524 176.096985 
L 127.21324 171.950575 
L 127.358955 169.303282 
L 127.456099 173.043517 
L 127.504671 172.719245 
L 127.601815 169.761249 
L 127.650387 170.973164 
L 127.844674 177.051001 
L 127.893246 177.226534 
L 127.941818 176.12691 
L 128.038962 176.32557 
L 128.136106 177.196792 
L 128.281821 180.362213 
L 128.330393 179.241588 
L 128.476109 176.584061 
L 128.524681 178.295033 
L 128.573253 178.167333 
L 128.621825 177.655034 
L 128.670397 177.884575 
L 128.718969 178.126495 
L 128.864684 182.340476 
L 128.961828 181.340269 
L 129.0104 180.334068 
L 129.058972 181.220084 
L 129.301831 190.108523 
L 129.350403 190.01191 
L 129.447547 188.599397 
L 129.836122 201.966541 
L 130.418985 227.727313 
L 130.467557 229.186392 
L 130.467557 229.186392 
L 130.467557 229.186392 
L 130.613272 225.387205 
L 130.856132 231.690823 
L 130.904704 231.696007 
L 131.050419 228.994597 
L 131.147563 228.028629 
L 131.293279 233.578165 
L 131.341851 232.874741 
L 131.536138 224.401253 
L 131.730426 217.466487 
L 131.924714 211.615261 
L 131.973285 212.194373 
L 132.070429 214.701402 
L 132.167573 218.20025 
L 132.216145 216.908443 
L 132.556148 206.485454 
L 132.60472 207.419936 
L 132.653292 206.843607 
L 132.701864 207.024199 
L 132.750436 206.491831 
L 132.799008 206.785779 
L 132.993295 208.952881 
L 133.819017 169.528769 
L 133.916161 169.631692 
L 133.964733 171.341834 
L 134.013305 170.580528 
L 134.256165 163.13758 
L 134.304736 163.305525 
L 134.499024 165.022037 
L 134.64474 164.085372 
L 134.693312 163.871468 
L 134.839027 159.814655 
L 134.887599 161.560719 
L 134.936171 162.734085 
L 134.984743 161.820716 
L 135.033315 162.054549 
L 135.179031 166.574964 
L 135.227602 164.700815 
L 135.373318 160.975226 
L 135.470462 165.502995 
L 136.344756 228.045505 
L 136.393328 228.450355 
L 136.976191 248.2227 
L 137.121906 243.435522 
L 137.170478 243.550049 
L 137.267622 241.683328 
L 137.316194 242.051451 
L 137.46191 243.852486 
L 137.510481 243.212362 
L 137.801913 225.912403 
L 138.044772 206.781722 
L 138.093344 207.522973 
L 138.481919 217.101274 
L 138.530491 216.1566 
L 138.579063 216.770978 
L 138.773351 220.319326 
L 138.821923 219.781045 
L 139.161926 207.304857 
L 139.501929 189.312691 
L 139.647645 181.193654 
L 139.744789 170.09819 
L 139.793361 172.551286 
L 139.939076 177.738987 
L 139.987648 177.052154 
L 140.181936 173.543869 
L 140.327651 175.094703 
L 140.473367 179.034896 
L 140.521939 178.623335 
L 140.570511 178.669068 
L 140.716227 183.372302 
L 141.444805 210.213417 
L 141.639093 216.194982 
L 141.687664 216.593352 
L 141.687664 216.593352 
L 141.687664 216.593352 
L 141.881952 214.503807 
L 142.416243 229.954645 
L 142.513387 226.325279 
L 142.561959 224.460637 
L 142.561959 224.460637 
L 142.561959 224.460637 
L 142.61053 226.401521 
L 142.659102 225.658673 
L 142.756246 221.519616 
L 142.804818 222.087111 
L 143.241965 227.846137 
L 143.339109 226.334819 
L 143.387681 225.834708 
L 143.436253 225.923868 
L 143.484825 226.662514 
L 143.679112 231.199267 
L 143.727684 231.649445 
L 144.067687 223.8777 
L 144.116259 224.891004 
L 144.164831 225.139023 
L 144.310547 223.592666 
L 144.456262 225.361091 
L 144.65055 221.428298 
L 144.893409 214.635844 
L 144.941981 213.664342 
L 145.087697 206.351213 
L 145.184841 207.276216 
L 145.233413 208.483075 
L 145.281985 207.667339 
L 145.330557 207.428372 
L 145.4277 208.056398 
L 145.476272 207.41759 
L 145.524844 207.936616 
L 145.621988 210.493449 
L 145.67056 209.632153 
L 146.44771 189.147751 
L 146.544854 190.828901 
L 146.641998 193.337734 
L 146.739142 192.869289 
L 146.933429 182.386484 
L 147.176289 173.09447 
L 147.46772 162.557367 
L 147.516292 162.778332 
L 148.196298 143.268696 
L 148.342014 144.28073 
L 148.390586 145.816197 
L 148.439158 144.515442 
L 148.536302 142.481195 
L 148.584874 143.040839 
L 148.973449 151.721515 
L 149.022021 151.469892 
L 149.216308 155.628071 
L 149.26488 154.022448 
L 149.313452 153.871363 
L 149.50774 150.563745 
L 149.556311 151.053927 
L 149.702027 146.666594 
L 149.750599 147.450658 
L 149.993458 157.906222 
L 150.090602 160.401605 
L 150.382034 171.890001 
L 150.430606 171.939681 
L 150.527749 174.513943 
L 150.867753 198.531158 
L 151.207756 207.127598 
L 151.256328 206.81472 
L 151.3049 203.324413 
L 151.353472 203.377624 
L 151.83919 222.14869 
L 151.887762 220.61383 
L 151.984906 218.838268 
L 152.033478 218.944508 
L 152.227766 223.852091 
L 152.324909 223.172242 
L 152.373481 223.403886 
L 152.470625 226.374945 
L 152.519197 224.909399 
L 152.713485 215.824164 
L 152.907772 208.67876 
L 153.004916 204.492432 
L 153.053488 204.581576 
L 153.442063 221.923644 
L 153.539207 223.506096 
L 153.636351 222.741917 
L 153.684922 222.998443 
L 153.733494 224.165143 
L 153.782066 223.759788 
L 153.830638 223.381235 
L 153.87921 224.697711 
L 153.927782 224.482966 
L 154.073498 222.651309 
L 154.12207 223.10171 
L 154.219213 216.386255 
L 154.267785 217.700052 
L 154.704932 209.126122 
L 154.947792 214.860974 
L 154.996364 214.142013 
L 155.093507 212.933537 
L 155.142079 213.21106 
L 155.239223 211.693977 
L 155.287795 212.674693 
L 155.433511 213.390573 
L 155.773514 224.480587 
L 155.822086 224.355259 
L 155.870658 224.685652 
L 156.162089 231.392037 
L 156.45352 221.942897 
L 156.550664 223.598787 
L 156.890668 237.988167 
L 156.939239 237.346309 
L 157.036383 230.840102 
L 157.084955 231.741968 
L 157.182099 233.602846 
L 157.230671 235.45951 
L 157.279243 234.75725 
L 157.327815 233.19238 
L 157.376386 234.198045 
L 157.522102 234.902698 
L 157.570674 234.491265 
L 157.862105 220.682465 
L 157.910677 221.446832 
L 158.104965 215.060516 
L 158.396396 203.183403 
L 158.542112 198.802687 
L 158.7364 193.424123 
L 159.173547 184.706816 
L 159.27069 182.040521 
L 159.51355 171.89828 
L 159.707837 174.746575 
L 159.756409 174.36033 
L 159.756409 174.36033 
L 159.756409 174.36033 
L 159.853553 176.030355 
L 160.096413 183.587168 
L 160.144984 183.031706 
L 160.193556 183.169624 
L 160.387844 185.108635 
L 160.436416 184.702653 
L 160.582132 173.353111 
L 160.970707 143.637881 
L 161.019279 144.888503 
L 161.164994 139.000101 
L 161.213566 139.892292 
L 161.262138 139.668891 
L 161.553569 148.267938 
L 162.622151 194.651811 
L 162.719295 192.970031 
L 162.767867 193.081982 
L 162.816439 194.057415 
L 162.816439 194.057415 
L 162.816439 194.057415 
L 162.913583 192.423405 
L 162.962154 192.678572 
L 163.059298 195.974509 
L 163.496445 214.378696 
L 163.545017 213.145483 
L 163.593589 213.583527 
L 163.739305 217.373899 
L 163.787877 216.250623 
L 164.030736 213.704689 
L 164.079308 214.334898 
L 164.12788 214.022866 
L 164.370739 213.389254 
L 164.419311 211.328518 
L 164.419311 211.328518 
L 164.419311 211.328518 
L 164.856458 229.978333 
L 164.90503 229.489119 
L 165.099318 227.572642 
L 165.293605 223.737393 
L 165.342177 223.826627 
L 165.390749 223.746758 
L 165.779324 216.450967 
L 165.827896 216.506317 
L 166.119328 224.78278 
L 166.216471 226.723159 
L 166.265043 226.365705 
L 166.459331 223.717511 
L 166.653618 222.339687 
L 166.847906 217.611664 
L 166.896478 217.752527 
L 167.236481 212.632895 
L 167.285053 213.162253 
L 167.576484 206.419065 
L 167.625056 205.773875 
L 167.673628 206.411744 
L 167.770772 206.943437 
L 167.916488 204.825316 
L 168.450779 179.975586 
L 168.790782 155.945039 
L 169.033641 153.058949 
L 169.082213 153.157176 
L 169.276501 146.762977 
L 169.665076 151.169373 
L 170.005079 154.133131 
L 170.296511 149.980882 
L 170.442226 145.880692 
L 170.636514 144.213464 
L 170.879373 140.431818 
L 171.025089 146.454728 
L 171.267948 156.264783 
L 171.365092 157.251649 
L 171.510808 154.429874 
L 171.705095 158.263856 
L 171.753667 157.828503 
L 172.142243 148.093944 
L 172.287958 147.193719 
L 172.433674 148.290614 
L 172.482246 147.820048 
L 172.627961 143.099842 
L 172.822249 139.29889 
L 172.870821 137.897397 
L 172.919393 138.196797 
L 173.162252 142.389163 
L 173.307968 144.283232 
L 173.35654 143.91935 
L 173.696543 125.693101 
L 173.890831 116.689302 
L 174.619409 99.868463 
L 174.667981 99.902743 
L 175.250844 160.091527 
L 175.542275 171.41342 
L 176.027994 193.247761 
L 176.270854 206.483705 
L 176.853716 229.638445 
L 177.242291 238.935137 
L 177.290863 238.629593 
L 177.388007 239.321282 
L 177.485151 237.708423 
L 177.582295 237.995025 
L 177.679439 238.713482 
L 177.922298 242.064299 
L 178.116586 240.115119 
L 178.262301 241.478361 
L 178.310873 241.602888 
L 178.456589 242.903904 
L 178.505161 243.149563 
L 178.553733 243.018807 
L 178.74802 241.805181 
L 178.796592 242.235708 
L 178.893736 242.746266 
L 179.136595 239.012348 
L 179.379455 241.255749 
L 179.525171 240.474762 
L 179.865174 236.462358 
L 180.156605 221.99664 
L 180.399465 213.681743 
L 180.448037 213.43183 
L 181.030899 198.923679 
L 181.079471 198.711036 
L 181.176615 198.784497 
L 181.370903 190.716806 
L 182.050909 152.825681 
L 182.488056 141.063285 
L 182.633772 144.561429 
L 182.682344 144.388862 
L 182.730916 144.512786 
L 182.828059 145.336984 
L 182.876631 144.961709 
L 182.925203 145.550411 
L 183.36235 127.926618 
L 183.459494 128.823223 
L 183.60521 132.636851 
L 183.653782 132.262836 
L 183.702354 131.277099 
L 183.799497 131.320124 
L 183.848069 131.660108 
L 184.090929 128.20531 
L 184.139501 128.264021 
L 184.333788 134.332547 
L 184.528076 129.645155 
L 184.819507 114.603301 
L 184.916651 112.856071 
L 185.062367 107.891653 
L 185.110938 108.009127 
L 185.305226 104.543593 
L 185.596657 96.391979 
L 185.693801 92.283872 
L 185.985233 79.348168 
L 186.130948 75.782468 
L 186.17952 77.167061 
L 186.908099 103.796056 
L 187.005242 107.385305 
L 187.296674 120.758851 
L 187.830965 140.282385 
L 187.928108 139.395824 
L 188.122396 152.267592 
L 188.413827 169.696442 
L 188.608115 173.457274 
L 188.753831 170.254247 
L 188.802402 171.318987 
L 188.99669 176.693591 
L 189.045262 176.712198 
L 189.142406 178.926347 
L 189.288121 183.823409 
L 189.530981 187.83685 
L 189.579553 187.102896 
L 189.628125 187.532869 
L 189.676697 187.781166 
L 189.822412 187.438372 
L 190.065272 189.892339 
L 190.113844 189.803341 
L 190.162416 190.293775 
L 190.259559 193.565951 
L 190.308131 193.477207 
L 190.356703 193.501856 
L 190.648134 201.064476 
L 190.988138 209.97187 
L 191.085282 212.405406 
L 191.133853 212.07327 
L 191.182425 211.593773 
L 191.230997 211.603443 
L 191.522429 215.534655 
L 191.571 216.865 
L 191.619572 216.484306 
L 191.668144 215.868019 
L 191.716716 216.432151 
L 191.81386 217.657095 
L 192.008148 225.102174 
L 192.056719 224.027521 
L 192.299579 232.415833 
L 192.445295 237.020209 
L 192.493866 236.728781 
L 192.542438 235.068747 
L 192.688154 238.785637 
L 193.076729 233.873414 
L 193.222445 229.470792 
L 193.465304 217.085063 
L 193.562448 211.779604 
L 193.61102 209.93554 
L 193.659592 211.349564 
L 193.708164 211.276331 
L 193.85388 210.141473 
L 193.951023 210.422677 
L 193.999595 210.063582 
L 194.291027 191.871254 
L 194.776746 164.312922 
L 194.922461 165.807518 
L 195.116749 162.692816 
L 195.40818 156.500127 
L 195.602468 151.621667 
L 195.699612 152.865732 
L 195.748183 152.065273 
L 195.942471 148.160198 
L 196.088187 146.704505 
L 196.136759 146.603736 
L 196.331046 148.432734 
L 196.42819 149.311861 
L 196.671049 143.158973 
L 196.768193 144.23867 
L 196.816765 144.225079 
L 197.011053 135.727595 
L 197.399628 108.142091 
L 197.593915 97.35013 
L 197.788203 101.604744 
L 197.836775 100.091059 
L 198.371066 84.567172 
L 199.0025 105.715592 
L 199.148216 111.280114 
L 199.391076 117.38269 
L 199.536791 121.784324 
L 199.779651 128.046241 
L 199.973938 133.463801 
L 200.313942 147.158194 
L 200.459657 148.094357 
L 200.556801 149.478481 
L 200.751089 154.968562 
L 201.236808 169.649931 
L 201.382523 171.853507 
L 201.576811 169.517139 
L 201.722527 170.911337 
L 201.81967 172.11773 
L 201.868242 171.606453 
L 201.916814 172.089675 
L 201.965386 172.128021 
L 202.013958 171.091412 
L 202.013958 171.091412 
L 202.013958 171.091412 
L 202.353961 178.202834 
L 202.742536 168.101575 
L 202.791108 166.97382 
L 202.83968 167.241983 
L 202.985396 169.192894 
L 203.08254 170.405976 
L 203.131111 169.221959 
L 203.179683 169.27613 
L 203.422543 172.208606 
L 203.471115 171.331376 
L 203.568259 169.65318 
L 203.61683 169.75344 
L 203.811118 168.288808 
L 203.85969 168.015005 
L 203.908262 168.210106 
L 204.393981 179.208387 
L 204.442553 178.16735 
L 204.733984 171.122241 
L 204.8797 168.627165 
L 205.025415 168.561648 
L 205.122559 165.792785 
L 205.365419 155.00595 
L 205.753994 147.485955 
L 205.948281 138.494919 
L 205.996853 140.34698 
L 206.142569 145.410698 
L 206.385428 155.371226 
L 206.67686 162.294643 
L 206.968291 168.047377 
L 207.162579 171.127956 
L 207.211151 169.978065 
L 207.259723 170.715705 
L 207.551154 178.300901 
L 207.599726 176.150959 
L 207.69687 176.18592 
L 207.988301 172.670661 
L 208.134017 176.641133 
L 208.182589 176.454603 
L 208.328304 170.459063 
L 208.376876 170.527451 
L 208.425448 170.428127 
L 208.522592 168.090331 
L 208.571164 168.931824 
L 208.668307 169.407528 
L 208.959739 155.730326 
L 209.202598 143.501455 
L 209.299742 139.391852 
L 209.591173 125.383642 
L 210.416896 95.076438 
L 210.514039 95.225597 
L 211.922624 73.21417 
L 212.262628 120.097088 
L 212.651203 148.73608 
L 212.699775 147.685894 
L 212.748347 148.090006 
L 213.719785 179.828403 
L 213.768356 179.609771 
L 213.816928 179.658625 
L 214.156932 184.016657 
L 214.351219 182.038698 
L 214.448363 179.002819 
L 214.496935 179.705704 
L 214.642651 184.857696 
L 214.739794 186.933341 
L 214.836938 185.395999 
L 214.88551 185.997094 
L 215.12837 190.560677 
L 215.225513 190.776175 
L 215.371229 192.130095 
L 215.516945 188.054735 
L 215.565517 188.611803 
L 215.614088 188.120873 
L 215.711232 187.131719 
L 215.90552 189.45007 
L 216.002664 187.10845 
L 216.148379 182.867825 
L 216.245523 184.692178 
L 216.439811 181.064755 
L 216.488383 180.907935 
L 216.585526 184.34575 
L 216.634098 183.579986 
L 216.68267 182.904636 
L 216.731242 183.026924 
L 216.876958 184.921671 
L 216.92553 184.724739 
L 216.974102 184.857816 
L 217.119817 187.351184 
L 217.314105 191.999025 
L 217.556964 185.507171 
L 217.605536 186.017894 
L 217.654108 186.065357 
L 217.799824 187.214659 
L 217.848396 186.733963 
L 218.091255 187.936871 
L 218.382686 181.399412 
L 218.674118 166.754851 
L 218.819834 161.063007 
L 219.111265 153.676313 
L 219.159837 153.842753 
L 219.208409 153.663949 
L 219.256981 153.778617 
L 219.402696 154.638831 
L 219.451268 155.153051 
L 219.596984 151.505392 
L 219.645556 151.918178 
L 220.471278 115.289156 
L 220.51985 115.423727 
L 220.859853 111.082437 
L 220.956997 112.402506 
L 221.831291 91.39111 
L 221.928435 90.317845 
L 222.462726 75.663187 
L 222.657013 73.232028 
L 222.948445 62.437219 
L 222.997016 62.930491 
L 223.822739 111.511167 
L 223.968454 118.985958 
L 224.017026 118.886818 
L 224.89132 86.375148 
L 224.939892 86.008961 
L 224.988464 87.428367 
L 225.037036 86.975071 
L 225.182752 84.377822 
L 225.328467 81.674598 
L 225.377039 81.67684 
L 225.425611 81.791875 
L 225.765614 98.009634 
L 226.008474 102.090321 
L 226.105618 106.16484 
L 226.15419 104.683799 
L 226.299905 98.946546 
L 226.348477 100.298231 
L 226.348477 100.298231 
L 226.348477 100.298231 
L 226.445621 97.727615 
L 226.494193 98.31266 
L 226.542765 98.069543 
L 226.737052 101.08917 
L 226.785624 100.766541 
L 226.882768 100.890952 
L 227.70849 136.334025 
L 228.097065 150.221818 
L 228.145637 149.646946 
L 228.825644 166.158336 
L 228.922788 168.187767 
L 228.97136 167.951469 
L 229.214219 171.974017 
L 229.554222 181.899351 
L 229.651366 180.53427 
L 229.797082 176.689966 
L 230.039941 179.637009 
L 230.137085 182.269785 
L 230.234229 186.162787 
L 230.282801 185.018633 
L 230.52566 177.517502 
L 230.671376 174.365603 
L 230.719948 174.310942 
L 231.011379 159.115963 
L 231.059951 159.440798 
L 231.157095 160.631011 
L 231.205667 162.462607 
L 231.254239 161.487082 
L 231.302811 161.097718 
L 231.399954 162.743322 
L 231.54567 159.819518 
L 231.594242 159.729901 
L 231.837101 164.841645 
L 231.885673 164.041688 
L 231.934245 164.478147 
L 231.982817 165.078437 
L 232.225677 158.266922 
L 232.274248 158.035153 
L 232.371392 155.695979 
L 232.419964 156.132497 
L 232.468536 156.146337 
L 232.759967 160.099038 
L 232.857111 159.759445 
L 233.051399 156.668734 
L 233.34283 162.055134 
L 233.488546 161.056415 
L 233.58569 161.630723 
L 233.682833 163.622135 
L 233.731405 162.620816 
L 233.731405 162.620816 
L 233.731405 162.620816 
L 234.314268 177.588098 
L 234.36284 176.180178 
L 234.605699 166.400929 
L 234.994275 141.656818 
L 235.13999 134.873785 
L 235.188562 135.156907 
L 235.237134 136.281122 
L 235.285706 135.546964 
L 235.334278 135.219545 
L 235.577137 129.966777 
L 235.625709 129.781402 
L 235.771425 127.733143 
L 235.819997 128.126171 
L 235.868569 127.914317 
L 236.16 121.946261 
L 236.694291 99.120581 
L 237.131438 80.571735 
L 237.18001 81.734245 
L 237.665729 112.017481 
L 237.860016 116.223901 
L 237.95716 119.869074 
L 238.054304 125.327611 
L 238.102876 123.900465 
L 238.248591 122.191579 
L 238.297163 122.27808 
L 238.442879 111.425174 
L 238.540023 113.5128 
L 238.637167 114.661966 
L 240.240039 81.251946 
L 240.288611 81.335518 
L 240.580042 103.273159 
L 241.502908 160.818297 
L 241.600052 164.05028 
L 241.648624 163.886224 
L 241.745768 162.509293 
L 241.79434 163.951886 
L 241.891484 163.621083 
L 242.037199 161.063999 
L 242.328631 154.691892 
L 242.668634 149.522269 
L 243.251497 162.989489 
L 243.688644 177.970013 
L 243.882931 179.338528 
L 244.077219 180.82214 
L 244.125791 181.08775 
L 244.174363 180.218236 
L 244.222935 180.507034 
L 244.562938 185.069987 
L 244.61151 184.951565 
L 244.708654 184.260984 
L 244.757225 183.697834 
L 245.048657 176.114065 
L 245.097229 175.510046 
L 245.291516 171.040142 
L 245.38866 170.499922 
L 245.680091 164.420505 
L 246.020095 151.978222 
L 246.16581 152.601129 
L 246.360098 150.607355 
L 246.457242 151.150961 
L 246.505814 153.158991 
L 246.554386 152.688725 
L 246.651529 151.82541 
L 246.700101 152.928627 
L 246.748673 152.066656 
L 247.040104 146.916851 
L 247.088676 147.062728 
L 247.137248 146.768272 
L 247.18582 147.923214 
L 247.234392 146.990234 
L 247.282964 146.872089 
L 247.720111 156.349069 
L 247.768683 156.438848 
L 248.011542 162.965044 
L 248.060114 162.025745 
L 248.20583 167.81138 
L 248.254402 167.002133 
L 248.448689 168.689072 
L 248.497261 168.571424 
L 248.594405 169.859539 
L 248.642977 169.347754 
L 248.837265 167.439678 
L 248.98298 168.476722 
L 249.031552 168.533015 
L 249.177268 169.123404 
L 249.274412 167.663086 
L 249.711559 144.258572 
L 249.857274 138.691695 
L 249.954418 135.304776 
L 250.00299 135.994198 
L 250.24585 130.959927 
L 250.925856 90.658795 
L 250.974428 91.459501 
L 251.023 90.048612 
L 251.071572 90.703884 
L 251.411575 104.447332 
L 251.80015 120.309274 
L 252.04301 123.946855 
L 252.334441 130.22108 
L 252.431585 129.642405 
L 252.528729 128.317709 
L 252.5773 128.706062 
L 252.625872 129.182172 
L 252.917304 119.556431 
L 253.014448 120.82992 
L 253.305879 130.440554 
L 253.500166 136.737274 
L 253.59731 139.657308 
L 253.645882 138.392209 
L 253.937314 128.858842 
L 253.985885 128.183146 
L 254.034457 129.574995 
L 254.083029 128.43893 
L 254.131601 128.019955 
L 254.520176 105.731632 
L 254.61732 106.973587 
L 254.665892 106.764085 
L 254.811608 103.390048 
L 254.86018 104.532641 
L 255.103039 111.957785 
L 255.200183 110.017486 
L 255.443042 121.713827 
L 255.63733 127.497554 
L 255.783046 134.547919 
L 256.025905 146.369914 
L 256.268764 154.037748 
L 256.511624 166.466286 
L 257.19163 191.869062 
L 257.288774 193.542117 
L 257.774493 208.796533 
L 257.823065 208.714991 
L 258.017353 207.888087 
L 258.114496 209.157292 
L 258.163068 208.488619 
L 258.21164 207.449303 
L 258.260212 207.938785 
L 258.308784 208.290479 
L 258.357356 209.779705 
L 258.405928 209.080397 
L 258.600215 203.727747 
L 258.794503 201.131125 
L 258.843075 200.452309 
L 258.891647 201.970122 
L 258.940219 201.210288 
L 259.085934 195.27397 
L 259.134506 196.349457 
L 259.280222 198.472048 
L 259.425938 196.46028 
L 259.47451 196.828067 
L 259.571653 193.909248 
L 259.620225 194.382886 
L 259.717369 196.545623 
L 259.765941 196.438084 
L 259.911657 195.074807 
L 260.0088 197.196874 
L 260.057372 196.917752 
L 260.25166 190.499284 
L 260.445947 191.72817 
L 260.688807 183.855946 
L 260.883094 179.045972 
L 261.077382 180.996441 
L 261.174526 184.510282 
L 261.223098 186.824523 
L 261.320242 186.462113 
L 261.514529 188.77623 
L 261.611673 191.618108 
L 261.660245 190.353374 
L 261.805961 186.812614 
L 262.145964 175.89094 
L 262.680255 156.860103 
L 263.020258 148.024975 
L 263.408833 121.130286 
L 264.137411 80.605266 
L 264.477415 102.11414 
L 264.574559 102.660354 
L 264.671702 104.570573 
L 264.720274 103.70184 
L 264.86599 101.837508 
L 265.594568 90.66882 
L 265.64314 91.39183 
L 265.886 109.959587 
L 266.371719 121.257694 
L 266.614578 130.391102 
L 266.66315 130.418804 
L 266.711722 129.969024 
L 266.954581 122.136006 
L 267.100297 130.237404 
L 267.294585 137.643216 
L 267.391728 138.855713 
L 267.4403 138.818248 
L 267.68316 132.962075 
L 267.731732 133.74678 
L 267.877447 136.366481 
L 267.926019 134.475989 
L 268.023163 134.863403 
L 268.168879 138.588284 
L 268.411738 142.832044 
L 268.557454 139.634847 
L 268.606026 140.461401 
L 269.140317 162.68685 
L 269.23746 165.616364 
L 269.674607 177.390041 
L 269.723179 176.849984 
L 269.820323 174.445683 
L 270.111755 164.920414 
L 270.160326 165.395834 
L 270.354614 168.233639 
L 270.743189 183.690203 
L 270.840333 186.22339 
L 271.326052 208.137958 
L 271.374624 209.251504 
L 271.423196 209.010421 
L 271.471768 207.885969 
L 271.520339 208.237744 
L 271.617483 209.09059 
L 272.151774 191.381544 
L 272.637493 198.793117 
L 272.686065 198.728175 
L 272.783209 197.900125 
L 272.831781 198.136326 
L 273.026068 201.878963 
L 273.171784 200.930765 
L 273.220356 201.258291 
L 273.268928 201.610732 
L 273.657503 213.058687 
L 273.706075 212.270509 
L 273.754647 212.885092 
L 273.803219 213.265393 
L 274.046078 206.42475 
L 274.09465 206.298903 
L 274.143222 205.218553 
L 274.337509 196.281387 
L 274.726085 188.648217 
L 274.774656 188.9329 
L 274.968944 193.88767 
L 275.017516 193.597335 
L 275.308947 189.462921 
L 275.357519 189.403922 
L 275.406091 187.644323 
L 275.454663 187.977651 
L 275.551807 189.136576 
L 275.600379 186.41976 
L 275.697522 186.942134 
L 275.746094 186.693561 
L 275.988954 181.302223 
L 276.037526 180.902393 
L 276.086098 179.42079 
L 276.134669 180.808416 
L 276.328957 184.772276 
L 276.523245 182.926499 
L 276.620388 180.472058 
L 276.717532 181.392076 
L 276.766104 181.591523 
L 276.814676 181.005436 
L 276.960392 170.646197 
L 277.251823 154.444259 
L 277.300395 154.010632 
L 278.174689 112.50361 
L 278.368977 114.45844 
L 278.46612 114.896477 
L 278.514692 115.790843 
L 278.563264 115.303103 
L 279.097555 98.618595 
L 279.291843 93.949867 
L 279.680418 107.619085 
L 279.72899 107.561171 
L 280.797571 95.108202 
L 281.429006 87.85888 
L 281.769009 111.653926 
L 282.206156 127.718095 
L 282.254728 126.812115 
L 282.594732 116.394741 
L 282.837591 119.242534 
L 282.983307 124.354202 
L 283.031879 123.701674 
L 283.226166 116.778996 
L 283.274738 116.852935 
L 283.371882 117.830162 
L 283.469026 116.36259 
L 283.517598 116.425677 
L 284.003316 137.837281 
L 284.780467 185.631562 
L 285.023326 191.153872 
L 285.266186 187.966686 
L 285.314758 188.000063 
L 285.606189 191.766506 
L 285.946192 203.382119 
L 286.286196 210.076477 
L 286.577627 204.314162 
L 286.626199 204.865229 
L 286.626199 204.865229 
L 286.626199 204.865229 
L 286.771914 202.108045 
L 286.966202 198.61024 
L 287.014774 197.862686 
L 287.111918 197.894024 
L 287.209062 197.074486 
L 287.743352 210.184035 
L 287.791924 209.712507 
L 287.840496 209.762164 
L 287.986212 205.888351 
L 288.083356 206.076711 
L 288.229071 207.654327 
L 288.326215 209.114286 
L 288.569075 213.578659 
L 288.617646 213.535801 
L 288.71479 212.932716 
L 288.811934 213.71822 
L 288.95765 209.366978 
L 289.637656 187.758666 
L 289.686228 187.520736 
L 289.783372 188.917142 
L 290.026231 182.347099 
L 290.803382 205.693019 
L 290.851954 205.374679 
L 290.949097 204.867723 
L 290.997669 203.522874 
L 291.046241 204.684613 
L 291.143385 205.929415 
L 291.191957 205.573077 
L 291.240529 205.796463 
L 291.386244 202.577605 
L 291.629104 196.414307 
L 291.726248 193.850452 
L 291.920535 183.502499 
L 292.30911 147.979695 
L 292.697686 114.476934 
L 292.891973 112.725405 
L 292.940545 112.254996 
L 293.57198 123.27705 
L 293.620552 123.440244 
L 293.766267 120.072934 
L 293.911983 120.750336 
L 294.300558 130.94741 
L 294.34913 130.723696 
L 294.397702 131.011489 
L 294.980565 158.115097 
L 295.029137 157.812835 
L 295.12628 153.967677 
L 295.320568 144.926157 
L 295.36914 144.919533 
L 295.417712 144.758106 
L 295.563427 138.306477 
L 295.611999 138.390379 
L 295.660571 138.72267 
L 295.854859 129.276662 
L 296.729153 78.452702 
L 296.972012 95.283393 
L 297.457731 144.897948 
L 298.089166 171.535047 
L 298.137738 171.559362 
L 298.526313 179.124525 
L 298.866316 198.161867 
L 298.96346 200.674224 
L 299.303463 212.366767 
L 299.352035 212.322143 
L 299.400607 212.40151 
L 299.643467 208.848718 
L 300.129186 197.302243 
L 300.177757 198.592391 
L 300.226329 198.327917 
L 300.469189 193.346797 
L 300.566333 195.26554 
L 300.663476 194.967373 
L 300.712048 194.146919 
L 300.76062 194.940961 
L 300.809192 196.545373 
L 300.906336 196.462474 
L 301.052052 195.689322 
L 301.100623 196.33057 
L 301.149195 195.71868 
L 301.197767 195.21074 
L 301.392055 198.430892 
L 301.440627 197.415284 
L 301.489199 197.556869 
L 301.586342 200.128345 
L 301.634914 199.526885 
L 301.974918 189.828142 
L 302.072061 188.25784 
L 302.217777 185.456805 
L 302.363493 181.02761 
L 302.55778 185.912849 
L 302.606352 184.56371 
L 302.752068 185.243368 
L 302.80064 185.100179 
L 302.897784 182.9862 
L 303.043499 178.818922 
L 303.189215 180.855199 
L 303.237787 180.804829 
L 303.334931 179.901057 
L 303.383503 180.550397 
L 303.432074 179.222674 
L 303.480646 179.888093 
L 303.529218 179.82249 
L 303.626362 180.289573 
L 303.674934 179.975745 
L 303.869221 174.838309 
L 303.917793 175.300619 
L 304.063509 179.169393 
L 304.112081 179.008665 
L 304.160653 178.03776 
L 304.209225 178.854375 
L 304.403512 181.654983 
L 304.452084 181.18661 
L 304.549228 178.475591 
L 304.5978 179.522032 
L 304.646372 178.920693 
L 304.840659 182.296133 
L 304.937803 180.651631 
L 304.986375 179.651727 
L 304.986375 179.651727 
L 304.986375 179.651727 
L 305.083519 181.137524 
L 305.132091 180.868405 
L 305.277806 178.274017 
L 305.569238 169.564412 
L 305.61781 170.036412 
L 306.346388 134.207091 
L 306.589248 120.453077 
L 306.686391 119.072956 
L 306.832107 117.408236 
L 306.929251 115.173708 
L 307.366398 131.450927 
L 307.852117 159.041969 
L 307.900689 157.548041 
L 308.19212 149.672448 
L 308.386408 145.624662 
L 308.677839 136.345919 
L 308.774983 136.754091 
L 308.872127 140.147971 
L 308.920699 139.077095 
L 308.96927 139.126519 
L 309.163558 135.197749 
L 309.260702 133.356711 
L 309.357846 129.689935 
L 309.406417 130.299575 
L 309.454989 130.343341 
L 309.649277 136.51333 
L 309.697849 134.505994 
L 310.523571 98.660808 
L 310.572143 100.398265 
L 311.106434 133.872567 
L 311.397865 152.602773 
L 312.223587 183.619075 
L 312.272159 184.142578 
L 312.612163 200.862041 
L 313.340741 232.577435 
L 313.535029 237.588126 
L 313.5836 236.766572 
L 313.729316 235.416273 
L 313.923604 240.852148 
L 313.972176 240.448277 
L 314.166463 239.456912 
L 314.312179 244.067391 
L 314.360751 243.445507 
L 314.457895 240.917228 
L 314.652182 236.00073 
L 314.700754 235.097949 
L 314.749326 235.428874 
L 314.84647 236.943537 
L 314.943614 239.868975 
L 314.992185 239.529026 
L 315.040757 238.995714 
L 315.040757 238.995714 
L 315.040757 238.995714 
L 315.137901 239.668596 
L 315.380761 236.36406 
L 315.817908 232.942416 
L 315.86648 233.137001 
L 316.060767 230.654773 
L 316.109339 231.599173 
L 316.157911 231.134633 
L 316.449342 224.708428 
L 316.546486 222.524175 
L 316.64363 219.396937 
L 316.740774 219.658197 
L 316.789346 219.453393 
L 316.837917 217.567731 
L 316.886489 218.318501 
L 317.032205 220.150007 
L 317.226493 213.441364 
L 317.323636 211.082327 
L 317.372208 212.257348 
L 317.42078 212.94155 
L 317.469352 212.60322 
L 317.712212 207.295439 
L 317.809355 207.566623 
L 318.100787 213.180136 
L 318.149359 212.576227 
L 318.19793 212.763601 
L 318.343646 214.392432 
L 318.392218 213.880411 
L 318.732221 225.317927 
L 318.780793 224.918309 
L 318.926509 220.450097 
L 319.120796 211.703409 
L 319.169368 211.855445 
L 319.21794 212.001395 
L 319.4608 208.36044 
L 319.509372 209.068572 
L 319.606515 210.760665 
L 319.703659 205.629306 
L 319.800803 201.112992 
L 319.849375 201.636851 
L 320.043662 205.515269 
L 320.092234 205.639133 
L 320.140806 205.229676 
L 320.286522 208.371327 
L 320.577953 219.224559 
L 320.675097 217.349491 
L 320.723669 218.237251 
L 320.772241 218.176082 
L 320.869385 213.278225 
L 321.355104 190.368009 
L 321.500819 183.944353 
L 321.743679 169.259839 
L 321.792251 170.251705 
L 321.937966 173.361097 
L 322.03511 172.369958 
L 322.229398 177.207702 
L 322.326542 178.821031 
L 322.472257 173.253775 
L 322.617973 163.354512 
L 322.715117 53.568 
L 322.81226 74.051481 
L 322.909404 86.104424 
L 322.957976 85.895189 
L 323.686555 82.386684 
L 323.735126 82.473563 
L 324.657992 180.363356 
L 325.240855 215.967358 
L 325.532287 231.435724 
L 325.62943 234.073522 
L 325.678002 232.779437 
L 326.309437 221.808835 
L 326.552296 225.082577 
L 326.8923 234.208675 
L 326.940872 234.40608 
L 326.989443 234.030512 
L 327.038015 234.105765 
L 327.135159 236.933542 
L 327.232303 231.958826 
L 327.329447 231.999165 
L 327.426591 232.417493 
L 327.475162 233.09022 
L 327.523734 232.505482 
L 327.572306 231.908814 
L 327.620878 232.008377 
L 327.718022 232.592651 
L 327.863738 230.340112 
L 327.960881 232.968071 
L 328.009453 231.464338 
L 328.106597 229.661062 
L 328.155169 230.051447 
L 328.252313 231.153122 
L 328.300885 230.739543 
L 328.4466 229.818841 
L 328.640888 233.672644 
L 328.835175 238.24161 
L 328.883747 238.565723 
L 328.980891 240.351504 
L 329.029463 239.173807 
L 329.078035 239.999633 
L 329.126607 239.788923 
L 329.175179 239.845179 
L 329.418038 243.338438 
L 329.806613 232.027886 
L 330.340904 200.681137 
L 330.680907 190.681398 
L 330.778051 191.205868 
L 331.118055 175.604354 
L 331.50663 144.498356 
L 332.332352 98.902054 
L 332.380924 96.185573 
L 332.380924 96.185573 
L 332.380924 96.185573 
L 332.866643 118.287529 
L 333.06093 119.283666 
L 333.255218 126.245473 
L 333.352362 125.142421 
L 333.449505 123.798097 
L 333.498077 124.961029 
L 333.546649 123.880757 
L 334.420943 88.067444 
L 334.615231 95.097969 
L 335.343809 111.162884 
L 335.586669 142.467232 
L 335.732385 148.007906 
L 336.072388 164.389085 
L 336.12096 165.114879 
L 337.092398 217.308668 
L 337.67526 239.015997 
L 338.015264 232.106364 
L 338.258123 238.3371 
L 338.306695 237.925134 
L 338.355267 238.292338 
L 338.403839 238.235702 
L 338.500983 236.307114 
L 338.598126 236.952158 
L 339.035273 249.15662 
L 339.083845 249.032112 
L 339.180989 244.875152 
L 339.520992 232.828945 
L 339.569564 232.432038 
L 339.71528 228.715683 
L 339.812424 229.660653 
L 339.860996 228.945287 
L 340.103855 238.72081 
L 340.395286 249.950649 
L 340.443858 250.270499 
L 340.49243 249.966245 
L 340.541002 249.221571 
L 340.589574 250.687684 
L 340.638146 250.495534 
L 340.686718 249.562279 
L 340.783862 244.529479 
L 340.832433 244.706597 
L 340.881005 244.868224 
L 341.123865 232.672746 
L 341.221009 226.907534 
L 341.463868 216.246373 
L 341.658156 209.131994 
L 341.706728 209.463503 
L 341.901015 214.030817 
L 341.998159 213.503246 
L 342.143875 213.836433 
L 342.338162 211.493066 
L 342.386734 211.613637 
L 342.678165 202.839666 
L 343.358172 171.003076 
L 343.406744 171.331212 
L 343.455316 171.49761 
L 343.55246 170.464746 
L 343.698175 162.316959 
L 344.815329 95.229643 
L 344.863901 98.174557 
L 345.203904 129.572165 
L 345.398192 132.366859 
L 345.446764 132.615139 
L 345.543907 133.781713 
L 345.592479 132.716159 
L 346.12677 153.553216 
L 346.418201 165.051927 
L 346.466773 165.247137 
L 346.563917 164.052246 
L 346.612489 164.492719 
L 346.661061 165.843746 
L 346.709633 165.602064 
L 346.855348 159.395122 
L 348.409649 81.471426 
L 349.235371 181.24996 
L 349.96395 235.915022 
L 350.158237 237.788296 
L 350.643956 249.212225 
L 350.692528 248.289522 
L 350.838244 243.230274 
L 350.886816 243.392266 
L 351.032531 247.325214 
L 351.178247 252.456109 
L 351.275391 251.293833 
L 351.663966 266.577789 
L 352.343973 279.234538 
L 352.53826 272.149347 
L 352.586832 272.280202 
L 352.732548 275.053359 
L 352.926835 272.122922 
L 353.072551 275.115739 
L 353.55827 262.828985 
L 353.606842 263.026199 
L 353.655414 262.354197 
L 353.898273 268.404577 
L 353.995417 268.181307 
L 354.092561 265.014636 
L 354.141133 265.535101 
L 354.238276 266.966052 
L 354.33542 265.188933 
L 354.383992 265.872681 
L 354.432564 265.995155 
L 354.626852 262.518978 
L 354.869711 250.599779 
L 355.015427 240.289109 
L 355.306858 228.752665 
L 355.452574 226.509567 
L 355.646861 218.166303 
L 355.889721 201.04541 
L 355.938293 198.818893 
L 355.986865 199.486707 
L 356.084008 200.202044 
L 356.13258 200.057467 
L 356.181152 198.573545 
L 356.181152 198.573545 
L 356.181152 198.573545 
L 356.618299 211.786978 
L 356.715443 207.669054 
L 356.764015 207.877835 
L 356.861159 212.189145 
L 356.909731 211.943501 
L 357.055446 205.410345 
L 357.735453 174.561479 
L 357.92974 169.849168 
L 358.1726 174.040596 
L 358.221172 174.09189 
L 358.269744 173.831625 
L 358.512603 182.336406 
L 358.561175 181.970737 
L 358.852606 173.496745 
L 359.144038 160.017199 
L 359.386897 148.632908 
L 360.698339 101.190678 
L 361.038342 142.214775 
L 361.426917 166.273066 
L 361.621205 175.532305 
L 362.495499 230.235184 
L 362.689786 234.247413 
L 363.078361 227.905829 
L 363.175505 223.369894 
L 363.272649 217.321494 
L 363.321221 217.776949 
L 363.369793 218.430707 
L 363.709796 228.985657 
L 363.758368 229.150992 
L 363.80694 230.078855 
L 364.098371 220.005631 
L 364.195515 222.525577 
L 364.244087 222.266504 
L 364.341231 222.812002 
L 365.069809 202.943225 
L 365.312669 199.662684 
L 365.36124 200.147553 
L 365.506956 204.032263 
L 365.6041 201.032921 
L 365.652672 202.027446 
L 365.846959 211.294708 
L 365.992675 221.336231 
L 366.041247 221.133944 
L 366.429822 232.898565 
L 366.526966 234.431895 
L 366.575538 235.837401 
L 366.62411 234.915033 
L 366.672682 234.257602 
L 366.964113 241.235122 
L 367.012685 240.817424 
L 367.061257 240.965599 
L 367.206972 242.699912 
L 367.304116 241.23444 
L 367.352688 241.268421 
L 367.40126 241.601018 
L 367.595548 246.767161 
L 367.644119 246.378333 
L 367.741263 242.190855 
L 367.789835 243.777696 
L 368.032695 247.693407 
L 368.081267 247.139683 
L 368.275554 245.487616 
L 368.324126 245.351404 
L 368.469842 244.322349 
L 368.664129 248.343289 
L 368.809845 246.767236 
L 369.101276 250.874429 
L 369.246992 246.943561 
L 369.295564 246.984393 
L 369.392708 249.8035 
L 369.489851 252.346168 
L 369.538423 252.234343 
L 369.586995 252.316561 
L 369.732711 251.165965 
L 369.829855 251.531838 
L 369.878427 251.373728 
L 369.926999 250.21026 
L 369.97557 250.454748 
L 370.024142 251.012158 
L 370.412717 242.283927 
L 370.509861 240.55391 
L 370.849865 228.186519 
L 371.287012 204.9661 
L 371.578443 196.075181 
L 372.01559 182.455208 
L 372.209878 175.1498 
L 372.258449 173.066702 
L 372.307021 173.228511 
L 372.452737 175.064507 
L 372.598453 172.790808 
L 372.79274 177.730799 
L 372.987028 176.325483 
L 373.0356 176.336031 
L 373.084172 176.808773 
L 373.278459 182.278316 
L 373.327031 181.937886 
L 373.618463 172.392931 
L 373.764178 167.186027 
L 374.007038 172.120628 
L 374.05561 171.793437 
L 374.5899 159.602681 
L 374.687044 160.009667 
L 374.784188 158.775499 
L 375.027047 142.844588 
L 375.60991 112.46386 
L 376.241345 90.83692 
L 376.435632 96.019413 
L 376.484204 95.887035 
L 376.921351 87.16909 
L 377.504214 74.219283 
L 377.552786 75.206577 
L 377.989933 106.870888 
L 378.329936 123.707034 
L 379.058515 173.544065 
L 379.544234 193.262858 
L 379.592806 193.443588 
L 380.078525 206.19865 
L 380.321384 212.415597 
L 380.515672 217.389702 
L 380.709959 219.705511 
L 380.807103 220.512531 
L 381.195678 230.024158 
L 381.292822 227.853442 
L 381.438538 225.504489 
L 381.48711 225.296018 
L 381.729969 219.917917 
L 381.924257 223.499207 
L 381.972828 223.131607 
L 382.0214 222.94363 
L 382.26426 215.605615 
L 382.312832 216.332269 
L 382.409976 217.157348 
L 382.507119 213.066352 
L 382.555691 214.718899 
L 383.235698 233.781326 
L 383.429985 231.087688 
L 383.721417 226.56209 
L 383.769989 227.055383 
L 383.81856 225.920446 
L 383.867132 225.971516 
L 383.964276 227.325705 
L 384.06142 229.491794 
L 384.109992 228.793107 
L 384.741426 218.226983 
L 384.789998 214.817519 
L 384.887142 215.252795 
L 384.935714 215.302487 
L 385.567149 195.778997 
L 385.664292 191.856911 
L 385.712864 192.20696 
L 385.761436 191.69268 
L 385.761436 191.69268 
L 385.761436 191.69268 
L 385.85858 193.392296 
L 386.247155 209.408546 
L 386.490015 203.396347 
L 386.684302 189.016445 
L 386.732874 183.118721 
L 386.87859 67.461458 
L 386.975734 83.167623 
L 387.218593 105.542572 
L 387.412881 114.255609 
L 387.65574 122.773488 
L 387.850028 131.60317 
L 388.238603 158.456001 
L 388.530034 172.091344 
L 388.821466 178.660308 
L 388.918609 178.644556 
L 388.967181 178.769988 
L 389.307185 174.837683 
L 389.404328 173.03906 
L 389.4529 174.161371 
L 389.501472 173.366738 
L 389.550044 173.390266 
L 389.744332 172.087188 
L 389.841475 167.343478 
L 390.230051 148.638475 
L 391.444348 103.456828 
L 391.541492 106.005572 
L 391.978639 122.617651 
L 392.221498 135.984226 
L 392.610073 150.202505 
L 392.707217 150.105439 
L 392.901505 144.48046 
L 392.950077 144.724502 
L 393.192936 147.7719 
L 393.241508 147.439131 
L 393.484368 140.813235 
L 393.532939 140.956517 
L 393.872943 157.265831 
L 394.261518 186.468199 
L 394.698665 208.106248 
L 394.990096 216.197687 
L 395.232956 218.929718 
L 395.281528 218.97743 
L 395.815819 231.206747 
L 396.495825 259.018846 
L 396.544397 257.935311 
L 396.641541 254.956344 
L 396.690113 255.140144 
L 396.738685 255.222602 
L 397.030116 260.257883 
L 397.078688 259.134517 
L 397.272975 249.883258 
L 397.952982 227.17102 
L 398.195841 230.102234 
L 398.244413 230.666809 
L 398.487273 223.663833 
L 398.487273 223.663833 
" style="fill:none;stroke:#000000;stroke-linecap:square;stroke-width:1.5;"/>
   </g>
   <g id="line2d_15">
    <path clip-path="url(#p852a96231b)" d="M 73.832727 205.436689 
L 76.261322 199.572704 
L 77.912766 196.143635 
L 79.27278 193.807642 
L 80.438505 192.219228 
L 81.507087 191.129204 
L 82.478525 190.454224 
L 83.352819 190.105825 
L 84.227113 189.998965 
L 85.101407 190.124549 
L 86.024273 190.494007 
L 87.044283 191.158749 
L 88.210008 192.201016 
L 89.667165 193.831152 
L 91.950044 196.782031 
L 94.524354 200.015753 
L 95.981511 201.495699 
L 97.147237 202.382373 
L 98.167247 202.894745 
L 99.090113 203.121376 
L 99.964407 203.114594 
L 100.838701 202.88472 
L 101.761567 202.397016 
L 102.733005 201.615278 
L 103.801586 200.451093 
L 105.015884 198.77272 
L 106.424469 196.41909 
L 108.221629 192.942583 
L 114.487403 180.391204 
L 115.895988 178.273272 
L 117.110286 176.835592 
L 118.178867 175.905638 
L 119.150305 175.351272 
L 120.024599 175.096388 
L 120.898893 175.073937 
L 121.773188 175.282295 
L 122.696054 175.745359 
L 123.667491 176.489086 
L 124.784645 177.643359 
L 126.047514 179.287837 
L 127.553243 181.632627 
L 129.544691 185.176111 
L 135.373318 195.808326 
L 137.121906 198.400909 
L 138.627635 200.249783 
L 139.987648 201.581795 
L 141.250517 202.521229 
L 142.464815 203.156263 
L 143.679112 203.538166 
L 144.893409 203.682575 
L 146.156279 203.60219 
L 147.46772 203.296386 
L 148.973449 202.708 
L 150.673465 201.798059 
L 152.713485 200.44456 
L 155.239223 198.490953 
L 158.299252 195.83197 
L 161.553569 192.708075 
L 164.662171 189.417845 
L 167.770772 185.795429 
L 171.413664 181.18286 
L 178.165157 172.562664 
L 180.690896 169.751799 
L 182.876631 167.644473 
L 184.916651 165.980742 
L 186.908099 164.639266 
L 188.99669 163.499332 
L 191.473857 162.412296 
L 199.051072 159.286774 
L 201.091092 158.078319 
L 203.033968 156.668935 
L 205.025415 154.945946 
L 207.162579 152.791113 
L 209.591173 150.011921 
L 212.894062 145.85995 
L 217.994111 139.457179 
L 220.27699 136.967624 
L 222.171294 135.225353 
L 223.822739 134.001755 
L 225.328467 133.158307 
L 226.737052 132.62295 
L 228.048494 132.354596 
L 229.359935 132.312007 
L 230.671376 132.494109 
L 232.031389 132.913889 
L 233.439974 133.58371 
L 234.994275 134.577083 
L 236.742863 135.971884 
L 238.831454 137.941916 
L 241.745768 141.03139 
L 246.894389 146.505386 
L 249.22584 148.629796 
L 251.265859 150.191841 
L 253.160163 151.369651 
L 255.054467 152.28941 
L 257.045915 153.009601 
L 259.377366 153.605166 
L 263.020258 154.266066 
L 266.711722 155.010525 
L 269.383176 155.784443 
L 272.200346 156.842707 
L 280.797571 160.273618 
L 282.886163 160.741202 
L 284.926182 160.966991 
L 287.111918 160.978477 
L 290.609094 160.726528 
L 293.134833 160.646933 
L 294.834849 160.812853 
L 296.292006 161.179397 
L 297.603447 161.733614 
L 298.914888 162.534617 
L 300.226329 163.605817 
L 301.586342 165.015822 
L 303.043499 166.865723 
L 304.646372 169.283024 
L 306.492104 172.494567 
L 308.96927 177.298891 
L 313.486457 186.119073 
L 315.235045 189.007662 
L 316.64363 190.935528 
L 317.857927 192.248365 
L 318.975081 193.137032 
L 319.995091 193.664092 
L 320.917957 193.899863 
L 321.840823 193.905343 
L 322.763689 193.684108 
L 323.735126 193.215823 
L 324.803708 192.440519 
L 326.018006 191.264233 
L 327.426591 189.57628 
L 329.369466 186.866844 
L 333.400934 181.158277 
L 334.85809 179.527292 
L 336.023816 178.534967 
L 337.043826 177.94304 
L 337.966692 177.657674 
L 338.840986 177.623173 
L 339.666708 177.811906 
L 340.541002 178.252698 
L 341.463868 178.989135 
L 342.435306 180.061562 
L 343.503888 181.57986 
L 344.718185 183.704371 
L 346.12677 186.632529 
L 347.92393 190.922578 
L 351.566822 200.396996 
L 353.703986 205.561988 
L 355.209714 208.652941 
L 356.424012 210.680811 
L 357.492593 212.055943 
L 358.415459 212.900532 
L 359.241182 213.367857 
L 359.96976 213.544608 
L 360.698339 213.495206 
L 361.426917 213.217548 
L 362.204067 212.670232 
L 363.029789 211.808629 
L 363.952655 210.514645 
L 365.021237 208.604145 
L 366.235535 205.945166 
L 367.692691 202.170663 
L 369.538423 196.709309 
L 376.047057 176.819094 
L 377.455642 173.512004 
L 378.66994 171.209975 
L 379.689949 169.724476 
L 380.612815 168.762157 
L 381.389966 168.246643 
L 382.118544 168.014972 
L 382.798551 168.020994 
L 383.478557 168.24204 
L 384.207136 168.715923 
L 384.984286 169.487113 
L 385.85858 170.672717 
L 386.87859 172.460274 
L 388.044315 174.994898 
L 389.404328 178.535002 
L 391.007201 183.365541 
L 393.192936 190.735047 
L 398.487273 209.063999 
L 398.487273 209.063999 
" style="fill:none;stroke:#008000;stroke-linecap:square;stroke-width:2;"/>
   </g>
   <g id="line2d_16">
    <path clip-path="url(#p852a96231b)" d="M 73.832727 222.97314 
L 75.19274 242.034846 
L 76.164178 254.089934 
L 76.747041 258.861028 
L 77.135616 260.561597 
L 77.378476 260.934718 
L 77.524191 260.888591 
L 77.718479 260.502712 
L 78.00991 259.216009 
L 78.398485 256.17508 
L 78.884204 250.321212 
L 79.515639 239.710766 
L 80.487077 218.949076 
L 81.992806 187.083997 
L 82.62424 178.034517 
L 83.061387 174.246556 
L 83.401391 172.888566 
L 83.595678 172.764234 
L 83.741394 172.985492 
L 83.984253 173.951034 
L 84.324257 176.529071 
L 84.761404 181.81897 
L 85.344266 191.847177 
L 86.267132 212.348159 
L 87.821433 247.03402 
L 88.50144 257.324281 
L 88.987158 261.714178 
L 89.327162 263.173386 
L 89.521449 263.401001 
L 89.667165 263.285254 
L 89.861453 262.756601 
L 90.152884 261.191354 
L 90.541459 257.770893 
L 91.07575 250.958097 
L 91.901472 237.215918 
L 93.552917 209.307647 
L 94.232923 201.656614 
L 94.718642 198.356775 
L 95.058645 197.180704 
L 95.301505 196.902916 
L 95.495792 197.004802 
L 95.738652 197.515449 
L 96.078655 198.885312 
L 96.564374 201.959627 
L 97.292953 208.246219 
L 99.041541 223.903497 
L 99.672975 227.583042 
L 100.158694 229.346155 
L 100.547269 230.099054 
L 100.887273 230.322763 
L 101.178704 230.234847 
L 101.518707 229.865889 
L 102.052998 228.883272 
L 103.655871 225.652861 
L 104.14159 225.203267 
L 104.578737 225.09841 
L 105.015884 225.240305 
L 105.69589 225.753821 
L 106.424469 226.24537 
L 106.813044 226.274542 
L 107.153047 226.076937 
L 107.49305 225.621639 
L 107.930197 224.605789 
L 108.464488 222.673303 
L 109.144495 219.210897 
L 110.55308 210.365543 
L 111.33023 206.386488 
L 111.815949 204.917256 
L 112.10738 204.538488 
L 112.35024 204.546897 
L 112.593099 204.8674 
L 112.884531 205.677625 
L 113.273106 207.48521 
L 113.758825 210.865699 
L 114.438831 217.385048 
L 115.653129 231.785505 
L 116.673139 242.718998 
L 117.256001 246.917193 
L 117.693148 248.656836 
L 117.98458 249.059997 
L 118.178867 248.977212 
L 118.421727 248.473272 
L 118.76173 247.026351 
L 119.198877 243.950278 
L 119.78174 237.970005 
L 120.607462 226.855607 
L 122.501766 200.649703 
L 123.133201 195.127658 
L 123.570348 192.900908 
L 123.910351 192.15469 
L 124.104638 192.123277 
L 124.298926 192.377489 
L 124.590357 193.282683 
L 124.978933 195.418523 
L 125.513223 199.896664 
L 126.241802 208.204647 
L 128.816112 239.716474 
L 129.398975 243.722353 
L 129.836122 245.464433 
L 130.176125 246.043333 
L 130.370413 246.071187 
L 130.564701 245.88345 
L 130.856132 245.21122 
L 131.244707 243.630431 
L 131.778998 240.330928 
L 132.507576 234.211649 
L 134.159021 217.640144 
L 135.130459 209.232733 
L 135.810465 205.044622 
L 136.344756 203.020966 
L 136.733331 202.320616 
L 136.976191 202.224144 
L 137.21905 202.391811 
L 137.510481 202.938817 
L 137.899057 204.239311 
L 138.384776 206.726552 
L 139.01621 211.204748 
L 139.939076 219.536409 
L 141.784808 236.495031 
L 142.416243 240.319923 
L 142.85339 241.902655 
L 143.193393 242.440428 
L 143.387681 242.458812 
L 143.581968 242.261727 
L 143.8734 241.558945 
L 144.261975 239.870344 
L 144.747694 236.615941 
L 145.379128 230.753318 
L 146.399138 218.846359 
L 147.710579 204.064727 
L 148.342014 199.260689 
L 148.779161 197.35463 
L 149.070592 196.823072 
L 149.26488 196.814457 
L 149.459168 197.087484 
L 149.750599 198.025703 
L 150.139174 200.240832 
L 150.624893 204.445194 
L 151.3049 212.519422 
L 153.927782 246.35683 
L 154.413501 249.120471 
L 154.704932 249.846886 
L 154.89922 249.922315 
L 155.093507 249.665832 
L 155.336367 248.879255 
L 155.67637 246.927231 
L 156.162089 242.531398 
L 156.793524 234.450102 
L 157.910677 216.511729 
L 159.027831 199.791732 
L 159.659266 193.418692 
L 160.096413 190.941803 
L 160.387844 190.282341 
L 160.53356 190.262257 
L 160.727847 190.560289 
L 160.970707 191.453619 
L 161.31071 193.655773 
L 161.796429 198.604482 
L 162.427864 207.718059 
L 163.447873 226.307412 
L 164.759315 249.286649 
L 165.390749 256.812588 
L 165.827896 259.902524 
L 166.119328 260.867988 
L 166.313615 261.00111 
L 166.459331 260.828332 
L 166.70219 260.018967 
L 167.042194 257.802104 
L 167.479341 253.170668 
L 168.062203 244.210556 
L 168.887926 227.439639 
L 171.025089 181.869479 
L 171.607952 174.178307 
L 172.045099 170.821096 
L 172.33653 169.859344 
L 172.482246 169.777391 
L 172.627961 169.965355 
L 172.870821 170.881252 
L 173.210824 173.42046 
L 173.647971 178.766801 
L 174.230834 189.203713 
L 175.007984 207.747619 
L 177.630867 274.509781 
L 178.165157 281.969223 
L 178.553733 285.031945 
L 178.845164 285.918659 
L 178.99088 285.895622 
L 179.136595 285.558964 
L 179.379455 284.301587 
L 179.719458 281.099932 
L 180.156605 274.622127 
L 180.739468 262.290747 
L 181.56519 239.347342 
L 183.896641 171.015438 
L 184.528076 159.819791 
L 184.965223 155.306943 
L 185.256654 153.899061 
L 185.450942 153.690289 
L 185.596657 153.918175 
L 185.790945 154.731474 
L 186.082376 157.023581 
L 186.470952 161.994619 
L 187.005242 172.057384 
L 187.733821 190.552384 
L 190.599563 269.244449 
L 191.133853 276.876261 
L 191.571 280.287697 
L 191.862432 281.087249 
L 192.008148 281.043702 
L 192.202435 280.531564 
L 192.493866 278.813784 
L 192.882442 274.842319 
L 193.416732 266.582883 
L 194.145311 251.254109 
L 196.962481 187.22617 
L 197.545344 180.3623 
L 197.933919 177.843445 
L 198.22535 177.076727 
L 198.371066 177.054527 
L 198.516781 177.270514 
L 198.759641 178.149863 
L 199.099644 180.429833 
L 199.536791 185.017797 
L 200.168226 194.405872 
L 201.139664 212.928833 
L 202.693964 242.476892 
L 203.373971 251.491488 
L 203.85969 255.538052 
L 204.248265 257.154717 
L 204.491125 257.404128 
L 204.63684 257.271025 
L 204.8797 256.581934 
L 205.219703 254.660319 
L 205.65685 250.648777 
L 206.239713 242.957536 
L 207.114007 227.888473 
L 208.959739 195.201408 
L 209.591173 187.903072 
L 210.028321 184.866267 
L 210.368324 183.781486 
L 210.562611 183.684057 
L 210.708327 183.863333 
L 210.951187 184.641793 
L 211.29119 186.720425 
L 211.728337 191.002482 
L 212.3112 199.196091 
L 213.136922 214.369292 
L 215.225513 254.402543 
L 215.856948 262.07244 
L 216.294095 265.262383 
L 216.634098 266.422022 
L 216.828386 266.549131 
L 216.974102 266.38735 
L 217.216961 265.630947 
L 217.556964 263.57151 
L 217.994111 259.30089 
L 218.576974 251.102235 
L 219.402696 235.837335 
L 221.831291 188.526551 
L 222.462726 180.906577 
L 222.948445 177.31378 
L 223.288448 176.060649 
L 223.531307 175.81334 
L 223.677023 175.923182 
L 223.919882 176.530833 
L 224.259886 178.248641 
L 224.697033 181.856731 
L 225.279896 188.833135 
L 226.057046 201.115284 
L 229.214219 254.639058 
L 229.845654 260.430022 
L 230.282801 262.786516 
L 230.622804 263.634847 
L 230.817092 263.72816 
L 231.011379 263.537719 
L 231.254239 262.905285 
L 231.594242 261.302236 
L 232.031389 258.073982 
L 232.614252 251.93561 
L 233.391402 241.149333 
L 234.848559 216.984976 
L 236.062856 198.440373 
L 236.840007 189.76806 
L 237.422869 185.597735 
L 237.811444 184.06971 
L 238.102876 183.608834 
L 238.297163 183.630666 
L 238.491451 183.914612 
L 238.782882 184.824943 
L 239.171457 186.913421 
L 239.657176 190.833836 
L 240.337183 198.428534 
L 241.308621 212.288297 
L 243.542928 245.214631 
L 244.271506 252.541429 
L 244.805797 256.021234 
L 245.194372 257.416093 
L 245.485804 257.801746 
L 245.680091 257.738408 
L 245.922951 257.297274 
L 246.214382 256.240458 
L 246.602957 253.956863 
L 247.137248 249.277701 
L 247.817255 241.067485 
L 248.788693 226.202226 
L 250.877284 193.394666 
L 251.557291 186.243611 
L 252.04301 183.078547 
L 252.383013 181.968267 
L 252.625872 181.767301 
L 252.771588 181.889598 
L 253.014448 182.502663 
L 253.354451 184.220305 
L 253.791598 187.869051 
L 254.325889 194.378705 
L 255.054467 206.292613 
L 256.317336 231.551137 
L 257.531634 254.25888 
L 258.21164 263.252451 
L 258.697359 267.214855 
L 259.037362 268.592264 
L 259.280222 268.833726 
L 259.425938 268.676265 
L 259.668797 267.908298 
L 260.0088 265.782662 
L 260.445947 261.318933 
L 261.02881 252.633882 
L 261.805961 237.262714 
L 264.477415 181.025559 
L 265.060277 174.21593 
L 265.497425 171.36016 
L 265.788856 170.597038 
L 265.934572 170.563014 
L 266.080287 170.76037 
L 266.323147 171.598612 
L 266.66315 173.815121 
L 267.100297 178.350027 
L 267.68316 186.992541 
L 268.508882 203.046327 
L 271.131764 257.091993 
L 271.811771 265.619949 
L 272.29749 269.346408 
L 272.686065 270.814042 
L 272.928924 271.039517 
L 273.07464 270.920983 
L 273.3175 270.306685 
L 273.657503 268.595315 
L 274.09465 265.016119 
L 274.677513 258.084129 
L 275.454663 245.76523 
L 276.717532 221.520967 
L 278.271833 192.706216 
L 279.097555 181.347084 
L 279.680418 175.941517 
L 280.117565 173.540389 
L 280.457568 172.722636 
L 280.651856 172.680275 
L 280.846143 172.950637 
L 281.089003 173.729642 
L 281.429006 175.638534 
L 281.866153 179.461431 
L 282.449016 186.801715 
L 283.177594 199.074287 
L 284.294748 222.310901 
L 286.043336 258.420748 
L 286.771914 269.04493 
L 287.306205 273.986866 
L 287.69478 275.821404 
L 287.93764 276.166944 
L 288.083356 276.071517 
L 288.277643 275.588397 
L 288.569075 274.102241 
L 288.95765 270.725217 
L 289.443369 264.382536 
L 290.074803 253.053671 
L 290.997669 232.033496 
L 292.989117 185.586351 
L 293.669124 174.916782 
L 294.154843 170.107982 
L 294.543418 168.143177 
L 294.786277 167.794775 
L 294.931993 167.911919 
L 295.12628 168.445647 
L 295.417712 170.039432 
L 295.806287 173.578578 
L 296.340578 180.82606 
L 297.069156 194.241419 
L 298.526313 226.597892 
L 299.594895 247.816448 
L 300.323473 258.155607 
L 300.857764 262.949048 
L 301.246339 264.843833 
L 301.537771 265.382033 
L 301.683486 265.372497 
L 301.877774 265.078184 
L 302.169205 264.054752 
L 302.55778 261.673869 
L 303.092071 256.727885 
L 303.82065 247.53729 
L 305.034947 228.790192 
L 306.637819 204.693529 
L 307.512114 194.661126 
L 308.19212 189.189376 
L 308.726411 186.557017 
L 309.114986 185.643109 
L 309.357846 185.519556 
L 309.552133 185.674738 
L 309.794993 186.191047 
L 310.134996 187.522072 
L 310.572143 190.278589 
L 311.106434 195.212694 
L 311.78644 203.80172 
L 312.709306 218.752875 
L 315.040757 258.18478 
L 315.62362 264.01672 
L 316.012195 266.178621 
L 316.303627 266.772432 
L 316.449342 266.720397 
L 316.64363 266.279064 
L 316.935061 264.808301 
L 317.323636 261.337985 
L 317.809355 254.667215 
L 318.44079 242.585351 
L 319.412228 218.950198 
L 320.869385 183.834013 
L 321.500819 173.559797 
L 321.937966 169.403302 
L 322.229398 168.173824 
L 322.375113 168.045747 
L 322.520829 168.248216 
L 322.715117 169.035419 
L 323.006548 171.319333 
L 323.395123 176.362252 
L 323.929414 186.698125 
L 324.657992 205.772065 
L 326.940872 269.501765 
L 327.475162 277.53958 
L 327.863738 280.453955 
L 328.106597 280.925348 
L 328.252313 280.698632 
L 328.4466 279.800872 
L 328.738032 277.194042 
L 329.126607 271.461014 
L 329.660898 259.798585 
L 330.438048 236.942166 
L 332.526639 172.184374 
L 333.109502 161.657518 
L 333.498077 157.84125 
L 333.740937 156.86736 
L 333.886653 156.816814 
L 334.032368 157.16832 
L 334.275228 158.642348 
L 334.615231 162.526937 
L 335.052378 170.447752 
L 335.635241 185.410871 
L 336.558107 215.977185 
L 338.160979 269.395201 
L 338.792414 283.749582 
L 339.278133 290.498725 
L 339.618136 292.731966 
L 339.812424 293.051594 
L 339.909567 292.94864 
L 340.103855 292.218908 
L 340.395286 289.832863 
L 340.783862 284.335403 
L 341.318152 272.85429 
L 342.046731 251.363119 
L 343.698175 192.857238 
L 344.621041 165.502435 
L 345.252476 152.903367 
L 345.689623 147.864348 
L 345.981054 146.316769 
L 346.175342 146.108903 
L 346.321058 146.386455 
L 346.563917 147.668047 
L 346.90392 151.142469 
L 347.341067 158.329286 
L 347.92393 172.102418 
L 348.749652 197.710686 
L 351.129675 275.227804 
L 351.76111 287.799728 
L 352.246829 293.506131 
L 352.586832 295.290239 
L 352.78112 295.478447 
L 352.926835 295.224606 
L 353.169695 294.059948 
L 353.509698 290.92058 
L 353.946845 284.4719 
L 354.529708 272.225974 
L 355.404002 248.302514 
L 357.589737 186.217647 
L 358.269744 173.422876 
L 358.804035 166.918161 
L 359.241182 164.042726 
L 359.532613 163.333872 
L 359.678329 163.330097 
L 359.872616 163.675465 
L 360.164048 164.908712 
L 360.552623 167.778513 
L 361.086914 173.678633 
L 361.864064 185.224004 
L 363.661224 216.764883 
L 364.972665 237.365885 
L 366.041247 250.761383 
L 366.964113 259.696538 
L 367.692691 264.847338 
L 368.226982 267.347664 
L 368.615557 268.357346 
L 368.906989 268.604251 
L 369.101276 268.50282 
L 369.344136 268.055268 
L 369.635567 267.017703 
L 370.024142 264.727422 
L 370.509861 260.318011 
L 371.092724 252.685434 
L 371.772731 240.674448 
L 372.695597 220.060138 
L 374.929904 168.25683 
L 375.561338 159.228989 
L 375.998485 155.695495 
L 376.289917 154.730254 
L 376.435632 154.684367 
L 376.581348 154.934836 
L 376.824208 156.015387 
L 377.164211 158.914808 
L 377.601358 164.944272 
L 378.184221 176.643233 
L 378.961371 197.339525 
L 381.584253 271.786336 
L 382.167116 281.235269 
L 382.604263 285.401629 
L 382.944266 286.819648 
L 383.138554 286.910907 
L 383.28427 286.640536 
L 383.527129 285.558619 
L 383.867132 282.772427 
L 384.304279 277.188073 
L 384.935714 265.789558 
L 385.85858 244.444668 
L 387.752884 199.838402 
L 388.530034 186.892444 
L 389.112897 180.433704 
L 389.550044 177.546453 
L 389.890047 176.457594 
L 390.132907 176.2822 
L 390.327194 176.490475 
L 390.570054 177.168536 
L 390.910057 178.851885 
L 391.395776 182.594315 
L 392.027211 189.406748 
L 392.950077 202.053242 
L 395.378671 236.545555 
L 396.155822 244.127531 
L 396.738685 247.918971 
L 397.175832 249.590149 
L 397.515835 250.176585 
L 397.758694 250.215221 
L 398.001554 249.943402 
L 398.292985 249.221059 
L 398.487273 248.509851 
L 398.487273 248.509851 
" style="fill:none;stroke:#0000ff;stroke-linecap:square;stroke-width:2;"/>
   </g>
   <g id="patch_3">
    <path d="M 57.6 307.584 
L 57.6 41.472 
" style="fill:none;stroke:#000000;stroke-linecap:square;stroke-linejoin:miter;stroke-width:0.8;"/>
   </g>
   <g id="patch_4">
    <path d="M 414.72 307.584 
L 414.72 41.472 
" style="fill:none;stroke:#000000;stroke-linecap:square;stroke-linejoin:miter;stroke-width:0.8;"/>
   </g>
   <g id="patch_5">
    <path d="M 57.6 307.584 
L 414.72 307.584 
" style="fill:none;stroke:#000000;stroke-linecap:square;stroke-linejoin:miter;stroke-width:0.8;"/>
   </g>
   <g id="patch_6">
    <path d="M 57.6 41.472 
L 414.72 41.472 
" style="fill:none;stroke:#000000;stroke-linecap:square;stroke-linejoin:miter;stroke-width:0.8;"/>
   </g>
   <g id="legend_1">
    <g id="patch_7">
     <path d="M 68.8 124.727 
L 282.0175 124.727 
Q 285.2175 124.727 285.2175 121.527 
L 285.2175 52.672 
Q 285.2175 49.472 282.0175 49.472 
L 68.8 49.472 
Q 65.6 49.472 65.6 52.672 
L 65.6 121.527 
Q 65.6 124.727 68.8 124.727 
z
" style="fill:#ffffff;opacity:0.8;stroke:#cccccc;stroke-linejoin:miter;"/>
    </g>
    <g id="line2d_17">
     <path d="M 72 62.4295 
L 104 62.4295 
" style="fill:none;stroke:#000000;stroke-linecap:square;stroke-width:1.5;"/>
    </g>
    <g id="line2d_18"/>
    <g id="text_16">
     <!-- Membrane potential -->
     <defs>
      <path d="M 9.8125 72.90625 
L 24.515625 72.90625 
L 43.109375 23.296875 
L 61.8125 72.90625 
L 76.515625 72.90625 
L 76.515625 0 
L 66.890625 0 
L 66.890625 64.015625 
L 48.09375 14.015625 
L 38.1875 14.015625 
L 19.390625 64.015625 
L 19.390625 0 
L 9.8125 0 
z
" id="DejaVuSans-4d"/>
      <path d="M 48.6875 27.296875 
Q 48.6875 37.203125 44.609375 42.84375 
Q 40.53125 48.484375 33.40625 48.484375 
Q 26.265625 48.484375 22.1875 42.84375 
Q 18.109375 37.203125 18.109375 27.296875 
Q 18.109375 17.390625 22.1875 11.75 
Q 26.265625 6.109375 33.40625 6.109375 
Q 40.53125 6.109375 44.609375 11.75 
Q 48.6875 17.390625 48.6875 27.296875 
z
M 18.109375 46.390625 
Q 20.953125 51.265625 25.265625 53.625 
Q 29.59375 56 35.59375 56 
Q 45.5625 56 51.78125 48.09375 
Q 58.015625 40.1875 58.015625 27.296875 
Q 58.015625 14.40625 51.78125 6.484375 
Q 45.5625 -1.421875 35.59375 -1.421875 
Q 29.59375 -1.421875 25.265625 0.953125 
Q 20.953125 3.328125 18.109375 8.203125 
L 18.109375 0 
L 9.078125 0 
L 9.078125 75.984375 
L 18.109375 75.984375 
z
" id="DejaVuSans-62"/>
      <path d="M 41.109375 46.296875 
Q 39.59375 47.171875 37.8125 47.578125 
Q 36.03125 48 33.890625 48 
Q 26.265625 48 22.1875 43.046875 
Q 18.109375 38.09375 18.109375 28.8125 
L 18.109375 0 
L 9.078125 0 
L 9.078125 54.6875 
L 18.109375 54.6875 
L 18.109375 46.1875 
Q 20.953125 51.171875 25.484375 53.578125 
Q 30.03125 56 36.53125 56 
Q 37.453125 56 38.578125 55.875 
Q 39.703125 55.765625 41.0625 55.515625 
z
" id="DejaVuSans-72"/>
      <path d="M 54.890625 33.015625 
L 54.890625 0 
L 45.90625 0 
L 45.90625 32.71875 
Q 45.90625 40.484375 42.875 44.328125 
Q 39.84375 48.1875 33.796875 48.1875 
Q 26.515625 48.1875 22.3125 43.546875 
Q 18.109375 38.921875 18.109375 30.90625 
L 18.109375 0 
L 9.078125 0 
L 9.078125 54.6875 
L 18.109375 54.6875 
L 18.109375 46.1875 
Q 21.34375 51.125 25.703125 53.5625 
Q 30.078125 56 35.796875 56 
Q 45.21875 56 50.046875 50.171875 
Q 54.890625 44.34375 54.890625 33.015625 
z
" id="DejaVuSans-6e"/>
      <path d="M 18.109375 8.203125 
L 18.109375 -20.796875 
L 9.078125 -20.796875 
L 9.078125 54.6875 
L 18.109375 54.6875 
L 18.109375 46.390625 
Q 20.953125 51.265625 25.265625 53.625 
Q 29.59375 56 35.59375 56 
Q 45.5625 56 51.78125 48.09375 
Q 58.015625 40.1875 58.015625 27.296875 
Q 58.015625 14.40625 51.78125 6.484375 
Q 45.5625 -1.421875 35.59375 -1.421875 
Q 29.59375 -1.421875 25.265625 0.953125 
Q 20.953125 3.328125 18.109375 8.203125 
z
M 48.6875 27.296875 
Q 48.6875 37.203125 44.609375 42.84375 
Q 40.53125 48.484375 33.40625 48.484375 
Q 26.265625 48.484375 22.1875 42.84375 
Q 18.109375 37.203125 18.109375 27.296875 
Q 18.109375 17.390625 22.1875 11.75 
Q 26.265625 6.109375 33.40625 6.109375 
Q 40.53125 6.109375 44.609375 11.75 
Q 48.6875 17.390625 48.6875 27.296875 
z
" id="DejaVuSans-70"/>
     </defs>
     <g transform="translate(116.8 68.0295)scale(0.16 -0.16)">
      <use xlink:href="#DejaVuSans-4d"/>
      <use x="86.279297" xlink:href="#DejaVuSans-65"/>
      <use x="147.802734" xlink:href="#DejaVuSans-6d"/>
      <use x="245.214844" xlink:href="#DejaVuSans-62"/>
      <use x="308.691406" xlink:href="#DejaVuSans-72"/>
      <use x="349.804688" xlink:href="#DejaVuSans-61"/>
      <use x="411.083984" xlink:href="#DejaVuSans-6e"/>
      <use x="474.462891" xlink:href="#DejaVuSans-65"/>
      <use x="535.986328" xlink:href="#DejaVuSans-20"/>
      <use x="567.773438" xlink:href="#DejaVuSans-70"/>
      <use x="631.25" xlink:href="#DejaVuSans-6f"/>
      <use x="692.431641" xlink:href="#DejaVuSans-74"/>
      <use x="731.640625" xlink:href="#DejaVuSans-65"/>
      <use x="793.164062" xlink:href="#DejaVuSans-6e"/>
      <use x="856.542969" xlink:href="#DejaVuSans-74"/>
      <use x="895.751953" xlink:href="#DejaVuSans-69"/>
      <use x="923.535156" xlink:href="#DejaVuSans-61"/>
      <use x="984.814453" xlink:href="#DejaVuSans-6c"/>
     </g>
    </g>
    <g id="line2d_19">
     <path d="M 72 85.9145 
L 104 85.9145 
" style="fill:none;stroke:#008000;stroke-linecap:square;stroke-width:2;"/>
    </g>
    <g id="line2d_20"/>
    <g id="text_17">
     <!-- Ramp -->
     <defs>
      <path d="M 44.390625 34.1875 
Q 47.5625 33.109375 50.5625 29.59375 
Q 53.5625 26.078125 56.59375 19.921875 
L 66.609375 0 
L 56 0 
L 46.6875 18.703125 
Q 43.0625 26.03125 39.671875 28.421875 
Q 36.28125 30.8125 30.421875 30.8125 
L 19.671875 30.8125 
L 19.671875 0 
L 9.8125 0 
L 9.8125 72.90625 
L 32.078125 72.90625 
Q 44.578125 72.90625 50.734375 67.671875 
Q 56.890625 62.453125 56.890625 51.90625 
Q 56.890625 45.015625 53.6875 40.46875 
Q 50.484375 35.9375 44.390625 34.1875 
z
M 19.671875 64.796875 
L 19.671875 38.921875 
L 32.078125 38.921875 
Q 39.203125 38.921875 42.84375 42.21875 
Q 46.484375 45.515625 46.484375 51.90625 
Q 46.484375 58.296875 42.84375 61.546875 
Q 39.203125 64.796875 32.078125 64.796875 
z
" id="DejaVuSans-52"/>
     </defs>
     <g transform="translate(116.8 91.5145)scale(0.16 -0.16)">
      <use xlink:href="#DejaVuSans-52"/>
      <use x="69.451172" xlink:href="#DejaVuSans-61"/>
      <use x="130.730469" xlink:href="#DejaVuSans-6d"/>
      <use x="228.142578" xlink:href="#DejaVuSans-70"/>
     </g>
    </g>
    <g id="line2d_21">
     <path d="M 72 109.3995 
L 104 109.3995 
" style="fill:none;stroke:#0000ff;stroke-linecap:square;stroke-width:2;"/>
    </g>
    <g id="line2d_22"/>
    <g id="text_18">
     <!-- Theta -->
     <defs>
      <path d="M 54.890625 33.015625 
L 54.890625 0 
L 45.90625 0 
L 45.90625 32.71875 
Q 45.90625 40.484375 42.875 44.328125 
Q 39.84375 48.1875 33.796875 48.1875 
Q 26.515625 48.1875 22.3125 43.546875 
Q 18.109375 38.921875 18.109375 30.90625 
L 18.109375 0 
L 9.078125 0 
L 9.078125 75.984375 
L 18.109375 75.984375 
L 18.109375 46.1875 
Q 21.34375 51.125 25.703125 53.5625 
Q 30.078125 56 35.796875 56 
Q 45.21875 56 50.046875 50.171875 
Q 54.890625 44.34375 54.890625 33.015625 
z
" id="DejaVuSans-68"/>
     </defs>
     <g transform="translate(116.8 114.9995)scale(0.16 -0.16)">
      <use xlink:href="#DejaVuSans-54"/>
      <use x="61.083984" xlink:href="#DejaVuSans-68"/>
      <use x="124.462891" xlink:href="#DejaVuSans-65"/>
      <use x="185.986328" xlink:href="#DejaVuSans-74"/>
      <use x="225.195312" xlink:href="#DejaVuSans-61"/>
     </g>
    </g>
   </g>
  </g>
 </g>
 <defs>
  <clipPath id="p852a96231b">
   <rect height="266.112" width="357.12" x="57.6" y="41.472"/>
  </clipPath>
 </defs>
</svg>
