<?xml version="1.0" encoding="utf-8" standalone="no"?>
<!DOCTYPE svg PUBLIC "-//W3C//DTD SVG 1.1//EN"
  "http://www.w3.org/Graphics/SVG/1.1/DTD/svg11.dtd">
<!-- Created with matplotlib (http://matplotlib.org/) -->
<svg height="345pt" version="1.1" viewBox="0 0 460 345" width="460pt" xmlns="http://www.w3.org/2000/svg" xmlns:xlink="http://www.w3.org/1999/xlink">
 <defs>
  <style type="text/css">
*{stroke-linecap:butt;stroke-linejoin:round;}
  </style>
 </defs>
 <g id="figure_1">
  <g id="patch_1">
   <path d="M 0 345.6 
L 460.8 345.6 
L 460.8 0 
L 0 0 
z
" style="fill:#ffffff;"/>
  </g>
  <g id="axes_1">
   <g id="patch_2">
    <path d="M 57.6 307.584 
L 414.72 307.584 
L 414.72 41.472 
L 57.6 41.472 
z
" style="fill:#ffffff;"/>
   </g>
   <g id="matplotlib.axis_1">
    <g id="xtick_1">
     <g id="line2d_1">
      <defs>
       <path d="M 0 0 
L 0 3.5 
" id="m90bc453e5e" style="stroke:#000000;stroke-width:0.8;"/>
      </defs>
      <g>
       <use style="stroke:#000000;stroke-width:0.8;" x="73.832727" xlink:href="#m90bc453e5e" y="307.584"/>
      </g>
     </g>
     <g id="text_1">
      <!-- 0 -->
      <defs>
       <path d="M 31.78125 66.40625 
Q 24.171875 66.40625 20.328125 58.90625 
Q 16.5 51.421875 16.5 36.375 
Q 16.5 21.390625 20.328125 13.890625 
Q 24.171875 6.390625 31.78125 6.390625 
Q 39.453125 6.390625 43.28125 13.890625 
Q 47.125 21.390625 47.125 36.375 
Q 47.125 51.421875 43.28125 58.90625 
Q 39.453125 66.40625 31.78125 66.40625 
z
M 31.78125 74.21875 
Q 44.046875 74.21875 50.515625 64.515625 
Q 56.984375 54.828125 56.984375 36.375 
Q 56.984375 17.96875 50.515625 8.265625 
Q 44.046875 -1.421875 31.78125 -1.421875 
Q 19.53125 -1.421875 13.0625 8.265625 
Q 6.59375 17.96875 6.59375 36.375 
Q 6.59375 54.828125 13.0625 64.515625 
Q 19.53125 74.21875 31.78125 74.21875 
z
" id="DejaVuSans-30"/>
      </defs>
      <g transform="translate(70.651477 322.182437)scale(0.1 -0.1)">
       <use xlink:href="#DejaVuSans-30"/>
      </g>
     </g>
    </g>
    <g id="xtick_2">
     <g id="line2d_2">
      <g>
       <use style="stroke:#000000;stroke-width:0.8;" x="147.920939" xlink:href="#m90bc453e5e" y="307.584"/>
      </g>
     </g>
     <g id="text_2">
      <!-- 1000 -->
      <defs>
       <path d="M 12.40625 8.296875 
L 28.515625 8.296875 
L 28.515625 63.921875 
L 10.984375 60.40625 
L 10.984375 69.390625 
L 28.421875 72.90625 
L 38.28125 72.90625 
L 38.28125 8.296875 
L 54.390625 8.296875 
L 54.390625 0 
L 12.40625 0 
z
" id="DejaVuSans-31"/>
      </defs>
      <g transform="translate(135.195939 322.182437)scale(0.1 -0.1)">
       <use xlink:href="#DejaVuSans-31"/>
       <use x="63.623047" xlink:href="#DejaVuSans-30"/>
       <use x="127.246094" xlink:href="#DejaVuSans-30"/>
       <use x="190.869141" xlink:href="#DejaVuSans-30"/>
      </g>
     </g>
    </g>
    <g id="xtick_3">
     <g id="line2d_3">
      <g>
       <use style="stroke:#000000;stroke-width:0.8;" x="222.009151" xlink:href="#m90bc453e5e" y="307.584"/>
      </g>
     </g>
     <g id="text_3">
      <!-- 2000 -->
      <defs>
       <path d="M 19.1875 8.296875 
L 53.609375 8.296875 
L 53.609375 0 
L 7.328125 0 
L 7.328125 8.296875 
Q 12.9375 14.109375 22.625 23.890625 
Q 32.328125 33.6875 34.8125 36.53125 
Q 39.546875 41.84375 41.421875 45.53125 
Q 43.3125 49.21875 43.3125 52.78125 
Q 43.3125 58.59375 39.234375 62.25 
Q 35.15625 65.921875 28.609375 65.921875 
Q 23.96875 65.921875 18.8125 64.3125 
Q 13.671875 62.703125 7.8125 59.421875 
L 7.8125 69.390625 
Q 13.765625 71.78125 18.9375 73 
Q 24.125 74.21875 28.421875 74.21875 
Q 39.75 74.21875 46.484375 68.546875 
Q 53.21875 62.890625 53.21875 53.421875 
Q 53.21875 48.921875 51.53125 44.890625 
Q 49.859375 40.875 45.40625 35.40625 
Q 44.1875 33.984375 37.640625 27.21875 
Q 31.109375 20.453125 19.1875 8.296875 
z
" id="DejaVuSans-32"/>
      </defs>
      <g transform="translate(209.284151 322.182437)scale(0.1 -0.1)">
       <use xlink:href="#DejaVuSans-32"/>
       <use x="63.623047" xlink:href="#DejaVuSans-30"/>
       <use x="127.246094" xlink:href="#DejaVuSans-30"/>
       <use x="190.869141" xlink:href="#DejaVuSans-30"/>
      </g>
     </g>
    </g>
    <g id="xtick_4">
     <g id="line2d_4">
      <g>
       <use style="stroke:#000000;stroke-width:0.8;" x="296.097364" xlink:href="#m90bc453e5e" y="307.584"/>
      </g>
     </g>
     <g id="text_4">
      <!-- 3000 -->
      <defs>
       <path d="M 40.578125 39.3125 
Q 47.65625 37.796875 51.625 33 
Q 55.609375 28.21875 55.609375 21.1875 
Q 55.609375 10.40625 48.1875 4.484375 
Q 40.765625 -1.421875 27.09375 -1.421875 
Q 22.515625 -1.421875 17.65625 -0.515625 
Q 12.796875 0.390625 7.625 2.203125 
L 7.625 11.71875 
Q 11.71875 9.328125 16.59375 8.109375 
Q 21.484375 6.890625 26.8125 6.890625 
Q 36.078125 6.890625 40.9375 10.546875 
Q 45.796875 14.203125 45.796875 21.1875 
Q 45.796875 27.640625 41.28125 31.265625 
Q 36.765625 34.90625 28.71875 34.90625 
L 20.21875 34.90625 
L 20.21875 43.015625 
L 29.109375 43.015625 
Q 36.375 43.015625 40.234375 45.921875 
Q 44.09375 48.828125 44.09375 54.296875 
Q 44.09375 59.90625 40.109375 62.90625 
Q 36.140625 65.921875 28.71875 65.921875 
Q 24.65625 65.921875 20.015625 65.03125 
Q 15.375 64.15625 9.8125 62.3125 
L 9.8125 71.09375 
Q 15.4375 72.65625 20.34375 73.4375 
Q 25.25 74.21875 29.59375 74.21875 
Q 40.828125 74.21875 47.359375 69.109375 
Q 53.90625 64.015625 53.90625 55.328125 
Q 53.90625 49.265625 50.4375 45.09375 
Q 46.96875 40.921875 40.578125 39.3125 
z
" id="DejaVuSans-33"/>
      </defs>
      <g transform="translate(283.372364 322.182437)scale(0.1 -0.1)">
       <use xlink:href="#DejaVuSans-33"/>
       <use x="63.623047" xlink:href="#DejaVuSans-30"/>
       <use x="127.246094" xlink:href="#DejaVuSans-30"/>
       <use x="190.869141" xlink:href="#DejaVuSans-30"/>
      </g>
     </g>
    </g>
    <g id="xtick_5">
     <g id="line2d_5">
      <g>
       <use style="stroke:#000000;stroke-width:0.8;" x="370.185576" xlink:href="#m90bc453e5e" y="307.584"/>
      </g>
     </g>
     <g id="text_5">
      <!-- 4000 -->
      <defs>
       <path d="M 37.796875 64.3125 
L 12.890625 25.390625 
L 37.796875 25.390625 
z
M 35.203125 72.90625 
L 47.609375 72.90625 
L 47.609375 25.390625 
L 58.015625 25.390625 
L 58.015625 17.1875 
L 47.609375 17.1875 
L 47.609375 0 
L 37.796875 0 
L 37.796875 17.1875 
L 4.890625 17.1875 
L 4.890625 26.703125 
z
" id="DejaVuSans-34"/>
      </defs>
      <g transform="translate(357.460576 322.182437)scale(0.1 -0.1)">
       <use xlink:href="#DejaVuSans-34"/>
       <use x="63.623047" xlink:href="#DejaVuSans-30"/>
       <use x="127.246094" xlink:href="#DejaVuSans-30"/>
       <use x="190.869141" xlink:href="#DejaVuSans-30"/>
      </g>
     </g>
    </g>
    <g id="text_6">
     <!-- Time (ms) -->
     <defs>
      <path d="M -0.296875 72.90625 
L 61.375 72.90625 
L 61.375 64.59375 
L 35.5 64.59375 
L 35.5 0 
L 25.59375 0 
L 25.59375 64.59375 
L -0.296875 64.59375 
z
" id="DejaVuSans-54"/>
      <path d="M 9.421875 54.6875 
L 18.40625 54.6875 
L 18.40625 0 
L 9.421875 0 
z
M 9.421875 75.984375 
L 18.40625 75.984375 
L 18.40625 64.59375 
L 9.421875 64.59375 
z
" id="DejaVuSans-69"/>
      <path d="M 52 44.1875 
Q 55.375 50.25 60.0625 53.125 
Q 64.75 56 71.09375 56 
Q 79.640625 56 84.28125 50.015625 
Q 88.921875 44.046875 88.921875 33.015625 
L 88.921875 0 
L 79.890625 0 
L 79.890625 32.71875 
Q 79.890625 40.578125 77.09375 44.375 
Q 74.3125 48.1875 68.609375 48.1875 
Q 61.625 48.1875 57.5625 43.546875 
Q 53.515625 38.921875 53.515625 30.90625 
L 53.515625 0 
L 44.484375 0 
L 44.484375 32.71875 
Q 44.484375 40.625 41.703125 44.40625 
Q 38.921875 48.1875 33.109375 48.1875 
Q 26.21875 48.1875 22.15625 43.53125 
Q 18.109375 38.875 18.109375 30.90625 
L 18.109375 0 
L 9.078125 0 
L 9.078125 54.6875 
L 18.109375 54.6875 
L 18.109375 46.1875 
Q 21.1875 51.21875 25.484375 53.609375 
Q 29.78125 56 35.6875 56 
Q 41.65625 56 45.828125 52.96875 
Q 50 49.953125 52 44.1875 
z
" id="DejaVuSans-6d"/>
      <path d="M 56.203125 29.59375 
L 56.203125 25.203125 
L 14.890625 25.203125 
Q 15.484375 15.921875 20.484375 11.0625 
Q 25.484375 6.203125 34.421875 6.203125 
Q 39.59375 6.203125 44.453125 7.46875 
Q 49.3125 8.734375 54.109375 11.28125 
L 54.109375 2.78125 
Q 49.265625 0.734375 44.1875 -0.34375 
Q 39.109375 -1.421875 33.890625 -1.421875 
Q 20.796875 -1.421875 13.15625 6.1875 
Q 5.515625 13.8125 5.515625 26.8125 
Q 5.515625 40.234375 12.765625 48.109375 
Q 20.015625 56 32.328125 56 
Q 43.359375 56 49.78125 48.890625 
Q 56.203125 41.796875 56.203125 29.59375 
z
M 47.21875 32.234375 
Q 47.125 39.59375 43.09375 43.984375 
Q 39.0625 48.390625 32.421875 48.390625 
Q 24.90625 48.390625 20.390625 44.140625 
Q 15.875 39.890625 15.1875 32.171875 
z
" id="DejaVuSans-65"/>
      <path id="DejaVuSans-20"/>
      <path d="M 31 75.875 
Q 24.46875 64.65625 21.28125 53.65625 
Q 18.109375 42.671875 18.109375 31.390625 
Q 18.109375 20.125 21.3125 9.0625 
Q 24.515625 -2 31 -13.1875 
L 23.1875 -13.1875 
Q 15.875 -1.703125 12.234375 9.375 
Q 8.59375 20.453125 8.59375 31.390625 
Q 8.59375 42.28125 12.203125 53.3125 
Q 15.828125 64.359375 23.1875 75.875 
z
" id="DejaVuSans-28"/>
      <path d="M 44.28125 53.078125 
L 44.28125 44.578125 
Q 40.484375 46.53125 36.375 47.5 
Q 32.28125 48.484375 27.875 48.484375 
Q 21.1875 48.484375 17.84375 46.4375 
Q 14.5 44.390625 14.5 40.28125 
Q 14.5 37.15625 16.890625 35.375 
Q 19.28125 33.59375 26.515625 31.984375 
L 29.59375 31.296875 
Q 39.15625 29.25 43.1875 25.515625 
Q 47.21875 21.78125 47.21875 15.09375 
Q 47.21875 7.46875 41.1875 3.015625 
Q 35.15625 -1.421875 24.609375 -1.421875 
Q 20.21875 -1.421875 15.453125 -0.5625 
Q 10.6875 0.296875 5.421875 2 
L 5.421875 11.28125 
Q 10.40625 8.6875 15.234375 7.390625 
Q 20.0625 6.109375 24.8125 6.109375 
Q 31.15625 6.109375 34.5625 8.28125 
Q 37.984375 10.453125 37.984375 14.40625 
Q 37.984375 18.0625 35.515625 20.015625 
Q 33.0625 21.96875 24.703125 23.78125 
L 21.578125 24.515625 
Q 13.234375 26.265625 9.515625 29.90625 
Q 5.8125 33.546875 5.8125 39.890625 
Q 5.8125 47.609375 11.28125 51.796875 
Q 16.75 56 26.8125 56 
Q 31.78125 56 36.171875 55.265625 
Q 40.578125 54.546875 44.28125 53.078125 
z
" id="DejaVuSans-73"/>
      <path d="M 8.015625 75.875 
L 15.828125 75.875 
Q 23.140625 64.359375 26.78125 53.3125 
Q 30.421875 42.28125 30.421875 31.390625 
Q 30.421875 20.453125 26.78125 9.375 
Q 23.140625 -1.703125 15.828125 -13.1875 
L 8.015625 -13.1875 
Q 14.5 -2 17.703125 9.0625 
Q 20.90625 20.125 20.90625 31.390625 
Q 20.90625 42.671875 17.703125 53.65625 
Q 14.5 64.65625 8.015625 75.875 
z
" id="DejaVuSans-29"/>
     </defs>
     <g transform="translate(195.595 340.419625)scale(0.16 -0.16)">
      <use xlink:href="#DejaVuSans-54"/>
      <use x="61.037109" xlink:href="#DejaVuSans-69"/>
      <use x="88.820312" xlink:href="#DejaVuSans-6d"/>
      <use x="186.232422" xlink:href="#DejaVuSans-65"/>
      <use x="247.755859" xlink:href="#DejaVuSans-20"/>
      <use x="279.542969" xlink:href="#DejaVuSans-28"/>
      <use x="318.556641" xlink:href="#DejaVuSans-6d"/>
      <use x="415.96875" xlink:href="#DejaVuSans-73"/>
      <use x="468.068359" xlink:href="#DejaVuSans-29"/>
     </g>
    </g>
   </g>
   <g id="matplotlib.axis_2">
    <g id="ytick_1">
     <g id="line2d_6">
      <defs>
       <path d="M 0 0 
L -3.5 0 
" id="m6e263b4ad3" style="stroke:#000000;stroke-width:0.8;"/>
      </defs>
      <g>
       <use style="stroke:#000000;stroke-width:0.8;" x="57.6" xlink:href="#m6e263b4ad3" y="289.477293"/>
      </g>
     </g>
     <g id="text_7">
      <!-- −3 -->
      <defs>
       <path d="M 10.59375 35.5 
L 73.1875 35.5 
L 73.1875 27.203125 
L 10.59375 27.203125 
z
" id="DejaVuSans-2212"/>
      </defs>
      <g transform="translate(35.857813 293.276511)scale(0.1 -0.1)">
       <use xlink:href="#DejaVuSans-2212"/>
       <use x="83.789062" xlink:href="#DejaVuSans-33"/>
      </g>
     </g>
    </g>
    <g id="ytick_2">
     <g id="line2d_7">
      <g>
       <use style="stroke:#000000;stroke-width:0.8;" x="57.6" xlink:href="#m6e263b4ad3" y="251.464918"/>
      </g>
     </g>
     <g id="text_8">
      <!-- −2 -->
      <g transform="translate(35.857813 255.264137)scale(0.1 -0.1)">
       <use xlink:href="#DejaVuSans-2212"/>
       <use x="83.789062" xlink:href="#DejaVuSans-32"/>
      </g>
     </g>
    </g>
    <g id="ytick_3">
     <g id="line2d_8">
      <g>
       <use style="stroke:#000000;stroke-width:0.8;" x="57.6" xlink:href="#m6e263b4ad3" y="213.452544"/>
      </g>
     </g>
     <g id="text_9">
      <!-- −1 -->
      <g transform="translate(35.857813 217.251763)scale(0.1 -0.1)">
       <use xlink:href="#DejaVuSans-2212"/>
       <use x="83.789062" xlink:href="#DejaVuSans-31"/>
      </g>
     </g>
    </g>
    <g id="ytick_4">
     <g id="line2d_9">
      <g>
       <use style="stroke:#000000;stroke-width:0.8;" x="57.6" xlink:href="#m6e263b4ad3" y="175.44017"/>
      </g>
     </g>
     <g id="text_10">
      <!-- 0 -->
      <g transform="translate(44.2375 179.239389)scale(0.1 -0.1)">
       <use xlink:href="#DejaVuSans-30"/>
      </g>
     </g>
    </g>
    <g id="ytick_5">
     <g id="line2d_10">
      <g>
       <use style="stroke:#000000;stroke-width:0.8;" x="57.6" xlink:href="#m6e263b4ad3" y="137.427796"/>
      </g>
     </g>
     <g id="text_11">
      <!-- 1 -->
      <g transform="translate(44.2375 141.227015)scale(0.1 -0.1)">
       <use xlink:href="#DejaVuSans-31"/>
      </g>
     </g>
    </g>
    <g id="ytick_6">
     <g id="line2d_11">
      <g>
       <use style="stroke:#000000;stroke-width:0.8;" x="57.6" xlink:href="#m6e263b4ad3" y="99.415422"/>
      </g>
     </g>
     <g id="text_12">
      <!-- 2 -->
      <g transform="translate(44.2375 103.214641)scale(0.1 -0.1)">
       <use xlink:href="#DejaVuSans-32"/>
      </g>
     </g>
    </g>
    <g id="ytick_7">
     <g id="line2d_12">
      <g>
       <use style="stroke:#000000;stroke-width:0.8;" x="57.6" xlink:href="#m6e263b4ad3" y="61.403048"/>
      </g>
     </g>
     <g id="text_13">
      <!-- 3 -->
      <g transform="translate(44.2375 65.202267)scale(0.1 -0.1)">
       <use xlink:href="#DejaVuSans-33"/>
      </g>
     </g>
    </g>
    <g id="text_14">
     <!-- Voltage (mV) -->
     <defs>
      <path d="M 28.609375 0 
L 0.78125 72.90625 
L 11.078125 72.90625 
L 34.1875 11.53125 
L 57.328125 72.90625 
L 67.578125 72.90625 
L 39.796875 0 
z
" id="DejaVuSans-56"/>
      <path d="M 30.609375 48.390625 
Q 23.390625 48.390625 19.1875 42.75 
Q 14.984375 37.109375 14.984375 27.296875 
Q 14.984375 17.484375 19.15625 11.84375 
Q 23.34375 6.203125 30.609375 6.203125 
Q 37.796875 6.203125 41.984375 11.859375 
Q 46.1875 17.53125 46.1875 27.296875 
Q 46.1875 37.015625 41.984375 42.703125 
Q 37.796875 48.390625 30.609375 48.390625 
z
M 30.609375 56 
Q 42.328125 56 49.015625 48.375 
Q 55.71875 40.765625 55.71875 27.296875 
Q 55.71875 13.875 49.015625 6.21875 
Q 42.328125 -1.421875 30.609375 -1.421875 
Q 18.84375 -1.421875 12.171875 6.21875 
Q 5.515625 13.875 5.515625 27.296875 
Q 5.515625 40.765625 12.171875 48.375 
Q 18.84375 56 30.609375 56 
z
" id="DejaVuSans-6f"/>
      <path d="M 9.421875 75.984375 
L 18.40625 75.984375 
L 18.40625 0 
L 9.421875 0 
z
" id="DejaVuSans-6c"/>
      <path d="M 18.3125 70.21875 
L 18.3125 54.6875 
L 36.8125 54.6875 
L 36.8125 47.703125 
L 18.3125 47.703125 
L 18.3125 18.015625 
Q 18.3125 11.328125 20.140625 9.421875 
Q 21.96875 7.515625 27.59375 7.515625 
L 36.8125 7.515625 
L 36.8125 0 
L 27.59375 0 
Q 17.1875 0 13.234375 3.875 
Q 9.28125 7.765625 9.28125 18.015625 
L 9.28125 47.703125 
L 2.6875 47.703125 
L 2.6875 54.6875 
L 9.28125 54.6875 
L 9.28125 70.21875 
z
" id="DejaVuSans-74"/>
      <path d="M 34.28125 27.484375 
Q 23.390625 27.484375 19.1875 25 
Q 14.984375 22.515625 14.984375 16.5 
Q 14.984375 11.71875 18.140625 8.90625 
Q 21.296875 6.109375 26.703125 6.109375 
Q 34.1875 6.109375 38.703125 11.40625 
Q 43.21875 16.703125 43.21875 25.484375 
L 43.21875 27.484375 
z
M 52.203125 31.203125 
L 52.203125 0 
L 43.21875 0 
L 43.21875 8.296875 
Q 40.140625 3.328125 35.546875 0.953125 
Q 30.953125 -1.421875 24.3125 -1.421875 
Q 15.921875 -1.421875 10.953125 3.296875 
Q 6 8.015625 6 15.921875 
Q 6 25.140625 12.171875 29.828125 
Q 18.359375 34.515625 30.609375 34.515625 
L 43.21875 34.515625 
L 43.21875 35.40625 
Q 43.21875 41.609375 39.140625 45 
Q 35.0625 48.390625 27.6875 48.390625 
Q 23 48.390625 18.546875 47.265625 
Q 14.109375 46.140625 10.015625 43.890625 
L 10.015625 52.203125 
Q 14.9375 54.109375 19.578125 55.046875 
Q 24.21875 56 28.609375 56 
Q 40.484375 56 46.34375 49.84375 
Q 52.203125 43.703125 52.203125 31.203125 
z
" id="DejaVuSans-61"/>
      <path d="M 45.40625 27.984375 
Q 45.40625 37.75 41.375 43.109375 
Q 37.359375 48.484375 30.078125 48.484375 
Q 22.859375 48.484375 18.828125 43.109375 
Q 14.796875 37.75 14.796875 27.984375 
Q 14.796875 18.265625 18.828125 12.890625 
Q 22.859375 7.515625 30.078125 7.515625 
Q 37.359375 7.515625 41.375 12.890625 
Q 45.40625 18.265625 45.40625 27.984375 
z
M 54.390625 6.78125 
Q 54.390625 -7.171875 48.1875 -13.984375 
Q 42 -20.796875 29.203125 -20.796875 
Q 24.46875 -20.796875 20.265625 -20.09375 
Q 16.0625 -19.390625 12.109375 -17.921875 
L 12.109375 -9.1875 
Q 16.0625 -11.328125 19.921875 -12.34375 
Q 23.78125 -13.375 27.78125 -13.375 
Q 36.625 -13.375 41.015625 -8.765625 
Q 45.40625 -4.15625 45.40625 5.171875 
L 45.40625 9.625 
Q 42.625 4.78125 38.28125 2.390625 
Q 33.9375 0 27.875 0 
Q 17.828125 0 11.671875 7.65625 
Q 5.515625 15.328125 5.515625 27.984375 
Q 5.515625 40.671875 11.671875 48.328125 
Q 17.828125 56 27.875 56 
Q 33.9375 56 38.28125 53.609375 
Q 42.625 51.21875 45.40625 46.390625 
L 45.40625 54.6875 
L 54.390625 54.6875 
z
" id="DejaVuSans-67"/>
     </defs>
     <g transform="translate(28.530313 227.19925)rotate(-90)scale(0.16 -0.16)">
      <use xlink:href="#DejaVuSans-56"/>
      <use x="68.298828" xlink:href="#DejaVuSans-6f"/>
      <use x="129.480469" xlink:href="#DejaVuSans-6c"/>
      <use x="157.263672" xlink:href="#DejaVuSans-74"/>
      <use x="196.472656" xlink:href="#DejaVuSans-61"/>
      <use x="257.751953" xlink:href="#DejaVuSans-67"/>
      <use x="321.228516" xlink:href="#DejaVuSans-65"/>
      <use x="382.751953" xlink:href="#DejaVuSans-20"/>
      <use x="414.539062" xlink:href="#DejaVuSans-28"/>
      <use x="453.552734" xlink:href="#DejaVuSans-6d"/>
      <use x="550.964844" xlink:href="#DejaVuSans-56"/>
      <use x="619.373047" xlink:href="#DejaVuSans-29"/>
     </g>
    </g>
   </g>
   <g id="line2d_13">
    <path clip-path="url(#p8d0b7f86d8)" d="M 73.832727 183.064014 
L 75.240403 194.022464 
L 75.5738 195.123427 
L 75.759021 195.26913 
L 75.907197 195.115306 
L 76.129462 194.400729 
L 76.425815 192.494041 
L 76.8333 188.051647 
L 77.351917 179.553244 
L 78.166888 161.777113 
L 79.241167 139.055953 
L 79.72274 132.950083 
L 80.019093 131.252287 
L 80.167269 131.071486 
L 80.278402 131.242252 
L 80.463622 132.123321 
L 80.722931 134.621022 
L 81.093372 140.691168 
L 81.61199 153.61133 
L 82.42696 180.809034 
L 83.575327 218.060505 
L 84.093945 228.359965 
L 84.427342 231.614633 
L 84.649606 232.173439 
L 84.760739 231.959089 
L 84.945959 230.873428 
L 85.242312 227.292988 
L 85.649797 218.968674 
L 86.242503 201.343561 
L 88.131752 140.584643 
L 88.576281 133.717269 
L 88.872634 131.700695 
L 89.020811 131.475154 
L 89.057855 131.499267 
L 89.206031 131.911537 
L 89.428296 133.444531 
L 89.761693 137.622854 
L 90.243266 146.862135 
L 92.317736 191.230957 
L 92.688177 194.039163 
L 92.910442 194.575997 
L 93.021574 194.526505 
L 93.169751 194.142466 
L 93.429059 192.649453 
L 93.7995 188.95096 
L 94.42925 179.894418 
L 95.466485 165.142673 
L 95.87397 161.940637 
L 96.133279 161.105331 
L 96.281456 161.085913 
L 96.429632 161.407392 
L 96.651897 162.527007 
L 96.985294 165.582756 
L 97.466867 172.517604 
L 98.318881 188.961219 
L 99.170896 203.948794 
L 99.615425 208.593234 
L 99.911778 209.932598 
L 100.059954 210.020596 
L 100.208131 209.708149 
L 100.430395 208.483543 
L 100.763792 204.981715 
L 101.208322 197.474084 
L 101.875116 181.652057 
L 103.468012 142.005981 
L 103.949585 135.210732 
L 104.282982 132.863011 
L 104.505247 132.436939 
L 104.616379 132.567289 
L 104.8016 133.285498 
L 105.060909 135.306344 
L 105.43135 140.078014 
L 105.987011 150.597329 
L 107.172423 178.974511 
L 108.024437 196.355141 
L 108.580099 203.636652 
L 108.987584 206.527649 
L 109.283937 207.329784 
L 109.432113 207.340685 
L 109.617334 207.01131 
L 109.876642 205.96117 
L 110.284128 203.128723 
L 110.876833 197.18277 
L 113.025391 174.14673 
L 113.803318 168.815367 
L 114.766464 163.830499 
L 116.581626 155.695524 
L 117.100243 154.26781 
L 117.396596 153.943208 
L 117.581817 153.977442 
L 117.804081 154.297243 
L 118.100434 155.253825 
L 118.470875 157.393697 
L 118.915404 161.438258 
L 119.471066 168.708635 
L 120.286036 182.788765 
L 121.693712 207.206869 
L 122.175286 212.158257 
L 122.508683 213.790471 
L 122.693903 213.975893 
L 122.84208 213.733183 
L 123.064344 212.701514 
L 123.360697 210.071915 
L 123.768182 204.190764 
L 124.323844 192.465753 
L 125.249946 167.135235 
L 126.287181 140.383612 
L 126.805799 131.794889 
L 127.17624 128.647272 
L 127.398505 128.096831 
L 127.509637 128.211207 
L 127.694857 128.98313 
L 127.954166 131.272669 
L 128.324607 136.88027 
L 128.843225 148.760619 
L 129.658195 173.633125 
L 130.880651 210.31304 
L 131.436312 220.857699 
L 131.806753 224.526606 
L 132.029018 225.311097 
L 132.14015 225.296758 
L 132.288327 224.857102 
L 132.510591 223.310763 
L 132.843988 219.0871 
L 133.288517 210.295536 
L 133.955311 192.127718 
L 135.696384 142.434137 
L 136.215002 133.974071 
L 136.585443 130.871688 
L 136.807708 130.249764 
L 136.91884 130.287604 
L 137.067016 130.694419 
L 137.289281 132.04798 
L 137.622678 135.651599 
L 138.104251 143.752016 
L 138.808089 159.934598 
L 140.549162 201.360204 
L 141.104824 209.399075 
L 141.512309 212.721452 
L 141.808662 213.692351 
L 141.956838 213.721312 
L 142.105015 213.451259 
L 142.327279 212.500687 
L 142.660676 209.913267 
L 143.105206 204.530394 
L 143.734955 193.963261 
L 146.290999 147.64823 
L 146.772572 143.634372 
L 147.105969 142.340907 
L 147.29119 142.168905 
L 147.439366 142.314145 
L 147.661631 142.999703 
L 147.957983 144.765688 
L 148.365469 148.685428 
L 148.92113 156.42685 
L 149.773145 171.879007 
L 151.254909 198.649388 
L 151.847615 205.571405 
L 152.2551 208.26172 
L 152.551453 209.038257 
L 152.699629 209.041686 
L 152.88485 208.683398 
L 153.144158 207.512056 
L 153.514599 204.534843 
L 153.996173 198.586065 
L 154.662967 187.309957 
L 156.996745 145.138778 
L 157.478319 140.84775 
L 157.811716 139.430397 
L 157.996936 139.227393 
L 158.145113 139.371784 
L 158.367377 140.101424 
L 158.66373 142.021591 
L 159.071215 146.355698 
L 159.626877 155.079254 
L 160.404803 171.287424 
L 162.219964 210.270791 
L 162.775626 217.422303 
L 163.146067 219.976766 
L 163.405376 220.588388 
L 163.516508 220.541704 
L 163.664684 220.186737 
L 163.886949 219.023963 
L 164.220346 215.874914 
L 164.664875 209.174248 
L 165.257581 196.366467 
L 166.183684 170.540699 
L 167.554316 132.955108 
L 168.147021 122.279717 
L 168.554506 118.182638 
L 168.813815 117.147269 
L 168.924948 117.097066 
L 168.961992 117.133704 
L 169.110168 117.549296 
L 169.332433 118.984349 
L 169.66583 122.954973 
L 170.110359 131.515642 
L 170.703065 148.072032 
L 171.555079 179.075946 
L 173.110931 235.898094 
L 173.666593 248.730274 
L 174.074078 253.741759 
L 174.296343 254.68106 
L 174.407475 254.649387 
L 174.555652 254.075394 
L 174.777916 252.060107 
L 175.111313 246.434208 
L 175.555842 234.227946 
L 176.148548 210.550537 
L 177.037607 164.441142 
L 178.33415 98.462886 
L 178.889812 80.235462 
L 179.260253 73.671759 
L 179.519562 72.118212 
L 179.59365 72.156484 
L 179.704782 72.622806 
L 179.890003 74.497867 
L 180.186356 80.344248 
L 180.593841 93.902196 
L 181.112458 119.372237 
L 181.927429 172.260988 
L 183.335105 263.731337 
L 183.890766 286.127142 
L 184.261207 293.872724 
L 184.483472 295.454492 
L 184.55756 295.455329 
L 184.668693 294.959694 
L 184.853913 292.81072 
L 185.150266 285.991319 
L 185.557751 270.213183 
L 186.113413 238.567523 
L 187.039515 170.47488 
L 188.150839 93.241923 
L 188.7065 68.08827 
L 189.113985 58.170038 
L 189.373294 55.988651 
L 189.447382 55.967607 
L 189.558515 56.437228 
L 189.743735 58.543818 
L 190.040088 65.256416 
L 190.447573 80.694546 
L 191.003235 111.289317 
L 192.04047 183.905831 
L 193.040661 247.685496 
L 193.596322 270.910406 
L 194.003807 280.227584 
L 194.263116 282.478962 
L 194.337204 282.590108 
L 194.374248 282.557322 
L 194.485381 282.107573 
L 194.670601 280.202468 
L 194.966954 274.259067 
L 195.374439 260.762273 
L 195.967145 232.252912 
L 197.1896 158.483274 
L 198.041615 114.008491 
L 198.597276 95.051328 
L 199.004762 87.686717 
L 199.26407 86.076512 
L 199.338159 86.058683 
L 199.375203 86.122997 
L 199.523379 86.864044 
L 199.745644 89.396943 
L 200.079041 96.224086 
L 200.560614 111.724058 
L 201.264452 143.041117 
L 203.042569 225.457808 
L 203.598231 240.340106 
L 203.968672 245.557443 
L 204.227981 246.851174 
L 204.339113 246.812512 
L 204.487289 246.21709 
L 204.709554 244.192366 
L 205.042951 238.768193 
L 205.524524 226.567386 
L 206.265406 200.890646 
L 207.821259 145.653931 
L 208.413965 132.543202 
L 208.82145 127.511622 
L 209.117803 125.983106 
L 209.265979 125.880617 
L 209.414155 126.204925 
L 209.63642 127.456912 
L 209.969817 130.921009 
L 210.45139 138.746142 
L 211.192273 155.052394 
L 212.748125 189.873375 
L 213.377875 199.06211 
L 213.859448 203.23403 
L 214.192845 204.637022 
L 214.41511 204.919737 
L 214.563286 204.831043 
L 214.785551 204.303607 
L 215.081904 202.917409 
L 215.526433 199.563894 
L 216.156183 192.815221 
L 217.526815 174.79851 
L 218.452917 164.327763 
L 219.045623 159.905533 
L 219.453108 158.239958 
L 219.749461 157.801427 
L 219.934682 157.866142 
L 220.156946 158.2859 
L 220.453299 159.40794 
L 220.860784 161.916587 
L 221.45349 167.166299 
L 223.379783 185.511687 
L 223.787269 187.119369 
L 224.046577 187.427558 
L 224.194754 187.34297 
L 224.417018 186.8608 
L 224.713371 185.57743 
L 225.157901 182.431508 
L 225.861739 175.42491 
L 226.936018 164.957747 
L 227.380547 162.591155 
L 227.639856 162.069426 
L 227.788032 162.086849 
L 227.973253 162.443002 
L 228.232561 163.570179 
L 228.603002 166.406339 
L 229.12162 172.446918 
L 231.122002 198.276613 
L 231.418354 199.372033 
L 231.566531 199.451118 
L 231.714707 199.203413 
L 231.936972 198.209019 
L 232.233325 195.730201 
L 232.64081 190.313892 
L 233.233516 179.154667 
L 234.863456 146.602656 
L 235.270941 142.644537 
L 235.53025 141.652936 
L 235.641383 141.618035 
L 235.678427 141.659417 
L 235.826603 142.091508 
L 236.048868 143.537315 
L 236.382265 147.445275 
L 236.826794 155.566197 
L 237.530632 173.209649 
L 238.827176 206.026383 
L 239.308749 213.204902 
L 239.642146 215.570432 
L 239.827366 215.883607 
L 239.938499 215.72233 
L 240.123719 214.874897 
L 240.383028 212.50516 
L 240.753469 206.903959 
L 241.309131 194.54543 
L 243.420645 142.753011 
L 243.82813 138.577712 
L 244.087439 137.498944 
L 244.235615 137.437271 
L 244.383792 137.770877 
L 244.606056 138.984597 
L 244.939453 142.284632 
L 245.421027 149.643279 
L 246.273041 166.921586 
L 247.34732 187.548208 
L 247.940026 194.988746 
L 248.384555 198.148996 
L 248.717952 199.193978 
L 248.940217 199.320587 
L 249.125437 199.117972 
L 249.384746 198.429625 
L 249.792231 196.611753 
L 250.607201 191.657857 
L 251.607392 186.031777 
L 252.459407 182.586514 
L 253.385509 178.837087 
L 253.978215 175.331749 
L 254.607965 170.081267 
L 255.422935 161.129376 
L 256.830611 145.533586 
L 257.312185 142.526861 
L 257.608537 141.757741 
L 257.756714 141.728495 
L 257.90489 141.951622 
L 258.127155 142.778183 
L 258.423508 144.826958 
L 258.830993 149.42041 
L 259.34961 158.07322 
L 260.090493 174.786948 
L 262.127918 223.466336 
L 262.646536 230.101885 
L 262.979933 232.107607 
L 263.165153 232.379251 
L 263.276286 232.242149 
L 263.461506 231.504309 
L 263.720815 229.390811 
L 264.091256 224.197844 
L 264.572829 213.809194 
L 265.202579 194.911624 
L 266.313902 153.24087 
L 267.351137 117.328067 
L 267.906799 104.534187 
L 268.314284 99.494462 
L 268.573593 98.483246 
L 268.647681 98.524466 
L 268.795857 99.055885 
L 269.018122 100.984702 
L 269.351519 106.413293 
L 269.796048 118.175294 
L 270.388754 140.786029 
L 271.388945 189.522758 
L 272.463224 238.536734 
L 273.018886 255.11127 
L 273.426371 261.541227 
L 273.685679 262.818828 
L 273.759768 262.769668 
L 273.907944 262.116874 
L 274.130209 259.762225 
L 274.463606 253.234277 
L 274.908135 239.431352 
L 275.537885 212.069469 
L 277.612355 115.256608 
L 278.093928 103.960384 
L 278.427325 100.273379 
L 278.612546 99.737834 
L 278.723678 99.932663 
L 278.908898 101.101688 
L 279.168207 104.446461 
L 279.538648 112.396979 
L 280.09431 130.02984 
L 281.131545 172.242791 
L 282.094692 207.512986 
L 282.650353 220.763339 
L 283.057838 226.074791 
L 283.317147 227.409672 
L 283.428279 227.498375 
L 283.465323 227.464531 
L 283.6135 227.017814 
L 283.835764 225.443737 
L 284.169161 221.20127 
L 284.650735 211.716671 
L 285.428661 191.065292 
L 286.725205 156.876147 
L 287.280866 147.432667 
L 287.688352 143.594188 
L 287.94766 142.619446 
L 288.095837 142.579139 
L 288.244013 142.909334 
L 288.466278 144.07986 
L 288.799675 147.264612 
L 289.281248 154.485394 
L 290.02213 169.701014 
L 291.392762 198.126687 
L 291.91138 204.619216 
L 292.281821 206.857388 
L 292.467041 207.146547 
L 292.578174 207.046262 
L 292.763394 206.420051 
L 293.022703 204.588163 
L 293.393144 200.122306 
L 293.911761 190.679392 
L 294.726732 170.982248 
L 295.875099 144.139277 
L 296.393716 136.774601 
L 296.727113 134.540792 
L 296.912334 134.245759 
L 297.023466 134.404719 
L 297.208687 135.235408 
L 297.467996 137.579769 
L 297.838437 143.221043 
L 298.357054 155.068424 
L 299.209069 180.770058 
L 300.283348 211.612642 
L 300.801965 220.777104 
L 301.135362 223.6524 
L 301.357627 224.11961 
L 301.468759 223.907199 
L 301.65398 222.892503 
L 301.950332 219.588965 
L 302.357818 211.920842 
L 302.950523 195.614174 
L 304.876817 137.968715 
L 305.284302 132.384586 
L 305.580655 130.788382 
L 305.691787 130.745259 
L 305.802919 131.005356 
L 305.98814 132.103815 
L 306.284493 135.522609 
L 306.691978 143.221599 
L 307.321728 160.168427 
L 308.87758 203.872759 
L 309.322109 210.530753 
L 309.618462 212.599331 
L 309.803683 212.87579 
L 309.914815 212.665247 
L 310.100036 211.697199 
L 310.396389 208.613085 
L 310.803874 201.628155 
L 311.433624 186.329307 
L 312.8413 150.861113 
L 313.322873 144.153646 
L 313.619226 142.283394 
L 313.804446 142.045163 
L 313.915579 142.247656 
L 314.100799 143.152234 
L 314.397152 146.011994 
L 314.804637 152.469066 
L 315.434387 166.584414 
L 316.842063 199.184096 
L 317.323636 205.309301 
L 317.619989 207.006704 
L 317.80521 207.217545 
L 317.953386 206.915176 
L 318.175651 205.695648 
L 318.509048 202.252148 
L 318.990621 194.408772 
L 319.87968 175.113207 
L 320.731694 158.381755 
L 321.213267 152.633924 
L 321.546664 150.820521 
L 321.731885 150.630712 
L 321.880061 150.89943 
L 322.102326 151.984837 
L 322.435723 155.042591 
L 322.917296 161.963147 
L 323.954531 181.400253 
L 324.658369 192.217883 
L 325.065855 195.762568 
L 325.325163 196.696778 
L 325.47334 196.741011 
L 325.621516 196.425819 
L 325.843781 195.288418 
L 326.177178 192.165577 
L 326.658751 185.103316 
L 327.54781 167.775149 
L 328.36278 153.594579 
L 328.807309 149.027462 
L 329.103662 147.727767 
L 329.251839 147.649257 
L 329.400015 147.960725 
L 329.62228 149.157783 
L 329.955677 152.53868 
L 330.400206 159.676027 
L 331.104044 175.195306 
L 332.326499 202.140913 
L 332.808073 208.423823 
L 333.14147 210.467183 
L 333.32669 210.718313 
L 333.437822 210.561757 
L 333.623043 209.793812 
L 333.919396 207.293281 
L 334.326881 201.552728 
L 334.919587 189.638772 
L 336.549527 155.300368 
L 336.994057 150.432557 
L 337.327454 148.802963 
L 337.512674 148.662197 
L 337.660851 148.93232 
L 337.883115 149.943264 
L 338.216512 152.686587 
L 338.73513 159.193193 
L 340.36507 181.239435 
L 340.735511 183.430042 
L 340.99482 183.974154 
L 341.142997 183.915089 
L 341.328217 183.474384 
L 341.62457 181.982983 
L 342.069099 178.260123 
L 343.736084 162.63636 
L 343.995393 162.090571 
L 344.106525 162.130723 
L 344.254701 162.454493 
L 344.476966 163.535459 
L 344.810363 166.501809 
L 345.254892 172.798819 
L 345.921686 185.964226 
L 347.181186 211.231801 
L 347.625715 216.083256 
L 347.885024 217.222603 
L 347.996156 217.286051 
L 348.0332 217.248519 
L 348.181377 216.799908 
L 348.403641 215.219621 
L 348.737038 210.811726 
L 349.181568 201.356503 
L 349.811317 182.367493 
L 351.663523 122.878269 
L 352.108052 116.046366 
L 352.404405 114.259923 
L 352.515537 114.194706 
L 352.626669 114.46383 
L 352.81189 115.654351 
L 353.108243 119.451262 
L 353.515728 128.227524 
L 354.07139 145.70612 
L 355.145669 188.664866 
L 356.071771 221.770388 
L 356.627433 234.549539 
L 356.997874 239.074037 
L 357.257183 240.19254 
L 357.368315 240.149872 
L 357.516491 239.60976 
L 357.738756 237.784688 
L 358.072153 232.872435 
L 358.516682 222.69206 
L 359.183476 201.479484 
L 361.406123 125.653078 
L 361.92474 116.59196 
L 362.258137 113.715821 
L 362.480402 113.160408 
L 362.591534 113.297957 
L 362.776754 114.143101 
L 363.036063 116.60687 
L 363.406504 122.62952 
L 363.888078 134.47759 
L 364.554872 156.842496 
L 366.777518 236.554705 
L 367.222047 244.198315 
L 367.5184 246.473242 
L 367.666576 246.699453 
L 367.777709 246.459457 
L 367.962929 245.270634 
L 368.222238 241.949273 
L 368.592679 233.937222 
L 369.074253 218.280987 
L 369.778091 187.316796 
L 371.482119 109.117927 
L 372.000737 95.80851 
L 372.334134 91.806622 
L 372.519354 91.267432 
L 372.630487 91.536458 
L 372.815707 92.977383 
L 373.075016 97.058548 
L 373.445457 106.885765 
L 373.964075 127.582364 
L 374.779045 171.06339 
L 376.075589 239.894879 
L 376.63125 258.618489 
L 377.001691 265.305758 
L 377.261 266.942108 
L 377.335088 266.938413 
L 377.44622 266.539908 
L 377.631441 264.836315 
L 377.927794 259.482383 
L 378.335279 247.233093 
L 378.890941 223.030818 
L 379.96522 163.819959 
L 380.891322 117.860895 
L 381.446984 99.664681 
L 381.854469 92.410606 
L 382.113778 90.686396 
L 382.187866 90.610795 
L 382.22491 90.64212 
L 382.336042 91.010678 
L 382.521263 92.526277 
L 382.817616 97.201567 
L 383.225101 107.743497 
L 383.817807 129.862341 
L 385.151395 191.65187 
L 385.966365 223.233496 
L 386.522026 237.182362 
L 386.929512 242.592195 
L 387.18882 243.81548 
L 387.299953 243.814739 
L 387.448129 243.33328 
L 387.670394 241.611673 
L 388.003791 236.91768 
L 388.485364 226.241859 
L 389.189202 204.690485 
L 391.078452 144.214193 
L 391.634113 133.750479 
L 392.041598 129.489644 
L 392.337951 128.277696 
L 392.486128 128.259912 
L 392.634304 128.623275 
L 392.856569 129.85562 
L 393.189966 133.139616 
L 393.671539 140.47703 
L 394.412421 155.815633 
L 396.005318 189.490662 
L 396.598023 197.399662 
L 397.042553 200.797976 
L 397.37595 201.882661 
L 397.56117 201.963128 
L 397.709347 201.773094 
L 397.931611 201.090677 
L 398.265008 199.264552 
L 398.487273 197.590335 
L 398.487273 197.590335 
" style="fill:none;stroke:#0000ff;stroke-linecap:square;stroke-width:1.5;"/>
   </g>
   <g id="line2d_14">
    <path clip-path="url(#p8d0b7f86d8)" d="M 73.832727 154.509594 
L 73.869771 162.788672 
L 73.869771 162.788672 
L 73.869771 162.788672 
L 73.906815 162.742789 
L 74.017948 165.209363 
L 74.054992 164.920003 
L 74.092036 165.090441 
L 74.092036 165.090441 
L 74.092036 165.090441 
L 75.092227 157.289595 
L 76.944432 145.853666 
L 77.277829 144.135548 
L 77.759403 141.631671 
L 78.166888 139.666089 
L 78.796637 136.647788 
L 79.72274 132.480954 
L 81.130416 126.67184 
L 82.982621 120.858508 
L 84.093945 119.019543 
L 84.68665 118.692809 
L 85.057091 118.739381 
L 85.390488 118.943114 
L 86.020238 119.788691 
L 86.353635 120.45033 
L 87.316782 123.252448 
L 88.539237 128.441034 
L 89.502384 133.536081 
L 91.132325 143.501207 
L 93.354971 157.681508 
L 94.169941 161.747193 
L 94.688559 163.264198 
L 95.021956 163.569609 
L 95.207176 163.501274 
L 95.503529 163.021674 
L 95.911014 161.744961 
L 96.50372 159.020778 
L 98.207749 149.350606 
L 99.39316 143.130155 
L 100.393351 138.853129 
L 101.208322 136.15602 
L 101.875116 134.495502 
L 102.430777 133.47644 
L 103.208703 132.605641 
L 103.653233 132.373027 
L 104.097762 132.324551 
L 104.542291 132.451483 
L 105.097953 132.84585 
L 105.653614 133.480987 
L 106.542673 134.975268 
L 107.69104 137.696082 
L 108.543055 140.20411 
L 110.247084 146.121962 
L 112.617906 154.330251 
L 113.544009 156.534945 
L 114.062626 157.3036 
L 114.470112 157.63311 
L 114.914641 157.696743 
L 115.35917 157.460542 
L 115.877788 156.835018 
L 116.544582 155.561295 
L 117.396596 153.363228 
L 118.767228 149.048832 
L 122.767991 136.393883 
L 123.990447 133.478191 
L 125.398123 130.827071 
L 126.991019 128.557612 
L 128.213475 127.208554 
L 129.213666 126.343168 
L 130.51021 125.628157 
L 131.139959 125.478642 
L 132.029018 125.528674 
L 132.806944 125.82663 
L 133.770091 126.506927 
L 135.140723 127.953846 
L 136.252046 129.379921 
L 139.067398 133.254611 
L 141.253 136.219178 
L 144.142441 139.809645 
L 145.179676 140.834722 
L 146.068734 141.529286 
L 146.957793 142.030153 
L 147.883895 142.340738 
L 148.809998 142.457056 
L 150.439939 142.307527 
L 155.477937 140.942933 
L 156.329951 140.512616 
L 157.589451 139.575668 
L 158.66373 138.436483 
L 159.92323 136.69008 
L 161.627259 133.739093 
L 164.220346 128.482901 
L 166.183684 124.08438 
L 168.147021 119.032495 
L 169.554697 114.770047 
L 171.147594 109.170472 
L 172.703446 102.953442 
L 174.703828 94.159559 
L 181.260635 64.711127 
L 182.48309 60.390279 
L 183.594414 57.267226 
L 184.483472 55.425787 
L 185.224354 54.372288 
L 185.854104 53.822206 
L 186.483854 53.5839 
L 186.965427 53.596702 
L 187.632221 53.880219 
L 188.373103 54.519931 
L 189.225118 55.622774 
L 190.188264 57.270439 
L 191.373676 59.798824 
L 192.85544 63.644271 
L 194.522425 68.780287 
L 196.596895 76.036097 
L 200.931055 91.559082 
L 204.265025 103.701693 
L 206.265406 112.053957 
L 212.859257 140.201691 
L 214.341022 145.208824 
L 215.748698 149.275004 
L 217.193418 152.745247 
L 218.489961 155.352081 
L 220.342167 158.492146 
L 222.157328 161.137443 
L 223.935445 163.287128 
L 224.787459 163.973099 
L 225.417209 164.194669 
L 225.861739 164.151606 
L 226.306268 163.913908 
L 226.787841 163.4239 
L 227.417591 162.423069 
L 228.195517 160.70993 
L 229.269796 157.776811 
L 232.455589 148.667639 
L 234.344839 144.18684 
L 236.271132 140.130508 
L 237.864029 137.247713 
L 238.790132 135.948443 
L 239.67919 135.07978 
L 240.383028 134.693291 
L 241.049822 134.586853 
L 241.75366 134.750108 
L 242.346366 135.098131 
L 242.976116 135.670485 
L 243.865174 136.823569 
L 244.791277 138.442342 
L 245.828512 140.769452 
L 247.013923 144.102898 
L 248.458643 149.02563 
L 250.86651 157.373517 
L 251.533304 158.831816 
L 252.014877 159.376877 
L 252.348274 159.463359 
L 252.681671 159.296733 
L 253.015068 158.889265 
L 253.533686 157.815933 
L 254.237524 155.678851 
L 255.163626 152.100082 
L 257.201052 143.022939 
L 260.349801 129.168531 
L 263.165153 118.058714 
L 267.573402 101.805179 
L 269.610828 94.979284 
L 270.870327 91.548032 
L 271.833474 89.597741 
L 272.574356 88.601648 
L 273.167062 88.161963 
L 273.685679 88.055344 
L 274.167253 88.195571 
L 274.68587 88.607073 
L 275.278576 89.404411 
L 276.019458 90.872501 
L 276.908517 93.26965 
L 277.982796 96.962989 
L 279.205251 101.997558 
L 280.872236 109.840234 
L 286.428852 137.071558 
L 287.540175 140.98804 
L 288.39219 143.203083 
L 289.096028 144.448108 
L 289.651689 145.050076 
L 290.207351 145.321608 
L 290.65188 145.320238 
L 291.096409 145.14105 
L 291.615027 144.732019 
L 292.281821 143.938019 
L 293.170879 142.506074 
L 294.430379 139.9598 
L 296.801202 134.33436 
L 298.616363 130.215393 
L 299.542465 128.544324 
L 300.431524 127.387721 
L 301.135362 126.84214 
L 301.728068 126.653085 
L 302.320773 126.714277 
L 302.987567 127.066362 
L 303.802538 127.855691 
L 304.876817 129.363437 
L 306.136316 131.525353 
L 309.766639 137.926058 
L 311.174315 139.952208 
L 312.359726 141.206967 
L 313.396961 141.879749 
L 314.397152 142.205402 
L 316.471622 142.700996 
L 317.138416 143.079422 
L 317.842254 143.69715 
L 318.657224 144.721639 
L 319.509239 146.120361 
L 321.435532 149.980831 
L 322.695032 152.309305 
L 323.621134 153.533418 
L 324.21384 154.010011 
L 324.695413 154.19583 
L 325.251075 154.167558 
L 325.769693 153.905878 
L 326.399442 153.284479 
L 327.029192 152.357837 
L 328.029383 150.347302 
L 329.17775 147.521623 
L 331.141088 142.770255 
L 331.919014 141.379085 
L 332.659896 140.502508 
L 333.252602 140.169917 
L 333.734175 140.160605 
L 334.215749 140.39626 
L 334.697322 140.874276 
L 335.364116 141.940607 
L 336.179086 143.852839 
L 337.105189 146.782306 
L 338.068336 150.591929 
L 339.290791 156.404325 
L 340.920732 165.247946 
L 341.735702 169.008153 
L 342.069099 169.684894 
L 342.25432 169.657565 
L 342.43954 169.33195 
L 342.772937 168.098715 
L 343.291555 165.189666 
L 344.402878 157.453994 
L 347.292318 136.897627 
L 348.66295 128.740183 
L 349.811317 123.070832 
L 351.033773 118.249995 
L 351.959876 115.393077 
L 352.923022 113.121521 
L 353.700949 111.781511 
L 354.552963 110.808352 
L 355.108625 110.429559 
L 355.923595 110.226601 
L 356.775609 110.399236 
L 357.479447 110.773701 
L 358.553726 111.593726 
L 359.85027 112.644686 
L 361.183858 113.305872 
L 362.035872 113.310349 
L 362.628578 113.078527 
L 363.295372 112.570536 
L 364.184431 111.493306 
L 365.369842 109.420436 
L 367.185003 105.237269 
L 369.259473 99.775012 
L 371.408031 94.008656 
L 372.963884 90.065088 
L 374.519736 86.736378 
L 375.853324 84.773181 
L 376.816471 84.041223 
L 377.483265 83.907618 
L 378.001882 84.017162 
L 378.483455 84.276039 
L 379.483646 85.297969 
L 379.928176 85.933019 
L 380.409749 86.725061 
L 382.261954 90.718649 
L 383.632586 94.410014 
L 386.262718 103.035252 
L 387.336997 107.084988 
L 389.967128 117.792206 
L 390.893231 121.64081 
L 391.745245 125.086844 
L 392.930657 129.782018 
L 396.079406 141.930404 
L 396.486891 143.649963 
L 396.672112 144.352668 
L 397.079597 146.135434 
L 397.264817 146.876695 
L 397.746391 149.016641 
L 398.302052 151.004184 
L 398.413185 150.026896 
L 398.450229 150.358367 
L 398.487273 145.551428 
L 398.487273 145.551428 
" style="fill:none;stroke:#ff0000;stroke-linecap:square;stroke-width:1.5;"/>
   </g>
   <g id="patch_3">
    <path d="M 57.6 307.584 
L 57.6 41.472 
" style="fill:none;stroke:#000000;stroke-linecap:square;stroke-linejoin:miter;stroke-width:0.8;"/>
   </g>
   <g id="patch_4">
    <path d="M 414.72 307.584 
L 414.72 41.472 
" style="fill:none;stroke:#000000;stroke-linecap:square;stroke-linejoin:miter;stroke-width:0.8;"/>
   </g>
   <g id="patch_5">
    <path d="M 57.6 307.584 
L 414.72 307.584 
" style="fill:none;stroke:#000000;stroke-linecap:square;stroke-linejoin:miter;stroke-width:0.8;"/>
   </g>
   <g id="patch_6">
    <path d="M 57.6 41.472 
L 414.72 41.472 
" style="fill:none;stroke:#000000;stroke-linecap:square;stroke-linejoin:miter;stroke-width:0.8;"/>
   </g>
  </g>
 </g>
 <defs>
  <clipPath id="p8d0b7f86d8">
   <rect height="266.112" width="357.12" x="57.6" y="41.472"/>
  </clipPath>
 </defs>
</svg>
