<?xml version="1.0" encoding="utf-8" standalone="no"?>
<!DOCTYPE svg PUBLIC "-//W3C//DTD SVG 1.1//EN"
  "http://www.w3.org/Graphics/SVG/1.1/DTD/svg11.dtd">
<!-- Created with matplotlib (http://matplotlib.org/) -->
<svg height="345pt" version="1.1" viewBox="0 0 460 345" width="460pt" xmlns="http://www.w3.org/2000/svg" xmlns:xlink="http://www.w3.org/1999/xlink">
 <defs>
  <style type="text/css">
*{stroke-linecap:butt;stroke-linejoin:round;}
  </style>
 </defs>
 <g id="figure_1">
  <g id="patch_1">
   <path d="M 0 345.6 
L 460.8 345.6 
L 460.8 0 
L 0 0 
z
" style="fill:#ffffff;"/>
  </g>
  <g id="axes_1">
   <g id="patch_2">
    <path d="M 57.6 307.584 
L 414.72 307.584 
L 414.72 41.472 
L 57.6 41.472 
z
" style="fill:#ffffff;"/>
   </g>
   <g id="matplotlib.axis_1">
    <g id="xtick_1">
     <g id="line2d_1">
      <defs>
       <path d="M 0 0 
L 0 3.5 
" id="m220a2a3a73" style="stroke:#000000;stroke-width:0.8;"/>
      </defs>
      <g>
       <use style="stroke:#000000;stroke-width:0.8;" x="73.832727" xlink:href="#m220a2a3a73" y="307.584"/>
      </g>
     </g>
     <g id="text_1">
      <!-- 0 -->
      <defs>
       <path d="M 31.78125 66.40625 
Q 24.171875 66.40625 20.328125 58.90625 
Q 16.5 51.421875 16.5 36.375 
Q 16.5 21.390625 20.328125 13.890625 
Q 24.171875 6.390625 31.78125 6.390625 
Q 39.453125 6.390625 43.28125 13.890625 
Q 47.125 21.390625 47.125 36.375 
Q 47.125 51.421875 43.28125 58.90625 
Q 39.453125 66.40625 31.78125 66.40625 
z
M 31.78125 74.21875 
Q 44.046875 74.21875 50.515625 64.515625 
Q 56.984375 54.828125 56.984375 36.375 
Q 56.984375 17.96875 50.515625 8.265625 
Q 44.046875 -1.421875 31.78125 -1.421875 
Q 19.53125 -1.421875 13.0625 8.265625 
Q 6.59375 17.96875 6.59375 36.375 
Q 6.59375 54.828125 13.0625 64.515625 
Q 19.53125 74.21875 31.78125 74.21875 
z
" id="DejaVuSans-30"/>
      </defs>
      <g transform="translate(70.651477 322.182437)scale(0.1 -0.1)">
       <use xlink:href="#DejaVuSans-30"/>
      </g>
     </g>
    </g>
    <g id="xtick_2">
     <g id="line2d_2">
      <g>
       <use style="stroke:#000000;stroke-width:0.8;" x="144.640698" xlink:href="#m220a2a3a73" y="307.584"/>
      </g>
     </g>
     <g id="text_2">
      <!-- 1000 -->
      <defs>
       <path d="M 12.40625 8.296875 
L 28.515625 8.296875 
L 28.515625 63.921875 
L 10.984375 60.40625 
L 10.984375 69.390625 
L 28.421875 72.90625 
L 38.28125 72.90625 
L 38.28125 8.296875 
L 54.390625 8.296875 
L 54.390625 0 
L 12.40625 0 
z
" id="DejaVuSans-31"/>
      </defs>
      <g transform="translate(131.915698 322.182437)scale(0.1 -0.1)">
       <use xlink:href="#DejaVuSans-31"/>
       <use x="63.623047" xlink:href="#DejaVuSans-30"/>
       <use x="127.246094" xlink:href="#DejaVuSans-30"/>
       <use x="190.869141" xlink:href="#DejaVuSans-30"/>
      </g>
     </g>
    </g>
    <g id="xtick_3">
     <g id="line2d_3">
      <g>
       <use style="stroke:#000000;stroke-width:0.8;" x="215.448669" xlink:href="#m220a2a3a73" y="307.584"/>
      </g>
     </g>
     <g id="text_3">
      <!-- 2000 -->
      <defs>
       <path d="M 19.1875 8.296875 
L 53.609375 8.296875 
L 53.609375 0 
L 7.328125 0 
L 7.328125 8.296875 
Q 12.9375 14.109375 22.625 23.890625 
Q 32.328125 33.6875 34.8125 36.53125 
Q 39.546875 41.84375 41.421875 45.53125 
Q 43.3125 49.21875 43.3125 52.78125 
Q 43.3125 58.59375 39.234375 62.25 
Q 35.15625 65.921875 28.609375 65.921875 
Q 23.96875 65.921875 18.8125 64.3125 
Q 13.671875 62.703125 7.8125 59.421875 
L 7.8125 69.390625 
Q 13.765625 71.78125 18.9375 73 
Q 24.125 74.21875 28.421875 74.21875 
Q 39.75 74.21875 46.484375 68.546875 
Q 53.21875 62.890625 53.21875 53.421875 
Q 53.21875 48.921875 51.53125 44.890625 
Q 49.859375 40.875 45.40625 35.40625 
Q 44.1875 33.984375 37.640625 27.21875 
Q 31.109375 20.453125 19.1875 8.296875 
z
" id="DejaVuSans-32"/>
      </defs>
      <g transform="translate(202.723669 322.182437)scale(0.1 -0.1)">
       <use xlink:href="#DejaVuSans-32"/>
       <use x="63.623047" xlink:href="#DejaVuSans-30"/>
       <use x="127.246094" xlink:href="#DejaVuSans-30"/>
       <use x="190.869141" xlink:href="#DejaVuSans-30"/>
      </g>
     </g>
    </g>
    <g id="xtick_4">
     <g id="line2d_4">
      <g>
       <use style="stroke:#000000;stroke-width:0.8;" x="286.256639" xlink:href="#m220a2a3a73" y="307.584"/>
      </g>
     </g>
     <g id="text_4">
      <!-- 3000 -->
      <defs>
       <path d="M 40.578125 39.3125 
Q 47.65625 37.796875 51.625 33 
Q 55.609375 28.21875 55.609375 21.1875 
Q 55.609375 10.40625 48.1875 4.484375 
Q 40.765625 -1.421875 27.09375 -1.421875 
Q 22.515625 -1.421875 17.65625 -0.515625 
Q 12.796875 0.390625 7.625 2.203125 
L 7.625 11.71875 
Q 11.71875 9.328125 16.59375 8.109375 
Q 21.484375 6.890625 26.8125 6.890625 
Q 36.078125 6.890625 40.9375 10.546875 
Q 45.796875 14.203125 45.796875 21.1875 
Q 45.796875 27.640625 41.28125 31.265625 
Q 36.765625 34.90625 28.71875 34.90625 
L 20.21875 34.90625 
L 20.21875 43.015625 
L 29.109375 43.015625 
Q 36.375 43.015625 40.234375 45.921875 
Q 44.09375 48.828125 44.09375 54.296875 
Q 44.09375 59.90625 40.109375 62.90625 
Q 36.140625 65.921875 28.71875 65.921875 
Q 24.65625 65.921875 20.015625 65.03125 
Q 15.375 64.15625 9.8125 62.3125 
L 9.8125 71.09375 
Q 15.4375 72.65625 20.34375 73.4375 
Q 25.25 74.21875 29.59375 74.21875 
Q 40.828125 74.21875 47.359375 69.109375 
Q 53.90625 64.015625 53.90625 55.328125 
Q 53.90625 49.265625 50.4375 45.09375 
Q 46.96875 40.921875 40.578125 39.3125 
z
" id="DejaVuSans-33"/>
      </defs>
      <g transform="translate(273.531639 322.182437)scale(0.1 -0.1)">
       <use xlink:href="#DejaVuSans-33"/>
       <use x="63.623047" xlink:href="#DejaVuSans-30"/>
       <use x="127.246094" xlink:href="#DejaVuSans-30"/>
       <use x="190.869141" xlink:href="#DejaVuSans-30"/>
      </g>
     </g>
    </g>
    <g id="xtick_5">
     <g id="line2d_5">
      <g>
       <use style="stroke:#000000;stroke-width:0.8;" x="357.06461" xlink:href="#m220a2a3a73" y="307.584"/>
      </g>
     </g>
     <g id="text_5">
      <!-- 4000 -->
      <defs>
       <path d="M 37.796875 64.3125 
L 12.890625 25.390625 
L 37.796875 25.390625 
z
M 35.203125 72.90625 
L 47.609375 72.90625 
L 47.609375 25.390625 
L 58.015625 25.390625 
L 58.015625 17.1875 
L 47.609375 17.1875 
L 47.609375 0 
L 37.796875 0 
L 37.796875 17.1875 
L 4.890625 17.1875 
L 4.890625 26.703125 
z
" id="DejaVuSans-34"/>
      </defs>
      <g transform="translate(344.33961 322.182437)scale(0.1 -0.1)">
       <use xlink:href="#DejaVuSans-34"/>
       <use x="63.623047" xlink:href="#DejaVuSans-30"/>
       <use x="127.246094" xlink:href="#DejaVuSans-30"/>
       <use x="190.869141" xlink:href="#DejaVuSans-30"/>
      </g>
     </g>
    </g>
    <g id="text_6">
     <!-- Time (ms) -->
     <defs>
      <path d="M -0.296875 72.90625 
L 61.375 72.90625 
L 61.375 64.59375 
L 35.5 64.59375 
L 35.5 0 
L 25.59375 0 
L 25.59375 64.59375 
L -0.296875 64.59375 
z
" id="DejaVuSans-54"/>
      <path d="M 9.421875 54.6875 
L 18.40625 54.6875 
L 18.40625 0 
L 9.421875 0 
z
M 9.421875 75.984375 
L 18.40625 75.984375 
L 18.40625 64.59375 
L 9.421875 64.59375 
z
" id="DejaVuSans-69"/>
      <path d="M 52 44.1875 
Q 55.375 50.25 60.0625 53.125 
Q 64.75 56 71.09375 56 
Q 79.640625 56 84.28125 50.015625 
Q 88.921875 44.046875 88.921875 33.015625 
L 88.921875 0 
L 79.890625 0 
L 79.890625 32.71875 
Q 79.890625 40.578125 77.09375 44.375 
Q 74.3125 48.1875 68.609375 48.1875 
Q 61.625 48.1875 57.5625 43.546875 
Q 53.515625 38.921875 53.515625 30.90625 
L 53.515625 0 
L 44.484375 0 
L 44.484375 32.71875 
Q 44.484375 40.625 41.703125 44.40625 
Q 38.921875 48.1875 33.109375 48.1875 
Q 26.21875 48.1875 22.15625 43.53125 
Q 18.109375 38.875 18.109375 30.90625 
L 18.109375 0 
L 9.078125 0 
L 9.078125 54.6875 
L 18.109375 54.6875 
L 18.109375 46.1875 
Q 21.1875 51.21875 25.484375 53.609375 
Q 29.78125 56 35.6875 56 
Q 41.65625 56 45.828125 52.96875 
Q 50 49.953125 52 44.1875 
z
" id="DejaVuSans-6d"/>
      <path d="M 56.203125 29.59375 
L 56.203125 25.203125 
L 14.890625 25.203125 
Q 15.484375 15.921875 20.484375 11.0625 
Q 25.484375 6.203125 34.421875 6.203125 
Q 39.59375 6.203125 44.453125 7.46875 
Q 49.3125 8.734375 54.109375 11.28125 
L 54.109375 2.78125 
Q 49.265625 0.734375 44.1875 -0.34375 
Q 39.109375 -1.421875 33.890625 -1.421875 
Q 20.796875 -1.421875 13.15625 6.1875 
Q 5.515625 13.8125 5.515625 26.8125 
Q 5.515625 40.234375 12.765625 48.109375 
Q 20.015625 56 32.328125 56 
Q 43.359375 56 49.78125 48.890625 
Q 56.203125 41.796875 56.203125 29.59375 
z
M 47.21875 32.234375 
Q 47.125 39.59375 43.09375 43.984375 
Q 39.0625 48.390625 32.421875 48.390625 
Q 24.90625 48.390625 20.390625 44.140625 
Q 15.875 39.890625 15.1875 32.171875 
z
" id="DejaVuSans-65"/>
      <path id="DejaVuSans-20"/>
      <path d="M 31 75.875 
Q 24.46875 64.65625 21.28125 53.65625 
Q 18.109375 42.671875 18.109375 31.390625 
Q 18.109375 20.125 21.3125 9.0625 
Q 24.515625 -2 31 -13.1875 
L 23.1875 -13.1875 
Q 15.875 -1.703125 12.234375 9.375 
Q 8.59375 20.453125 8.59375 31.390625 
Q 8.59375 42.28125 12.203125 53.3125 
Q 15.828125 64.359375 23.1875 75.875 
z
" id="DejaVuSans-28"/>
      <path d="M 44.28125 53.078125 
L 44.28125 44.578125 
Q 40.484375 46.53125 36.375 47.5 
Q 32.28125 48.484375 27.875 48.484375 
Q 21.1875 48.484375 17.84375 46.4375 
Q 14.5 44.390625 14.5 40.28125 
Q 14.5 37.15625 16.890625 35.375 
Q 19.28125 33.59375 26.515625 31.984375 
L 29.59375 31.296875 
Q 39.15625 29.25 43.1875 25.515625 
Q 47.21875 21.78125 47.21875 15.09375 
Q 47.21875 7.46875 41.1875 3.015625 
Q 35.15625 -1.421875 24.609375 -1.421875 
Q 20.21875 -1.421875 15.453125 -0.5625 
Q 10.6875 0.296875 5.421875 2 
L 5.421875 11.28125 
Q 10.40625 8.6875 15.234375 7.390625 
Q 20.0625 6.109375 24.8125 6.109375 
Q 31.15625 6.109375 34.5625 8.28125 
Q 37.984375 10.453125 37.984375 14.40625 
Q 37.984375 18.0625 35.515625 20.015625 
Q 33.0625 21.96875 24.703125 23.78125 
L 21.578125 24.515625 
Q 13.234375 26.265625 9.515625 29.90625 
Q 5.8125 33.546875 5.8125 39.890625 
Q 5.8125 47.609375 11.28125 51.796875 
Q 16.75 56 26.8125 56 
Q 31.78125 56 36.171875 55.265625 
Q 40.578125 54.546875 44.28125 53.078125 
z
" id="DejaVuSans-73"/>
      <path d="M 8.015625 75.875 
L 15.828125 75.875 
Q 23.140625 64.359375 26.78125 53.3125 
Q 30.421875 42.28125 30.421875 31.390625 
Q 30.421875 20.453125 26.78125 9.375 
Q 23.140625 -1.703125 15.828125 -13.1875 
L 8.015625 -13.1875 
Q 14.5 -2 17.703125 9.0625 
Q 20.90625 20.125 20.90625 31.390625 
Q 20.90625 42.671875 17.703125 53.65625 
Q 14.5 64.65625 8.015625 75.875 
z
" id="DejaVuSans-29"/>
     </defs>
     <g transform="translate(195.595 340.419625)scale(0.16 -0.16)">
      <use xlink:href="#DejaVuSans-54"/>
      <use x="61.037109" xlink:href="#DejaVuSans-69"/>
      <use x="88.820312" xlink:href="#DejaVuSans-6d"/>
      <use x="186.232422" xlink:href="#DejaVuSans-65"/>
      <use x="247.755859" xlink:href="#DejaVuSans-20"/>
      <use x="279.542969" xlink:href="#DejaVuSans-28"/>
      <use x="318.556641" xlink:href="#DejaVuSans-6d"/>
      <use x="415.96875" xlink:href="#DejaVuSans-73"/>
      <use x="468.068359" xlink:href="#DejaVuSans-29"/>
     </g>
    </g>
   </g>
   <g id="matplotlib.axis_2">
    <g id="ytick_1">
     <g id="line2d_6">
      <defs>
       <path d="M 0 0 
L -3.5 0 
" id="mc3f95f761d" style="stroke:#000000;stroke-width:0.8;"/>
      </defs>
      <g>
       <use style="stroke:#000000;stroke-width:0.8;" x="57.6" xlink:href="#mc3f95f761d" y="280.753747"/>
      </g>
     </g>
     <g id="text_7">
      <!-- −75 -->
      <defs>
       <path d="M 10.59375 35.5 
L 73.1875 35.5 
L 73.1875 27.203125 
L 10.59375 27.203125 
z
" id="DejaVuSans-2212"/>
       <path d="M 8.203125 72.90625 
L 55.078125 72.90625 
L 55.078125 68.703125 
L 28.609375 0 
L 18.3125 0 
L 43.21875 64.59375 
L 8.203125 64.59375 
z
" id="DejaVuSans-37"/>
       <path d="M 10.796875 72.90625 
L 49.515625 72.90625 
L 49.515625 64.59375 
L 19.828125 64.59375 
L 19.828125 46.734375 
Q 21.96875 47.46875 24.109375 47.828125 
Q 26.265625 48.1875 28.421875 48.1875 
Q 40.625 48.1875 47.75 41.5 
Q 54.890625 34.8125 54.890625 23.390625 
Q 54.890625 11.625 47.5625 5.09375 
Q 40.234375 -1.421875 26.90625 -1.421875 
Q 22.3125 -1.421875 17.546875 -0.640625 
Q 12.796875 0.140625 7.71875 1.703125 
L 7.71875 11.625 
Q 12.109375 9.234375 16.796875 8.0625 
Q 21.484375 6.890625 26.703125 6.890625 
Q 35.15625 6.890625 40.078125 11.328125 
Q 45.015625 15.765625 45.015625 23.390625 
Q 45.015625 31 40.078125 35.4375 
Q 35.15625 39.890625 26.703125 39.890625 
Q 22.75 39.890625 18.8125 39.015625 
Q 14.890625 38.140625 10.796875 36.28125 
z
" id="DejaVuSans-35"/>
      </defs>
      <g transform="translate(29.495313 284.552966)scale(0.1 -0.1)">
       <use xlink:href="#DejaVuSans-2212"/>
       <use x="83.789062" xlink:href="#DejaVuSans-37"/>
       <use x="147.412109" xlink:href="#DejaVuSans-35"/>
      </g>
     </g>
    </g>
    <g id="ytick_2">
     <g id="line2d_7">
      <g>
       <use style="stroke:#000000;stroke-width:0.8;" x="57.6" xlink:href="#mc3f95f761d" y="242.140873"/>
      </g>
     </g>
     <g id="text_8">
      <!-- −70 -->
      <g transform="translate(29.495313 245.940091)scale(0.1 -0.1)">
       <use xlink:href="#DejaVuSans-2212"/>
       <use x="83.789062" xlink:href="#DejaVuSans-37"/>
       <use x="147.412109" xlink:href="#DejaVuSans-30"/>
      </g>
     </g>
    </g>
    <g id="ytick_3">
     <g id="line2d_8">
      <g>
       <use style="stroke:#000000;stroke-width:0.8;" x="57.6" xlink:href="#mc3f95f761d" y="203.527998"/>
      </g>
     </g>
     <g id="text_9">
      <!-- −65 -->
      <defs>
       <path d="M 33.015625 40.375 
Q 26.375 40.375 22.484375 35.828125 
Q 18.609375 31.296875 18.609375 23.390625 
Q 18.609375 15.53125 22.484375 10.953125 
Q 26.375 6.390625 33.015625 6.390625 
Q 39.65625 6.390625 43.53125 10.953125 
Q 47.40625 15.53125 47.40625 23.390625 
Q 47.40625 31.296875 43.53125 35.828125 
Q 39.65625 40.375 33.015625 40.375 
z
M 52.59375 71.296875 
L 52.59375 62.3125 
Q 48.875 64.0625 45.09375 64.984375 
Q 41.3125 65.921875 37.59375 65.921875 
Q 27.828125 65.921875 22.671875 59.328125 
Q 17.53125 52.734375 16.796875 39.40625 
Q 19.671875 43.65625 24.015625 45.921875 
Q 28.375 48.1875 33.59375 48.1875 
Q 44.578125 48.1875 50.953125 41.515625 
Q 57.328125 34.859375 57.328125 23.390625 
Q 57.328125 12.15625 50.6875 5.359375 
Q 44.046875 -1.421875 33.015625 -1.421875 
Q 20.359375 -1.421875 13.671875 8.265625 
Q 6.984375 17.96875 6.984375 36.375 
Q 6.984375 53.65625 15.1875 63.9375 
Q 23.390625 74.21875 37.203125 74.21875 
Q 40.921875 74.21875 44.703125 73.484375 
Q 48.484375 72.75 52.59375 71.296875 
z
" id="DejaVuSans-36"/>
      </defs>
      <g transform="translate(29.495313 207.327217)scale(0.1 -0.1)">
       <use xlink:href="#DejaVuSans-2212"/>
       <use x="83.789062" xlink:href="#DejaVuSans-36"/>
       <use x="147.412109" xlink:href="#DejaVuSans-35"/>
      </g>
     </g>
    </g>
    <g id="ytick_4">
     <g id="line2d_9">
      <g>
       <use style="stroke:#000000;stroke-width:0.8;" x="57.6" xlink:href="#mc3f95f761d" y="164.915123"/>
      </g>
     </g>
     <g id="text_10">
      <!-- −60 -->
      <g transform="translate(29.495313 168.714342)scale(0.1 -0.1)">
       <use xlink:href="#DejaVuSans-2212"/>
       <use x="83.789062" xlink:href="#DejaVuSans-36"/>
       <use x="147.412109" xlink:href="#DejaVuSans-30"/>
      </g>
     </g>
    </g>
    <g id="ytick_5">
     <g id="line2d_10">
      <g>
       <use style="stroke:#000000;stroke-width:0.8;" x="57.6" xlink:href="#mc3f95f761d" y="126.302249"/>
      </g>
     </g>
     <g id="text_11">
      <!-- −55 -->
      <g transform="translate(29.495313 130.101468)scale(0.1 -0.1)">
       <use xlink:href="#DejaVuSans-2212"/>
       <use x="83.789062" xlink:href="#DejaVuSans-35"/>
       <use x="147.412109" xlink:href="#DejaVuSans-35"/>
      </g>
     </g>
    </g>
    <g id="ytick_6">
     <g id="line2d_11">
      <g>
       <use style="stroke:#000000;stroke-width:0.8;" x="57.6" xlink:href="#mc3f95f761d" y="87.689374"/>
      </g>
     </g>
     <g id="text_12">
      <!-- −50 -->
      <g transform="translate(29.495313 91.488593)scale(0.1 -0.1)">
       <use xlink:href="#DejaVuSans-2212"/>
       <use x="83.789062" xlink:href="#DejaVuSans-35"/>
       <use x="147.412109" xlink:href="#DejaVuSans-30"/>
      </g>
     </g>
    </g>
    <g id="ytick_7">
     <g id="line2d_12">
      <g>
       <use style="stroke:#000000;stroke-width:0.8;" x="57.6" xlink:href="#mc3f95f761d" y="49.0765"/>
      </g>
     </g>
     <g id="text_13">
      <!-- −45 -->
      <g transform="translate(29.495313 52.875719)scale(0.1 -0.1)">
       <use xlink:href="#DejaVuSans-2212"/>
       <use x="83.789062" xlink:href="#DejaVuSans-34"/>
       <use x="147.412109" xlink:href="#DejaVuSans-35"/>
      </g>
     </g>
    </g>
    <g id="text_14">
     <!-- Voltage (mV) -->
     <defs>
      <path d="M 28.609375 0 
L 0.78125 72.90625 
L 11.078125 72.90625 
L 34.1875 11.53125 
L 57.328125 72.90625 
L 67.578125 72.90625 
L 39.796875 0 
z
" id="DejaVuSans-56"/>
      <path d="M 30.609375 48.390625 
Q 23.390625 48.390625 19.1875 42.75 
Q 14.984375 37.109375 14.984375 27.296875 
Q 14.984375 17.484375 19.15625 11.84375 
Q 23.34375 6.203125 30.609375 6.203125 
Q 37.796875 6.203125 41.984375 11.859375 
Q 46.1875 17.53125 46.1875 27.296875 
Q 46.1875 37.015625 41.984375 42.703125 
Q 37.796875 48.390625 30.609375 48.390625 
z
M 30.609375 56 
Q 42.328125 56 49.015625 48.375 
Q 55.71875 40.765625 55.71875 27.296875 
Q 55.71875 13.875 49.015625 6.21875 
Q 42.328125 -1.421875 30.609375 -1.421875 
Q 18.84375 -1.421875 12.171875 6.21875 
Q 5.515625 13.875 5.515625 27.296875 
Q 5.515625 40.765625 12.171875 48.375 
Q 18.84375 56 30.609375 56 
z
" id="DejaVuSans-6f"/>
      <path d="M 9.421875 75.984375 
L 18.40625 75.984375 
L 18.40625 0 
L 9.421875 0 
z
" id="DejaVuSans-6c"/>
      <path d="M 18.3125 70.21875 
L 18.3125 54.6875 
L 36.8125 54.6875 
L 36.8125 47.703125 
L 18.3125 47.703125 
L 18.3125 18.015625 
Q 18.3125 11.328125 20.140625 9.421875 
Q 21.96875 7.515625 27.59375 7.515625 
L 36.8125 7.515625 
L 36.8125 0 
L 27.59375 0 
Q 17.1875 0 13.234375 3.875 
Q 9.28125 7.765625 9.28125 18.015625 
L 9.28125 47.703125 
L 2.6875 47.703125 
L 2.6875 54.6875 
L 9.28125 54.6875 
L 9.28125 70.21875 
z
" id="DejaVuSans-74"/>
      <path d="M 34.28125 27.484375 
Q 23.390625 27.484375 19.1875 25 
Q 14.984375 22.515625 14.984375 16.5 
Q 14.984375 11.71875 18.140625 8.90625 
Q 21.296875 6.109375 26.703125 6.109375 
Q 34.1875 6.109375 38.703125 11.40625 
Q 43.21875 16.703125 43.21875 25.484375 
L 43.21875 27.484375 
z
M 52.203125 31.203125 
L 52.203125 0 
L 43.21875 0 
L 43.21875 8.296875 
Q 40.140625 3.328125 35.546875 0.953125 
Q 30.953125 -1.421875 24.3125 -1.421875 
Q 15.921875 -1.421875 10.953125 3.296875 
Q 6 8.015625 6 15.921875 
Q 6 25.140625 12.171875 29.828125 
Q 18.359375 34.515625 30.609375 34.515625 
L 43.21875 34.515625 
L 43.21875 35.40625 
Q 43.21875 41.609375 39.140625 45 
Q 35.0625 48.390625 27.6875 48.390625 
Q 23 48.390625 18.546875 47.265625 
Q 14.109375 46.140625 10.015625 43.890625 
L 10.015625 52.203125 
Q 14.9375 54.109375 19.578125 55.046875 
Q 24.21875 56 28.609375 56 
Q 40.484375 56 46.34375 49.84375 
Q 52.203125 43.703125 52.203125 31.203125 
z
" id="DejaVuSans-61"/>
      <path d="M 45.40625 27.984375 
Q 45.40625 37.75 41.375 43.109375 
Q 37.359375 48.484375 30.078125 48.484375 
Q 22.859375 48.484375 18.828125 43.109375 
Q 14.796875 37.75 14.796875 27.984375 
Q 14.796875 18.265625 18.828125 12.890625 
Q 22.859375 7.515625 30.078125 7.515625 
Q 37.359375 7.515625 41.375 12.890625 
Q 45.40625 18.265625 45.40625 27.984375 
z
M 54.390625 6.78125 
Q 54.390625 -7.171875 48.1875 -13.984375 
Q 42 -20.796875 29.203125 -20.796875 
Q 24.46875 -20.796875 20.265625 -20.09375 
Q 16.0625 -19.390625 12.109375 -17.921875 
L 12.109375 -9.1875 
Q 16.0625 -11.328125 19.921875 -12.34375 
Q 23.78125 -13.375 27.78125 -13.375 
Q 36.625 -13.375 41.015625 -8.765625 
Q 45.40625 -4.15625 45.40625 5.171875 
L 45.40625 9.625 
Q 42.625 4.78125 38.28125 2.390625 
Q 33.9375 0 27.875 0 
Q 17.828125 0 11.671875 7.65625 
Q 5.515625 15.328125 5.515625 27.984375 
Q 5.515625 40.671875 11.671875 48.328125 
Q 17.828125 56 27.875 56 
Q 33.9375 56 38.28125 53.609375 
Q 42.625 51.21875 45.40625 46.390625 
L 45.40625 54.6875 
L 54.390625 54.6875 
z
" id="DejaVuSans-67"/>
     </defs>
     <g transform="translate(22.167812 227.19925)rotate(-90)scale(0.16 -0.16)">
      <use xlink:href="#DejaVuSans-56"/>
      <use x="68.298828" xlink:href="#DejaVuSans-6f"/>
      <use x="129.480469" xlink:href="#DejaVuSans-6c"/>
      <use x="157.263672" xlink:href="#DejaVuSans-74"/>
      <use x="196.472656" xlink:href="#DejaVuSans-61"/>
      <use x="257.751953" xlink:href="#DejaVuSans-67"/>
      <use x="321.228516" xlink:href="#DejaVuSans-65"/>
      <use x="382.751953" xlink:href="#DejaVuSans-20"/>
      <use x="414.539062" xlink:href="#DejaVuSans-28"/>
      <use x="453.552734" xlink:href="#DejaVuSans-6d"/>
      <use x="550.964844" xlink:href="#DejaVuSans-56"/>
      <use x="619.373047" xlink:href="#DejaVuSans-29"/>
     </g>
    </g>
   </g>
   <g id="line2d_13">
    <path clip-path="url(#p2c0e5b34e6)" d="M 73.832727 239.897134 
L 73.938939 237.14862 
L 74.399191 210.487281 
L 74.434595 210.524728 
L 74.505403 211.39662 
L 74.576211 211.211867 
L 74.682423 209.296173 
L 75.036463 219.238563 
L 75.496715 230.137893 
L 75.602927 231.780003 
L 75.638331 231.18711 
L 75.673735 231.148592 
L 75.709138 231.3686 
L 75.99237 225.514905 
L 76.027774 225.978237 
L 76.34641 230.683733 
L 76.381814 230.600996 
L 76.417218 230.514796 
L 76.452622 230.578817 
L 76.771258 241.081176 
L 77.125298 250.095654 
L 77.196106 246.015747 
L 77.40853 233.686815 
L 77.479338 232.526263 
L 77.514742 232.75799 
L 77.656358 235.349655 
L 77.691762 235.296932 
L 77.93959 231.402206 
L 78.010398 230.230764 
L 78.045802 230.81635 
L 79.143325 254.328759 
L 79.178729 254.758661 
L 79.355749 252.234657 
L 79.426557 252.025203 
L 79.568173 254.468093 
L 79.603577 254.005743 
L 79.674385 253.136827 
L 80.665696 223.57883 
L 80.7011 223.790361 
L 80.771908 223.619419 
L 80.807312 223.51583 
L 81.019736 218.110617 
L 81.196756 215.0959 
L 81.338372 209.932884 
L 81.479988 207.374997 
L 81.550796 207.498217 
L 81.657008 208.864977 
L 81.727816 210.229925 
L 81.834028 207.574848 
L 81.869432 208.67595 
L 81.904836 209.039781 
L 82.223472 201.732005 
L 82.258876 201.812497 
L 82.542108 210.390427 
L 82.82534 222.482827 
L 83.002359 224.111989 
L 83.037763 223.857542 
L 83.285591 213.957212 
L 83.320995 214.267145 
L 83.639631 223.171376 
L 83.781247 225.238999 
L 83.816651 225.118898 
L 83.958267 225.418295 
L 83.993671 225.115052 
L 84.135287 214.679486 
L 84.276903 209.379787 
L 84.312307 209.632663 
L 84.630943 220.191111 
L 85.020387 240.409776 
L 85.622254 264.877605 
L 85.94089 273.328263 
L 86.047102 272.62817 
L 86.224122 268.239776 
L 86.365738 265.948257 
L 86.401142 265.972025 
L 86.507354 265.331853 
L 86.578162 265.630606 
L 86.790586 262.53948 
L 86.932202 260.64382 
L 86.967606 261.098679 
L 87.073818 262.325612 
L 87.109222 261.975474 
L 87.321646 258.636412 
L 87.427858 255.608381 
L 87.463262 255.870723 
L 87.675686 257.821159 
L 87.71109 257.325675 
L 88.348361 245.418843 
L 88.383765 245.481952 
L 88.489977 245.755713 
L 88.525381 245.626033 
L 88.737805 239.931485 
L 88.914825 236.292371 
L 89.127249 239.88531 
L 89.552097 253.349209 
L 89.658309 254.748494 
L 89.693713 254.706164 
L 89.835329 252.521759 
L 90.189368 241.352754 
L 90.224772 241.401105 
L 90.260176 241.454505 
L 90.437196 243.882947 
L 90.4726 243.832856 
L 90.543408 243.365316 
L 90.685024 242.78669 
L 90.82664 243.80188 
L 91.18068 237.586745 
L 91.216084 237.752078 
L 91.286892 236.612935 
L 91.817952 219.865328 
L 91.853356 219.556034 
L 91.88876 219.871499 
L 91.994972 221.501848 
L 92.030376 221.433713 
L 92.455224 204.767453 
L 92.490628 206.296081 
L 92.526032 207.429734 
L 92.596839 207.271164 
L 92.703051 205.584767 
L 92.773859 205.6244 
L 92.880071 208.362308 
L 92.915475 207.989495 
L 92.950879 207.436479 
L 92.950879 207.436479 
L 92.950879 207.436479 
L 93.127899 210.785686 
L 93.269515 208.783644 
L 93.304919 209.152978 
L 93.340323 206.22338 
L 93.411131 207.765052 
L 93.446535 207.776718 
L 93.800575 223.842071 
L 93.942191 221.797715 
L 94.225423 213.466178 
L 94.367039 218.164678 
L 94.402443 217.571598 
L 94.650271 206.05029 
L 95.216734 183.137339 
L 95.252138 183.168353 
L 95.393754 187.808713 
L 95.783198 200.363765 
L 95.960218 199.521595 
L 96.031026 199.571019 
L 96.101834 200.481025 
L 96.137238 199.647973 
L 96.172642 199.672477 
L 96.208046 199.395809 
L 96.314258 196.1649 
L 96.349662 196.799176 
L 96.385066 196.792885 
L 96.42047 195.506683 
L 96.491278 196.439431 
L 96.809914 208.952328 
L 96.916126 213.603829 
L 97.093146 223.402654 
L 97.12855 223.369037 
L 97.447185 230.099089 
L 97.517993 229.701597 
L 97.624205 227.655238 
L 98.119861 208.098295 
L 98.155265 207.980625 
L 98.261477 206.988768 
L 98.296881 207.524732 
L 98.473901 212.153795 
L 99.040365 226.216923 
L 99.075769 225.189474 
L 99.075769 225.189474 
L 99.075769 225.189474 
L 99.465213 237.201898 
L 99.783849 233.378139 
L 100.06708 219.48036 
L 100.102484 218.955605 
L 100.173292 219.306305 
L 100.208696 220.036426 
L 100.208696 220.036426 
L 100.208696 220.036426 
L 100.491928 213.419169 
L 100.527332 213.511357 
L 100.633544 212.386434 
L 100.668948 212.568392 
L 100.77516 213.87222 
L 100.810564 213.728635 
L 100.845968 213.781429 
L 100.916776 214.522927 
L 100.987584 214.141597 
L 101.235412 202.946041 
L 101.270816 203.6697 
L 101.412432 208.799661 
L 101.48324 207.119673 
L 101.731068 203.072424 
L 101.801876 204.09847 
L 101.83728 204.345632 
L 101.978896 200.201824 
L 102.580763 153.963092 
L 102.722379 152.771223 
L 103.218035 152.687849 
L 103.253439 152.847373 
L 103.465863 178.105682 
L 103.536671 177.296448 
L 103.678287 172.825119 
L 103.749095 174.169884 
L 103.890711 177.65897 
L 104.173943 188.311422 
L 104.244751 187.524485 
L 104.386367 185.318107 
L 104.421771 185.865804 
L 104.492579 188.107026 
L 104.563387 187.071823 
L 104.634195 185.336829 
L 104.669598 186.055149 
L 104.705002 186.088854 
L 104.882022 190.423386 
L 105.094446 195.792634 
L 105.413082 208.187149 
L 105.66091 217.852475 
L 105.944142 227.167222 
L 106.01495 228.009325 
L 106.54601 242.270231 
L 106.581414 240.516641 
L 106.758434 235.919009 
L 106.935454 237.930775 
L 106.970858 237.167163 
L 106.970858 237.167163 
L 106.970858 237.167163 
L 107.147877 240.862567 
L 107.431109 234.731541 
L 107.537321 234.208236 
L 107.572725 234.509796 
L 107.643533 234.307728 
L 107.714341 235.294311 
L 107.749745 235.289398 
L 107.926765 230.843981 
L 108.139189 222.565911 
L 108.280805 224.345427 
L 108.316209 223.748807 
L 108.564037 219.40474 
L 108.634845 220.207538 
L 108.741057 223.484517 
L 108.811865 222.500964 
L 109.024289 216.974006 
L 109.236713 207.672355 
L 109.555348 192.624204 
L 109.873984 182.39967 
L 109.909388 182.310425 
L 110.121812 176.97942 
L 110.19262 177.792301 
L 110.228024 177.873864 
L 110.298832 178.834781 
L 110.652872 158.462387 
L 110.759084 148.05529 
L 110.829892 149.228588 
L 111.290144 164.893393 
L 111.325548 165.020547 
L 111.325548 165.020547 
L 111.325548 165.020547 
L 111.360952 164.8003 
L 111.537972 170.113031 
L 111.60878 171.854034 
L 111.679588 171.73032 
L 111.7858 168.730386 
L 111.821204 169.422315 
L 111.927415 171.106127 
L 111.962819 170.950741 
L 111.998223 170.662592 
L 112.316859 177.72238 
L 112.387667 177.492551 
L 112.706303 169.957506 
L 113.024939 152.341538 
L 113.131151 154.841956 
L 113.308171 157.051216 
L 113.343575 156.953633 
L 113.555999 154.902194 
L 113.697615 156.78396 
L 113.733019 157.284421 
L 113.768423 157.178214 
L 113.803827 156.500403 
L 113.839231 157.15968 
L 114.299483 178.220537 
L 114.405694 181.795619 
L 114.441098 179.351204 
L 114.476502 179.149929 
L 114.653522 182.788376 
L 114.795138 184.286659 
L 114.972158 179.248385 
L 115.007562 179.516669 
L 115.149178 173.543362 
L 115.184582 173.705067 
L 115.25539 168.994615 
L 115.397006 169.60005 
L 115.538622 171.648054 
L 115.680238 175.508177 
L 115.751046 175.821313 
L 115.998874 185.58517 
L 116.282106 197.215146 
L 116.388318 196.298206 
L 116.600742 192.078279 
L 116.67155 192.756953 
L 116.706954 192.928955 
L 117.167205 205.958767 
L 117.202609 203.841356 
L 117.273417 205.30349 
L 117.308821 205.130704 
L 117.485841 210.216962 
L 117.521245 209.721981 
L 117.556649 209.632326 
L 118.052305 225.16063 
L 118.158517 226.011656 
L 118.264729 222.815782 
L 118.335537 224.018167 
L 118.370941 223.050622 
L 118.441749 223.5701 
L 118.547961 225.180603 
L 118.866597 220.075325 
L 118.937405 219.870975 
L 119.185232 222.09022 
L 119.220636 221.970184 
L 119.326848 223.979879 
L 119.362252 223.635993 
L 119.716292 217.827065 
L 119.751696 217.925865 
L 119.857908 216.484353 
L 119.928716 216.73145 
L 120.034928 218.474561 
L 120.070332 218.394799 
L 120.31816 206.886483 
L 120.707604 191.481484 
L 120.743008 191.980589 
L 120.955432 185.22924 
L 121.02624 185.13894 
L 121.061644 185.217824 
L 121.20326 176.190988 
L 121.486492 154.181317 
L 121.592703 157.819158 
L 121.698915 151.392642 
L 121.769723 153.692758 
L 121.840531 154.945672 
L 121.840531 154.945672 
L 121.840531 154.945672 
L 121.911339 152.93898 
L 121.911339 152.93898 
L 121.911339 152.93898 
L 122.052955 160.548296 
L 122.088359 160.300987 
L 122.300783 149.771074 
L 122.336187 150.403104 
L 122.442399 156.599266 
L 122.477803 156.559227 
L 122.725631 149.168122 
L 123.256691 145.352436 
L 124.566638 218.98565 
L 124.602042 218.817131 
L 124.779062 222.735874 
L 124.814466 222.285357 
L 125.239314 213.408245 
L 125.310122 212.693396 
L 125.310122 212.693396 
L 125.310122 212.693396 
L 125.699566 221.741744 
L 125.770374 220.850311 
L 126.407645 199.159196 
L 126.584665 191.338255 
L 127.080321 197.352023 
L 127.221937 191.796476 
L 127.292745 191.821525 
L 127.328149 191.957854 
L 127.328149 191.957854 
L 127.328149 191.957854 
L 127.363553 191.711339 
L 127.434361 191.781147 
L 127.965421 197.834812 
L 128.000825 197.557416 
L 128.071633 199.772 
L 128.142441 199.731547 
L 128.354865 191.984288 
L 128.744309 174.141611 
L 128.956732 169.875771 
L 129.062944 167.072091 
L 129.133752 167.44651 
L 129.239964 166.101639 
L 129.275368 166.362347 
L 129.38158 168.47538 
L 129.416984 167.370413 
L 129.5586 162.522866 
L 129.629408 159.829615 
L 129.664812 160.546634 
L 129.91264 174.912635 
L 129.983448 178.439632 
L 130.018852 176.974892 
L 130.125064 172.960104 
L 130.160468 173.41837 
L 130.195872 173.659413 
L 130.231276 175.088866 
L 130.26668 174.757938 
L 130.585316 157.183724 
L 131.328799 133.124058 
L 131.364203 134.114962 
L 131.541223 143.496062 
L 131.576627 143.142747 
L 131.753647 137.558534 
L 132.461727 195.333238 
L 132.497131 195.776686 
L 132.532535 195.618516 
L 132.532535 195.618516 
L 132.744959 193.759416 
L 133.134403 204.55218 
L 133.205211 203.480315 
L 133.276019 204.137554 
L 133.346827 204.922643 
L 133.417635 207.466487 
L 133.488443 206.947783 
L 133.630058 210.632936 
L 133.73627 213.003393 
L 133.771674 212.046312 
L 133.842482 212.503379 
L 134.196522 216.379688 
L 134.231926 216.102869 
L 134.62137 202.454104 
L 134.762986 199.070861 
L 134.79839 198.954653 
L 134.833794 199.396665 
L 134.904602 199.036817 
L 135.081622 197.819049 
L 135.117026 197.968462 
L 135.32945 194.50386 
L 135.364854 194.38224 
L 135.400258 195.872415 
L 135.435662 195.017857 
L 135.754298 180.738758 
L 135.966722 171.015527 
L 136.320761 159.247349 
L 136.639397 169.269714 
L 137.135053 153.605646 
L 137.170457 154.35526 
L 137.170457 154.35526 
L 137.170457 154.35526 
L 137.312073 153.175748 
L 137.630709 158.731542 
L 137.666113 158.173538 
L 137.666113 158.173538 
L 137.666113 158.173538 
L 137.807729 159.057654 
L 137.913941 159.966339 
L 138.090961 164.749129 
L 138.161769 162.03289 
L 138.232577 162.288694 
L 138.480404 166.41667 
L 138.62202 164.827941 
L 138.657424 165.308065 
L 138.728232 162.082223 
L 138.79904 163.037855 
L 138.869848 165.048148 
L 139.117676 173.95697 
L 139.15308 173.54883 
L 139.3301 167.184204 
L 139.365504 167.794265 
L 139.50712 169.980265 
L 139.577928 169.371865 
L 139.648736 170.214351 
L 139.68414 170.147165 
L 139.790352 166.556746 
L 140.03818 152.206513 
L 140.923279 144.455543 
L 140.958683 144.91058 
L 141.383531 167.475078 
L 141.454339 165.720587 
L 142.587267 119.088948 
L 142.658075 122.214314 
L 143.118327 166.759964 
L 143.472366 192.047052 
L 143.613982 196.898442 
L 143.791002 200.207328 
L 143.897214 204.395373 
L 144.251254 216.911885 
L 144.463678 218.576376 
L 144.640698 213.905459 
L 144.994738 196.931043 
L 145.27797 188.881356 
L 145.313374 188.987026 
L 145.63201 192.222786 
L 146.517109 206.834239 
L 146.658725 205.661489 
L 146.729533 205.091608 
L 147.012765 198.269551 
L 147.048169 198.389594 
L 147.260593 196.639366 
L 147.508421 201.611459 
L 147.579229 201.167725 
L 147.614633 201.103906 
L 147.862461 203.749174 
L 148.641348 186.057698 
L 148.712156 186.30052 
L 148.74756 186.421669 
L 148.782964 187.550739 
L 148.853772 187.375414 
L 148.959984 183.201769 
L 149.137004 179.274119 
L 149.243216 178.146275 
L 149.349428 179.671446 
L 149.384832 179.388453 
L 149.45564 176.874387 
L 149.526448 177.495841 
L 149.597256 179.480401 
L 149.63266 179.315443 
L 149.80968 175.612771 
L 149.845084 175.642625 
L 150.199124 186.531827 
L 150.234528 185.803665 
L 150.517759 174.753798 
L 150.623971 177.254233 
L 150.659375 176.00387 
L 151.756899 136.930132 
L 151.898515 138.356082 
L 151.969323 136.942183 
L 152.004727 137.720299 
L 152.146343 140.780042 
L 152.181747 140.298537 
L 152.394171 127.991979 
L 152.429575 130.264925 
L 152.712807 144.375536 
L 152.748211 144.144642 
L 152.960634 139.90382 
L 153.066846 138.038587 
L 153.10225 138.42611 
L 153.137654 138.769809 
L 153.314674 148.742421 
L 153.350078 148.679701 
L 153.420886 148.183147 
L 153.45629 148.882184 
L 153.527098 148.197194 
L 153.562502 147.181296 
L 153.597906 147.845631 
L 153.845734 153.738273 
L 154.51841 118.581177 
L 154.553814 119.704248 
L 154.624622 120.533536 
L 155.403509 176.880441 
L 155.722145 190.165981 
L 155.757549 190.404548 
L 155.792953 190.15733 
L 155.863761 189.651768 
L 156.076185 184.662162 
L 156.324013 178.631019 
L 156.465629 180.054767 
L 156.501033 179.401893 
L 156.678053 176.365938 
L 156.713457 176.895564 
L 156.855073 177.805042 
L 157.209113 191.401364 
L 157.279921 190.95513 
L 157.421537 189.824155 
L 157.456941 190.263066 
L 157.81098 199.46956 
L 157.846384 199.272463 
L 158.483656 186.90879 
L 158.554464 187.141828 
L 158.943908 194.074159 
L 159.014716 193.646422 
L 159.05012 193.479912 
L 159.120928 192.403444 
L 159.156332 192.669013 
L 159.262544 192.968576 
L 159.368756 191.219901 
L 159.58118 177.513582 
L 160.11224 149.410257 
L 160.430875 139.893049 
L 160.466279 139.464816 
L 160.607895 143.430497 
L 160.643299 142.963801 
L 160.749511 141.938032 
L 161.068147 136.825521 
L 162.094863 117.916842 
L 162.201075 131.20666 
L 162.307287 141.361234 
L 162.342691 140.927809 
L 162.413499 139.597371 
L 162.448903 140.682006 
L 162.661326 145.675213 
L 162.767538 143.739235 
L 162.802942 144.736851 
L 163.015366 151.942555 
L 163.05077 151.482034 
L 163.546426 133.209911 
L 163.652638 134.440995 
L 163.829658 147.618261 
L 164.148294 160.412899 
L 164.254506 164.492272 
L 164.64395 184.263163 
L 164.750162 183.377982 
L 164.856374 184.819883 
L 164.891778 184.551667 
L 165.104201 182.559159 
L 165.139605 182.570406 
L 165.316625 180.896818 
L 165.352029 181.01334 
L 165.387433 180.731637 
L 165.387433 180.731637 
L 165.387433 180.731637 
L 165.529049 183.499951 
L 165.776877 191.86413 
L 165.918493 192.554221 
L 166.095513 189.963811 
L 166.166321 190.789726 
L 166.272533 192.890024 
L 166.343341 192.059629 
L 166.520361 190.949382 
L 166.555765 191.392573 
L 166.555765 191.392573 
L 166.555765 191.392573 
L 166.591169 190.915275 
L 166.591169 190.915275 
L 166.591169 190.915275 
L 166.803593 195.411419 
L 166.838997 195.363108 
L 167.051421 191.240761 
L 167.157633 189.748254 
L 167.228441 190.536907 
L 167.263845 190.000452 
L 167.334653 188.368689 
L 167.40546 189.131077 
L 167.440864 189.140101 
L 167.653288 180.149054 
L 167.971924 163.45041 
L 168.432176 171.605554 
L 168.680004 181.700124 
L 168.892428 185.579173 
L 168.963236 186.493851 
L 168.99864 186.348089 
L 169.317276 170.679904 
L 169.35268 171.186566 
L 169.600508 177.732222 
L 169.635912 177.698835 
L 169.812931 180.223227 
L 169.848335 180.180958 
L 169.883739 180.263839 
L 170.131567 177.206729 
L 170.202375 179.35574 
L 170.273183 178.316219 
L 170.343991 178.005885 
L 170.521011 181.072791 
L 170.804243 165.839722 
L 171.087475 153.116274 
L 171.158283 153.811331 
L 171.229091 152.857773 
L 171.689343 136.795766 
L 172.29121 119.472339 
L 172.326614 120.237935 
L 172.503634 135.984381 
L 172.609846 138.717383 
L 172.786866 145.095654 
L 172.893078 143.840568 
L 172.928482 144.378169 
L 173.034694 146.721036 
L 173.105502 145.906048 
L 173.317926 140.193099 
L 173.35333 141.944085 
L 173.778178 152.254022 
L 173.813582 152.355873 
L 173.848986 153.823732 
L 173.919794 153.129928 
L 173.990602 155.013092 
L 174.840297 184.206142 
L 174.875701 183.542844 
L 174.911105 183.856362 
L 175.158933 189.741706 
L 175.512973 201.000352 
L 175.583781 199.979366 
L 175.654589 199.176869 
L 175.689993 199.222596 
L 175.760801 200.605952 
L 175.831609 200.170671 
L 175.973225 193.017764 
L 176.327265 180.578122 
L 176.362669 180.40407 
L 176.681305 170.959608 
L 177.070748 158.262778 
L 177.106152 158.335551 
L 177.212364 157.270327 
L 177.495596 163.751891 
L 177.743424 167.938204 
L 177.778828 167.877752 
L 177.849636 167.300293 
L 177.88504 167.706996 
L 177.920444 167.869106 
L 177.920444 167.869106 
L 177.920444 167.869106 
L 178.097464 166.729865 
L 178.451504 151.016859 
L 179.372008 102.888286 
L 179.407412 105.016288 
L 179.655239 123.051821 
L 179.832259 118.818505 
L 179.867663 119.789708 
L 180.044683 125.144382 
L 180.080087 123.924407 
L 180.115491 123.719029 
L 180.327915 131.239179 
L 180.398723 129.267056 
L 180.540339 125.14464 
L 181.142207 121.978322 
L 181.531651 155.238794 
L 181.567055 155.629119 
L 181.708671 147.479752 
L 181.921094 131.312424 
L 182.133518 123.996054 
L 182.23973 120.480625 
L 182.275134 120.951321 
L 182.41675 129.665337 
L 182.452154 128.643788 
L 182.629174 122.377608 
L 183.443466 111.347354 
L 183.726698 152.164928 
L 183.939122 156.196302 
L 184.151546 163.586891 
L 184.363969 168.34798 
L 184.434777 169.406504 
L 184.505585 169.170986 
L 184.540989 169.00209 
L 184.540989 169.00209 
L 184.540989 169.00209 
L 184.753413 170.242525 
L 185.249069 157.758897 
L 185.390685 155.913491 
L 185.426089 155.916049 
L 185.567705 159.314416 
L 185.921745 172.857595 
L 185.957149 172.7421 
L 186.098765 171.129171 
L 186.381997 174.545362 
L 186.629825 179.773957 
L 186.877652 175.521661 
L 186.913056 176.219114 
L 187.019268 178.328972 
L 187.054672 177.914913 
L 187.12548 174.858307 
L 187.3025 168.711426 
L 187.373308 167.680021 
L 187.408712 167.814646 
L 187.514924 169.692637 
L 187.550328 169.163819 
L 187.762752 164.296029 
L 187.904368 164.7523 
L 188.1876 160.303865 
L 188.258408 159.080713 
L 188.293812 159.66604 
L 188.329216 159.699003 
L 188.36462 159.498208 
L 188.860276 168.698098 
L 188.89568 168.419627 
L 188.931084 168.336137 
L 189.037296 167.079833 
L 189.108103 167.583512 
L 189.391335 171.710052 
L 189.426739 171.67106 
L 189.462143 171.846488 
L 189.497547 171.773336 
L 189.568355 171.191792 
L 189.639163 171.360286 
L 189.957799 176.918481 
L 190.028607 175.713965 
L 190.241031 172.729752 
L 190.347243 174.199631 
L 190.382647 174.066985 
L 190.807495 167.258571 
L 192.259058 114.061113 
L 192.683906 98.284454 
L 193.144158 138.244812 
L 193.179562 137.992717 
L 193.321178 140.53077 
L 193.569006 150.338635 
L 193.60441 150.596091 
L 193.675218 152.062372 
L 193.710622 150.983363 
L 194.347893 124.09878 
L 194.383297 122.506698 
L 194.985165 178.530781 
L 195.410013 196.759363 
L 195.516225 195.689156 
L 195.693245 192.387174 
L 195.870265 193.829743 
L 195.905669 193.731081 
L 196.011881 195.312253 
L 196.436728 181.831904 
L 196.755364 172.270058 
L 196.826172 170.157457 
L 197.215616 153.702545 
L 198.596372 94.950392 
L 198.844199 114.660352 
L 198.985815 110.390132 
L 199.481471 93.464324 
L 199.516875 94.01644 
L 199.693895 100.617277 
L 200.224955 115.55985 
L 200.401975 127.000293 
L 200.437379 126.653131 
L 201.074651 98.910999 
L 201.25167 111.285783 
L 201.888942 97.0468 
L 201.995154 104.084356 
L 202.065962 103.020135 
L 202.632426 94.797191 
L 202.809446 121.771427 
L 202.951062 117.705903 
L 203.092678 113.363332 
L 203.128082 113.704247 
L 203.588333 154.843104 
L 203.623737 153.418241 
L 204.261009 103.876178 
L 204.296413 107.665112 
L 204.579645 120.085285 
L 204.756665 127.631598 
L 204.969089 137.993044 
L 205.004493 137.770232 
L 205.216917 144.833113 
L 205.287725 148.343785 
L 205.358533 147.449049 
L 205.677169 143.72962 
L 205.854189 129.398948 
L 205.924997 131.390874 
L 206.066612 139.073712 
L 206.172824 144.011244 
L 206.243632 142.950605 
L 206.279036 142.871758 
L 206.456056 147.710565 
L 206.810096 162.026285 
L 206.8455 162.184201 
L 207.128732 156.601319 
L 207.305752 153.330907 
L 207.341156 153.251897 
L 207.55358 149.53045 
L 207.624388 148.46262 
L 208.367872 111.024171 
L 209.075951 83.771329 
L 209.288375 103.883758 
L 209.500799 112.346188 
L 209.784031 118.517486 
L 209.819435 117.136088 
L 210.421303 86.902755 
L 210.456707 90.319537 
L 210.598323 97.538763 
L 210.633727 97.016578 
L 211.20019 88.691291 
L 211.448018 100.39704 
L 211.483422 99.993634 
L 211.55423 98.916516 
L 211.589634 98.952756 
L 211.695846 95.167985 
L 212.049886 114.717901 
L 212.156098 115.219165 
L 213.182814 148.407661 
L 213.253621 151.200628 
L 213.289025 150.597046 
L 213.536853 142.630042 
L 213.643065 144.822369 
L 213.749277 144.302372 
L 214.103317 136.995929 
L 214.209529 138.030362 
L 214.244933 137.2735 
L 214.280337 137.433477 
L 214.280337 137.433477 
L 214.315741 138.066335 
L 214.351145 137.739976 
L 214.988417 98.715468 
L 215.023821 100.195649 
L 215.094629 102.47161 
L 215.200841 104.900648 
L 215.271649 104.715146 
L 215.802708 103.629572 
L 215.873516 110.372392 
L 216.156748 137.636832 
L 216.829424 175.882892 
L 217.006444 170.740491 
L 217.077252 172.118198 
L 217.32508 181.180238 
L 217.891544 198.809251 
L 217.926948 198.133744 
L 217.962352 198.239402 
L 217.997756 198.202541 
L 218.103967 199.13008 
L 218.139371 199.060577 
L 218.458007 203.684407 
L 219.095279 186.134632 
L 219.307703 178.962027 
L 219.378511 177.181802 
L 219.449319 177.534316 
L 219.555531 178.958672 
L 219.590935 178.716414 
L 219.838763 174.114005 
L 219.874167 175.077004 
L 219.980379 173.538935 
L 220.015783 174.210317 
L 220.051187 174.33868 
L 220.334419 181.291192 
L 220.476034 183.298675 
L 220.546842 182.541644 
L 220.653054 181.548609 
L 220.900882 175.926223 
L 221.077902 169.131439 
L 221.467346 149.26722 
L 221.50275 149.272576 
L 221.644366 146.480636 
L 221.963002 131.738082 
L 222.600274 104.450666 
L 222.635678 106.687916 
L 222.989717 134.513281 
L 223.025121 134.917418 
L 223.237545 141.162925 
L 223.272949 141.394295 
L 223.414565 131.500603 
L 223.485373 127.339464 
L 223.556181 128.565972 
L 223.626989 128.779477 
L 223.662393 128.532998 
L 223.733201 130.266552 
L 223.768605 130.089255 
L 224.016433 124.790202 
L 225.5034 101.017247 
L 225.751228 137.548525 
L 225.786632 136.915767 
L 225.892844 137.521411 
L 225.963652 135.058579 
L 226.317692 109.262471 
L 226.353096 111.416746 
L 226.423904 114.337842 
L 226.459308 113.608486 
L 227.025772 101.927108 
L 227.061176 103.328126 
L 227.698448 124.574177 
L 227.875467 140.89824 
L 227.910871 140.783874 
L 228.087891 129.142789 
L 228.158699 130.935841 
L 228.264911 133.562237 
L 228.300315 133.48243 
L 228.441931 129.662129 
L 228.477335 131.670827 
L 228.654355 137.148317 
L 228.689759 137.472246 
L 228.795971 142.7726 
L 228.866779 141.607116 
L 228.902183 141.182192 
L 229.150011 149.521681 
L 229.220819 149.100872 
L 229.468647 139.701429 
L 229.645667 134.106941 
L 229.716475 132.331824 
L 229.893495 128.349412 
L 230.105919 120.718849 
L 231.203442 53.568 
L 231.238846 57.024687 
L 231.62829 85.416366 
L 231.946926 103.518399 
L 232.123946 107.234065 
L 232.690409 140.540356 
L 232.902833 149.614204 
L 233.079853 151.051953 
L 233.115257 150.879636 
L 233.150661 150.572506 
L 233.150661 150.572506 
L 233.150661 150.572506 
L 233.186065 150.908563 
L 233.186065 150.908563 
L 233.186065 150.908563 
L 233.292277 148.465998 
L 234.673033 82.802288 
L 234.708437 84.883948 
L 234.956264 113.974052 
L 235.239496 121.999848 
L 235.2749 122.712785 
L 235.2749 122.712785 
L 235.2749 122.712785 
L 235.487324 115.289987 
L 235.522728 116.143093 
L 235.664344 119.284619 
L 235.912172 113.937318 
L 235.98298 114.3974 
L 236.86808 81.819986 
L 236.903484 87.166022 
L 237.115908 104.032207 
L 237.363736 111.484475 
L 237.399139 112.093148 
L 238.036411 157.088185 
L 238.071815 156.663598 
L 238.213431 154.124486 
L 238.248835 154.197606 
L 238.390451 156.780891 
L 238.425855 156.273114 
L 238.496663 155.131477 
L 238.496663 155.131477 
L 238.496663 155.131477 
L 238.638279 163.004051 
L 238.709087 161.377304 
L 238.886107 155.144417 
L 239.027723 158.240023 
L 239.063127 157.532978 
L 239.169339 154.669126 
L 239.204743 154.938095 
L 239.240147 154.177374 
L 239.275551 154.344935 
L 239.275551 154.344935 
L 239.346359 156.763559 
L 239.594187 164.729276 
L 239.842014 172.180565 
L 240.019034 175.01722 
L 240.196054 180.747391 
L 240.231458 180.083809 
L 240.302266 180.62679 
L 240.373074 181.317968 
L 240.408478 181.086615 
L 240.833326 171.340277 
L 240.939538 168.727929 
L 240.974942 169.170895 
L 241.081154 170.424915 
L 241.116558 170.238509 
L 241.435194 159.961623 
L 241.541406 155.757582 
L 241.75383 146.595447 
L 241.860042 150.008221 
L 242.178678 162.377721 
L 242.355697 165.599708 
L 242.780545 176.672461 
L 242.815949 175.909186 
L 242.886757 174.441342 
L 243.028373 172.326536 
L 243.063777 172.543451 
L 243.063777 172.543451 
L 243.063777 172.543451 
L 243.205393 169.441991 
L 243.807261 144.534283 
L 244.055089 136.656441 
L 245.435844 86.999864 
L 245.471248 89.559874 
L 245.648268 102.592166 
L 245.683672 102.413763 
L 246.745792 97.026834 
L 247.064427 138.173993 
L 247.206043 148.436664 
L 247.276851 146.677771 
L 247.453871 136.211264 
L 247.489275 136.240353 
L 247.524679 135.946233 
L 247.524679 135.946233 
L 247.524679 135.946233 
L 247.560083 136.53531 
L 247.595487 136.33193 
L 247.666295 132.511305 
L 247.772507 126.335963 
L 247.807911 128.569189 
L 248.055739 142.126041 
L 248.268163 137.78334 
L 248.338971 142.06955 
L 248.409779 140.898036 
L 248.657607 133.11458 
L 248.905435 122.472604 
L 249.401091 115.759056 
L 249.967554 171.147317 
L 250.675634 206.240232 
L 250.781846 209.114837 
L 250.99427 215.710186 
L 251.596138 226.256055 
L 251.631542 226.158279 
L 251.773158 220.997137 
L 252.162601 203.124997 
L 252.304217 199.625783 
L 252.516641 192.242871 
L 252.693661 186.489971 
L 252.729065 186.106859 
L 252.906085 188.844176 
L 252.976893 187.007285 
L 253.047701 187.57559 
L 253.224721 191.809118 
L 253.260125 191.517632 
L 253.295529 191.127373 
L 253.330933 191.131174 
L 253.401741 191.817401 
L 253.649569 187.479327 
L 253.826589 190.509879 
L 253.861993 190.224276 
L 253.897397 188.775514 
L 253.968205 189.569901 
L 254.145225 191.096121 
L 254.180629 191.248109 
L 254.428456 194.476066 
L 254.534668 190.05371 
L 254.888708 176.269607 
L 255.030324 174.247556 
L 255.17194 168.775206 
L 255.242748 168.996398 
L 255.52598 173.999352 
L 255.561384 173.943749 
L 255.667596 171.021252 
L 255.738404 171.19855 
L 255.844616 170.271953 
L 255.950828 168.241452 
L 255.986232 168.509016 
L 256.021636 168.445536 
L 256.481888 179.639195 
L 256.552696 178.84879 
L 256.694311 178.135973 
L 256.765119 178.911978 
L 256.800523 178.585575 
L 256.871331 177.552165 
L 256.942139 177.580503 
L 257.048351 180.718947 
L 257.119159 179.990443 
L 257.225371 172.027855 
L 257.579411 142.600347 
L 257.791835 144.317726 
L 258.004259 149.858353 
L 258.216683 146.347026 
L 258.676935 140.446351 
L 258.924763 153.618666 
L 259.101782 158.489318 
L 259.137186 157.536492 
L 259.420418 140.611353 
L 259.986882 137.83097 
L 260.022286 138.376162 
L 260.305518 163.654439 
L 260.58875 181.360796 
L 260.94279 169.362401 
L 261.013598 168.669952 
L 261.11981 160.660852 
L 261.261426 152.318902 
L 261.29683 152.417428 
L 261.332234 151.934991 
L 261.969505 183.096171 
L 262.358949 197.202721 
L 262.394353 197.054678 
L 262.819201 203.858717 
L 263.137837 213.746234 
L 263.173241 213.473714 
L 263.314857 211.241602 
L 263.350261 211.693374 
L 263.491877 212.398298 
L 263.633493 210.404841 
L 264.05834 214.296267 
L 264.270764 219.955665 
L 264.376976 218.43852 
L 264.483188 217.473992 
L 264.624804 212.032915 
L 264.94344 194.918881 
L 265.191268 179.111069 
L 265.226672 178.695754 
L 265.226672 178.695754 
L 265.226672 178.695754 
L 266.288792 200.749516 
L 266.324195 200.583367 
L 266.359599 200.887927 
L 266.501215 195.186596 
L 267.846567 124.244289 
L 267.988183 116.765501 
L 268.023587 117.982157 
L 268.448435 130.419764 
L 268.483839 130.142046 
L 268.554647 129.794278 
L 268.625455 126.458262 
L 268.696263 127.953681 
L 268.731667 127.783643 
L 268.802474 129.127898 
L 268.837878 128.116759 
L 269.722978 103.525339 
L 269.758382 104.988138 
L 270.147826 159.523697 
L 270.395654 177.557031 
L 270.431058 177.545121 
L 270.466462 176.627705 
L 270.501866 176.975942 
L 270.572674 179.624171 
L 270.643482 179.093366 
L 270.71429 178.312788 
L 270.749694 178.349555 
L 270.926714 181.263229 
L 270.962118 180.998248 
L 270.962118 180.998248 
L 270.962118 180.998248 
L 271.209945 182.455128 
L 271.351561 180.071569 
L 271.422369 177.473168 
L 271.457773 178.586328 
L 271.741005 186.156947 
L 271.776409 186.017402 
L 271.953429 189.866602 
L 272.095045 193.529871 
L 272.130449 193.029992 
L 272.165853 193.639822 
L 272.201257 193.412797 
L 272.803125 177.306039 
L 272.838529 177.629773 
L 273.157165 184.28193 
L 273.227973 183.874519 
L 273.263377 183.707484 
L 273.298781 182.77084 
L 273.369589 183.036884 
L 273.404993 182.970932 
L 273.82984 195.335303 
L 273.900648 195.266131 
L 274.00686 192.294158 
L 274.18388 187.397033 
L 274.3609 182.910238 
L 274.467112 182.218873 
L 275.706252 135.032218 
L 275.812464 130.25415 
L 275.847868 131.137594 
L 276.166503 147.274471 
L 276.555947 162.940783 
L 276.591351 162.563221 
L 276.591351 162.563221 
L 276.591351 162.563221 
L 276.662159 164.263851 
L 276.732967 163.443995 
L 277.157815 147.699241 
L 277.299431 142.838315 
L 278.149127 102.259865 
L 278.361551 117.414525 
L 278.821802 147.36331 
L 278.928014 146.619733 
L 279.24665 135.882974 
L 280.096346 71.49257 
L 280.48579 119.10349 
L 280.556598 120.346144 
L 281.406293 161.162341 
L 281.477101 161.006337 
L 281.512505 161.144196 
L 281.547909 161.717631 
L 281.583313 161.641868 
L 281.583313 161.641868 
L 281.618717 161.129566 
L 281.654121 161.565809 
L 282.326797 188.632475 
L 282.433009 188.095964 
L 282.751645 191.20256 
L 282.964069 195.683929 
L 282.999473 195.180953 
L 283.211897 193.369347 
L 283.353512 194.532804 
L 283.388916 194.465349 
L 283.530532 195.543906 
L 283.565936 195.515007 
L 283.672148 194.28116 
L 283.849168 191.292784 
L 284.096996 184.36399 
L 284.344824 174.364401 
L 284.805076 160.470182 
L 284.84048 160.960275 
L 284.982096 163.383925 
L 285.0175 163.347825 
L 285.088308 162.691364 
L 285.123712 163.170571 
L 285.159116 163.692096 
L 285.19452 163.60066 
L 285.300732 160.501529 
L 285.406944 158.217678 
L 285.442348 158.650526 
L 285.619368 160.550506 
L 285.938003 164.779408 
L 285.973407 164.488994 
L 287.849819 94.581451 
L 287.885223 95.420531 
L 288.203858 124.773164 
L 288.522494 141.323394 
L 288.593302 139.942631 
L 289.620018 85.451714 
L 289.655422 85.689546 
L 289.761634 92.511213 
L 290.151078 137.008075 
L 290.25729 138.852873 
L 291.319409 185.96497 
L 291.425621 183.397346 
L 291.496429 184.58727 
L 291.531833 184.778006 
L 291.673449 193.371856 
L 291.744257 192.310034 
L 291.921277 188.127437 
L 292.487741 201.756881 
L 292.629357 198.288842 
L 293.125012 186.661962 
L 293.19582 187.333528 
L 293.72688 196.61976 
L 293.762284 196.538027 
L 293.833092 196.199329 
L 293.868496 197.619191 
L 293.939304 196.796374 
L 293.974708 196.862612 
L 294.010112 197.372327 
L 294.045516 196.939755 
L 294.116324 194.602818 
L 294.187132 194.690588 
L 294.25794 195.254067 
L 294.293344 194.846952 
L 294.328748 194.029401 
L 294.399556 194.548128 
L 294.576576 195.665092 
L 294.895212 183.17401 
L 295.390867 150.441577 
L 296.452987 84.126269 
L 296.665411 106.713709 
L 296.736219 109.842985 
L 296.807027 108.7616 
L 297.869146 93.036887 
L 298.116974 109.692366 
L 298.187782 107.968883 
L 298.329398 109.081054 
L 298.364802 108.813496 
L 299.32071 101.494254 
L 299.745558 156.409115 
L 299.993386 163.650272 
L 300.135001 165.187347 
L 300.312021 168.42254 
L 300.347425 167.463798 
L 300.418233 168.026377 
L 300.807677 175.83975 
L 300.878485 174.968858 
L 301.020101 171.61487 
L 301.090909 172.296141 
L 301.338737 175.004027 
L 301.586565 180.54391 
L 302.188433 150.729117 
L 302.259241 151.927521 
L 302.684088 160.888418 
L 302.754896 161.382904 
L 302.861108 160.117472 
L 302.896512 160.279728 
L 303.073532 164.38544 
L 303.215148 167.549819 
L 303.32136 164.683964 
L 303.356764 165.216317 
L 303.462976 167.3853 
L 303.746208 174.050509 
L 303.817016 174.764168 
L 303.85242 174.354352 
L 303.887824 174.429945 
L 303.958632 175.922181 
L 304.171056 181.312677 
L 304.489692 185.380654 
L 304.525096 185.358349 
L 304.73752 183.585189 
L 304.772924 183.824862 
L 304.772924 183.824862 
L 304.772924 183.824862 
L 304.808328 183.39952 
L 304.843732 183.40301 
L 304.91454 184.172235 
L 304.949943 183.844965 
L 305.162367 181.960919 
L 305.197771 182.194877 
L 305.197771 182.194877 
L 305.197771 182.194877 
L 305.339387 181.18443 
L 305.374791 181.293029 
L 305.622619 178.931075 
L 306.012063 173.189295 
L 306.047467 174.072123 
L 306.082871 174.054092 
L 306.189083 175.60821 
L 306.224487 175.140238 
L 306.259891 175.001625 
L 306.366103 170.921595 
L 307.569838 131.508261 
L 309.09221 92.912927 
L 309.163018 102.315315 
L 309.375442 120.512885 
L 309.410846 120.561427 
L 309.44625 120.863372 
L 309.729482 139.395188 
L 310.012713 154.407245 
L 310.048117 154.567805 
L 310.118925 155.76056 
L 310.154329 154.91312 
L 310.189733 153.944646 
L 310.189733 153.944646 
L 310.189733 153.944646 
L 310.543773 162.95502 
L 310.579177 162.541146 
L 310.791601 167.55154 
L 310.897813 165.852924 
L 310.933217 166.111376 
L 310.968621 165.905922 
L 311.181045 175.516182 
L 311.216449 175.497727 
L 311.287257 175.168689 
L 311.322661 175.23624 
L 311.358065 176.378806 
L 311.358065 176.378806 
L 311.358065 176.378806 
L 311.499681 169.689719 
L 311.535085 170.210789 
L 311.782913 174.835425 
L 311.818317 174.915633 
L 312.136953 179.641008 
L 312.20776 179.498588 
L 312.349376 178.391968 
L 312.420184 178.874567 
L 312.597204 181.786111 
L 312.703416 183.555053 
L 312.73882 183.30635 
L 312.774224 183.445817 
L 312.845032 182.825478 
L 312.880436 183.033333 
L 312.951244 183.694681 
L 313.09286 186.091763 
L 313.128264 185.89267 
L 313.376092 181.468429 
L 313.482304 179.994311 
L 313.62392 178.661826 
L 313.659324 178.991783 
L 313.694728 178.665928 
L 314.084172 169.986556 
L 314.438212 161.677726 
L 314.686039 165.322848 
L 314.792251 163.505941 
L 314.827655 163.537941 
L 314.933867 162.010952 
L 315.217099 156.368937 
L 315.394119 156.969983 
L 315.535735 158.508603 
L 315.571139 158.261145 
L 315.854371 154.947241 
L 315.889775 155.103815 
L 315.960583 154.470752 
L 315.995987 154.541696 
L 316.137603 155.530193 
L 316.208411 154.825565 
L 316.279219 155.015736 
L 316.562451 156.751412 
L 316.633259 156.929615 
L 316.774875 158.77024 
L 316.810279 159.307836 
L 317.235126 145.613781 
L 317.305934 146.223193 
L 317.44755 147.597 
L 317.518358 147.285556 
L 317.553762 147.151348 
L 317.553762 147.151348 
L 317.553762 147.151348 
L 317.62457 147.871023 
L 317.659974 147.239235 
L 318.226438 127.795883 
L 318.297246 125.271153 
L 318.33265 127.092459 
L 318.86371 165.426744 
L 318.934518 162.968527 
L 319.146942 149.527969 
L 319.21775 150.86702 
L 319.430173 160.421307 
L 319.713405 174.654893 
L 319.784213 173.363772 
L 320.102849 152.445869 
L 320.740121 110.569846 
L 321.129565 158.355267 
L 321.448201 170.699732 
L 321.97926 158.801662 
L 322.050068 159.182283 
L 322.120876 158.389149 
L 322.15628 158.861991 
L 322.191684 158.76325 
L 322.368704 161.444928 
L 322.404108 160.732532 
L 322.474916 161.221787 
L 322.51032 160.981481 
L 322.722744 156.440467 
L 322.758148 155.409723 
L 322.828956 156.118685 
L 322.899764 156.716117 
L 323.076784 147.486081 
L 323.360016 137.469938 
L 324.457539 112.438416 
L 325.024003 99.485298 
L 325.307235 124.724997 
L 325.413447 126.814753 
L 325.484255 126.30928 
L 325.519659 126.031021 
L 326.156931 100.492268 
L 326.298547 114.602969 
L 326.404759 112.408678 
L 326.935818 98.788145 
L 327.289858 136.687178 
L 327.360666 142.301062 
L 327.537686 151.77529 
L 327.57309 152.140455 
L 327.608494 151.919725 
L 327.891726 139.644304 
L 327.92713 141.426353 
L 328.139554 149.969305 
L 328.174958 149.792641 
L 328.210362 150.41575 
L 328.245766 150.068649 
L 328.493594 146.43146 
L 328.528998 147.512413 
L 328.670614 151.066895 
L 328.953846 143.506759 
L 329.130865 149.309458 
L 329.732733 123.413045 
L 329.909753 114.817443 
L 329.945157 118.223231 
L 330.334601 155.53795 
L 330.582429 167.881705 
L 330.688641 166.560707 
L 330.724045 167.058494 
L 330.901065 170.858864 
L 331.184297 184.107914 
L 331.361317 178.626345 
L 331.432125 179.092622 
L 331.538336 181.659574 
L 331.57374 180.882656 
L 331.609144 180.680663 
L 332.069396 162.699058 
L 332.1048 162.94905 
L 332.1048 162.94905 
L 332.1048 162.94905 
L 332.140204 162.659071 
L 332.211012 164.150956 
L 332.246416 164.111868 
L 332.671264 146.514954 
L 332.883688 144.390388 
L 334.795503 85.998374 
L 334.901715 98.788978 
L 335.007927 106.587798 
L 335.043331 105.767077 
L 335.645199 83.057146 
L 335.680603 85.234456 
L 335.963835 111.867864 
L 336.282471 127.457047 
L 336.45949 135.573898 
L 336.494894 135.543962 
L 336.63651 130.63791 
L 336.848934 119.679274 
L 336.884338 120.114933 
L 336.919742 120.256239 
L 337.486206 98.730539 
L 337.981862 84.533988 
L 338.22969 126.885579 
L 338.265094 128.549921 
L 338.300498 127.901638 
L 338.40671 123.213239 
L 338.442114 123.500447 
L 338.58373 128.414556 
L 338.689942 134.114875 
L 338.725345 133.269618 
L 338.760749 132.07987 
L 338.796153 132.745993 
L 339.008577 141.508188 
L 339.043981 140.578747 
L 339.221001 136.781368 
L 339.504233 143.449073 
L 339.539637 141.346984 
L 339.575041 139.050532 
L 339.645849 139.585957 
L 339.858273 153.625671 
L 339.929081 151.153123 
L 340.035293 151.717988 
L 340.141505 153.843831 
L 340.495545 172.167232 
L 340.566353 173.411424 
L 340.601757 174.470557 
L 340.672565 173.744733 
L 340.707969 172.917867 
L 340.778777 173.3832 
L 341.239028 178.853056 
L 341.274432 178.536887 
L 341.593068 183.313881 
L 341.628472 182.57335 
L 341.628472 182.57335 
L 341.628472 182.57335 
L 341.663876 183.400758 
L 341.69928 182.757095 
L 342.05332 171.534384 
L 342.124128 171.155398 
L 342.513572 154.775524 
L 342.548976 154.462125 
L 342.58438 154.560032 
L 342.725996 156.235602 
L 342.7614 156.129228 
L 342.903016 156.56149 
L 342.973824 156.419719 
L 343.434076 162.842862 
L 343.540287 161.21008 
L 343.717307 162.869901 
L 343.752711 162.734183 
L 343.752711 162.734183 
L 343.752711 162.734183 
L 343.788115 163.024164 
L 343.788115 163.024164 
L 343.788115 163.024164 
L 343.894327 161.673592 
L 343.929731 162.425127 
L 343.965135 162.632094 
L 344.212963 169.393946 
L 344.248367 169.241032 
L 345.098063 149.873627 
L 346.089374 108.181032 
L 346.691242 83.001491 
L 346.93907 98.939162 
L 347.47013 103.341208 
L 347.788766 139.132041 
L 348.673865 169.915943 
L 348.744673 170.59427 
L 348.780077 170.269982 
L 348.815481 170.134496 
L 348.921693 171.355744 
L 348.957097 171.109539 
L 349.169521 165.959678 
L 349.240329 165.802007 
L 349.523561 152.604937 
L 349.629773 149.463486 
L 349.665177 149.635995 
L 349.700581 150.681904 
L 349.735985 149.908583 
L 349.877601 144.979604 
L 349.913005 147.1065 
L 350.125429 167.599252 
L 350.160833 166.97823 
L 350.373257 149.722663 
L 350.514873 135.348842 
L 350.585681 138.801369 
L 350.656489 142.30191 
L 350.691893 140.363858 
L 350.762701 135.783349 
L 350.798104 136.758902 
L 350.93972 145.821257 
L 350.975124 145.382339 
L 351.081336 140.66316 
L 351.11674 140.883752 
L 351.329164 151.667282 
L 351.435376 159.296762 
L 351.506184 157.979633 
L 351.683204 148.400596 
L 352.17886 118.8086 
L 352.214264 123.024864 
L 352.35588 130.729028 
L 352.391284 130.393473 
L 352.462092 128.213821 
L 352.5329 125.374194 
L 352.568304 126.541395 
L 352.851536 134.186162 
L 352.88694 133.511558 
L 352.957748 131.778396 
L 352.993152 132.317662 
L 353.134768 134.03808 
L 353.276383 131.683544 
L 353.311787 132.143084 
L 353.382595 133.310882 
L 353.630423 147.122095 
L 353.949059 161.056431 
L 354.692543 198.429467 
L 354.727947 198.213252 
L 355.329815 206.203181 
L 355.365219 205.7797 
L 355.365219 205.7797 
L 355.365219 205.7797 
L 356.073298 216.454714 
L 356.144106 216.062538 
L 356.604358 207.771775 
L 356.639762 207.510913 
L 356.71057 207.756925 
L 356.88759 209.14635 
L 356.922994 208.655308 
L 356.922994 208.655308 
L 356.922994 208.655308 
L 357.383246 214.0786 
L 357.41865 213.941473 
L 357.489458 215.667982 
L 357.560266 215.374491 
L 357.701882 210.981852 
L 357.914306 202.977441 
L 358.232941 188.051092 
L 358.339153 185.216326 
L 358.374557 186.302749 
L 358.409961 186.380686 
L 358.516173 185.119581 
L 358.551577 184.442741 
L 358.586981 184.66979 
L 358.622385 185.232882 
L 358.693193 184.711735 
L 358.764001 184.897699 
L 358.799405 184.767837 
L 358.976425 180.950953 
L 359.047233 181.252125 
L 359.153445 182.298293 
L 359.295061 184.830924 
L 359.330465 184.318884 
L 359.401273 182.801204 
L 359.967737 166.911985 
L 360.109353 158.519882 
L 361.029856 103.486297 
L 361.277684 135.154575 
L 361.313088 134.614023 
L 361.4193 129.739448 
L 361.490108 131.614751 
L 361.59632 136.93901 
L 361.631724 136.37802 
L 361.879552 130.528166 
L 361.95036 135.210127 
L 362.198188 154.710376 
L 362.233592 155.216594 
L 362.233592 155.216594 
L 362.233592 155.216594 
L 362.339804 152.779088 
L 362.446016 148.428131 
L 362.48142 149.001504 
L 362.552228 147.404972 
L 362.693844 138.558941 
L 363.401923 88.156806 
L 363.437327 88.461855 
L 364.039195 164.059485 
L 364.818083 197.59908 
L 365.349142 211.165648 
L 365.384546 211.503214 
L 365.526162 214.985694 
L 365.561566 214.816871 
L 365.632374 214.730896 
L 365.667778 214.391054 
L 365.738586 214.523063 
L 366.057222 221.728316 
L 366.163434 221.090336 
L 366.198838 220.934391 
L 366.234242 220.967718 
L 366.269646 221.159152 
L 366.375858 223.0618 
L 366.411262 222.765433 
L 366.48207 222.423834 
L 366.517474 222.483696 
L 366.729898 224.038195 
L 366.906918 225.265633 
L 366.942322 225.151918 
L 367.119342 221.979674 
L 367.296362 219.562219 
L 367.331766 219.356697 
L 367.331766 219.356697 
L 367.331766 219.356697 
L 367.36717 219.665886 
L 367.54419 217.894829 
L 367.650402 216.47698 
L 367.862825 212.462351 
L 368.110653 207.531528 
L 368.252269 207.758343 
L 368.287673 207.912282 
L 368.429289 210.370478 
L 368.500097 210.183738 
L 368.854137 206.311028 
L 369.137369 193.433491 
L 369.491409 176.467871 
L 369.703833 172.219352 
L 369.845449 168.216126 
L 370.022469 161.89753 
L 370.057873 162.771937 
L 370.376508 144.311058 
L 371.119992 95.567219 
L 371.155396 97.299029 
L 371.651052 152.493438 
L 372.0759 179.068587 
L 372.323728 184.008784 
L 372.359132 183.431582 
L 372.571555 181.57674 
L 372.606959 181.47075 
L 372.642363 180.242182 
L 372.713171 180.396869 
L 373.067211 186.804838 
L 373.102615 186.714501 
L 373.208827 182.982041 
L 373.633675 159.917227 
L 373.704483 158.197914 
L 373.739887 159.011863 
L 373.846099 160.098957 
L 373.881503 160.010444 
L 373.916907 159.783693 
L 374.200139 150.963744 
L 374.235543 151.781738 
L 374.589583 163.851643 
L 374.660391 164.921698 
L 374.695795 164.049048 
L 374.837411 162.108127 
L 375.510086 186.327176 
L 375.580894 185.986358 
L 375.651702 186.171011 
L 375.687106 185.727071 
L 375.72251 185.994168 
L 375.793318 187.884077 
L 376.07655 197.309392 
L 376.359782 208.840967 
L 376.749226 219.009929 
L 376.926246 223.231129 
L 377.032458 225.000013 
L 377.209478 230.638029 
L 377.421901 232.861516 
L 377.528113 231.168594 
L 377.563517 231.557124 
L 377.598921 231.479417 
L 377.634325 231.814316 
L 377.669729 231.724384 
L 377.952961 224.667616 
L 377.988365 224.969165 
L 377.988365 224.969165 
L 377.988365 224.969165 
L 378.094577 223.656975 
L 378.165385 223.685003 
L 378.271597 224.410332 
L 378.413213 223.304333 
L 378.554829 226.030641 
L 378.696445 225.6454 
L 378.767253 225.269811 
L 378.802657 225.395865 
L 379.192101 232.510735 
L 379.333717 230.791596 
L 379.404525 230.953656 
L 379.439929 231.139323 
L 379.439929 231.139323 
L 379.439929 231.139323 
L 379.475333 230.915395 
L 379.475333 230.915395 
L 379.475333 230.915395 
L 379.510737 231.235933 
L 379.510737 231.235933 
L 379.510737 231.235933 
L 379.546141 230.891345 
L 379.581545 231.143788 
L 379.616949 231.418527 
L 380.25422 212.882136 
L 380.43124 207.805334 
L 380.643664 200.099225 
L 381.351744 159.546183 
L 381.564168 153.068235 
L 381.599572 153.660353 
L 381.67038 153.988842 
L 382.272247 127.532689 
L 382.307651 128.557692 
L 382.555479 144.440484 
L 382.626287 142.809285 
L 383.228155 116.485854 
L 383.263559 117.065675 
L 383.334367 120.110776 
L 383.369771 119.84023 
L 383.936235 115.134755 
L 384.184063 132.347579 
L 384.361083 140.861644 
L 384.431891 140.275212 
L 384.502699 138.657522 
L 384.538103 139.841953 
L 384.96295 166.930533 
L 385.104566 167.817969 
L 385.31699 166.009707 
L 385.387798 167.825512 
L 385.529414 172.493361 
L 385.564818 172.200272 
L 385.67103 170.159935 
L 385.777242 172.971034 
L 385.812646 172.292016 
L 385.84805 171.866996 
L 386.20209 182.567476 
L 386.308302 182.050885 
L 386.37911 184.140581 
L 386.803958 201.646084 
L 386.839362 201.706666 
L 387.016381 204.909619 
L 387.830673 245.164863 
L 388.255521 253.095662 
L 388.290925 252.621622 
L 388.326329 252.840454 
L 388.361733 252.266961 
L 388.432541 252.287841 
L 388.538753 252.861767 
L 388.715773 251.852992 
L 388.751177 251.995546 
L 389.742488 220.622903 
L 389.884104 215.182303 
L 390.273548 195.644816 
L 390.308952 196.205477 
L 390.308952 196.205477 
L 390.308952 196.205477 
L 390.37976 195.306646 
L 390.415164 195.574428 
L 390.450568 195.736514 
L 390.485972 194.967908 
L 390.521376 195.694251 
L 390.981628 204.347825 
L 391.26486 210.416698 
L 391.937535 218.494426 
L 392.008343 217.827055 
L 392.043747 217.679173 
L 392.114555 217.737012 
L 392.149959 217.92228 
L 392.326979 211.942304 
L 392.468595 203.602957 
L 393.035059 158.545309 
L 393.247483 156.268848 
L 393.282887 156.222538 
L 393.353695 157.155385 
L 393.389099 156.675259 
L 393.530715 154.711566 
L 393.849351 144.802095 
L 394.486622 127.629105 
L 394.982278 160.253256 
L 395.08849 165.887422 
L 395.26551 172.219374 
L 395.407126 161.987982 
L 395.690358 141.199631 
L 395.79657 140.109876 
L 395.831974 140.247599 
L 395.867378 141.069253 
L 395.902782 140.626344 
L 395.938186 139.805813 
L 395.97359 140.105892 
L 395.97359 140.105892 
L 396.008994 140.714241 
L 396.044398 140.59423 
L 396.221418 136.92543 
L 396.50465 147.457611 
L 396.787881 159.580307 
L 396.858689 160.034903 
L 397.460557 181.258414 
L 397.495961 180.587959 
L 397.566769 180.985759 
L 397.743789 184.106516 
L 397.814597 182.71663 
L 398.133233 176.639219 
L 398.451869 183.867052 
L 398.487273 184.355391 
L 398.487273 184.355391 
" style="fill:none;stroke:#000000;stroke-linecap:square;stroke-width:1.5;"/>
   </g>
   <g id="line2d_14">
    <path clip-path="url(#p2c0e5b34e6)" d="M 73.832727 234.304431 
L 75.178079 234.066776 
L 76.52343 234.059906 
L 77.974994 234.284348 
L 79.816001 234.815706 
L 83.214783 235.835136 
L 84.489327 235.958636 
L 85.58685 235.843197 
L 86.578162 235.515664 
L 87.53407 234.966409 
L 88.525381 234.13063 
L 89.552097 232.960424 
L 90.64962 231.356026 
L 91.853356 229.178765 
L 93.198707 226.258633 
L 94.756483 222.319656 
L 96.809914 216.470315 
L 101.872684 201.784608 
L 103.465863 197.985026 
L 104.811214 195.333571 
L 105.979546 193.497997 
L 107.041666 192.22044 
L 108.032977 191.360302 
L 108.988885 190.817817 
L 109.944792 190.532243 
L 110.936104 190.469858 
L 112.069031 190.629214 
L 113.591403 191.090624 
L 116.636146 192.059928 
L 117.839881 192.179387 
L 118.902001 192.065645 
L 119.928716 191.72831 
L 120.955432 191.152156 
L 122.052955 190.274454 
L 123.292095 188.986157 
L 124.779062 187.102431 
L 127.221937 183.581355 
L 129.629408 180.243656 
L 131.116376 178.545934 
L 132.390919 177.415865 
L 133.559251 176.67278 
L 134.692178 176.217619 
L 135.86051 175.994127 
L 137.170457 175.976385 
L 139.223888 176.207274 
L 141.241915 176.356678 
L 142.516459 176.230259 
L 143.649386 175.901516 
L 144.782314 175.338369 
L 145.986049 174.478132 
L 147.331401 173.22763 
L 149.1016 171.249752 
L 152.641999 167.227514 
L 153.951946 166.109914 
L 155.04947 165.447992 
L 156.076185 165.08546 
L 157.067497 164.976519 
L 158.058808 165.092396 
L 159.191736 165.460672 
L 160.643299 166.19052 
L 163.75885 167.831159 
L 164.856374 168.115033 
L 165.776877 168.12968 
L 166.626573 167.927495 
L 167.476268 167.497333 
L 168.361368 166.797088 
L 169.35268 165.71324 
L 170.485607 164.120909 
L 171.901767 161.711477 
L 176.858325 152.880713 
L 177.920444 151.623642 
L 178.840948 150.868039 
L 179.655239 150.480337 
L 180.398723 150.361256 
L 181.142207 150.460905 
L 181.956498 150.804334 
L 182.877002 151.448438 
L 184.045334 152.559076 
L 187.65654 156.204975 
L 188.506236 156.656975 
L 189.214315 156.799679 
L 189.851587 156.71484 
L 190.488859 156.406058 
L 191.161535 155.81952 
L 191.869614 154.899707 
L 192.683906 153.451032 
L 193.60441 151.320807 
L 194.666529 148.260118 
L 195.976477 143.742017 
L 197.888292 136.235215 
L 200.508187 126.082298 
L 201.78273 122.037333 
L 202.774042 119.584182 
L 203.588333 118.114793 
L 204.261009 117.308257 
L 204.862877 116.914545 
L 205.393937 116.829513 
L 205.889593 116.972584 
L 206.420652 117.361217 
L 207.02252 118.087613 
L 207.7306 119.310816 
L 208.580295 121.258434 
L 209.607011 124.20177 
L 210.987766 128.889955 
L 214.917609 142.639791 
L 215.979728 145.401036 
L 216.864828 147.128474 
L 217.608312 148.119765 
L 218.245583 148.611798 
L 218.776643 148.762265 
L 219.307703 148.675095 
L 219.838763 148.35273 
L 220.440631 147.710231 
L 221.14871 146.595003 
L 221.963002 144.871127 
L 222.954313 142.223147 
L 224.264261 138.027136 
L 229.150011 121.649901 
L 230.176726 119.281615 
L 231.026422 117.83629 
L 231.734502 117.023241 
L 232.371774 116.609447 
L 232.938237 116.499493 
L 233.469297 116.617453 
L 234.035761 116.975904 
L 234.673033 117.657925 
L 235.416516 118.808552 
L 236.266212 120.557279 
L 237.292928 123.212572 
L 238.567471 127.17399 
L 240.33767 133.482027 
L 245.258824 151.404392 
L 247.029023 156.81197 
L 248.657607 161.092557 
L 250.250786 164.671112 
L 251.879369 167.786499 
L 253.543357 170.490425 
L 255.17194 172.726303 
L 256.694311 174.452642 
L 258.039663 175.652761 
L 259.207994 176.405022 
L 260.23471 176.809756 
L 261.155214 176.942276 
L 262.040313 176.846327 
L 262.925413 176.51857 
L 263.810513 175.951788 
L 264.76642 175.068591 
L 265.82854 173.765208 
L 267.032275 171.910713 
L 268.448435 169.29919 
L 270.466462 165.055423 
L 274.00686 157.583004 
L 275.529232 154.925097 
L 276.803775 153.131377 
L 277.936703 151.908164 
L 278.998822 151.084299 
L 280.025538 150.571356 
L 281.052253 150.308092 
L 282.149777 150.256192 
L 283.495128 150.428857 
L 285.938003 151.025943 
L 287.885223 151.390301 
L 289.37219 151.442224 
L 290.823753 151.263567 
L 292.452337 150.828388 
L 297.161067 149.408039 
L 298.364802 149.369018 
L 299.462326 149.550573 
L 300.559849 149.962777 
L 301.692777 150.633059 
L 302.96732 151.661161 
L 304.525096 153.225439 
L 309.056806 157.975801 
L 310.189733 158.737777 
L 311.145641 159.122884 
L 311.995337 159.235134 
L 312.809628 159.12076 
L 313.62392 158.779648 
L 314.473616 158.178281 
L 315.394119 157.248309 
L 316.420835 155.888133 
L 317.62457 153.906623 
L 319.111538 150.998464 
L 321.377393 146.004268 
L 324.386731 139.467476 
L 325.979911 136.543825 
L 327.289858 134.580408 
L 328.45819 133.213027 
L 329.520309 132.300359 
L 330.511621 131.733885 
L 331.467529 131.441066 
L 332.423436 131.384129 
L 333.414748 131.557361 
L 334.476867 131.980808 
L 335.645199 132.699095 
L 336.955146 133.777973 
L 338.442114 135.30043 
L 340.141505 137.371482 
L 342.017916 140.023237 
L 344.000539 143.223144 
L 346.124778 147.090757 
L 348.496845 151.894542 
L 352.426688 160.468096 
L 355.223603 166.30832 
L 357.100014 169.735311 
L 358.693193 172.199651 
L 360.144757 174.043676 
L 361.490108 175.405674 
L 362.83546 176.461863 
L 364.287023 177.315365 
L 366.021818 178.065281 
L 370.872164 180.005559 
L 372.536151 181.012115 
L 374.270947 182.328014 
L 376.572206 184.379827 
L 379.793968 187.233083 
L 381.280936 188.246347 
L 382.484671 188.8139 
L 383.582195 189.090925 
L 384.60891 189.121143 
L 385.635626 188.921626 
L 386.697746 188.478039 
L 387.830673 187.757307 
L 389.140621 186.652581 
L 390.875416 184.873904 
L 395.123894 180.394134 
L 396.50465 179.326604 
L 397.672981 178.688467 
L 398.487273 178.40518 
L 398.487273 178.40518 
" style="fill:none;stroke:#008000;stroke-linecap:square;stroke-width:2;"/>
   </g>
   <g id="line2d_15">
    <path clip-path="url(#p2c0e5b34e6)" d="M 73.832727 231.331095 
L 74.328383 229.103965 
L 74.647019 228.477048 
L 74.824039 228.464372 
L 75.001059 228.712371 
L 75.248887 229.515192 
L 75.602927 231.588632 
L 76.063178 235.784475 
L 76.806662 245.010512 
L 77.833378 257.411755 
L 78.293629 260.619577 
L 78.576861 261.426671 
L 78.718477 261.4583 
L 78.860093 261.233152 
L 79.072517 260.409784 
L 79.391153 258.103469 
L 79.816001 253.206767 
L 80.488677 242.37314 
L 81.798624 220.917145 
L 82.258876 216.676708 
L 82.577512 215.373118 
L 82.754532 215.265345 
L 82.896148 215.497268 
L 83.108571 216.363415 
L 83.427207 218.758086 
L 83.887459 224.178273 
L 84.701751 237.012787 
L 85.622254 250.538433 
L 86.11791 255.122592 
L 86.47195 256.81651 
L 86.719778 257.198711 
L 86.861394 257.132183 
L 87.073818 256.670816 
L 87.392454 255.260877 
L 87.888109 251.799958 
L 89.445885 239.982671 
L 89.906137 238.295156 
L 90.260176 237.726648 
L 90.543408 237.644082 
L 90.862044 237.81737 
L 91.71174 238.395441 
L 91.959568 238.267658 
L 92.2428 237.822067 
L 92.596839 236.756814 
L 93.057091 234.553193 
L 94.083807 228.045371 
L 94.614867 225.612778 
L 94.898099 225.09628 
L 95.075118 225.135188 
L 95.252138 225.484756 
L 95.499966 226.531149 
L 95.854006 229.191687 
L 96.314258 234.608246 
L 97.022338 246.127205 
L 98.155265 264.550068 
L 98.615517 268.702745 
L 98.898749 269.642517 
L 99.004961 269.640914 
L 99.146577 269.327133 
L 99.359001 268.180257 
L 99.677637 264.955743 
L 100.102484 258.063771 
L 100.739756 243.535916 
L 102.19132 209.292182 
L 102.651571 203.540442 
L 102.934803 202.037506 
L 103.076419 201.907206 
L 103.182631 202.084122 
L 103.359651 202.898253 
L 103.642883 205.509641 
L 104.032327 211.497835 
L 104.598791 224.046209 
L 106.439798 267.666458 
L 106.90005 272.905704 
L 107.218685 274.457929 
L 107.395705 274.586467 
L 107.537321 274.324676 
L 107.749745 273.354346 
L 108.068381 270.715056 
L 108.528633 264.853688 
L 109.342925 251.062095 
L 110.582064 230.70888 
L 111.25474 223.102137 
L 111.821204 219.008761 
L 112.281455 217.131139 
L 112.635495 216.48964 
L 112.883323 216.431273 
L 113.095747 216.631167 
L 113.378979 217.256617 
L 113.733019 218.628566 
L 114.193271 221.44308 
L 114.72433 226.222973 
L 115.361602 234.105006 
L 116.352914 249.621553 
L 117.344225 264.143966 
L 117.839881 268.611124 
L 118.158517 269.907269 
L 118.335537 270.015283 
L 118.477153 269.76999 
L 118.689577 268.837257 
L 119.008213 266.170319 
L 119.43306 260.386966 
L 120.034928 248.725132 
L 121.698915 214.657959 
L 122.123763 210.566191 
L 122.371591 209.658574 
L 122.477803 209.621899 
L 122.513207 209.657095 
L 122.654823 210.034658 
L 122.902651 211.59369 
L 123.256691 215.689157 
L 123.752347 224.504186 
L 124.885274 250.390361 
L 125.55795 262.575225 
L 125.982798 266.810048 
L 126.230626 267.757373 
L 126.336838 267.803701 
L 126.372241 267.770965 
L 126.513857 267.400356 
L 126.761685 265.847919 
L 127.115725 261.771111 
L 127.611381 253.054737 
L 129.664812 213.25598 
L 130.018852 211.042714 
L 130.231276 210.766667 
L 130.372892 211.023092 
L 130.585316 212.052471 
L 130.903952 214.960295 
L 131.364203 221.621213 
L 132.143091 236.944161 
L 133.240615 257.707557 
L 133.771674 263.946763 
L 134.161118 266.272689 
L 134.408946 266.729283 
L 134.550562 266.643394 
L 134.727582 266.198094 
L 135.010814 264.762406 
L 135.435662 261.189788 
L 136.108337 253.199715 
L 137.736921 233.202501 
L 138.374193 228.130163 
L 138.940656 225.271388 
L 139.400908 223.945652 
L 139.790352 223.39943 
L 140.108988 223.281002 
L 140.427624 223.420842 
L 140.781664 223.85517 
L 141.206511 224.756623 
L 141.702167 226.362998 
L 142.268631 229.013325 
L 142.905903 233.124153 
L 143.720194 239.988199 
L 145.879837 259.127631 
L 146.375493 261.419082 
L 146.729533 262.164806 
L 146.941957 262.222855 
L 147.154381 261.97865 
L 147.437613 261.178152 
L 147.791653 259.423768 
L 148.287308 255.641805 
L 148.92458 248.8463 
L 149.9867 234.623015 
L 151.190435 219.206238 
L 151.792303 213.979102 
L 152.217151 211.91998 
L 152.500383 211.430683 
L 152.641999 211.470199 
L 152.819019 211.794684 
L 153.066846 212.770964 
L 153.420886 215.223262 
L 153.881138 220.195002 
L 154.51841 229.922091 
L 155.828357 254.693574 
L 156.607245 267.00532 
L 157.102901 271.86616 
L 157.456941 273.467403 
L 157.633961 273.628999 
L 157.775576 273.44319 
L 157.988 272.637721 
L 158.306636 270.26625 
L 158.731484 265.081325 
L 159.333352 254.51695 
L 161.528399 212.394328 
L 161.953247 208.85572 
L 162.236479 207.902258 
L 162.378095 207.859945 
L 162.519711 208.106421 
L 162.732134 209.008049 
L 163.05077 211.502608 
L 163.511022 217.252932 
L 164.183698 228.987129 
L 165.883089 259.869903 
L 166.378745 264.999463 
L 166.732785 266.893924 
L 166.980613 267.289326 
L 167.122229 267.169701 
L 167.334653 266.527474 
L 167.617884 264.841646 
L 168.042732 260.702408 
L 168.6446 252.236548 
L 170.804243 219.341954 
L 171.229091 216.424344 
L 171.512323 215.573961 
L 171.689343 215.504222 
L 171.866363 215.790064 
L 172.114191 216.776188 
L 172.46823 219.307544 
L 172.963886 224.778864 
L 173.742774 236.40566 
L 175.052721 255.877185 
L 175.583781 260.787584 
L 175.973225 262.642007 
L 176.221053 262.986586 
L 176.362669 262.888617 
L 176.575093 262.346191 
L 176.858325 260.914823 
L 177.283172 257.401902 
L 177.88504 250.269631 
L 179.867663 225.092684 
L 180.363319 221.932303 
L 180.717359 220.883421 
L 180.929783 220.739458 
L 181.106803 220.888168 
L 181.354631 221.485072 
L 181.708671 223.051429 
L 182.204326 226.399828 
L 183.018618 233.697313 
L 184.576393 247.735217 
L 185.319877 252.440602 
L 185.886341 254.769763 
L 186.311189 255.728892 
L 186.629825 255.971746 
L 186.842248 255.893831 
L 187.090076 255.549314 
L 187.408712 254.688392 
L 187.83356 252.780321 
L 188.329216 249.440871 
L 188.966488 243.507977 
L 189.993203 231.45306 
L 190.984515 220.684408 
L 191.480171 217.330429 
L 191.798806 216.302756 
L 192.01123 216.186001 
L 192.18825 216.45868 
L 192.436078 217.423177 
L 192.754714 219.66712 
L 193.179562 224.336876 
L 193.78143 233.688548 
L 195.799457 267.583918 
L 196.188901 270.345352 
L 196.436728 270.974744 
L 196.578344 270.919174 
L 196.755364 270.419163 
L 197.003192 268.921072 
L 197.357232 265.23479 
L 197.852888 257.404335 
L 198.66718 240.205183 
L 199.800107 216.992482 
L 200.331167 210.234699 
L 200.685207 207.975149 
L 200.897631 207.557253 
L 201.003843 207.615523 
L 201.180862 208.104733 
L 201.42869 209.589932 
L 201.78273 213.213774 
L 202.31379 221.380469 
L 203.340506 241.777314 
L 204.190201 256.73522 
L 204.721261 262.710179 
L 205.110705 264.947755 
L 205.358533 265.391351 
L 205.500149 265.310771 
L 205.677169 264.882954 
L 205.960401 263.495026 
L 206.385248 260.026438 
L 207.057924 252.273214 
L 208.438679 236.136404 
L 209.005143 232.094718 
L 209.429991 230.423638 
L 209.748627 229.880592 
L 209.996455 229.81646 
L 210.244283 230.005143 
L 210.633727 230.657296 
L 211.872866 232.971604 
L 212.191502 233.111514 
L 212.474734 233.007515 
L 212.828774 232.604714 
L 213.466045 231.430696 
L 214.032509 230.548758 
L 214.315741 230.422096 
L 214.528165 230.543665 
L 214.775993 230.971911 
L 215.094629 232.042972 
L 215.484073 234.222533 
L 215.979728 238.380896 
L 216.687808 246.454743 
L 218.068563 262.42703 
L 218.528815 265.261635 
L 218.812047 265.918103 
L 218.953663 265.899868 
L 219.130683 265.538446 
L 219.378511 264.389932 
L 219.732551 261.465134 
L 220.192803 255.588085 
L 220.900882 243.151868 
L 222.38785 216.256097 
L 222.883506 211.059842 
L 223.237545 209.265436 
L 223.449969 209.010405 
L 223.591585 209.184636 
L 223.804009 209.952399 
L 224.122645 212.186233 
L 224.547493 216.942862 
L 225.220169 227.42339 
L 226.777944 252.630308 
L 227.344408 258.135378 
L 227.769255 260.354166 
L 228.052487 260.943131 
L 228.229507 260.977205 
L 228.406527 260.776962 
L 228.689759 260.026567 
L 229.114607 258.116636 
L 229.893495 253.305887 
L 231.061826 246.336394 
L 232.053138 241.893662 
L 233.009045 237.409486 
L 233.717125 232.90834 
L 234.779245 224.409231 
L 235.62894 218.34002 
L 236.053788 216.575003 
L 236.33702 216.127126 
L 236.51404 216.192308 
L 236.726464 216.650046 
L 237.009696 217.937485 
L 237.399139 221.001585 
L 237.894795 226.976291 
L 238.602875 238.727488 
L 240.373074 269.660782 
L 240.86873 274.325284 
L 241.187366 275.701124 
L 241.364386 275.871116 
L 241.506002 275.694435 
L 241.718426 274.907347 
L 242.037062 272.573988 
L 242.461909 267.451959 
L 243.028373 257.643322 
L 244.090493 234.362251 
L 245.081804 214.467861 
L 245.648268 206.884571 
L 246.073116 203.735185 
L 246.356348 202.953524 
L 246.497964 202.964172 
L 246.674984 203.350188 
L 246.922812 204.569104 
L 247.276851 207.604869 
L 247.772507 214.087027 
L 248.515991 227.263891 
L 250.250786 259.097338 
L 250.852654 265.961117 
L 251.277502 268.74512 
L 251.596138 269.671762 
L 251.773158 269.766357 
L 251.950177 269.573042 
L 252.198005 268.84477 
L 252.552045 266.964275 
L 253.047701 262.958748 
L 253.826589 254.54939 
L 256.127848 228.676549 
L 257.119159 220.358627 
L 257.862643 215.72608 
L 258.358299 213.754145 
L 258.712339 213.100837 
L 258.924763 213.077059 
L 259.137186 213.366681 
L 259.420418 214.289906 
L 259.774458 216.388484 
L 260.199306 220.391012 
L 260.730366 227.686896 
L 261.438446 240.797851 
L 263.279453 276.61247 
L 263.704301 280.780813 
L 263.987532 281.972712 
L 264.129148 282.047342 
L 264.270764 281.761829 
L 264.483188 280.648338 
L 264.801824 277.442348 
L 265.226672 270.450761 
L 265.82854 256.151744 
L 267.952779 201.155219 
L 268.377627 196.607061 
L 268.625455 195.62373 
L 268.731667 195.589225 
L 268.76707 195.629264 
L 268.908686 196.045231 
L 269.156514 197.73727 
L 269.510554 202.149541 
L 270.00621 211.658276 
L 270.855906 233.343098 
L 271.953429 260.128533 
L 272.519893 269.05105 
L 272.944741 272.630193 
L 273.227973 273.474749 
L 273.369589 273.447145 
L 273.546609 273.009775 
L 273.794436 271.691797 
L 274.18388 268.155013 
L 274.750344 260.579007 
L 277.370239 222.111462 
L 277.936703 217.930831 
L 278.361551 216.189084 
L 278.644782 215.715483 
L 278.821802 215.706026 
L 278.998822 215.921453 
L 279.24665 216.608151 
L 279.60069 218.385865 
L 280.025538 221.778763 
L 280.556598 227.924379 
L 281.264677 238.996232 
L 283.282704 272.467886 
L 283.672148 275.237922 
L 283.919976 275.794876 
L 284.026188 275.719836 
L 284.203208 275.158677 
L 284.451036 273.435573 
L 284.805076 269.070707 
L 285.265328 260.243605 
L 285.938003 242.324137 
L 287.531183 197.950488 
L 287.991435 191.21794 
L 288.274666 189.455601 
L 288.416282 189.313914 
L 288.522494 189.539299 
L 288.699514 190.550352 
L 288.982746 193.802221 
L 289.37219 201.379186 
L 289.90325 216.586668 
L 290.965369 255.383857 
L 291.779661 281.410462 
L 292.275317 291.389125 
L 292.629357 294.901872 
L 292.841781 295.460788 
L 292.947992 295.301754 
L 293.125012 294.396055 
L 293.408244 291.339935 
L 293.797688 284.194653 
L 294.364152 268.993784 
L 296.594603 203.601534 
L 297.054855 197.604514 
L 297.373491 195.727251 
L 297.550511 195.472752 
L 297.656723 195.580348 
L 297.833742 196.175425 
L 298.116974 198.136607 
L 298.506418 202.601196 
L 299.108286 212.500379 
L 301.834393 261.501382 
L 302.436261 267.35809 
L 302.896512 270.063844 
L 303.250552 271.049644 
L 303.462976 271.169615 
L 303.639996 270.994139 
L 303.887824 270.322276 
L 304.20646 268.721677 
L 304.631308 265.305815 
L 305.162367 259.078775 
L 305.905851 247.352265 
L 307.888474 214.256194 
L 308.348726 210.229923 
L 308.667362 208.916664 
L 308.844382 208.749196 
L 308.985998 208.910396 
L 309.198422 209.64349 
L 309.517058 211.819484 
L 309.941905 216.561526 
L 310.543773 226.086004 
L 312.38478 257.184159 
L 312.845032 261.043898 
L 313.163668 262.19897 
L 313.340688 262.288866 
L 313.482304 262.081371 
L 313.694728 261.320759 
L 314.013364 259.242549 
L 314.473616 254.586583 
L 315.323311 243.155411 
L 316.208411 232.18583 
L 316.704067 228.390064 
L 317.058106 227.126764 
L 317.27053 226.987361 
L 317.44755 227.224023 
L 317.695378 228.074383 
L 318.049418 230.249478 
L 318.580478 235.190692 
L 320.456889 254.303277 
L 320.846333 255.826322 
L 321.058757 256.064976 
L 321.200373 255.983114 
L 321.412797 255.498158 
L 321.696029 254.190341 
L 322.085472 251.247578 
L 322.651936 245.040952 
L 324.882387 218.156315 
L 325.307235 216.122699 
L 325.555063 215.704139 
L 325.696679 215.727477 
L 325.873699 216.025898 
L 326.121527 216.93976 
L 326.475567 219.207442 
L 326.971222 224.084263 
L 327.679302 233.645726 
L 329.768137 263.417982 
L 330.299197 267.589398 
L 330.688641 269.134124 
L 330.936469 269.397266 
L 331.078085 269.290266 
L 331.290509 268.777804 
L 331.57374 267.444027 
L 331.963184 264.441635 
L 332.494244 258.373864 
L 333.237728 246.927737 
L 335.361967 212.422478 
L 335.893027 207.766652 
L 336.247067 206.261236 
L 336.45949 206.027535 
L 336.601106 206.159024 
L 336.81353 206.790587 
L 337.096762 208.437186 
L 337.486206 212.143571 
L 338.017266 219.591203 
L 338.796153 234.06779 
L 340.353929 263.428527 
L 340.920393 269.966257 
L 341.309836 272.313403 
L 341.557664 272.813094 
L 341.69928 272.745981 
L 341.8763 272.304539 
L 342.159532 270.795678 
L 342.548976 267.226817 
L 343.080036 260.057542 
L 344.106751 242.326464 
L 345.027255 228.070408 
L 345.558315 222.77504 
L 345.947759 220.703375 
L 346.195586 220.217631 
L 346.337202 220.224415 
L 346.514222 220.511284 
L 346.797454 221.567505 
L 347.186898 224.042418 
L 347.859574 230.099765 
L 348.921693 239.502865 
L 349.381945 241.823006 
L 349.700581 242.480841 
L 349.877601 242.490233 
L 350.054621 242.247693 
L 350.337853 241.361741 
L 350.727297 239.272703 
L 351.399972 234.18059 
L 352.249668 228.157432 
L 352.639112 226.782764 
L 352.851536 226.615814 
L 352.993152 226.765257 
L 353.205575 227.406688 
L 353.488807 229.073042 
L 353.878251 232.883993 
L 354.409311 240.649872 
L 355.294411 257.639785 
L 356.214914 273.912854 
L 356.675166 278.722609 
L 356.958398 279.998813 
L 357.100014 280.093224 
L 357.24163 279.806882 
L 357.454054 278.645234 
L 357.737286 275.716322 
L 358.126729 269.185873 
L 358.657789 256.165883 
L 359.542889 227.916923 
L 360.605008 195.847192 
L 361.136068 185.855166 
L 361.490108 182.603224 
L 361.702532 182.10231 
L 361.808744 182.270781 
L 361.985764 183.173484 
L 362.268996 186.209113 
L 362.65844 193.396967 
L 363.189499 207.961871 
L 364.110003 240.779508 
L 365.172123 276.528674 
L 365.738586 289.07059 
L 366.163434 294.200514 
L 366.446666 295.447064 
L 366.552878 295.468437 
L 366.694494 295.127088 
L 366.906918 293.848609 
L 367.225554 290.322896 
L 367.685805 282.305381 
L 368.393885 265.306562 
L 370.234892 219.346457 
L 370.907568 208.641682 
L 371.438628 203.386056 
L 371.863476 201.123965 
L 372.146708 200.505118 
L 372.323728 200.457247 
L 372.500747 200.658408 
L 372.748575 201.342099 
L 373.102615 203.098068 
L 373.562867 206.696429 
L 374.129331 213.114806 
L 374.802007 223.524659 
L 375.651702 240.50528 
L 377.705133 283.51779 
L 378.200789 288.946634 
L 378.519425 290.430616 
L 378.661041 290.527979 
L 378.802657 290.26385 
L 379.015081 289.175249 
L 379.298313 286.419945 
L 379.687757 280.254401 
L 380.218816 267.858829 
L 381.033108 242.657581 
L 382.378459 201.090565 
L 382.944923 190.065225 
L 383.334367 186.092159 
L 383.582195 185.236074 
L 383.688407 185.273219 
L 383.830023 185.697085 
L 384.077851 187.446047 
L 384.431891 192.042131 
L 384.927546 202.054746 
L 385.67103 222.373364 
L 387.193401 264.560045 
L 387.795269 275.127393 
L 388.220117 279.406499 
L 388.538753 280.831555 
L 388.715773 280.980569 
L 388.857389 280.782766 
L 389.069813 279.983137 
L 389.388448 277.740469 
L 389.8487 272.617783 
L 390.521376 262.276319 
L 392.928847 222.866633 
L 393.566119 216.769407 
L 394.026371 214.173165 
L 394.38041 213.268287 
L 394.592834 213.187039 
L 394.769854 213.382321 
L 395.017682 214.050677 
L 395.371722 215.775992 
L 395.831974 219.265285 
L 396.469246 225.999924 
L 398.487273 251.007076 
L 398.487273 251.007076 
" style="fill:none;stroke:#0000ff;stroke-linecap:square;stroke-width:2;"/>
   </g>
   <g id="patch_3">
    <path d="M 57.6 307.584 
L 57.6 41.472 
" style="fill:none;stroke:#000000;stroke-linecap:square;stroke-linejoin:miter;stroke-width:0.8;"/>
   </g>
   <g id="patch_4">
    <path d="M 414.72 307.584 
L 414.72 41.472 
" style="fill:none;stroke:#000000;stroke-linecap:square;stroke-linejoin:miter;stroke-width:0.8;"/>
   </g>
   <g id="patch_5">
    <path d="M 57.6 307.584 
L 414.72 307.584 
" style="fill:none;stroke:#000000;stroke-linecap:square;stroke-linejoin:miter;stroke-width:0.8;"/>
   </g>
   <g id="patch_6">
    <path d="M 57.6 41.472 
L 414.72 41.472 
" style="fill:none;stroke:#000000;stroke-linecap:square;stroke-linejoin:miter;stroke-width:0.8;"/>
   </g>
   <g id="legend_1">
    <g id="patch_7">
     <path d="M 68.8 124.727 
L 282.0175 124.727 
Q 285.2175 124.727 285.2175 121.527 
L 285.2175 52.672 
Q 285.2175 49.472 282.0175 49.472 
L 68.8 49.472 
Q 65.6 49.472 65.6 52.672 
L 65.6 121.527 
Q 65.6 124.727 68.8 124.727 
z
" style="fill:#ffffff;opacity:0.8;stroke:#cccccc;stroke-linejoin:miter;"/>
    </g>
    <g id="line2d_16">
     <path d="M 72 62.4295 
L 104 62.4295 
" style="fill:none;stroke:#000000;stroke-linecap:square;stroke-width:1.5;"/>
    </g>
    <g id="line2d_17"/>
    <g id="text_15">
     <!-- Membrane potential -->
     <defs>
      <path d="M 9.8125 72.90625 
L 24.515625 72.90625 
L 43.109375 23.296875 
L 61.8125 72.90625 
L 76.515625 72.90625 
L 76.515625 0 
L 66.890625 0 
L 66.890625 64.015625 
L 48.09375 14.015625 
L 38.1875 14.015625 
L 19.390625 64.015625 
L 19.390625 0 
L 9.8125 0 
z
" id="DejaVuSans-4d"/>
      <path d="M 48.6875 27.296875 
Q 48.6875 37.203125 44.609375 42.84375 
Q 40.53125 48.484375 33.40625 48.484375 
Q 26.265625 48.484375 22.1875 42.84375 
Q 18.109375 37.203125 18.109375 27.296875 
Q 18.109375 17.390625 22.1875 11.75 
Q 26.265625 6.109375 33.40625 6.109375 
Q 40.53125 6.109375 44.609375 11.75 
Q 48.6875 17.390625 48.6875 27.296875 
z
M 18.109375 46.390625 
Q 20.953125 51.265625 25.265625 53.625 
Q 29.59375 56 35.59375 56 
Q 45.5625 56 51.78125 48.09375 
Q 58.015625 40.1875 58.015625 27.296875 
Q 58.015625 14.40625 51.78125 6.484375 
Q 45.5625 -1.421875 35.59375 -1.421875 
Q 29.59375 -1.421875 25.265625 0.953125 
Q 20.953125 3.328125 18.109375 8.203125 
L 18.109375 0 
L 9.078125 0 
L 9.078125 75.984375 
L 18.109375 75.984375 
z
" id="DejaVuSans-62"/>
      <path d="M 41.109375 46.296875 
Q 39.59375 47.171875 37.8125 47.578125 
Q 36.03125 48 33.890625 48 
Q 26.265625 48 22.1875 43.046875 
Q 18.109375 38.09375 18.109375 28.8125 
L 18.109375 0 
L 9.078125 0 
L 9.078125 54.6875 
L 18.109375 54.6875 
L 18.109375 46.1875 
Q 20.953125 51.171875 25.484375 53.578125 
Q 30.03125 56 36.53125 56 
Q 37.453125 56 38.578125 55.875 
Q 39.703125 55.765625 41.0625 55.515625 
z
" id="DejaVuSans-72"/>
      <path d="M 54.890625 33.015625 
L 54.890625 0 
L 45.90625 0 
L 45.90625 32.71875 
Q 45.90625 40.484375 42.875 44.328125 
Q 39.84375 48.1875 33.796875 48.1875 
Q 26.515625 48.1875 22.3125 43.546875 
Q 18.109375 38.921875 18.109375 30.90625 
L 18.109375 0 
L 9.078125 0 
L 9.078125 54.6875 
L 18.109375 54.6875 
L 18.109375 46.1875 
Q 21.34375 51.125 25.703125 53.5625 
Q 30.078125 56 35.796875 56 
Q 45.21875 56 50.046875 50.171875 
Q 54.890625 44.34375 54.890625 33.015625 
z
" id="DejaVuSans-6e"/>
      <path d="M 18.109375 8.203125 
L 18.109375 -20.796875 
L 9.078125 -20.796875 
L 9.078125 54.6875 
L 18.109375 54.6875 
L 18.109375 46.390625 
Q 20.953125 51.265625 25.265625 53.625 
Q 29.59375 56 35.59375 56 
Q 45.5625 56 51.78125 48.09375 
Q 58.015625 40.1875 58.015625 27.296875 
Q 58.015625 14.40625 51.78125 6.484375 
Q 45.5625 -1.421875 35.59375 -1.421875 
Q 29.59375 -1.421875 25.265625 0.953125 
Q 20.953125 3.328125 18.109375 8.203125 
z
M 48.6875 27.296875 
Q 48.6875 37.203125 44.609375 42.84375 
Q 40.53125 48.484375 33.40625 48.484375 
Q 26.265625 48.484375 22.1875 42.84375 
Q 18.109375 37.203125 18.109375 27.296875 
Q 18.109375 17.390625 22.1875 11.75 
Q 26.265625 6.109375 33.40625 6.109375 
Q 40.53125 6.109375 44.609375 11.75 
Q 48.6875 17.390625 48.6875 27.296875 
z
" id="DejaVuSans-70"/>
     </defs>
     <g transform="translate(116.8 68.0295)scale(0.16 -0.16)">
      <use xlink:href="#DejaVuSans-4d"/>
      <use x="86.279297" xlink:href="#DejaVuSans-65"/>
      <use x="147.802734" xlink:href="#DejaVuSans-6d"/>
      <use x="245.214844" xlink:href="#DejaVuSans-62"/>
      <use x="308.691406" xlink:href="#DejaVuSans-72"/>
      <use x="349.804688" xlink:href="#DejaVuSans-61"/>
      <use x="411.083984" xlink:href="#DejaVuSans-6e"/>
      <use x="474.462891" xlink:href="#DejaVuSans-65"/>
      <use x="535.986328" xlink:href="#DejaVuSans-20"/>
      <use x="567.773438" xlink:href="#DejaVuSans-70"/>
      <use x="631.25" xlink:href="#DejaVuSans-6f"/>
      <use x="692.431641" xlink:href="#DejaVuSans-74"/>
      <use x="731.640625" xlink:href="#DejaVuSans-65"/>
      <use x="793.164062" xlink:href="#DejaVuSans-6e"/>
      <use x="856.542969" xlink:href="#DejaVuSans-74"/>
      <use x="895.751953" xlink:href="#DejaVuSans-69"/>
      <use x="923.535156" xlink:href="#DejaVuSans-61"/>
      <use x="984.814453" xlink:href="#DejaVuSans-6c"/>
     </g>
    </g>
    <g id="line2d_18">
     <path d="M 72 85.9145 
L 104 85.9145 
" style="fill:none;stroke:#008000;stroke-linecap:square;stroke-width:2;"/>
    </g>
    <g id="line2d_19"/>
    <g id="text_16">
     <!-- Ramp -->
     <defs>
      <path d="M 44.390625 34.1875 
Q 47.5625 33.109375 50.5625 29.59375 
Q 53.5625 26.078125 56.59375 19.921875 
L 66.609375 0 
L 56 0 
L 46.6875 18.703125 
Q 43.0625 26.03125 39.671875 28.421875 
Q 36.28125 30.8125 30.421875 30.8125 
L 19.671875 30.8125 
L 19.671875 0 
L 9.8125 0 
L 9.8125 72.90625 
L 32.078125 72.90625 
Q 44.578125 72.90625 50.734375 67.671875 
Q 56.890625 62.453125 56.890625 51.90625 
Q 56.890625 45.015625 53.6875 40.46875 
Q 50.484375 35.9375 44.390625 34.1875 
z
M 19.671875 64.796875 
L 19.671875 38.921875 
L 32.078125 38.921875 
Q 39.203125 38.921875 42.84375 42.21875 
Q 46.484375 45.515625 46.484375 51.90625 
Q 46.484375 58.296875 42.84375 61.546875 
Q 39.203125 64.796875 32.078125 64.796875 
z
" id="DejaVuSans-52"/>
     </defs>
     <g transform="translate(116.8 91.5145)scale(0.16 -0.16)">
      <use xlink:href="#DejaVuSans-52"/>
      <use x="69.451172" xlink:href="#DejaVuSans-61"/>
      <use x="130.730469" xlink:href="#DejaVuSans-6d"/>
      <use x="228.142578" xlink:href="#DejaVuSans-70"/>
     </g>
    </g>
    <g id="line2d_20">
     <path d="M 72 109.3995 
L 104 109.3995 
" style="fill:none;stroke:#0000ff;stroke-linecap:square;stroke-width:2;"/>
    </g>
    <g id="line2d_21"/>
    <g id="text_17">
     <!-- Theta -->
     <defs>
      <path d="M 54.890625 33.015625 
L 54.890625 0 
L 45.90625 0 
L 45.90625 32.71875 
Q 45.90625 40.484375 42.875 44.328125 
Q 39.84375 48.1875 33.796875 48.1875 
Q 26.515625 48.1875 22.3125 43.546875 
Q 18.109375 38.921875 18.109375 30.90625 
L 18.109375 0 
L 9.078125 0 
L 9.078125 75.984375 
L 18.109375 75.984375 
L 18.109375 46.1875 
Q 21.34375 51.125 25.703125 53.5625 
Q 30.078125 56 35.796875 56 
Q 45.21875 56 50.046875 50.171875 
Q 54.890625 44.34375 54.890625 33.015625 
z
" id="DejaVuSans-68"/>
     </defs>
     <g transform="translate(116.8 114.9995)scale(0.16 -0.16)">
      <use xlink:href="#DejaVuSans-54"/>
      <use x="61.083984" xlink:href="#DejaVuSans-68"/>
      <use x="124.462891" xlink:href="#DejaVuSans-65"/>
      <use x="185.986328" xlink:href="#DejaVuSans-74"/>
      <use x="225.195312" xlink:href="#DejaVuSans-61"/>
     </g>
    </g>
   </g>
  </g>
 </g>
 <defs>
  <clipPath id="p2c0e5b34e6">
   <rect height="266.112" width="357.12" x="57.6" y="41.472"/>
  </clipPath>
 </defs>
</svg>
