<?xml version="1.0" encoding="utf-8" standalone="no"?>
<!DOCTYPE svg PUBLIC "-//W3C//DTD SVG 1.1//EN"
  "http://www.w3.org/Graphics/SVG/1.1/DTD/svg11.dtd">
<!-- Created with matplotlib (http://matplotlib.org/) -->
<svg height="345pt" version="1.1" viewBox="0 0 460 345" width="460pt" xmlns="http://www.w3.org/2000/svg" xmlns:xlink="http://www.w3.org/1999/xlink">
 <defs>
  <style type="text/css">
*{stroke-linecap:butt;stroke-linejoin:round;}
  </style>
 </defs>
 <g id="figure_1">
  <g id="patch_1">
   <path d="M 0 345.6 
L 460.8 345.6 
L 460.8 0 
L 0 0 
z
" style="fill:#ffffff;"/>
  </g>
  <g id="axes_1">
   <g id="patch_2">
    <path d="M 57.6 307.584 
L 414.72 307.584 
L 414.72 41.472 
L 57.6 41.472 
z
" style="fill:#ffffff;"/>
   </g>
   <g id="matplotlib.axis_1">
    <g id="xtick_1">
     <g id="line2d_1">
      <defs>
       <path d="M 0 0 
L 0 3.5 
" id="m9a46bd8d4a" style="stroke:#000000;stroke-width:0.8;"/>
      </defs>
      <g>
       <use style="stroke:#000000;stroke-width:0.8;" x="57.6" xlink:href="#m9a46bd8d4a" y="307.584"/>
      </g>
     </g>
     <g id="text_1">
      <!-- 0 -->
      <defs>
       <path d="M 31.78125 66.40625 
Q 24.171875 66.40625 20.328125 58.90625 
Q 16.5 51.421875 16.5 36.375 
Q 16.5 21.390625 20.328125 13.890625 
Q 24.171875 6.390625 31.78125 6.390625 
Q 39.453125 6.390625 43.28125 13.890625 
Q 47.125 21.390625 47.125 36.375 
Q 47.125 51.421875 43.28125 58.90625 
Q 39.453125 66.40625 31.78125 66.40625 
z
M 31.78125 74.21875 
Q 44.046875 74.21875 50.515625 64.515625 
Q 56.984375 54.828125 56.984375 36.375 
Q 56.984375 17.96875 50.515625 8.265625 
Q 44.046875 -1.421875 31.78125 -1.421875 
Q 19.53125 -1.421875 13.0625 8.265625 
Q 6.59375 17.96875 6.59375 36.375 
Q 6.59375 54.828125 13.0625 64.515625 
Q 19.53125 74.21875 31.78125 74.21875 
z
" id="DejaVuSans-30"/>
      </defs>
      <g transform="translate(54.41875 322.182437)scale(0.1 -0.1)">
       <use xlink:href="#DejaVuSans-30"/>
      </g>
     </g>
    </g>
    <g id="xtick_2">
     <g id="line2d_2">
      <g>
       <use style="stroke:#000000;stroke-width:0.8;" x="129.024" xlink:href="#m9a46bd8d4a" y="307.584"/>
      </g>
     </g>
     <g id="text_2">
      <!-- 10 -->
      <defs>
       <path d="M 12.40625 8.296875 
L 28.515625 8.296875 
L 28.515625 63.921875 
L 10.984375 60.40625 
L 10.984375 69.390625 
L 28.421875 72.90625 
L 38.28125 72.90625 
L 38.28125 8.296875 
L 54.390625 8.296875 
L 54.390625 0 
L 12.40625 0 
z
" id="DejaVuSans-31"/>
      </defs>
      <g transform="translate(122.6615 322.182437)scale(0.1 -0.1)">
       <use xlink:href="#DejaVuSans-31"/>
       <use x="63.623047" xlink:href="#DejaVuSans-30"/>
      </g>
     </g>
    </g>
    <g id="xtick_3">
     <g id="line2d_3">
      <g>
       <use style="stroke:#000000;stroke-width:0.8;" x="200.448" xlink:href="#m9a46bd8d4a" y="307.584"/>
      </g>
     </g>
     <g id="text_3">
      <!-- 20 -->
      <defs>
       <path d="M 19.1875 8.296875 
L 53.609375 8.296875 
L 53.609375 0 
L 7.328125 0 
L 7.328125 8.296875 
Q 12.9375 14.109375 22.625 23.890625 
Q 32.328125 33.6875 34.8125 36.53125 
Q 39.546875 41.84375 41.421875 45.53125 
Q 43.3125 49.21875 43.3125 52.78125 
Q 43.3125 58.59375 39.234375 62.25 
Q 35.15625 65.921875 28.609375 65.921875 
Q 23.96875 65.921875 18.8125 64.3125 
Q 13.671875 62.703125 7.8125 59.421875 
L 7.8125 69.390625 
Q 13.765625 71.78125 18.9375 73 
Q 24.125 74.21875 28.421875 74.21875 
Q 39.75 74.21875 46.484375 68.546875 
Q 53.21875 62.890625 53.21875 53.421875 
Q 53.21875 48.921875 51.53125 44.890625 
Q 49.859375 40.875 45.40625 35.40625 
Q 44.1875 33.984375 37.640625 27.21875 
Q 31.109375 20.453125 19.1875 8.296875 
z
" id="DejaVuSans-32"/>
      </defs>
      <g transform="translate(194.0855 322.182437)scale(0.1 -0.1)">
       <use xlink:href="#DejaVuSans-32"/>
       <use x="63.623047" xlink:href="#DejaVuSans-30"/>
      </g>
     </g>
    </g>
    <g id="xtick_4">
     <g id="line2d_4">
      <g>
       <use style="stroke:#000000;stroke-width:0.8;" x="271.872" xlink:href="#m9a46bd8d4a" y="307.584"/>
      </g>
     </g>
     <g id="text_4">
      <!-- 30 -->
      <defs>
       <path d="M 40.578125 39.3125 
Q 47.65625 37.796875 51.625 33 
Q 55.609375 28.21875 55.609375 21.1875 
Q 55.609375 10.40625 48.1875 4.484375 
Q 40.765625 -1.421875 27.09375 -1.421875 
Q 22.515625 -1.421875 17.65625 -0.515625 
Q 12.796875 0.390625 7.625 2.203125 
L 7.625 11.71875 
Q 11.71875 9.328125 16.59375 8.109375 
Q 21.484375 6.890625 26.8125 6.890625 
Q 36.078125 6.890625 40.9375 10.546875 
Q 45.796875 14.203125 45.796875 21.1875 
Q 45.796875 27.640625 41.28125 31.265625 
Q 36.765625 34.90625 28.71875 34.90625 
L 20.21875 34.90625 
L 20.21875 43.015625 
L 29.109375 43.015625 
Q 36.375 43.015625 40.234375 45.921875 
Q 44.09375 48.828125 44.09375 54.296875 
Q 44.09375 59.90625 40.109375 62.90625 
Q 36.140625 65.921875 28.71875 65.921875 
Q 24.65625 65.921875 20.015625 65.03125 
Q 15.375 64.15625 9.8125 62.3125 
L 9.8125 71.09375 
Q 15.4375 72.65625 20.34375 73.4375 
Q 25.25 74.21875 29.59375 74.21875 
Q 40.828125 74.21875 47.359375 69.109375 
Q 53.90625 64.015625 53.90625 55.328125 
Q 53.90625 49.265625 50.4375 45.09375 
Q 46.96875 40.921875 40.578125 39.3125 
z
" id="DejaVuSans-33"/>
      </defs>
      <g transform="translate(265.5095 322.182437)scale(0.1 -0.1)">
       <use xlink:href="#DejaVuSans-33"/>
       <use x="63.623047" xlink:href="#DejaVuSans-30"/>
      </g>
     </g>
    </g>
    <g id="xtick_5">
     <g id="line2d_5">
      <g>
       <use style="stroke:#000000;stroke-width:0.8;" x="343.296" xlink:href="#m9a46bd8d4a" y="307.584"/>
      </g>
     </g>
     <g id="text_5">
      <!-- 40 -->
      <defs>
       <path d="M 37.796875 64.3125 
L 12.890625 25.390625 
L 37.796875 25.390625 
z
M 35.203125 72.90625 
L 47.609375 72.90625 
L 47.609375 25.390625 
L 58.015625 25.390625 
L 58.015625 17.1875 
L 47.609375 17.1875 
L 47.609375 0 
L 37.796875 0 
L 37.796875 17.1875 
L 4.890625 17.1875 
L 4.890625 26.703125 
z
" id="DejaVuSans-34"/>
      </defs>
      <g transform="translate(336.9335 322.182437)scale(0.1 -0.1)">
       <use xlink:href="#DejaVuSans-34"/>
       <use x="63.623047" xlink:href="#DejaVuSans-30"/>
      </g>
     </g>
    </g>
    <g id="xtick_6">
     <g id="line2d_6">
      <g>
       <use style="stroke:#000000;stroke-width:0.8;" x="414.72" xlink:href="#m9a46bd8d4a" y="307.584"/>
      </g>
     </g>
     <g id="text_6">
      <!-- 50 -->
      <defs>
       <path d="M 10.796875 72.90625 
L 49.515625 72.90625 
L 49.515625 64.59375 
L 19.828125 64.59375 
L 19.828125 46.734375 
Q 21.96875 47.46875 24.109375 47.828125 
Q 26.265625 48.1875 28.421875 48.1875 
Q 40.625 48.1875 47.75 41.5 
Q 54.890625 34.8125 54.890625 23.390625 
Q 54.890625 11.625 47.5625 5.09375 
Q 40.234375 -1.421875 26.90625 -1.421875 
Q 22.3125 -1.421875 17.546875 -0.640625 
Q 12.796875 0.140625 7.71875 1.703125 
L 7.71875 11.625 
Q 12.109375 9.234375 16.796875 8.0625 
Q 21.484375 6.890625 26.703125 6.890625 
Q 35.15625 6.890625 40.078125 11.328125 
Q 45.015625 15.765625 45.015625 23.390625 
Q 45.015625 31 40.078125 35.4375 
Q 35.15625 39.890625 26.703125 39.890625 
Q 22.75 39.890625 18.8125 39.015625 
Q 14.890625 38.140625 10.796875 36.28125 
z
" id="DejaVuSans-35"/>
      </defs>
      <g transform="translate(408.3575 322.182437)scale(0.1 -0.1)">
       <use xlink:href="#DejaVuSans-35"/>
       <use x="63.623047" xlink:href="#DejaVuSans-30"/>
      </g>
     </g>
    </g>
    <g id="text_7">
     <!-- Frequency -->
     <defs>
      <path d="M 9.8125 72.90625 
L 51.703125 72.90625 
L 51.703125 64.59375 
L 19.671875 64.59375 
L 19.671875 43.109375 
L 48.578125 43.109375 
L 48.578125 34.8125 
L 19.671875 34.8125 
L 19.671875 0 
L 9.8125 0 
z
" id="DejaVuSans-46"/>
      <path d="M 41.109375 46.296875 
Q 39.59375 47.171875 37.8125 47.578125 
Q 36.03125 48 33.890625 48 
Q 26.265625 48 22.1875 43.046875 
Q 18.109375 38.09375 18.109375 28.8125 
L 18.109375 0 
L 9.078125 0 
L 9.078125 54.6875 
L 18.109375 54.6875 
L 18.109375 46.1875 
Q 20.953125 51.171875 25.484375 53.578125 
Q 30.03125 56 36.53125 56 
Q 37.453125 56 38.578125 55.875 
Q 39.703125 55.765625 41.0625 55.515625 
z
" id="DejaVuSans-72"/>
      <path d="M 56.203125 29.59375 
L 56.203125 25.203125 
L 14.890625 25.203125 
Q 15.484375 15.921875 20.484375 11.0625 
Q 25.484375 6.203125 34.421875 6.203125 
Q 39.59375 6.203125 44.453125 7.46875 
Q 49.3125 8.734375 54.109375 11.28125 
L 54.109375 2.78125 
Q 49.265625 0.734375 44.1875 -0.34375 
Q 39.109375 -1.421875 33.890625 -1.421875 
Q 20.796875 -1.421875 13.15625 6.1875 
Q 5.515625 13.8125 5.515625 26.8125 
Q 5.515625 40.234375 12.765625 48.109375 
Q 20.015625 56 32.328125 56 
Q 43.359375 56 49.78125 48.890625 
Q 56.203125 41.796875 56.203125 29.59375 
z
M 47.21875 32.234375 
Q 47.125 39.59375 43.09375 43.984375 
Q 39.0625 48.390625 32.421875 48.390625 
Q 24.90625 48.390625 20.390625 44.140625 
Q 15.875 39.890625 15.1875 32.171875 
z
" id="DejaVuSans-65"/>
      <path d="M 14.796875 27.296875 
Q 14.796875 17.390625 18.875 11.75 
Q 22.953125 6.109375 30.078125 6.109375 
Q 37.203125 6.109375 41.296875 11.75 
Q 45.40625 17.390625 45.40625 27.296875 
Q 45.40625 37.203125 41.296875 42.84375 
Q 37.203125 48.484375 30.078125 48.484375 
Q 22.953125 48.484375 18.875 42.84375 
Q 14.796875 37.203125 14.796875 27.296875 
z
M 45.40625 8.203125 
Q 42.578125 3.328125 38.25 0.953125 
Q 33.9375 -1.421875 27.875 -1.421875 
Q 17.96875 -1.421875 11.734375 6.484375 
Q 5.515625 14.40625 5.515625 27.296875 
Q 5.515625 40.1875 11.734375 48.09375 
Q 17.96875 56 27.875 56 
Q 33.9375 56 38.25 53.625 
Q 42.578125 51.265625 45.40625 46.390625 
L 45.40625 54.6875 
L 54.390625 54.6875 
L 54.390625 -20.796875 
L 45.40625 -20.796875 
z
" id="DejaVuSans-71"/>
      <path d="M 8.5 21.578125 
L 8.5 54.6875 
L 17.484375 54.6875 
L 17.484375 21.921875 
Q 17.484375 14.15625 20.5 10.265625 
Q 23.53125 6.390625 29.59375 6.390625 
Q 36.859375 6.390625 41.078125 11.03125 
Q 45.3125 15.671875 45.3125 23.6875 
L 45.3125 54.6875 
L 54.296875 54.6875 
L 54.296875 0 
L 45.3125 0 
L 45.3125 8.40625 
Q 42.046875 3.421875 37.71875 1 
Q 33.40625 -1.421875 27.6875 -1.421875 
Q 18.265625 -1.421875 13.375 4.4375 
Q 8.5 10.296875 8.5 21.578125 
z
M 31.109375 56 
z
" id="DejaVuSans-75"/>
      <path d="M 54.890625 33.015625 
L 54.890625 0 
L 45.90625 0 
L 45.90625 32.71875 
Q 45.90625 40.484375 42.875 44.328125 
Q 39.84375 48.1875 33.796875 48.1875 
Q 26.515625 48.1875 22.3125 43.546875 
Q 18.109375 38.921875 18.109375 30.90625 
L 18.109375 0 
L 9.078125 0 
L 9.078125 54.6875 
L 18.109375 54.6875 
L 18.109375 46.1875 
Q 21.34375 51.125 25.703125 53.5625 
Q 30.078125 56 35.796875 56 
Q 45.21875 56 50.046875 50.171875 
Q 54.890625 44.34375 54.890625 33.015625 
z
" id="DejaVuSans-6e"/>
      <path d="M 48.78125 52.59375 
L 48.78125 44.1875 
Q 44.96875 46.296875 41.140625 47.34375 
Q 37.3125 48.390625 33.40625 48.390625 
Q 24.65625 48.390625 19.8125 42.84375 
Q 14.984375 37.3125 14.984375 27.296875 
Q 14.984375 17.28125 19.8125 11.734375 
Q 24.65625 6.203125 33.40625 6.203125 
Q 37.3125 6.203125 41.140625 7.25 
Q 44.96875 8.296875 48.78125 10.40625 
L 48.78125 2.09375 
Q 45.015625 0.34375 40.984375 -0.53125 
Q 36.96875 -1.421875 32.421875 -1.421875 
Q 20.0625 -1.421875 12.78125 6.34375 
Q 5.515625 14.109375 5.515625 27.296875 
Q 5.515625 40.671875 12.859375 48.328125 
Q 20.21875 56 33.015625 56 
Q 37.15625 56 41.109375 55.140625 
Q 45.0625 54.296875 48.78125 52.59375 
z
" id="DejaVuSans-63"/>
      <path d="M 32.171875 -5.078125 
Q 28.375 -14.84375 24.75 -17.8125 
Q 21.140625 -20.796875 15.09375 -20.796875 
L 7.90625 -20.796875 
L 7.90625 -13.28125 
L 13.1875 -13.28125 
Q 16.890625 -13.28125 18.9375 -11.515625 
Q 21 -9.765625 23.484375 -3.21875 
L 25.09375 0.875 
L 2.984375 54.6875 
L 12.5 54.6875 
L 29.59375 11.921875 
L 46.6875 54.6875 
L 56.203125 54.6875 
z
" id="DejaVuSans-79"/>
     </defs>
     <g transform="translate(194.08375 340.419625)scale(0.16 -0.16)">
      <use xlink:href="#DejaVuSans-46"/>
      <use x="57.410156" xlink:href="#DejaVuSans-72"/>
      <use x="98.492188" xlink:href="#DejaVuSans-65"/>
      <use x="160.015625" xlink:href="#DejaVuSans-71"/>
      <use x="223.492188" xlink:href="#DejaVuSans-75"/>
      <use x="286.871094" xlink:href="#DejaVuSans-65"/>
      <use x="348.394531" xlink:href="#DejaVuSans-6e"/>
      <use x="411.773438" xlink:href="#DejaVuSans-63"/>
      <use x="466.753906" xlink:href="#DejaVuSans-79"/>
     </g>
    </g>
   </g>
   <g id="matplotlib.axis_2">
    <g id="ytick_1">
     <g id="line2d_7">
      <defs>
       <path d="M 0 0 
L -3.5 0 
" id="mdfb8ecaca3" style="stroke:#000000;stroke-width:0.8;"/>
      </defs>
      <g>
       <use style="stroke:#000000;stroke-width:0.8;" x="57.6" xlink:href="#mdfb8ecaca3" y="307.584"/>
      </g>
     </g>
     <g id="text_8">
      <!-- 0.0 -->
      <defs>
       <path d="M 10.6875 12.40625 
L 21 12.40625 
L 21 0 
L 10.6875 0 
z
" id="DejaVuSans-2e"/>
      </defs>
      <g transform="translate(34.696875 311.383219)scale(0.1 -0.1)">
       <use xlink:href="#DejaVuSans-30"/>
       <use x="63.623047" xlink:href="#DejaVuSans-2e"/>
       <use x="95.410156" xlink:href="#DejaVuSans-30"/>
      </g>
     </g>
    </g>
    <g id="ytick_2">
     <g id="line2d_8">
      <g>
       <use style="stroke:#000000;stroke-width:0.8;" x="57.6" xlink:href="#mdfb8ecaca3" y="262.100358"/>
      </g>
     </g>
     <g id="text_9">
      <!-- 0.2 -->
      <g transform="translate(34.696875 265.899577)scale(0.1 -0.1)">
       <use xlink:href="#DejaVuSans-30"/>
       <use x="63.623047" xlink:href="#DejaVuSans-2e"/>
       <use x="95.410156" xlink:href="#DejaVuSans-32"/>
      </g>
     </g>
    </g>
    <g id="ytick_3">
     <g id="line2d_9">
      <g>
       <use style="stroke:#000000;stroke-width:0.8;" x="57.6" xlink:href="#mdfb8ecaca3" y="216.616717"/>
      </g>
     </g>
     <g id="text_10">
      <!-- 0.4 -->
      <g transform="translate(34.696875 220.415936)scale(0.1 -0.1)">
       <use xlink:href="#DejaVuSans-30"/>
       <use x="63.623047" xlink:href="#DejaVuSans-2e"/>
       <use x="95.410156" xlink:href="#DejaVuSans-34"/>
      </g>
     </g>
    </g>
    <g id="ytick_4">
     <g id="line2d_10">
      <g>
       <use style="stroke:#000000;stroke-width:0.8;" x="57.6" xlink:href="#mdfb8ecaca3" y="171.133075"/>
      </g>
     </g>
     <g id="text_11">
      <!-- 0.6 -->
      <defs>
       <path d="M 33.015625 40.375 
Q 26.375 40.375 22.484375 35.828125 
Q 18.609375 31.296875 18.609375 23.390625 
Q 18.609375 15.53125 22.484375 10.953125 
Q 26.375 6.390625 33.015625 6.390625 
Q 39.65625 6.390625 43.53125 10.953125 
Q 47.40625 15.53125 47.40625 23.390625 
Q 47.40625 31.296875 43.53125 35.828125 
Q 39.65625 40.375 33.015625 40.375 
z
M 52.59375 71.296875 
L 52.59375 62.3125 
Q 48.875 64.0625 45.09375 64.984375 
Q 41.3125 65.921875 37.59375 65.921875 
Q 27.828125 65.921875 22.671875 59.328125 
Q 17.53125 52.734375 16.796875 39.40625 
Q 19.671875 43.65625 24.015625 45.921875 
Q 28.375 48.1875 33.59375 48.1875 
Q 44.578125 48.1875 50.953125 41.515625 
Q 57.328125 34.859375 57.328125 23.390625 
Q 57.328125 12.15625 50.6875 5.359375 
Q 44.046875 -1.421875 33.015625 -1.421875 
Q 20.359375 -1.421875 13.671875 8.265625 
Q 6.984375 17.96875 6.984375 36.375 
Q 6.984375 53.65625 15.1875 63.9375 
Q 23.390625 74.21875 37.203125 74.21875 
Q 40.921875 74.21875 44.703125 73.484375 
Q 48.484375 72.75 52.59375 71.296875 
z
" id="DejaVuSans-36"/>
      </defs>
      <g transform="translate(34.696875 174.932294)scale(0.1 -0.1)">
       <use xlink:href="#DejaVuSans-30"/>
       <use x="63.623047" xlink:href="#DejaVuSans-2e"/>
       <use x="95.410156" xlink:href="#DejaVuSans-36"/>
      </g>
     </g>
    </g>
    <g id="ytick_5">
     <g id="line2d_11">
      <g>
       <use style="stroke:#000000;stroke-width:0.8;" x="57.6" xlink:href="#mdfb8ecaca3" y="125.649434"/>
      </g>
     </g>
     <g id="text_12">
      <!-- 0.8 -->
      <defs>
       <path d="M 31.78125 34.625 
Q 24.75 34.625 20.71875 30.859375 
Q 16.703125 27.09375 16.703125 20.515625 
Q 16.703125 13.921875 20.71875 10.15625 
Q 24.75 6.390625 31.78125 6.390625 
Q 38.8125 6.390625 42.859375 10.171875 
Q 46.921875 13.96875 46.921875 20.515625 
Q 46.921875 27.09375 42.890625 30.859375 
Q 38.875 34.625 31.78125 34.625 
z
M 21.921875 38.8125 
Q 15.578125 40.375 12.03125 44.71875 
Q 8.5 49.078125 8.5 55.328125 
Q 8.5 64.0625 14.71875 69.140625 
Q 20.953125 74.21875 31.78125 74.21875 
Q 42.671875 74.21875 48.875 69.140625 
Q 55.078125 64.0625 55.078125 55.328125 
Q 55.078125 49.078125 51.53125 44.71875 
Q 48 40.375 41.703125 38.8125 
Q 48.828125 37.15625 52.796875 32.3125 
Q 56.78125 27.484375 56.78125 20.515625 
Q 56.78125 9.90625 50.3125 4.234375 
Q 43.84375 -1.421875 31.78125 -1.421875 
Q 19.734375 -1.421875 13.25 4.234375 
Q 6.78125 9.90625 6.78125 20.515625 
Q 6.78125 27.484375 10.78125 32.3125 
Q 14.796875 37.15625 21.921875 38.8125 
z
M 18.3125 54.390625 
Q 18.3125 48.734375 21.84375 45.5625 
Q 25.390625 42.390625 31.78125 42.390625 
Q 38.140625 42.390625 41.71875 45.5625 
Q 45.3125 48.734375 45.3125 54.390625 
Q 45.3125 60.0625 41.71875 63.234375 
Q 38.140625 66.40625 31.78125 66.40625 
Q 25.390625 66.40625 21.84375 63.234375 
Q 18.3125 60.0625 18.3125 54.390625 
z
" id="DejaVuSans-38"/>
      </defs>
      <g transform="translate(34.696875 129.448652)scale(0.1 -0.1)">
       <use xlink:href="#DejaVuSans-30"/>
       <use x="63.623047" xlink:href="#DejaVuSans-2e"/>
       <use x="95.410156" xlink:href="#DejaVuSans-38"/>
      </g>
     </g>
    </g>
    <g id="ytick_6">
     <g id="line2d_12">
      <g>
       <use style="stroke:#000000;stroke-width:0.8;" x="57.6" xlink:href="#mdfb8ecaca3" y="80.165792"/>
      </g>
     </g>
     <g id="text_13">
      <!-- 1.0 -->
      <g transform="translate(34.696875 83.965011)scale(0.1 -0.1)">
       <use xlink:href="#DejaVuSans-31"/>
       <use x="63.623047" xlink:href="#DejaVuSans-2e"/>
       <use x="95.410156" xlink:href="#DejaVuSans-30"/>
      </g>
     </g>
    </g>
    <g id="text_14">
     <!-- Power -->
     <defs>
      <path d="M 19.671875 64.796875 
L 19.671875 37.40625 
L 32.078125 37.40625 
Q 38.96875 37.40625 42.71875 40.96875 
Q 46.484375 44.53125 46.484375 51.125 
Q 46.484375 57.671875 42.71875 61.234375 
Q 38.96875 64.796875 32.078125 64.796875 
z
M 9.8125 72.90625 
L 32.078125 72.90625 
Q 44.34375 72.90625 50.609375 67.359375 
Q 56.890625 61.8125 56.890625 51.125 
Q 56.890625 40.328125 50.609375 34.8125 
Q 44.34375 29.296875 32.078125 29.296875 
L 19.671875 29.296875 
L 19.671875 0 
L 9.8125 0 
z
" id="DejaVuSans-50"/>
      <path d="M 30.609375 48.390625 
Q 23.390625 48.390625 19.1875 42.75 
Q 14.984375 37.109375 14.984375 27.296875 
Q 14.984375 17.484375 19.15625 11.84375 
Q 23.34375 6.203125 30.609375 6.203125 
Q 37.796875 6.203125 41.984375 11.859375 
Q 46.1875 17.53125 46.1875 27.296875 
Q 46.1875 37.015625 41.984375 42.703125 
Q 37.796875 48.390625 30.609375 48.390625 
z
M 30.609375 56 
Q 42.328125 56 49.015625 48.375 
Q 55.71875 40.765625 55.71875 27.296875 
Q 55.71875 13.875 49.015625 6.21875 
Q 42.328125 -1.421875 30.609375 -1.421875 
Q 18.84375 -1.421875 12.171875 6.21875 
Q 5.515625 13.875 5.515625 27.296875 
Q 5.515625 40.765625 12.171875 48.375 
Q 18.84375 56 30.609375 56 
z
" id="DejaVuSans-6f"/>
      <path d="M 4.203125 54.6875 
L 13.1875 54.6875 
L 24.421875 12.015625 
L 35.59375 54.6875 
L 46.1875 54.6875 
L 57.421875 12.015625 
L 68.609375 54.6875 
L 77.59375 54.6875 
L 63.28125 0 
L 52.6875 0 
L 40.921875 44.828125 
L 29.109375 0 
L 18.5 0 
z
" id="DejaVuSans-77"/>
     </defs>
     <g transform="translate(27.369375 198.99675)rotate(-90)scale(0.16 -0.16)">
      <use xlink:href="#DejaVuSans-50"/>
      <use x="60.255859" xlink:href="#DejaVuSans-6f"/>
      <use x="121.4375" xlink:href="#DejaVuSans-77"/>
      <use x="203.224609" xlink:href="#DejaVuSans-65"/>
      <use x="264.748047" xlink:href="#DejaVuSans-72"/>
     </g>
    </g>
    <g id="text_15">
     <!-- 1e8 -->
     <g transform="translate(57.6 38.472)scale(0.1 -0.1)">
      <use xlink:href="#DejaVuSans-31"/>
      <use x="63.623047" xlink:href="#DejaVuSans-65"/>
      <use x="125.146484" xlink:href="#DejaVuSans-38"/>
     </g>
    </g>
   </g>
   <g id="line2d_13">
    <path clip-path="url(#p4da1f66b16)" d="M 58.903586 -1 
L 58.951882 92.782346 
L 59.074867 -1 
M 59.295083 -1 
L 59.492635 303.893812 
L 59.763012 219.936129 
L 60.033388 283.689115 
L 60.248389 -1 
M 60.382041 -1 
L 60.574141 178.948624 
L 60.787447 -1 
M 60.901338 -1 
L 61.114894 179.951038 
L 61.385271 194.894374 
L 61.655647 70.85788 
L 61.926024 231.641399 
L 62.1964 233.853362 
L 62.466776 176.870067 
L 62.737153 244.894443 
L 63.007529 36.369413 
L 63.277906 223.396356 
L 63.548282 300.779621 
L 63.818659 278.581552 
L 64.089035 275.229353 
L 64.359412 187.617941 
L 64.629788 165.268569 
L 64.900165 305.846787 
L 65.170541 267.195993 
L 65.440918 208.214354 
L 65.711294 301.298341 
L 65.981671 278.643302 
L 66.252047 204.9555 
L 66.522423 247.816467 
L 66.7928 255.185686 
L 67.063176 193.496143 
L 67.333553 281.145798 
L 67.603929 157.94505 
L 67.874306 299.013927 
L 68.415059 205.471427 
L 68.685435 286.705809 
L 68.955812 273.029958 
L 69.226188 299.799614 
L 69.766941 249.225207 
L 70.037318 300.874486 
L 70.307694 240.64853 
L 70.578071 279.74023 
L 70.848447 273.786492 
L 71.118823 280.437131 
L 71.3892 264.094745 
L 71.659576 264.335507 
L 71.929953 306.860734 
L 72.200329 290.18568 
L 72.470706 229.925163 
L 72.741082 239.740306 
L 73.011459 259.814419 
L 73.281835 266.840285 
L 73.552212 306.637888 
L 74.092965 206.348426 
L 74.363341 187.479391 
L 74.633718 300.485509 
L 74.904094 225.584748 
L 75.174471 281.751005 
L 75.444847 252.922124 
L 75.715223 243.331724 
L 75.9856 299.087982 
L 76.255976 271.425993 
L 76.526353 260.630046 
L 76.796729 255.509834 
L 77.067106 232.005972 
L 77.337482 301.174513 
L 77.607859 180.828198 
L 77.878235 185.739294 
L 78.148612 302.072559 
L 78.418988 237.915182 
L 78.689365 50.456432 
L 78.959741 195.378315 
L 79.230118 215.836785 
L 79.500494 268.783175 
L 79.77087 266.503446 
L 80.041247 286.279233 
L 80.311623 240.465453 
L 80.582 302.025401 
L 81.122753 273.444252 
L 81.393129 200.883711 
L 81.933882 299.718366 
L 82.204259 102.214384 
L 82.474635 293.299433 
L 82.745012 252.49149 
L 83.015388 283.013754 
L 83.556141 163.199154 
L 83.826518 268.913088 
L 84.096894 229.059222 
L 84.36727 291.336123 
L 84.908023 241.237558 
L 85.1784 306.579341 
L 85.448776 209.386706 
L 85.719153 196.342145 
L 85.989529 262.622634 
L 86.259906 104.68774 
L 86.530282 284.776424 
L 87.071035 304.380981 
L 87.341412 274.420121 
L 87.611788 192.65346 
L 87.882165 266.550465 
L 88.152541 269.015996 
L 88.422917 201.505305 
L 88.96367 267.666949 
L 89.234047 245.83513 
L 89.504423 303.297686 
L 89.7748 275.535833 
L 90.045176 278.2829 
L 90.315553 288.310916 
L 90.585929 304.108544 
L 90.856306 285.623741 
L 91.126682 289.255158 
L 91.397059 193.585278 
L 91.667435 285.95098 
L 91.937812 182.730321 
L 92.208188 279.103444 
L 92.478565 297.675055 
L 92.748941 252.132058 
L 93.019317 106.708685 
L 93.289694 297.814502 
L 93.56007 302.620816 
L 93.830447 291.971039 
L 94.100823 272.339435 
L 94.3712 274.482403 
L 94.641576 91.190125 
L 94.911953 228.370149 
L 95.182329 118.960052 
L 95.452706 298.328127 
L 95.723082 22.459725 
L 95.993459 304.428113 
L 96.263835 169.661245 
L 96.534212 289.827106 
L 96.804588 303.506453 
L 97.074965 291.237561 
L 97.615717 181.035843 
L 97.886094 239.362243 
L 98.15647 109.624519 
L 98.426847 151.34357 
L 98.697223 153.746358 
L 98.9676 299.89667 
L 99.237976 225.393849 
L 99.508353 226.561019 
L 99.778729 276.392445 
L 100.049106 261.362684 
L 100.319482 275.628267 
L 100.589859 36.25942 
L 100.860235 301.442839 
L 101.130612 196.987223 
L 101.400988 267.773519 
L 101.671364 219.894465 
L 101.941741 225.644994 
L 102.212117 291.154446 
L 102.75287 184.919618 
L 103.023247 185.869092 
L 103.293623 253.610232 
L 103.564 255.603043 
L 103.834376 259.010552 
L 104.104753 255.983468 
L 104.375129 175.518768 
L 104.645506 173.890983 
L 104.915882 298.31878 
L 105.186259 257.909725 
L 105.456635 266.664637 
L 105.727012 202.470705 
L 105.997388 300.54892 
L 106.267764 206.253535 
L 106.538141 285.577942 
L 106.808517 154.556462 
L 107.078894 184.814463 
L 107.34927 292.468849 
L 107.619647 143.043687 
L 107.890023 304.716041 
L 108.1604 127.658834 
L 108.430776 238.636586 
L 108.701153 239.784804 
L 108.971529 219.181279 
L 109.241906 220.842781 
L 109.512282 270.258483 
L 109.782659 232.444245 
L 110.053035 292.135727 
L 110.323412 174.101062 
L 110.593788 226.354339 
L 110.864164 233.221257 
L 111.134541 163.290322 
L 111.404917 279.438238 
L 111.675294 288.600367 
L 111.94567 181.39393 
L 112.216047 247.48356 
L 112.486423 271.147886 
L 112.7568 268.717126 
L 113.027176 86.263294 
L 113.567929 280.435255 
L 113.838306 300.528415 
L 114.108682 303.888705 
L 114.379059 240.54212 
L 114.649435 294.515592 
L 114.919811 253.055157 
L 115.190188 281.995743 
L 115.730941 307.475172 
L 116.001317 260.591432 
L 116.271694 272.873801 
L 116.54207 277.414589 
L 116.812447 307.382967 
L 117.082823 305.717226 
L 117.3532 268.386314 
L 117.623576 299.240139 
L 117.893953 289.977888 
L 118.164329 221.840043 
L 118.434706 297.88516 
L 118.705082 290.308333 
L 118.975459 296.130496 
L 119.245835 282.427637 
L 119.516211 262.732136 
L 119.786588 297.625627 
L 120.056964 217.970792 
L 120.327341 279.30263 
L 120.597717 245.183609 
L 120.868094 141.209369 
L 121.13847 296.942049 
L 121.408847 300.658333 
L 121.679223 299.081365 
L 121.9496 276.554795 
L 122.219976 281.540227 
L 122.490353 288.668831 
L 122.760729 262.036127 
L 123.031106 298.751167 
L 123.301482 298.885972 
L 123.571858 273.906492 
L 123.842235 302.633907 
L 124.112611 283.926813 
L 124.382988 242.007386 
L 124.653364 265.734112 
L 124.923741 256.682734 
L 125.194117 296.430394 
L 125.464494 298.282875 
L 125.73487 306.371655 
L 126.005247 301.971345 
L 126.275623 289.063527 
L 126.546 286.729107 
L 126.816376 271.245254 
L 127.086753 296.40716 
L 127.357129 302.744706 
L 127.897882 277.923689 
L 128.168258 297.067655 
L 128.438635 305.740972 
L 128.709011 293.489014 
L 128.979388 221.634223 
L 129.249764 295.650086 
L 129.520141 301.419544 
L 130.060894 303.996872 
L 130.33127 278.904802 
L 130.601647 305.103285 
L 130.872023 296.964911 
L 131.1424 280.508711 
L 131.412776 300.37486 
L 131.683153 263.420036 
L 131.953529 284.005327 
L 132.223906 274.668743 
L 132.494282 294.792479 
L 133.035035 252.387353 
L 133.305411 304.967633 
L 133.575788 297.780122 
L 133.846164 273.986106 
L 134.116541 267.601014 
L 134.386917 297.97427 
L 134.657294 300.844556 
L 135.468423 242.949019 
L 135.7388 293.84495 
L 136.009176 295.693374 
L 136.279553 299.527848 
L 136.549929 268.073302 
L 136.820305 298.414229 
L 137.090682 267.691617 
L 137.361058 297.173475 
L 137.631435 291.411949 
L 137.901811 293.184666 
L 138.172188 289.844337 
L 138.442564 296.027066 
L 138.712941 259.172881 
L 138.983317 303.685462 
L 139.253694 288.942415 
L 139.52407 306.434587 
L 139.794447 301.136644 
L 140.064823 305.732031 
L 140.3352 293.413266 
L 140.605576 294.009805 
L 140.875953 118.403385 
L 141.146329 283.668287 
L 141.416705 273.511002 
L 141.687082 302.2222 
L 141.957458 261.279195 
L 142.227835 306.423935 
L 142.498211 286.399592 
L 142.768588 305.185218 
L 143.038964 284.638604 
L 143.579717 301.255976 
L 143.850094 279.852155 
L 144.12047 278.158069 
L 144.390847 281.715386 
L 144.661223 304.944574 
L 144.9316 291.905616 
L 145.201976 257.564072 
L 145.472353 270.125761 
L 145.742729 273.454321 
L 146.013105 267.923343 
L 146.283482 303.210945 
L 146.553858 304.820721 
L 146.824235 280.225938 
L 147.094611 302.705857 
L 147.364988 303.720274 
L 147.635364 277.509245 
L 147.905741 297.070101 
L 148.176117 301.09527 
L 148.446494 284.467252 
L 148.71687 298.611281 
L 148.987247 271.613906 
L 149.257623 289.4793 
L 149.798376 307.40247 
L 150.068752 281.758317 
L 150.339129 306.486095 
L 150.609505 254.109312 
L 150.879882 294.698267 
L 151.150258 298.824656 
L 151.691011 269.159096 
L 151.961388 301.441827 
L 152.231764 301.4612 
L 152.502141 276.648101 
L 152.772517 301.367765 
L 153.31327 249.76197 
L 153.583647 287.268986 
L 153.854023 295.704775 
L 154.1244 284.389425 
L 154.394776 306.863935 
L 154.665152 306.404895 
L 154.935529 289.429452 
L 155.205905 300.4505 
L 155.476282 288.719721 
L 155.746658 289.975373 
L 156.017035 283.837414 
L 156.287411 250.898651 
L 156.557788 279.845808 
L 156.828164 272.596085 
L 157.098541 300.250561 
L 157.368917 263.11947 
L 157.639294 248.83711 
L 157.90967 282.6514 
L 158.180047 250.920995 
L 158.450423 272.074719 
L 158.7208 303.309955 
L 158.991176 304.99152 
L 159.261552 302.406562 
L 159.531929 260.194274 
L 159.802305 275.688733 
L 160.072682 266.128678 
L 160.343058 291.418591 
L 160.613435 262.701395 
L 160.883811 291.321498 
L 161.154188 307.536543 
L 161.424564 307.523384 
L 161.694941 287.687702 
L 161.965317 282.21912 
L 162.235694 265.265246 
L 162.50607 296.750117 
L 162.776447 274.179164 
L 163.046823 301.068036 
L 163.317199 277.140102 
L 163.587576 299.418278 
L 163.857952 298.000502 
L 164.128329 305.338297 
L 164.398705 261.692893 
L 164.669082 268.56504 
L 164.939458 297.310051 
L 165.209835 287.90208 
L 165.480211 301.00642 
L 165.750588 305.864777 
L 166.020964 304.352722 
L 166.291341 279.084508 
L 166.561717 306.572036 
L 166.832094 300.832108 
L 167.10247 303.930146 
L 167.372847 301.620487 
L 167.643223 306.721123 
L 167.913599 304.395603 
L 168.183976 297.889608 
L 168.454352 307.390629 
L 168.724729 304.987779 
L 168.995105 296.526346 
L 169.265482 304.427651 
L 169.535858 305.271542 
L 169.806235 300.375512 
L 170.076611 306.008776 
L 170.346988 297.212846 
L 170.617364 304.01093 
L 170.887741 292.474547 
L 171.158117 288.048832 
L 171.428494 296.555218 
L 171.69887 289.784088 
L 171.969246 303.600874 
L 172.239623 302.294168 
L 172.509999 293.970016 
L 172.780376 305.543326 
L 173.050752 298.216445 
L 173.321129 285.796277 
L 173.591505 282.376037 
L 173.861882 287.212587 
L 174.132258 301.264629 
L 174.402635 299.921548 
L 174.673011 289.301521 
L 174.943388 298.01725 
L 175.213764 290.981258 
L 175.484141 292.169962 
L 175.754517 303.573712 
L 176.024894 305.815383 
L 176.29527 300.683805 
L 176.565646 299.850471 
L 176.836023 298.004444 
L 177.376776 306.296828 
L 177.647152 286.48848 
L 177.917529 303.336056 
L 178.187905 296.380959 
L 178.458282 282.816676 
L 178.728658 300.902621 
L 178.999035 274.912975 
L 179.269411 295.507601 
L 179.539788 304.086542 
L 179.810164 286.436544 
L 180.080541 304.399541 
L 180.350917 295.927631 
L 180.621294 306.50532 
L 181.162046 297.449046 
L 181.432423 304.681802 
L 181.702799 285.444698 
L 181.973176 287.575205 
L 182.243552 287.475974 
L 182.513929 302.099669 
L 182.784305 299.501916 
L 183.054682 295.467677 
L 183.325058 303.077673 
L 183.595435 306.08566 
L 183.865811 305.517736 
L 184.136188 305.617809 
L 184.406564 294.459133 
L 184.676941 300.836151 
L 184.947317 304.514015 
L 185.217693 298.596888 
L 185.48807 306.691559 
L 185.758446 281.353559 
L 186.028823 290.200117 
L 187.110329 304.366226 
L 187.380705 300.895583 
L 187.651082 307.346186 
L 187.921458 306.558811 
L 188.462211 296.500454 
L 188.732588 297.094056 
L 189.002964 307.056074 
L 189.543717 290.64238 
L 189.814093 307.250645 
L 190.08447 298.522958 
L 190.354846 296.110953 
L 190.625223 302.232384 
L 190.895599 299.363991 
L 191.165976 304.280137 
L 191.436352 306.9067 
L 191.706729 288.841049 
L 191.977105 286.575031 
L 192.247482 304.642845 
L 192.517858 301.482357 
L 192.788235 301.188245 
L 193.058611 285.145289 
L 193.328988 307.338843 
L 193.599364 305.830534 
L 193.869741 306.978219 
L 194.410493 297.698432 
L 194.68087 303.833041 
L 194.951246 305.061883 
L 195.221623 305.473962 
L 195.491999 304.369632 
L 195.762376 290.12359 
L 196.032752 304.235432 
L 196.303129 298.296986 
L 196.573505 307.339891 
L 196.843882 305.769959 
L 197.114258 297.978658 
L 197.384635 296.27916 
L 197.655011 306.776523 
L 197.925388 303.501906 
L 198.195764 306.356044 
L 198.46614 303.581952 
L 198.736517 304.675818 
L 199.006893 296.63894 
L 199.27727 307.019433 
L 199.547646 302.811522 
L 199.818023 307.473706 
L 200.088399 299.32093 
L 200.358776 307.242224 
L 200.629152 307.376845 
L 200.899529 285.094898 
L 201.169905 300.192856 
L 201.440282 307.07935 
L 201.710658 300.600046 
L 201.981035 301.103502 
L 202.251411 277.112897 
L 202.521788 302.291813 
L 202.792164 303.974104 
L 203.06254 298.905573 
L 203.332917 307.125527 
L 203.603293 301.382441 
L 203.87367 306.869026 
L 204.144046 287.126366 
L 204.414423 302.976136 
L 204.684799 302.666365 
L 204.955176 306.430553 
L 205.225552 306.021818 
L 205.495929 303.257725 
L 205.766305 304.992455 
L 206.036682 300.122952 
L 206.847811 296.115373 
L 207.118187 303.534325 
L 207.388564 299.540442 
L 207.65894 306.424797 
L 207.929317 306.158163 
L 208.199693 306.32285 
L 208.47007 302.743045 
L 208.740446 307.176424 
L 209.010823 302.707653 
L 209.281199 304.71697 
L 209.551576 303.580703 
L 209.821952 306.49665 
L 210.092329 300.429899 
L 210.362705 304.049358 
L 210.633082 301.759291 
L 210.903458 305.08985 
L 211.173835 305.010372 
L 211.444211 306.088917 
L 211.714587 300.735746 
L 211.984964 304.471611 
L 212.25534 299.492648 
L 212.525717 301.68941 
L 212.796093 306.21153 
L 213.06647 299.397641 
L 213.607223 304.258043 
L 213.877599 298.089855 
L 214.147976 306.138819 
L 214.418352 307.163862 
L 214.688729 304.989862 
L 214.959105 296.280386 
L 215.229482 303.886608 
L 215.499858 300.061117 
L 215.770235 307.032143 
L 216.040611 307.247974 
L 216.310987 306.099135 
L 216.581364 301.792218 
L 216.85174 305.243584 
L 217.122117 306.731105 
L 217.392493 306.747236 
L 217.66287 306.161188 
L 217.933246 304.766079 
L 218.203623 293.479778 
L 218.473999 306.332052 
L 218.744376 296.147801 
L 219.014752 303.415384 
L 219.285129 307.212339 
L 219.825882 304.568989 
L 220.096258 306.890369 
L 220.366634 303.56697 
L 220.637011 307.223899 
L 221.177764 305.528207 
L 221.44814 306.514264 
L 221.718517 300.076827 
L 221.988893 300.329122 
L 222.529646 307.340007 
L 222.800023 306.412129 
L 223.070399 303.408616 
L 223.340776 289.41722 
L 223.611152 301.458722 
L 223.881529 306.758569 
L 224.151905 301.47236 
L 224.422282 302.948069 
L 224.692658 292.409023 
L 224.963034 304.59394 
L 225.233411 307.315308 
L 225.503787 302.800015 
L 225.774164 304.237346 
L 226.04454 301.5491 
L 226.314917 306.019896 
L 226.585293 307.029484 
L 226.85567 304.146575 
L 227.126046 305.483929 
L 227.396423 299.694182 
L 227.666799 306.372994 
L 227.937176 306.453596 
L 228.207552 306.357698 
L 228.477929 305.731264 
L 228.748305 305.543575 
L 229.018682 303.907661 
L 229.289058 306.370985 
L 229.559434 304.268394 
L 229.829811 303.393815 
L 230.100187 305.673328 
L 230.370564 300.928847 
L 230.64094 304.938735 
L 230.911317 300.640455 
L 231.181693 293.09106 
L 231.45207 294.733597 
L 231.992823 307.260451 
L 232.263199 302.361937 
L 232.533576 305.644916 
L 232.803952 307.492852 
L 233.074329 299.067501 
L 233.344705 299.259531 
L 233.615081 292.093954 
L 233.885458 289.720674 
L 234.155834 295.175005 
L 234.426211 303.28616 
L 234.696587 306.966511 
L 234.966964 305.820032 
L 235.23734 305.613512 
L 235.507717 307.436204 
L 235.778093 304.992474 
L 236.318846 303.679039 
L 236.589223 301.381771 
L 236.859599 305.075469 
L 237.129976 297.531024 
L 237.400352 307.477048 
L 237.670729 303.837896 
L 237.941105 304.889573 
L 238.211481 304.407607 
L 238.481858 304.493193 
L 238.752234 307.019201 
L 239.292987 300.536858 
L 239.563364 306.309165 
L 239.83374 306.486457 
L 240.104117 304.012988 
L 240.374493 303.607451 
L 240.64487 305.503887 
L 240.915246 306.183912 
L 241.185623 285.351651 
L 241.455999 298.719191 
L 241.726376 304.325704 
L 241.996752 302.304224 
L 242.267128 305.075906 
L 242.537505 306.569878 
L 242.807881 303.704542 
L 243.078258 304.196303 
L 243.348634 291.050587 
L 243.619011 306.816138 
L 243.889387 304.674297 
L 244.159764 303.610672 
L 244.43014 304.663227 
L 244.700517 306.410478 
L 245.24127 303.74743 
L 245.511646 303.387606 
L 245.782023 302.593492 
L 246.052399 304.293007 
L 246.322776 307.555983 
L 246.593152 305.378475 
L 246.863528 305.174399 
L 247.133905 305.194423 
L 247.404281 304.425351 
L 247.674658 304.444943 
L 247.945034 301.700172 
L 248.215411 307.511163 
L 248.485787 306.986672 
L 248.756164 305.24548 
L 249.02654 305.960198 
L 249.296917 305.056692 
L 249.567293 302.744674 
L 249.83767 307.188156 
L 250.108046 307.160704 
L 250.378423 306.838902 
L 250.648799 301.744061 
L 251.189552 305.246885 
L 251.459928 301.329198 
L 251.730305 305.078473 
L 252.000681 304.408865 
L 252.271058 306.971864 
L 252.541434 305.753635 
L 252.811811 301.916029 
L 253.082187 300.875678 
L 253.352564 301.921939 
L 253.62294 305.400558 
L 253.893317 305.957029 
L 254.163693 301.185993 
L 254.43407 307.463352 
L 254.704446 305.36863 
L 254.974823 306.907821 
L 255.245199 306.932327 
L 255.515575 306.196502 
L 255.785952 306.621382 
L 256.056328 307.497049 
L 256.326705 306.267813 
L 256.597081 306.069822 
L 256.867458 307.173069 
L 257.137834 303.734681 
L 257.408211 306.861467 
L 257.678587 305.382393 
L 257.948964 307.033495 
L 258.21934 307.569546 
L 258.489717 296.983339 
L 258.760093 306.774144 
L 259.03047 306.479406 
L 259.300846 299.111925 
L 259.571223 304.803582 
L 259.841599 307.049518 
L 260.111975 307.423911 
L 260.652728 301.887406 
L 260.923105 306.939263 
L 261.193481 303.153083 
L 261.463858 306.91003 
L 261.734234 306.011455 
L 262.004611 306.839492 
L 262.545364 304.520526 
L 262.81574 300.504746 
L 263.086117 294.541573 
L 263.356493 305.649385 
L 263.62687 303.529389 
L 263.897246 303.026163 
L 264.167623 304.042473 
L 264.708375 293.193545 
L 264.978752 304.620307 
L 265.249128 295.61567 
L 265.789881 306.113584 
L 266.060258 305.925531 
L 266.330634 302.883447 
L 266.601011 303.578754 
L 266.871387 306.64923 
L 267.141764 297.678951 
L 267.682517 307.2012 
L 267.952893 305.436766 
L 268.22327 298.745018 
L 268.493646 303.344101 
L 268.764022 301.442915 
L 269.034399 304.241223 
L 269.304775 301.113627 
L 269.575152 306.336697 
L 269.845528 306.407484 
L 270.115905 305.973135 
L 270.386281 305.133486 
L 270.656658 307.061536 
L 270.927034 307.222575 
L 271.197411 305.3969 
L 271.467787 306.028581 
L 271.738164 305.561529 
L 272.278917 306.790527 
L 272.549293 304.694354 
L 272.81967 306.522336 
L 273.090046 302.022549 
L 273.360422 305.311673 
L 273.630799 305.72544 
L 273.901175 295.998535 
L 274.171552 306.831755 
L 274.441928 306.963243 
L 274.712305 299.641162 
L 274.982681 297.938322 
L 275.253058 301.57183 
L 275.523434 306.704332 
L 275.793811 306.233068 
L 276.334564 305.991125 
L 276.60494 304.990886 
L 276.875317 306.728112 
L 277.41607 305.180155 
L 277.686446 305.67395 
L 277.956822 306.882001 
L 278.227199 293.927303 
L 278.767952 307.14444 
L 279.038328 299.918231 
L 279.308705 304.834312 
L 279.579081 305.629631 
L 279.849458 306.824147 
L 280.390211 307.19251 
L 280.660587 305.40554 
L 280.930964 307.2582 
L 281.20134 307.168661 
L 281.471717 306.676627 
L 281.742093 307.546331 
L 282.012469 306.323732 
L 282.282846 301.956488 
L 282.553222 301.730576 
L 282.823599 305.908361 
L 283.093975 304.976462 
L 283.364352 302.153289 
L 283.634728 305.164492 
L 283.905105 306.789009 
L 284.175481 305.246378 
L 284.445858 305.38902 
L 284.716234 306.896748 
L 285.256987 304.593223 
L 285.527364 302.126385 
L 285.79774 306.786313 
L 286.068117 307.450706 
L 286.338493 298.759108 
L 286.608869 307.249998 
L 286.879246 307.075793 
L 287.149622 306.60076 
L 287.419999 301.411654 
L 287.690375 307.42926 
L 287.960752 305.001792 
L 288.231128 305.964496 
L 288.501505 302.485967 
L 288.771881 306.953578 
L 289.312634 307.356757 
L 289.583011 307.177609 
L 289.853387 305.854281 
L 290.123764 305.623354 
L 290.39414 300.701784 
L 290.664516 305.909849 
L 290.934893 306.595294 
L 291.205269 302.540365 
L 292.016399 305.854339 
L 292.286775 305.348486 
L 292.557152 306.362577 
L 292.827528 305.22929 
L 293.097905 305.624508 
L 293.368281 306.837888 
L 293.638658 306.106082 
L 293.909034 304.124337 
L 294.179411 304.210801 
L 294.449787 305.136765 
L 294.720164 307.012179 
L 294.99054 306.990881 
L 295.260916 307.414367 
L 295.531293 307.19963 
L 295.801669 307.502979 
L 296.072046 307.554445 
L 296.342422 306.244149 
L 296.612799 306.18807 
L 296.883175 306.581653 
L 297.153552 306.147772 
L 297.423928 304.521834 
L 297.694305 302.145609 
L 297.964681 307.569244 
L 298.235058 307.25168 
L 298.505434 303.057537 
L 298.775811 304.841808 
L 299.046187 307.480685 
L 299.316564 306.473926 
L 299.58694 307.021281 
L 299.857316 304.031898 
L 300.127693 306.382292 
L 300.668446 307.553606 
L 300.938822 306.378272 
L 301.209199 307.073396 
L 301.479575 306.83532 
L 301.749952 303.9583 
L 302.020328 305.817393 
L 302.290705 306.469997 
L 302.561081 302.565977 
L 302.831458 305.366476 
L 303.101834 306.680938 
L 303.372211 304.393428 
L 303.642587 305.231101 
L 303.912963 306.656503 
L 304.18334 306.095618 
L 304.453716 306.116257 
L 304.724093 303.876769 
L 304.994469 306.931727 
L 305.264846 307.131769 
L 305.535222 304.964202 
L 305.805599 305.582915 
L 306.075975 306.93894 
L 306.346352 307.32972 
L 306.616728 305.656233 
L 306.887105 305.325524 
L 307.157481 304.733583 
L 307.427858 307.45425 
L 307.698234 307.089327 
L 307.968611 305.255563 
L 308.238987 304.220884 
L 308.509363 305.947911 
L 308.77974 303.133013 
L 309.050116 304.280821 
L 309.320493 306.493535 
L 309.861246 305.344889 
L 310.131622 307.360218 
L 310.401999 306.508263 
L 310.672375 305.259337 
L 311.213128 307.251369 
L 311.483505 306.192422 
L 311.753881 299.545799 
L 312.024258 307.043073 
L 312.294634 307.432841 
L 312.565011 307.194429 
L 312.835387 306.173034 
L 313.105763 301.87185 
L 313.646516 307.478763 
L 313.916893 306.309749 
L 314.187269 307.347051 
L 314.457646 307.261937 
L 314.728022 306.537155 
L 314.998399 307.510926 
L 315.268775 306.71474 
L 315.539152 306.510621 
L 315.809528 306.487599 
L 316.079905 306.013938 
L 316.350281 305.190087 
L 316.620658 305.276384 
L 316.891034 307.18847 
L 317.97254 305.806423 
L 318.242916 306.631298 
L 318.513293 305.13979 
L 318.783669 306.840354 
L 319.324422 307.237468 
L 319.865175 306.717029 
L 320.135552 302.483752 
L 320.405928 305.881471 
L 320.676305 307.412549 
L 320.946681 307.216867 
L 321.217058 307.507086 
L 321.487434 305.946384 
L 321.75781 307.291953 
L 322.028187 307.555258 
L 322.298563 306.21288 
L 322.839316 305.542844 
L 323.109693 305.466244 
L 323.380069 306.93732 
L 323.650446 307.272083 
L 324.191199 306.071301 
L 324.461575 301.961253 
L 325.002328 306.810598 
L 325.272705 300.239796 
L 325.543081 304.569687 
L 325.813457 306.637094 
L 326.083834 306.240852 
L 326.35421 306.966578 
L 326.624587 304.907491 
L 327.16534 306.831404 
L 327.435716 304.623628 
L 327.706093 300.96908 
L 327.976469 307.570491 
L 328.246846 307.58023 
L 328.517222 306.290205 
L 329.057975 306.970688 
L 329.328352 306.534217 
L 329.598728 303.373957 
L 329.869105 306.926707 
L 330.409857 307.407159 
L 330.680234 306.722392 
L 330.95061 304.496657 
L 331.220987 307.148742 
L 331.491363 307.299243 
L 331.76174 307.170755 
L 332.032116 307.392948 
L 332.302493 306.085463 
L 332.572869 307.050158 
L 333.113622 306.087643 
L 333.383999 307.037407 
L 333.654375 306.550896 
L 333.924752 306.771215 
L 334.195128 306.610521 
L 335.006257 307.336022 
L 335.276634 305.515976 
L 335.54701 306.419166 
L 335.817387 306.216181 
L 336.087763 306.331336 
L 336.35814 305.275108 
L 336.628516 306.122619 
L 336.898893 306.299108 
L 337.169269 306.313501 
L 337.439646 307.46684 
L 337.710022 307.125513 
L 338.250775 307.500439 
L 338.521152 307.35681 
L 338.791528 307.537066 
L 339.061904 307.468989 
L 339.332281 306.700875 
L 339.602657 306.354424 
L 339.873034 306.703284 
L 340.14341 306.85562 
L 340.413787 307.4058 
L 340.684163 306.337763 
L 340.95454 304.744901 
L 341.224916 304.948703 
L 341.495293 307.574073 
L 341.765669 305.944288 
L 342.036046 306.683361 
L 342.306422 306.706849 
L 342.576799 306.846307 
L 342.847175 307.19998 
L 343.387928 305.755786 
L 343.658304 307.023651 
L 343.928681 306.525556 
L 344.199057 307.460083 
L 344.469434 306.147027 
L 344.73981 307.221679 
L 345.010187 305.872418 
L 345.280563 306.334586 
L 345.55094 307.405818 
L 345.821316 305.580367 
L 346.091693 306.519469 
L 346.362069 306.81064 
L 346.632446 307.578189 
L 346.902822 306.737058 
L 347.173199 306.701587 
L 347.443575 307.484324 
L 347.713952 306.081961 
L 347.984328 307.108177 
L 348.254704 307.485397 
L 348.525081 305.765174 
L 349.065834 307.102795 
L 349.33621 304.685092 
L 349.606587 306.055182 
L 349.876963 304.082189 
L 350.14734 306.552634 
L 350.417716 306.129564 
L 350.688093 304.1165 
L 350.958469 307.14636 
L 351.499222 306.28157 
L 351.769599 306.724176 
L 352.039975 307.478703 
L 352.310351 304.666296 
L 352.580728 306.864808 
L 352.851104 307.093958 
L 353.121481 304.522414 
L 353.391857 307.094991 
L 353.662234 307.266906 
L 353.93261 306.428059 
L 354.202987 307.453543 
L 354.473363 305.776234 
L 354.74374 306.756221 
L 355.014116 303.00779 
L 355.554869 307.231628 
L 355.825246 306.183417 
L 356.095622 306.994662 
L 356.365999 307.375989 
L 356.636375 307.247244 
L 356.906751 306.954307 
L 357.177128 307.214369 
L 357.447504 304.812594 
L 357.717881 304.353361 
L 357.988257 306.431348 
L 358.258634 305.04024 
L 358.52901 307.184841 
L 359.069763 304.529223 
L 359.34014 304.540663 
L 359.880893 307.059171 
L 360.151269 306.63719 
L 360.421646 304.92367 
L 360.692022 304.540337 
L 360.962399 306.869749 
L 361.232775 306.807042 
L 361.503151 303.682901 
L 361.773528 307.149905 
L 362.043904 306.172539 
L 362.314281 305.835835 
L 362.584657 306.689641 
L 362.855034 305.510204 
L 363.12541 306.274841 
L 363.395787 306.048031 
L 363.666163 306.343128 
L 363.93654 307.452043 
L 364.206916 303.7147 
L 364.477293 307.442254 
L 364.747669 307.172206 
L 365.018046 306.458338 
L 365.288422 307.292441 
L 365.558798 305.954603 
L 365.829175 307.573142 
L 366.099551 305.829576 
L 366.369928 307.481745 
L 366.640304 300.319444 
L 366.910681 306.413137 
L 367.181057 306.514923 
L 367.992187 305.469026 
L 368.262563 305.61799 
L 368.53294 303.848558 
L 368.803316 306.433911 
L 369.073693 306.654206 
L 369.344069 306.610609 
L 369.614446 307.48705 
L 369.884822 305.662954 
L 370.155198 307.085898 
L 370.425575 307.434755 
L 370.966328 307.54295 
L 371.507081 306.939994 
L 371.777457 305.935469 
L 372.047834 307.580836 
L 372.588587 306.495338 
L 373.12934 307.519709 
L 373.399716 307.303796 
L 373.670093 305.247684 
L 373.940469 304.348395 
L 374.210845 307.369502 
L 374.481222 306.917437 
L 374.751598 307.031435 
L 375.021975 306.896427 
L 375.292351 306.390908 
L 375.562728 306.950866 
L 375.833104 306.115557 
L 376.103481 307.484749 
L 376.644234 306.973147 
L 376.91461 307.525681 
L 377.184987 307.504622 
L 377.455363 306.061903 
L 377.72574 307.530082 
L 377.996116 305.136554 
L 378.266493 306.955669 
L 378.536869 306.601939 
L 378.807245 307.009119 
L 379.077622 305.540216 
L 379.347998 307.407784 
L 379.618375 307.061138 
L 379.888751 304.69498 
L 380.159128 307.542056 
L 380.429504 305.420524 
L 380.699881 307.553032 
L 380.970257 306.6241 
L 381.240634 306.839495 
L 381.51101 305.411748 
L 381.781387 305.538887 
L 382.051763 306.928918 
L 382.32214 305.704358 
L 382.862893 307.527114 
L 383.133269 304.664343 
L 383.403645 304.867732 
L 383.674022 306.763823 
L 383.944398 306.398891 
L 384.214775 305.725078 
L 384.485151 306.541645 
L 384.755528 306.789244 
L 385.025904 306.40508 
L 385.296281 307.223572 
L 385.566657 307.233365 
L 385.837034 307.022566 
L 386.10741 306.062857 
L 386.648163 307.404387 
L 386.91854 307.006027 
L 387.459292 307.531907 
L 387.729669 304.276179 
L 388.000045 307.015772 
L 388.270422 307.307335 
L 388.811175 307.169056 
L 389.351928 306.446234 
L 389.892681 307.332229 
L 390.163057 307.409151 
L 390.433434 307.21798 
L 390.70381 307.474846 
L 390.974187 306.841426 
L 391.244563 307.027393 
L 391.51494 307.374972 
L 391.785316 306.162718 
L 392.326069 307.542778 
L 392.596445 307.034639 
L 392.866822 304.039106 
L 393.137198 302.58519 
L 393.407575 307.557934 
L 393.677951 305.764542 
L 393.948328 307.46083 
L 394.218704 307.53685 
L 394.489081 307.30906 
L 394.759457 306.653077 
L 395.029834 307.434412 
L 395.30021 306.562283 
L 395.570587 306.456927 
L 396.11134 307.285249 
L 396.381716 307.416836 
L 396.652092 307.277399 
L 396.922469 306.757398 
L 397.192845 307.033543 
L 397.463222 306.902624 
L 398.003975 307.485716 
L 398.274351 305.362101 
L 398.544728 305.990144 
L 398.815104 307.264797 
L 399.355857 307.42259 
L 399.626234 306.556668 
L 399.89661 307.547102 
L 400.166987 307.402389 
L 400.437363 307.036247 
L 401.248492 307.559623 
L 401.518869 306.426785 
L 402.059622 307.468508 
L 402.329998 307.58202 
L 402.870751 305.683249 
L 403.141128 307.252051 
L 403.411504 305.471388 
L 403.681881 307.539685 
L 403.952257 307.19596 
L 404.222634 307.515089 
L 405.574516 307.249508 
L 406.115269 306.81882 
L 406.385645 307.578048 
L 406.656022 307.3053 
L 406.926398 306.535064 
L 407.196775 307.546516 
L 407.467151 307.196143 
L 407.737528 306.564507 
L 408.007904 307.483096 
L 408.278281 306.434545 
L 408.548657 307.130792 
L 408.819034 307.436171 
L 409.900539 306.292017 
L 410.170916 307.050815 
L 410.441292 306.675948 
L 410.711669 307.357528 
L 410.982045 306.81404 
L 411.252422 307.140051 
L 411.522798 305.892759 
L 411.793175 307.55906 
L 412.063551 306.326274 
L 412.333928 307.447105 
L 412.604304 307.403641 
L 412.874681 306.948555 
L 413.145057 307.457101 
L 413.415434 306.929382 
L 413.68581 307.270885 
L 414.226563 306.793588 
L 414.496939 307.194891 
L 414.767316 307.066553 
L 414.767316 307.066553 
" style="fill:none;stroke:#000000;stroke-linecap:square;stroke-width:1.5;"/>
   </g>
   <g id="line2d_14">
    <path clip-path="url(#p4da1f66b16)" d="M 58.900436 -1 
L 58.951831 98.17399 
L 59.083701 -1 
M 59.290933 -1 
L 59.492564 304.537667 
L 59.76293 221.230379 
L 60.033296 281.529382 
L 60.249223 -1 
M 60.379096 -1 
L 60.574029 183.074433 
L 60.784097 -1 
M 60.904768 -1 
L 61.114761 182.778314 
L 61.385127 193.28817 
L 61.655494 70.57082 
L 61.92586 228.202701 
L 62.196226 232.436405 
L 62.466592 175.127563 
L 62.736958 245.82002 
L 63.007325 37.248135 
L 63.277691 222.611788 
L 63.548057 301.90933 
L 63.818423 280.754522 
L 64.08879 275.352833 
L 64.359156 182.65819 
L 64.629522 160.397962 
L 64.899888 305.241495 
L 65.170255 270.058062 
L 65.440621 211.297834 
L 65.710987 302.427449 
L 65.981353 279.0894 
L 66.25172 199.749503 
L 66.522086 247.256977 
L 66.792452 258.948872 
L 67.062818 187.981612 
L 67.333184 283.365679 
L 67.603551 159.090936 
L 67.873917 298.721863 
L 68.414649 211.380939 
L 68.685016 284.130211 
L 68.955382 275.614563 
L 69.225748 297.997762 
L 69.496114 276.645893 
L 69.766481 244.920475 
L 70.036847 301.715659 
L 70.307213 241.945627 
L 70.577579 277.792468 
L 70.847945 275.685131 
L 71.118312 277.385231 
L 71.388678 260.69387 
L 71.659044 263.266177 
L 71.92941 306.410522 
L 72.199777 287.361828 
L 72.470143 235.803154 
L 73.281242 269.789368 
L 73.551608 305.682132 
L 73.821974 262.640297 
L 74.09234 200.292361 
L 74.362707 195.578529 
L 74.633073 298.855968 
L 74.903439 221.707644 
L 75.173805 282.008215 
L 75.444171 259.788343 
L 75.714538 250.021392 
L 75.984904 298.531972 
L 76.25527 275.870258 
L 76.525636 265.121545 
L 76.796003 267.391369 
L 77.066369 251.196242 
L 77.336735 303.861946 
L 77.607101 227.380665 
L 77.877468 239.79975 
L 78.147834 305.663801 
L 78.4182 279.642079 
L 78.688566 221.531863 
L 78.958933 279.347995 
L 79.229299 288.105449 
L 79.499665 301.706975 
L 79.770031 303.289968 
L 80.040397 306.345754 
L 80.310764 305.010939 
L 80.58113 307.474652 
L 80.851496 307.10005 
L 81.121862 306.956531 
L 81.932961 307.400834 
L 82.203327 307.342042 
L 82.74406 307.421022 
L 95.180907 307.551093 
L 414.753796 307.583809 
L 414.753796 307.583809 
" style="fill:none;stroke:#008000;stroke-linecap:square;stroke-width:1.5;"/>
   </g>
   <g id="line2d_15">
    <path clip-path="url(#p4da1f66b16)" d="M 57.329634 307.571158 
L 57.6 307.372225 
L 57.870366 307.571158 
L 91.125413 307.535006 
L 91.395779 306.436856 
L 91.666146 307.110072 
L 91.936512 304.054447 
L 92.206878 306.338549 
L 92.477244 306.890318 
L 92.74761 300.147459 
L 93.017977 269.300396 
L 93.288343 304.55037 
L 93.558709 306.565284 
L 93.829075 302.72728 
L 94.099442 288.155789 
L 94.369808 290.984742 
L 94.640174 174.131145 
L 94.91054 246.912342 
L 95.180907 155.718399 
L 95.451273 298.976874 
L 95.721639 54.89354 
L 95.992005 306.034844 
L 96.262372 169.458753 
L 96.532738 288.829207 
L 96.803104 304.744906 
L 97.07347 291.400962 
L 97.614203 187.893086 
L 97.884569 243.302925 
L 98.154935 105.287265 
L 98.425301 159.82355 
L 98.695668 152.173387 
L 98.966034 299.774867 
L 99.2364 231.566834 
L 99.506766 221.702223 
L 99.777133 275.168345 
L 100.047499 264.700986 
L 100.317865 272.953287 
L 100.588231 41.472 
L 100.858598 302.802655 
L 101.128964 203.91238 
L 101.39933 264.956959 
L 101.669696 215.564003 
L 101.940062 228.891503 
L 102.210429 292.021336 
L 102.751161 184.349265 
L 103.021527 191.548393 
L 103.291894 256.113907 
L 103.56226 252.14564 
L 103.832626 261.547879 
L 104.102992 261.190012 
L 104.373359 167.820074 
L 104.643725 171.224196 
L 104.914091 298.772941 
L 105.184457 259.574757 
L 105.454824 264.165772 
L 105.72519 200.575258 
L 105.995556 300.622956 
L 106.265922 208.330413 
L 106.536288 286.50386 
L 106.806655 159.399312 
L 107.077021 192.385025 
L 107.347387 295.089728 
L 107.617753 136.379561 
L 107.88812 305.222785 
L 108.158486 122.315214 
L 108.428852 236.076173 
L 108.699218 240.766788 
L 108.969585 217.401676 
L 109.239951 221.005072 
L 109.510317 267.588868 
L 109.780683 229.591216 
L 110.051049 291.449444 
L 110.321416 173.385625 
L 110.591782 227.050738 
L 110.862148 234.597778 
L 111.132514 164.323805 
L 111.402881 277.160341 
L 111.673247 287.805307 
L 111.943613 179.149264 
L 112.213979 248.05155 
L 112.484346 272.397798 
L 112.754712 269.934114 
L 113.025078 91.159329 
L 113.565811 281.689469 
L 113.836177 299.491305 
L 114.106543 303.252254 
L 114.376909 239.246801 
L 114.647275 294.57176 
L 114.917642 254.795851 
L 115.458374 298.339731 
L 115.72874 307.507044 
L 115.999107 260.214678 
L 116.269473 271.705165 
L 116.539839 277.822266 
L 116.810205 307.277197 
L 117.080572 305.707542 
L 117.350938 269.945313 
L 117.621304 298.959865 
L 117.89167 291.397223 
L 118.162037 221.823158 
L 118.432403 296.5534 
L 118.702769 289.17458 
L 118.973135 296.085554 
L 119.243501 282.394222 
L 119.513868 261.714872 
L 119.784234 297.525069 
L 120.0546 219.863551 
L 120.324966 281.350753 
L 120.595333 241.127081 
L 120.865699 140.461419 
L 121.136065 296.647583 
L 121.406431 300.438836 
L 121.676798 299.021137 
L 121.947164 276.39837 
L 122.487896 287.99748 
L 122.758263 261.681911 
L 123.028629 298.912853 
L 123.298995 299.307562 
L 123.569361 273.442824 
L 123.839727 302.739391 
L 124.110094 283.974699 
L 124.38046 242.844527 
L 124.650826 268.02339 
L 124.921192 256.249318 
L 125.191559 296.474825 
L 125.461925 298.188564 
L 125.732291 306.347893 
L 126.002657 302.640916 
L 126.273024 288.044131 
L 126.54339 286.132362 
L 126.813756 270.862767 
L 127.084122 296.672184 
L 127.354489 302.406837 
L 127.895221 278.212324 
L 128.165587 297.319703 
L 128.435953 305.928434 
L 128.70632 294.255106 
L 128.976686 220.907727 
L 129.247052 296.41877 
L 129.517418 300.919711 
L 129.787785 302.779585 
L 130.058151 303.811354 
L 130.328517 279.234646 
L 130.598883 305.199578 
L 130.86925 296.936747 
L 131.139616 280.276913 
L 131.409982 300.26157 
L 131.680348 264.822969 
L 131.950714 282.889378 
L 132.221081 274.061855 
L 132.491447 295.339799 
L 133.032179 252.898667 
L 133.302546 305.292375 
L 133.572912 298.963814 
L 133.843278 276.698657 
L 134.113644 274.823938 
L 134.384011 299.340848 
L 134.654377 302.682718 
L 135.195109 279.792401 
L 135.465476 279.174716 
L 135.735842 302.114521 
L 136.006208 304.317713 
L 136.276574 305.600071 
L 136.54694 301.04366 
L 136.817307 306.487683 
L 137.087673 304.744612 
L 137.358039 307.043906 
L 137.628405 307.054273 
L 137.898772 307.329586 
L 138.980237 307.565812 
L 141.143166 307.572105 
L 293.629723 307.583828 
L 414.753796 307.583935 
L 414.753796 307.583935 
" style="fill:none;stroke:#0000ff;stroke-linecap:square;stroke-width:1.5;"/>
   </g>
   <g id="patch_3">
    <path d="M 57.6 307.584 
L 57.6 41.472 
" style="fill:none;stroke:#000000;stroke-linecap:square;stroke-linejoin:miter;stroke-width:0.8;"/>
   </g>
   <g id="patch_4">
    <path d="M 414.72 307.584 
L 414.72 41.472 
" style="fill:none;stroke:#000000;stroke-linecap:square;stroke-linejoin:miter;stroke-width:0.8;"/>
   </g>
   <g id="patch_5">
    <path d="M 57.6 307.584 
L 414.72 307.584 
" style="fill:none;stroke:#000000;stroke-linecap:square;stroke-linejoin:miter;stroke-width:0.8;"/>
   </g>
   <g id="patch_6">
    <path d="M 57.6 41.472 
L 414.72 41.472 
" style="fill:none;stroke:#000000;stroke-linecap:square;stroke-linejoin:miter;stroke-width:0.8;"/>
   </g>
   <g id="legend_1">
    <g id="patch_7">
     <path d="M 305.66 124.727 
L 403.52 124.727 
Q 406.72 124.727 406.72 121.527 
L 406.72 52.672 
Q 406.72 49.472 403.52 49.472 
L 305.66 49.472 
Q 302.46 49.472 302.46 52.672 
L 302.46 121.527 
Q 302.46 124.727 305.66 124.727 
z
" style="fill:#ffffff;opacity:0.8;stroke:#cccccc;stroke-linejoin:miter;"/>
    </g>
    <g id="line2d_16">
     <path d="M 308.86 62.4295 
L 340.86 62.4295 
" style="fill:none;stroke:#000000;stroke-linecap:square;stroke-width:1.5;"/>
    </g>
    <g id="line2d_17"/>
    <g id="text_16">
     <!-- V -->
     <defs>
      <path d="M 28.609375 0 
L 0.78125 72.90625 
L 11.078125 72.90625 
L 34.1875 11.53125 
L 57.328125 72.90625 
L 67.578125 72.90625 
L 39.796875 0 
z
" id="DejaVuSans-56"/>
     </defs>
     <g transform="translate(353.66 68.0295)scale(0.16 -0.16)">
      <use xlink:href="#DejaVuSans-56"/>
     </g>
    </g>
    <g id="line2d_18">
     <path d="M 308.86 85.9145 
L 340.86 85.9145 
" style="fill:none;stroke:#008000;stroke-linecap:square;stroke-width:1.5;"/>
    </g>
    <g id="line2d_19"/>
    <g id="text_17">
     <!-- Ramp -->
     <defs>
      <path d="M 44.390625 34.1875 
Q 47.5625 33.109375 50.5625 29.59375 
Q 53.5625 26.078125 56.59375 19.921875 
L 66.609375 0 
L 56 0 
L 46.6875 18.703125 
Q 43.0625 26.03125 39.671875 28.421875 
Q 36.28125 30.8125 30.421875 30.8125 
L 19.671875 30.8125 
L 19.671875 0 
L 9.8125 0 
L 9.8125 72.90625 
L 32.078125 72.90625 
Q 44.578125 72.90625 50.734375 67.671875 
Q 56.890625 62.453125 56.890625 51.90625 
Q 56.890625 45.015625 53.6875 40.46875 
Q 50.484375 35.9375 44.390625 34.1875 
z
M 19.671875 64.796875 
L 19.671875 38.921875 
L 32.078125 38.921875 
Q 39.203125 38.921875 42.84375 42.21875 
Q 46.484375 45.515625 46.484375 51.90625 
Q 46.484375 58.296875 42.84375 61.546875 
Q 39.203125 64.796875 32.078125 64.796875 
z
" id="DejaVuSans-52"/>
      <path d="M 34.28125 27.484375 
Q 23.390625 27.484375 19.1875 25 
Q 14.984375 22.515625 14.984375 16.5 
Q 14.984375 11.71875 18.140625 8.90625 
Q 21.296875 6.109375 26.703125 6.109375 
Q 34.1875 6.109375 38.703125 11.40625 
Q 43.21875 16.703125 43.21875 25.484375 
L 43.21875 27.484375 
z
M 52.203125 31.203125 
L 52.203125 0 
L 43.21875 0 
L 43.21875 8.296875 
Q 40.140625 3.328125 35.546875 0.953125 
Q 30.953125 -1.421875 24.3125 -1.421875 
Q 15.921875 -1.421875 10.953125 3.296875 
Q 6 8.015625 6 15.921875 
Q 6 25.140625 12.171875 29.828125 
Q 18.359375 34.515625 30.609375 34.515625 
L 43.21875 34.515625 
L 43.21875 35.40625 
Q 43.21875 41.609375 39.140625 45 
Q 35.0625 48.390625 27.6875 48.390625 
Q 23 48.390625 18.546875 47.265625 
Q 14.109375 46.140625 10.015625 43.890625 
L 10.015625 52.203125 
Q 14.9375 54.109375 19.578125 55.046875 
Q 24.21875 56 28.609375 56 
Q 40.484375 56 46.34375 49.84375 
Q 52.203125 43.703125 52.203125 31.203125 
z
" id="DejaVuSans-61"/>
      <path d="M 52 44.1875 
Q 55.375 50.25 60.0625 53.125 
Q 64.75 56 71.09375 56 
Q 79.640625 56 84.28125 50.015625 
Q 88.921875 44.046875 88.921875 33.015625 
L 88.921875 0 
L 79.890625 0 
L 79.890625 32.71875 
Q 79.890625 40.578125 77.09375 44.375 
Q 74.3125 48.1875 68.609375 48.1875 
Q 61.625 48.1875 57.5625 43.546875 
Q 53.515625 38.921875 53.515625 30.90625 
L 53.515625 0 
L 44.484375 0 
L 44.484375 32.71875 
Q 44.484375 40.625 41.703125 44.40625 
Q 38.921875 48.1875 33.109375 48.1875 
Q 26.21875 48.1875 22.15625 43.53125 
Q 18.109375 38.875 18.109375 30.90625 
L 18.109375 0 
L 9.078125 0 
L 9.078125 54.6875 
L 18.109375 54.6875 
L 18.109375 46.1875 
Q 21.1875 51.21875 25.484375 53.609375 
Q 29.78125 56 35.6875 56 
Q 41.65625 56 45.828125 52.96875 
Q 50 49.953125 52 44.1875 
z
" id="DejaVuSans-6d"/>
      <path d="M 18.109375 8.203125 
L 18.109375 -20.796875 
L 9.078125 -20.796875 
L 9.078125 54.6875 
L 18.109375 54.6875 
L 18.109375 46.390625 
Q 20.953125 51.265625 25.265625 53.625 
Q 29.59375 56 35.59375 56 
Q 45.5625 56 51.78125 48.09375 
Q 58.015625 40.1875 58.015625 27.296875 
Q 58.015625 14.40625 51.78125 6.484375 
Q 45.5625 -1.421875 35.59375 -1.421875 
Q 29.59375 -1.421875 25.265625 0.953125 
Q 20.953125 3.328125 18.109375 8.203125 
z
M 48.6875 27.296875 
Q 48.6875 37.203125 44.609375 42.84375 
Q 40.53125 48.484375 33.40625 48.484375 
Q 26.265625 48.484375 22.1875 42.84375 
Q 18.109375 37.203125 18.109375 27.296875 
Q 18.109375 17.390625 22.1875 11.75 
Q 26.265625 6.109375 33.40625 6.109375 
Q 40.53125 6.109375 44.609375 11.75 
Q 48.6875 17.390625 48.6875 27.296875 
z
" id="DejaVuSans-70"/>
     </defs>
     <g transform="translate(353.66 91.5145)scale(0.16 -0.16)">
      <use xlink:href="#DejaVuSans-52"/>
      <use x="69.451172" xlink:href="#DejaVuSans-61"/>
      <use x="130.730469" xlink:href="#DejaVuSans-6d"/>
      <use x="228.142578" xlink:href="#DejaVuSans-70"/>
     </g>
    </g>
    <g id="line2d_20">
     <path d="M 308.86 109.3995 
L 340.86 109.3995 
" style="fill:none;stroke:#0000ff;stroke-linecap:square;stroke-width:1.5;"/>
    </g>
    <g id="line2d_21"/>
    <g id="text_18">
     <!-- Theta -->
     <defs>
      <path d="M -0.296875 72.90625 
L 61.375 72.90625 
L 61.375 64.59375 
L 35.5 64.59375 
L 35.5 0 
L 25.59375 0 
L 25.59375 64.59375 
L -0.296875 64.59375 
z
" id="DejaVuSans-54"/>
      <path d="M 54.890625 33.015625 
L 54.890625 0 
L 45.90625 0 
L 45.90625 32.71875 
Q 45.90625 40.484375 42.875 44.328125 
Q 39.84375 48.1875 33.796875 48.1875 
Q 26.515625 48.1875 22.3125 43.546875 
Q 18.109375 38.921875 18.109375 30.90625 
L 18.109375 0 
L 9.078125 0 
L 9.078125 75.984375 
L 18.109375 75.984375 
L 18.109375 46.1875 
Q 21.34375 51.125 25.703125 53.5625 
Q 30.078125 56 35.796875 56 
Q 45.21875 56 50.046875 50.171875 
Q 54.890625 44.34375 54.890625 33.015625 
z
" id="DejaVuSans-68"/>
      <path d="M 18.3125 70.21875 
L 18.3125 54.6875 
L 36.8125 54.6875 
L 36.8125 47.703125 
L 18.3125 47.703125 
L 18.3125 18.015625 
Q 18.3125 11.328125 20.140625 9.421875 
Q 21.96875 7.515625 27.59375 7.515625 
L 36.8125 7.515625 
L 36.8125 0 
L 27.59375 0 
Q 17.1875 0 13.234375 3.875 
Q 9.28125 7.765625 9.28125 18.015625 
L 9.28125 47.703125 
L 2.6875 47.703125 
L 2.6875 54.6875 
L 9.28125 54.6875 
L 9.28125 70.21875 
z
" id="DejaVuSans-74"/>
     </defs>
     <g transform="translate(353.66 114.9995)scale(0.16 -0.16)">
      <use xlink:href="#DejaVuSans-54"/>
      <use x="61.083984" xlink:href="#DejaVuSans-68"/>
      <use x="124.462891" xlink:href="#DejaVuSans-65"/>
      <use x="185.986328" xlink:href="#DejaVuSans-74"/>
      <use x="225.195312" xlink:href="#DejaVuSans-61"/>
     </g>
    </g>
   </g>
  </g>
 </g>
 <defs>
  <clipPath id="p4da1f66b16">
   <rect height="266.112" width="357.12" x="57.6" y="41.472"/>
  </clipPath>
 </defs>
</svg>
