<?xml version="1.0" encoding="utf-8" standalone="no"?>
<!DOCTYPE svg PUBLIC "-//W3C//DTD SVG 1.1//EN"
  "http://www.w3.org/Graphics/SVG/1.1/DTD/svg11.dtd">
<!-- Created with matplotlib (http://matplotlib.org/) -->
<svg height="345pt" version="1.1" viewBox="0 0 460 345" width="460pt" xmlns="http://www.w3.org/2000/svg" xmlns:xlink="http://www.w3.org/1999/xlink">
 <defs>
  <style type="text/css">
*{stroke-linecap:butt;stroke-linejoin:round;}
  </style>
 </defs>
 <g id="figure_1">
  <g id="patch_1">
   <path d="M 0 345.6 
L 460.8 345.6 
L 460.8 0 
L 0 0 
z
" style="fill:#ffffff;"/>
  </g>
  <g id="axes_1">
   <g id="patch_2">
    <path d="M 57.6 307.584 
L 414.72 307.584 
L 414.72 41.472 
L 57.6 41.472 
z
" style="fill:#ffffff;"/>
   </g>
   <g id="patch_3">
    <path clip-path="url(#p8a6449ab40)" d="M 73.832727 307.584 
L 77.112066 307.584 
L 77.112066 307.584 
L 73.832727 307.584 
z
" style="fill:#ff0000;opacity:0.5;"/>
   </g>
   <g id="patch_4">
    <path clip-path="url(#p8a6449ab40)" d="M 77.112066 307.584 
L 80.391405 307.584 
L 80.391405 79.488 
L 77.112066 79.488 
z
" style="fill:#ff0000;opacity:0.5;"/>
   </g>
   <g id="patch_5">
    <path clip-path="url(#p8a6449ab40)" d="M 80.391405 307.584 
L 83.670744 307.584 
L 83.670744 160.5888 
L 80.391405 160.5888 
z
" style="fill:#ff0000;opacity:0.5;"/>
   </g>
   <g id="patch_6">
    <path clip-path="url(#p8a6449ab40)" d="M 83.670744 307.584 
L 86.950083 307.584 
L 86.950083 259.4304 
L 83.670744 259.4304 
z
" style="fill:#ff0000;opacity:0.5;"/>
   </g>
   <g id="patch_7">
    <path clip-path="url(#p8a6449ab40)" d="M 86.950083 307.584 
L 90.229421 307.584 
L 90.229421 267.0336 
L 86.950083 267.0336 
z
" style="fill:#ff0000;opacity:0.5;"/>
   </g>
   <g id="patch_8">
    <path clip-path="url(#p8a6449ab40)" d="M 90.229421 307.584 
L 93.50876 307.584 
L 93.50876 267.0336 
L 90.229421 267.0336 
z
" style="fill:#ff0000;opacity:0.5;"/>
   </g>
   <g id="patch_9">
    <path clip-path="url(#p8a6449ab40)" d="M 93.50876 307.584 
L 96.788099 307.584 
L 96.788099 269.568 
L 93.50876 269.568 
z
" style="fill:#ff0000;opacity:0.5;"/>
   </g>
   <g id="patch_10">
    <path clip-path="url(#p8a6449ab40)" d="M 96.788099 307.584 
L 100.067438 307.584 
L 100.067438 292.3776 
L 96.788099 292.3776 
z
" style="fill:#ff0000;opacity:0.5;"/>
   </g>
   <g id="patch_11">
    <path clip-path="url(#p8a6449ab40)" d="M 100.067438 307.584 
L 103.346777 307.584 
L 103.346777 299.9808 
L 100.067438 299.9808 
z
" style="fill:#ff0000;opacity:0.5;"/>
   </g>
   <g id="patch_12">
    <path clip-path="url(#p8a6449ab40)" d="M 103.346777 307.584 
L 106.626116 307.584 
L 106.626116 284.7744 
L 103.346777 284.7744 
z
" style="fill:#ff0000;opacity:0.5;"/>
   </g>
   <g id="patch_13">
    <path clip-path="url(#p8a6449ab40)" d="M 106.626116 307.584 
L 109.905455 307.584 
L 109.905455 297.4464 
L 106.626116 297.4464 
z
" style="fill:#ff0000;opacity:0.5;"/>
   </g>
   <g id="patch_14">
    <path clip-path="url(#p8a6449ab40)" d="M 109.905455 307.584 
L 113.184793 307.584 
L 113.184793 297.4464 
L 109.905455 297.4464 
z
" style="fill:#ff0000;opacity:0.5;"/>
   </g>
   <g id="patch_15">
    <path clip-path="url(#p8a6449ab40)" d="M 113.184793 307.584 
L 116.464132 307.584 
L 116.464132 294.912 
L 113.184793 294.912 
z
" style="fill:#ff0000;opacity:0.5;"/>
   </g>
   <g id="patch_16">
    <path clip-path="url(#p8a6449ab40)" d="M 116.464132 307.584 
L 119.743471 307.584 
L 119.743471 294.912 
L 116.464132 294.912 
z
" style="fill:#ff0000;opacity:0.5;"/>
   </g>
   <g id="patch_17">
    <path clip-path="url(#p8a6449ab40)" d="M 119.743471 307.584 
L 123.02281 307.584 
L 123.02281 299.9808 
L 119.743471 299.9808 
z
" style="fill:#ff0000;opacity:0.5;"/>
   </g>
   <g id="patch_18">
    <path clip-path="url(#p8a6449ab40)" d="M 123.02281 307.584 
L 126.302149 307.584 
L 126.302149 292.3776 
L 123.02281 292.3776 
z
" style="fill:#ff0000;opacity:0.5;"/>
   </g>
   <g id="patch_19">
    <path clip-path="url(#p8a6449ab40)" d="M 126.302149 307.584 
L 129.581488 307.584 
L 129.581488 302.5152 
L 126.302149 302.5152 
z
" style="fill:#ff0000;opacity:0.5;"/>
   </g>
   <g id="patch_20">
    <path clip-path="url(#p8a6449ab40)" d="M 129.581488 307.584 
L 132.860826 307.584 
L 132.860826 305.0496 
L 129.581488 305.0496 
z
" style="fill:#ff0000;opacity:0.5;"/>
   </g>
   <g id="patch_21">
    <path clip-path="url(#p8a6449ab40)" d="M 132.860826 307.584 
L 136.140165 307.584 
L 136.140165 299.9808 
L 132.860826 299.9808 
z
" style="fill:#ff0000;opacity:0.5;"/>
   </g>
   <g id="patch_22">
    <path clip-path="url(#p8a6449ab40)" d="M 136.140165 307.584 
L 139.419504 307.584 
L 139.419504 299.9808 
L 136.140165 299.9808 
z
" style="fill:#ff0000;opacity:0.5;"/>
   </g>
   <g id="patch_23">
    <path clip-path="url(#p8a6449ab40)" d="M 139.419504 307.584 
L 142.698843 307.584 
L 142.698843 297.4464 
L 139.419504 297.4464 
z
" style="fill:#ff0000;opacity:0.5;"/>
   </g>
   <g id="patch_24">
    <path clip-path="url(#p8a6449ab40)" d="M 142.698843 307.584 
L 145.978182 307.584 
L 145.978182 305.0496 
L 142.698843 305.0496 
z
" style="fill:#ff0000;opacity:0.5;"/>
   </g>
   <g id="patch_25">
    <path clip-path="url(#p8a6449ab40)" d="M 145.978182 307.584 
L 149.257521 307.584 
L 149.257521 305.0496 
L 145.978182 305.0496 
z
" style="fill:#ff0000;opacity:0.5;"/>
   </g>
   <g id="patch_26">
    <path clip-path="url(#p8a6449ab40)" d="M 149.257521 307.584 
L 152.53686 307.584 
L 152.53686 302.5152 
L 149.257521 302.5152 
z
" style="fill:#ff0000;opacity:0.5;"/>
   </g>
   <g id="patch_27">
    <path clip-path="url(#p8a6449ab40)" d="M 152.53686 307.584 
L 155.816198 307.584 
L 155.816198 302.5152 
L 152.53686 302.5152 
z
" style="fill:#ff0000;opacity:0.5;"/>
   </g>
   <g id="patch_28">
    <path clip-path="url(#p8a6449ab40)" d="M 155.816198 307.584 
L 159.095537 307.584 
L 159.095537 302.5152 
L 155.816198 302.5152 
z
" style="fill:#ff0000;opacity:0.5;"/>
   </g>
   <g id="patch_29">
    <path clip-path="url(#p8a6449ab40)" d="M 159.095537 307.584 
L 162.374876 307.584 
L 162.374876 302.5152 
L 159.095537 302.5152 
z
" style="fill:#ff0000;opacity:0.5;"/>
   </g>
   <g id="patch_30">
    <path clip-path="url(#p8a6449ab40)" d="M 162.374876 307.584 
L 165.654215 307.584 
L 165.654215 305.0496 
L 162.374876 305.0496 
z
" style="fill:#ff0000;opacity:0.5;"/>
   </g>
   <g id="patch_31">
    <path clip-path="url(#p8a6449ab40)" d="M 165.654215 307.584 
L 168.933554 307.584 
L 168.933554 305.0496 
L 165.654215 305.0496 
z
" style="fill:#ff0000;opacity:0.5;"/>
   </g>
   <g id="patch_32">
    <path clip-path="url(#p8a6449ab40)" d="M 168.933554 307.584 
L 172.212893 307.584 
L 172.212893 305.0496 
L 168.933554 305.0496 
z
" style="fill:#ff0000;opacity:0.5;"/>
   </g>
   <g id="patch_33">
    <path clip-path="url(#p8a6449ab40)" d="M 172.212893 307.584 
L 175.492231 307.584 
L 175.492231 305.0496 
L 172.212893 305.0496 
z
" style="fill:#ff0000;opacity:0.5;"/>
   </g>
   <g id="patch_34">
    <path clip-path="url(#p8a6449ab40)" d="M 175.492231 307.584 
L 178.77157 307.584 
L 178.77157 305.0496 
L 175.492231 305.0496 
z
" style="fill:#ff0000;opacity:0.5;"/>
   </g>
   <g id="patch_35">
    <path clip-path="url(#p8a6449ab40)" d="M 178.77157 307.584 
L 182.050909 307.584 
L 182.050909 305.0496 
L 178.77157 305.0496 
z
" style="fill:#ff0000;opacity:0.5;"/>
   </g>
   <g id="patch_36">
    <path clip-path="url(#p8a6449ab40)" d="M 182.050909 307.584 
L 185.330248 307.584 
L 185.330248 305.0496 
L 182.050909 305.0496 
z
" style="fill:#ff0000;opacity:0.5;"/>
   </g>
   <g id="patch_37">
    <path clip-path="url(#p8a6449ab40)" d="M 185.330248 307.584 
L 188.609587 307.584 
L 188.609587 302.5152 
L 185.330248 302.5152 
z
" style="fill:#ff0000;opacity:0.5;"/>
   </g>
   <g id="patch_38">
    <path clip-path="url(#p8a6449ab40)" d="M 188.609587 307.584 
L 191.888926 307.584 
L 191.888926 302.5152 
L 188.609587 302.5152 
z
" style="fill:#ff0000;opacity:0.5;"/>
   </g>
   <g id="patch_39">
    <path clip-path="url(#p8a6449ab40)" d="M 191.888926 307.584 
L 195.168264 307.584 
L 195.168264 305.0496 
L 191.888926 305.0496 
z
" style="fill:#ff0000;opacity:0.5;"/>
   </g>
   <g id="patch_40">
    <path clip-path="url(#p8a6449ab40)" d="M 195.168264 307.584 
L 198.447603 307.584 
L 198.447603 305.0496 
L 195.168264 305.0496 
z
" style="fill:#ff0000;opacity:0.5;"/>
   </g>
   <g id="patch_41">
    <path clip-path="url(#p8a6449ab40)" d="M 198.447603 307.584 
L 201.726942 307.584 
L 201.726942 307.584 
L 198.447603 307.584 
z
" style="fill:#ff0000;opacity:0.5;"/>
   </g>
   <g id="patch_42">
    <path clip-path="url(#p8a6449ab40)" d="M 201.726942 307.584 
L 205.006281 307.584 
L 205.006281 302.5152 
L 201.726942 302.5152 
z
" style="fill:#ff0000;opacity:0.5;"/>
   </g>
   <g id="patch_43">
    <path clip-path="url(#p8a6449ab40)" d="M 205.006281 307.584 
L 208.28562 307.584 
L 208.28562 305.0496 
L 205.006281 305.0496 
z
" style="fill:#ff0000;opacity:0.5;"/>
   </g>
   <g id="patch_44">
    <path clip-path="url(#p8a6449ab40)" d="M 208.28562 307.584 
L 211.564959 307.584 
L 211.564959 305.0496 
L 208.28562 305.0496 
z
" style="fill:#ff0000;opacity:0.5;"/>
   </g>
   <g id="patch_45">
    <path clip-path="url(#p8a6449ab40)" d="M 211.564959 307.584 
L 214.844298 307.584 
L 214.844298 302.5152 
L 211.564959 302.5152 
z
" style="fill:#ff0000;opacity:0.5;"/>
   </g>
   <g id="patch_46">
    <path clip-path="url(#p8a6449ab40)" d="M 214.844298 307.584 
L 218.123636 307.584 
L 218.123636 302.5152 
L 214.844298 302.5152 
z
" style="fill:#ff0000;opacity:0.5;"/>
   </g>
   <g id="patch_47">
    <path clip-path="url(#p8a6449ab40)" d="M 218.123636 307.584 
L 221.402975 307.584 
L 221.402975 307.584 
L 218.123636 307.584 
z
" style="fill:#ff0000;opacity:0.5;"/>
   </g>
   <g id="patch_48">
    <path clip-path="url(#p8a6449ab40)" d="M 221.402975 307.584 
L 224.682314 307.584 
L 224.682314 305.0496 
L 221.402975 305.0496 
z
" style="fill:#ff0000;opacity:0.5;"/>
   </g>
   <g id="patch_49">
    <path clip-path="url(#p8a6449ab40)" d="M 224.682314 307.584 
L 227.961653 307.584 
L 227.961653 302.5152 
L 224.682314 302.5152 
z
" style="fill:#ff0000;opacity:0.5;"/>
   </g>
   <g id="patch_50">
    <path clip-path="url(#p8a6449ab40)" d="M 227.961653 307.584 
L 231.240992 307.584 
L 231.240992 305.0496 
L 227.961653 305.0496 
z
" style="fill:#ff0000;opacity:0.5;"/>
   </g>
   <g id="patch_51">
    <path clip-path="url(#p8a6449ab40)" d="M 231.240992 307.584 
L 234.520331 307.584 
L 234.520331 305.0496 
L 231.240992 305.0496 
z
" style="fill:#ff0000;opacity:0.5;"/>
   </g>
   <g id="patch_52">
    <path clip-path="url(#p8a6449ab40)" d="M 234.520331 307.584 
L 237.799669 307.584 
L 237.799669 305.0496 
L 234.520331 305.0496 
z
" style="fill:#ff0000;opacity:0.5;"/>
   </g>
   <g id="patch_53">
    <path clip-path="url(#p8a6449ab40)" d="M 237.799669 307.584 
L 241.079008 307.584 
L 241.079008 305.0496 
L 237.799669 305.0496 
z
" style="fill:#ff0000;opacity:0.5;"/>
   </g>
   <g id="patch_54">
    <path clip-path="url(#p8a6449ab40)" d="M 241.079008 307.584 
L 244.358347 307.584 
L 244.358347 302.5152 
L 241.079008 302.5152 
z
" style="fill:#ff0000;opacity:0.5;"/>
   </g>
   <g id="patch_55">
    <path clip-path="url(#p8a6449ab40)" d="M 244.358347 307.584 
L 247.637686 307.584 
L 247.637686 305.0496 
L 244.358347 305.0496 
z
" style="fill:#ff0000;opacity:0.5;"/>
   </g>
   <g id="patch_56">
    <path clip-path="url(#p8a6449ab40)" d="M 247.637686 307.584 
L 250.917025 307.584 
L 250.917025 302.5152 
L 247.637686 302.5152 
z
" style="fill:#ff0000;opacity:0.5;"/>
   </g>
   <g id="patch_57">
    <path clip-path="url(#p8a6449ab40)" d="M 250.917025 307.584 
L 254.196364 307.584 
L 254.196364 302.5152 
L 250.917025 302.5152 
z
" style="fill:#ff0000;opacity:0.5;"/>
   </g>
   <g id="patch_58">
    <path clip-path="url(#p8a6449ab40)" d="M 254.196364 307.584 
L 257.475702 307.584 
L 257.475702 299.9808 
L 254.196364 299.9808 
z
" style="fill:#ff0000;opacity:0.5;"/>
   </g>
   <g id="patch_59">
    <path clip-path="url(#p8a6449ab40)" d="M 257.475702 307.584 
L 260.755041 307.584 
L 260.755041 305.0496 
L 257.475702 305.0496 
z
" style="fill:#ff0000;opacity:0.5;"/>
   </g>
   <g id="patch_60">
    <path clip-path="url(#p8a6449ab40)" d="M 260.755041 307.584 
L 264.03438 307.584 
L 264.03438 299.9808 
L 260.755041 299.9808 
z
" style="fill:#ff0000;opacity:0.5;"/>
   </g>
   <g id="patch_61">
    <path clip-path="url(#p8a6449ab40)" d="M 264.03438 307.584 
L 267.313719 307.584 
L 267.313719 307.584 
L 264.03438 307.584 
z
" style="fill:#ff0000;opacity:0.5;"/>
   </g>
   <g id="patch_62">
    <path clip-path="url(#p8a6449ab40)" d="M 267.313719 307.584 
L 270.593058 307.584 
L 270.593058 305.0496 
L 267.313719 305.0496 
z
" style="fill:#ff0000;opacity:0.5;"/>
   </g>
   <g id="patch_63">
    <path clip-path="url(#p8a6449ab40)" d="M 270.593058 307.584 
L 273.872397 307.584 
L 273.872397 302.5152 
L 270.593058 302.5152 
z
" style="fill:#ff0000;opacity:0.5;"/>
   </g>
   <g id="patch_64">
    <path clip-path="url(#p8a6449ab40)" d="M 273.872397 307.584 
L 277.151736 307.584 
L 277.151736 299.9808 
L 273.872397 299.9808 
z
" style="fill:#ff0000;opacity:0.5;"/>
   </g>
   <g id="patch_65">
    <path clip-path="url(#p8a6449ab40)" d="M 277.151736 307.584 
L 280.431074 307.584 
L 280.431074 294.912 
L 277.151736 294.912 
z
" style="fill:#ff0000;opacity:0.5;"/>
   </g>
   <g id="patch_66">
    <path clip-path="url(#p8a6449ab40)" d="M 280.431074 307.584 
L 283.710413 307.584 
L 283.710413 302.5152 
L 280.431074 302.5152 
z
" style="fill:#ff0000;opacity:0.5;"/>
   </g>
   <g id="patch_67">
    <path clip-path="url(#p8a6449ab40)" d="M 283.710413 307.584 
L 286.989752 307.584 
L 286.989752 302.5152 
L 283.710413 302.5152 
z
" style="fill:#ff0000;opacity:0.5;"/>
   </g>
   <g id="patch_68">
    <path clip-path="url(#p8a6449ab40)" d="M 286.989752 307.584 
L 290.269091 307.584 
L 290.269091 302.5152 
L 286.989752 302.5152 
z
" style="fill:#ff0000;opacity:0.5;"/>
   </g>
   <g id="patch_69">
    <path clip-path="url(#p8a6449ab40)" d="M 290.269091 307.584 
L 293.54843 307.584 
L 293.54843 297.4464 
L 290.269091 297.4464 
z
" style="fill:#ff0000;opacity:0.5;"/>
   </g>
   <g id="patch_70">
    <path clip-path="url(#p8a6449ab40)" d="M 293.54843 307.584 
L 296.827769 307.584 
L 296.827769 307.584 
L 293.54843 307.584 
z
" style="fill:#ff0000;opacity:0.5;"/>
   </g>
   <g id="patch_71">
    <path clip-path="url(#p8a6449ab40)" d="M 296.827769 307.584 
L 300.107107 307.584 
L 300.107107 302.5152 
L 296.827769 302.5152 
z
" style="fill:#ff0000;opacity:0.5;"/>
   </g>
   <g id="patch_72">
    <path clip-path="url(#p8a6449ab40)" d="M 300.107107 307.584 
L 303.386446 307.584 
L 303.386446 297.4464 
L 300.107107 297.4464 
z
" style="fill:#ff0000;opacity:0.5;"/>
   </g>
   <g id="patch_73">
    <path clip-path="url(#p8a6449ab40)" d="M 303.386446 307.584 
L 306.665785 307.584 
L 306.665785 307.584 
L 303.386446 307.584 
z
" style="fill:#ff0000;opacity:0.5;"/>
   </g>
   <g id="patch_74">
    <path clip-path="url(#p8a6449ab40)" d="M 306.665785 307.584 
L 309.945124 307.584 
L 309.945124 302.5152 
L 306.665785 302.5152 
z
" style="fill:#ff0000;opacity:0.5;"/>
   </g>
   <g id="patch_75">
    <path clip-path="url(#p8a6449ab40)" d="M 309.945124 307.584 
L 313.224463 307.584 
L 313.224463 305.0496 
L 309.945124 305.0496 
z
" style="fill:#ff0000;opacity:0.5;"/>
   </g>
   <g id="patch_76">
    <path clip-path="url(#p8a6449ab40)" d="M 313.224463 307.584 
L 316.503802 307.584 
L 316.503802 305.0496 
L 313.224463 305.0496 
z
" style="fill:#ff0000;opacity:0.5;"/>
   </g>
   <g id="patch_77">
    <path clip-path="url(#p8a6449ab40)" d="M 316.503802 307.584 
L 319.78314 307.584 
L 319.78314 297.4464 
L 316.503802 297.4464 
z
" style="fill:#ff0000;opacity:0.5;"/>
   </g>
   <g id="patch_78">
    <path clip-path="url(#p8a6449ab40)" d="M 319.78314 307.584 
L 323.062479 307.584 
L 323.062479 302.5152 
L 319.78314 302.5152 
z
" style="fill:#ff0000;opacity:0.5;"/>
   </g>
   <g id="patch_79">
    <path clip-path="url(#p8a6449ab40)" d="M 323.062479 307.584 
L 326.341818 307.584 
L 326.341818 302.5152 
L 323.062479 302.5152 
z
" style="fill:#ff0000;opacity:0.5;"/>
   </g>
   <g id="patch_80">
    <path clip-path="url(#p8a6449ab40)" d="M 326.341818 307.584 
L 329.621157 307.584 
L 329.621157 307.584 
L 326.341818 307.584 
z
" style="fill:#ff0000;opacity:0.5;"/>
   </g>
   <g id="patch_81">
    <path clip-path="url(#p8a6449ab40)" d="M 329.621157 307.584 
L 332.900496 307.584 
L 332.900496 307.584 
L 329.621157 307.584 
z
" style="fill:#ff0000;opacity:0.5;"/>
   </g>
   <g id="patch_82">
    <path clip-path="url(#p8a6449ab40)" d="M 332.900496 307.584 
L 336.179835 307.584 
L 336.179835 307.584 
L 332.900496 307.584 
z
" style="fill:#ff0000;opacity:0.5;"/>
   </g>
   <g id="patch_83">
    <path clip-path="url(#p8a6449ab40)" d="M 336.179835 307.584 
L 339.459174 307.584 
L 339.459174 307.584 
L 336.179835 307.584 
z
" style="fill:#ff0000;opacity:0.5;"/>
   </g>
   <g id="patch_84">
    <path clip-path="url(#p8a6449ab40)" d="M 339.459174 307.584 
L 342.738512 307.584 
L 342.738512 307.584 
L 339.459174 307.584 
z
" style="fill:#ff0000;opacity:0.5;"/>
   </g>
   <g id="patch_85">
    <path clip-path="url(#p8a6449ab40)" d="M 342.738512 307.584 
L 346.017851 307.584 
L 346.017851 307.584 
L 342.738512 307.584 
z
" style="fill:#ff0000;opacity:0.5;"/>
   </g>
   <g id="patch_86">
    <path clip-path="url(#p8a6449ab40)" d="M 346.017851 307.584 
L 349.29719 307.584 
L 349.29719 297.4464 
L 346.017851 297.4464 
z
" style="fill:#ff0000;opacity:0.5;"/>
   </g>
   <g id="patch_87">
    <path clip-path="url(#p8a6449ab40)" d="M 349.29719 307.584 
L 352.576529 307.584 
L 352.576529 307.584 
L 349.29719 307.584 
z
" style="fill:#ff0000;opacity:0.5;"/>
   </g>
   <g id="patch_88">
    <path clip-path="url(#p8a6449ab40)" d="M 352.576529 307.584 
L 355.855868 307.584 
L 355.855868 305.0496 
L 352.576529 305.0496 
z
" style="fill:#ff0000;opacity:0.5;"/>
   </g>
   <g id="patch_89">
    <path clip-path="url(#p8a6449ab40)" d="M 355.855868 307.584 
L 359.135207 307.584 
L 359.135207 307.584 
L 355.855868 307.584 
z
" style="fill:#ff0000;opacity:0.5;"/>
   </g>
   <g id="patch_90">
    <path clip-path="url(#p8a6449ab40)" d="M 359.135207 307.584 
L 362.414545 307.584 
L 362.414545 307.584 
L 359.135207 307.584 
z
" style="fill:#ff0000;opacity:0.5;"/>
   </g>
   <g id="patch_91">
    <path clip-path="url(#p8a6449ab40)" d="M 362.414545 307.584 
L 365.693884 307.584 
L 365.693884 307.584 
L 362.414545 307.584 
z
" style="fill:#ff0000;opacity:0.5;"/>
   </g>
   <g id="patch_92">
    <path clip-path="url(#p8a6449ab40)" d="M 365.693884 307.584 
L 368.973223 307.584 
L 368.973223 307.584 
L 365.693884 307.584 
z
" style="fill:#ff0000;opacity:0.5;"/>
   </g>
   <g id="patch_93">
    <path clip-path="url(#p8a6449ab40)" d="M 368.973223 307.584 
L 372.252562 307.584 
L 372.252562 305.0496 
L 368.973223 305.0496 
z
" style="fill:#ff0000;opacity:0.5;"/>
   </g>
   <g id="patch_94">
    <path clip-path="url(#p8a6449ab40)" d="M 372.252562 307.584 
L 375.531901 307.584 
L 375.531901 305.0496 
L 372.252562 305.0496 
z
" style="fill:#ff0000;opacity:0.5;"/>
   </g>
   <g id="patch_95">
    <path clip-path="url(#p8a6449ab40)" d="M 375.531901 307.584 
L 378.81124 307.584 
L 378.81124 307.584 
L 375.531901 307.584 
z
" style="fill:#ff0000;opacity:0.5;"/>
   </g>
   <g id="patch_96">
    <path clip-path="url(#p8a6449ab40)" d="M 378.81124 307.584 
L 382.090579 307.584 
L 382.090579 307.584 
L 378.81124 307.584 
z
" style="fill:#ff0000;opacity:0.5;"/>
   </g>
   <g id="patch_97">
    <path clip-path="url(#p8a6449ab40)" d="M 382.090579 307.584 
L 385.369917 307.584 
L 385.369917 307.584 
L 382.090579 307.584 
z
" style="fill:#ff0000;opacity:0.5;"/>
   </g>
   <g id="patch_98">
    <path clip-path="url(#p8a6449ab40)" d="M 385.369917 307.584 
L 388.649256 307.584 
L 388.649256 307.584 
L 385.369917 307.584 
z
" style="fill:#ff0000;opacity:0.5;"/>
   </g>
   <g id="patch_99">
    <path clip-path="url(#p8a6449ab40)" d="M 388.649256 307.584 
L 391.928595 307.584 
L 391.928595 307.584 
L 388.649256 307.584 
z
" style="fill:#ff0000;opacity:0.5;"/>
   </g>
   <g id="patch_100">
    <path clip-path="url(#p8a6449ab40)" d="M 391.928595 307.584 
L 395.207934 307.584 
L 395.207934 307.584 
L 391.928595 307.584 
z
" style="fill:#ff0000;opacity:0.5;"/>
   </g>
   <g id="patch_101">
    <path clip-path="url(#p8a6449ab40)" d="M 395.207934 307.584 
L 398.487273 307.584 
L 398.487273 307.584 
L 395.207934 307.584 
z
" style="fill:#ff0000;opacity:0.5;"/>
   </g>
   <g id="patch_102">
    <path clip-path="url(#p8a6449ab40)" d="M 73.832727 307.584 
L 77.112066 307.584 
L 77.112066 307.584 
L 73.832727 307.584 
z
" style="fill:#0000ff;opacity:0.5;"/>
   </g>
   <g id="patch_103">
    <path clip-path="url(#p8a6449ab40)" d="M 77.112066 307.584 
L 80.391405 307.584 
L 80.391405 54.144 
L 77.112066 54.144 
z
" style="fill:#0000ff;opacity:0.5;"/>
   </g>
   <g id="patch_104">
    <path clip-path="url(#p8a6449ab40)" d="M 80.391405 307.584 
L 83.670744 307.584 
L 83.670744 140.3136 
L 80.391405 140.3136 
z
" style="fill:#0000ff;opacity:0.5;"/>
   </g>
   <g id="patch_105">
    <path clip-path="url(#p8a6449ab40)" d="M 83.670744 307.584 
L 86.950083 307.584 
L 86.950083 208.7424 
L 83.670744 208.7424 
z
" style="fill:#0000ff;opacity:0.5;"/>
   </g>
   <g id="patch_106">
    <path clip-path="url(#p8a6449ab40)" d="M 86.950083 307.584 
L 90.229421 307.584 
L 90.229421 221.4144 
L 86.950083 221.4144 
z
" style="fill:#0000ff;opacity:0.5;"/>
   </g>
   <g id="patch_107">
    <path clip-path="url(#p8a6449ab40)" d="M 90.229421 307.584 
L 93.50876 307.584 
L 93.50876 211.2768 
L 90.229421 211.2768 
z
" style="fill:#0000ff;opacity:0.5;"/>
   </g>
   <g id="patch_108">
    <path clip-path="url(#p8a6449ab40)" d="M 93.50876 307.584 
L 96.788099 307.584 
L 96.788099 264.4992 
L 93.50876 264.4992 
z
" style="fill:#0000ff;opacity:0.5;"/>
   </g>
   <g id="patch_109">
    <path clip-path="url(#p8a6449ab40)" d="M 96.788099 307.584 
L 100.067438 307.584 
L 100.067438 256.896 
L 96.788099 256.896 
z
" style="fill:#0000ff;opacity:0.5;"/>
   </g>
   <g id="patch_110">
    <path clip-path="url(#p8a6449ab40)" d="M 100.067438 307.584 
L 103.346777 307.584 
L 103.346777 292.3776 
L 100.067438 292.3776 
z
" style="fill:#0000ff;opacity:0.5;"/>
   </g>
   <g id="patch_111">
    <path clip-path="url(#p8a6449ab40)" d="M 103.346777 307.584 
L 106.626116 307.584 
L 106.626116 277.1712 
L 103.346777 277.1712 
z
" style="fill:#0000ff;opacity:0.5;"/>
   </g>
   <g id="patch_112">
    <path clip-path="url(#p8a6449ab40)" d="M 106.626116 307.584 
L 109.905455 307.584 
L 109.905455 264.4992 
L 106.626116 264.4992 
z
" style="fill:#0000ff;opacity:0.5;"/>
   </g>
   <g id="patch_113">
    <path clip-path="url(#p8a6449ab40)" d="M 109.905455 307.584 
L 113.184793 307.584 
L 113.184793 294.912 
L 109.905455 294.912 
z
" style="fill:#0000ff;opacity:0.5;"/>
   </g>
   <g id="patch_114">
    <path clip-path="url(#p8a6449ab40)" d="M 113.184793 307.584 
L 116.464132 307.584 
L 116.464132 297.4464 
L 113.184793 297.4464 
z
" style="fill:#0000ff;opacity:0.5;"/>
   </g>
   <g id="patch_115">
    <path clip-path="url(#p8a6449ab40)" d="M 116.464132 307.584 
L 119.743471 307.584 
L 119.743471 297.4464 
L 116.464132 297.4464 
z
" style="fill:#0000ff;opacity:0.5;"/>
   </g>
   <g id="patch_116">
    <path clip-path="url(#p8a6449ab40)" d="M 119.743471 307.584 
L 123.02281 307.584 
L 123.02281 294.912 
L 119.743471 294.912 
z
" style="fill:#0000ff;opacity:0.5;"/>
   </g>
   <g id="patch_117">
    <path clip-path="url(#p8a6449ab40)" d="M 123.02281 307.584 
L 126.302149 307.584 
L 126.302149 287.3088 
L 123.02281 287.3088 
z
" style="fill:#0000ff;opacity:0.5;"/>
   </g>
   <g id="patch_118">
    <path clip-path="url(#p8a6449ab40)" d="M 126.302149 307.584 
L 129.581488 307.584 
L 129.581488 297.4464 
L 126.302149 297.4464 
z
" style="fill:#0000ff;opacity:0.5;"/>
   </g>
   <g id="patch_119">
    <path clip-path="url(#p8a6449ab40)" d="M 129.581488 307.584 
L 132.860826 307.584 
L 132.860826 299.9808 
L 129.581488 299.9808 
z
" style="fill:#0000ff;opacity:0.5;"/>
   </g>
   <g id="patch_120">
    <path clip-path="url(#p8a6449ab40)" d="M 132.860826 307.584 
L 136.140165 307.584 
L 136.140165 305.0496 
L 132.860826 305.0496 
z
" style="fill:#0000ff;opacity:0.5;"/>
   </g>
   <g id="patch_121">
    <path clip-path="url(#p8a6449ab40)" d="M 136.140165 307.584 
L 139.419504 307.584 
L 139.419504 302.5152 
L 136.140165 302.5152 
z
" style="fill:#0000ff;opacity:0.5;"/>
   </g>
   <g id="patch_122">
    <path clip-path="url(#p8a6449ab40)" d="M 139.419504 307.584 
L 142.698843 307.584 
L 142.698843 307.584 
L 139.419504 307.584 
z
" style="fill:#0000ff;opacity:0.5;"/>
   </g>
   <g id="patch_123">
    <path clip-path="url(#p8a6449ab40)" d="M 142.698843 307.584 
L 145.978182 307.584 
L 145.978182 305.0496 
L 142.698843 305.0496 
z
" style="fill:#0000ff;opacity:0.5;"/>
   </g>
   <g id="patch_124">
    <path clip-path="url(#p8a6449ab40)" d="M 145.978182 307.584 
L 149.257521 307.584 
L 149.257521 299.9808 
L 145.978182 299.9808 
z
" style="fill:#0000ff;opacity:0.5;"/>
   </g>
   <g id="patch_125">
    <path clip-path="url(#p8a6449ab40)" d="M 149.257521 307.584 
L 152.53686 307.584 
L 152.53686 302.5152 
L 149.257521 302.5152 
z
" style="fill:#0000ff;opacity:0.5;"/>
   </g>
   <g id="patch_126">
    <path clip-path="url(#p8a6449ab40)" d="M 152.53686 307.584 
L 155.816198 307.584 
L 155.816198 305.0496 
L 152.53686 305.0496 
z
" style="fill:#0000ff;opacity:0.5;"/>
   </g>
   <g id="patch_127">
    <path clip-path="url(#p8a6449ab40)" d="M 155.816198 307.584 
L 159.095537 307.584 
L 159.095537 302.5152 
L 155.816198 302.5152 
z
" style="fill:#0000ff;opacity:0.5;"/>
   </g>
   <g id="patch_128">
    <path clip-path="url(#p8a6449ab40)" d="M 159.095537 307.584 
L 162.374876 307.584 
L 162.374876 305.0496 
L 159.095537 305.0496 
z
" style="fill:#0000ff;opacity:0.5;"/>
   </g>
   <g id="patch_129">
    <path clip-path="url(#p8a6449ab40)" d="M 162.374876 307.584 
L 165.654215 307.584 
L 165.654215 302.5152 
L 162.374876 302.5152 
z
" style="fill:#0000ff;opacity:0.5;"/>
   </g>
   <g id="patch_130">
    <path clip-path="url(#p8a6449ab40)" d="M 165.654215 307.584 
L 168.933554 307.584 
L 168.933554 302.5152 
L 165.654215 302.5152 
z
" style="fill:#0000ff;opacity:0.5;"/>
   </g>
   <g id="patch_131">
    <path clip-path="url(#p8a6449ab40)" d="M 168.933554 307.584 
L 172.212893 307.584 
L 172.212893 297.4464 
L 168.933554 297.4464 
z
" style="fill:#0000ff;opacity:0.5;"/>
   </g>
   <g id="patch_132">
    <path clip-path="url(#p8a6449ab40)" d="M 172.212893 307.584 
L 175.492231 307.584 
L 175.492231 307.584 
L 172.212893 307.584 
z
" style="fill:#0000ff;opacity:0.5;"/>
   </g>
   <g id="patch_133">
    <path clip-path="url(#p8a6449ab40)" d="M 175.492231 307.584 
L 178.77157 307.584 
L 178.77157 299.9808 
L 175.492231 299.9808 
z
" style="fill:#0000ff;opacity:0.5;"/>
   </g>
   <g id="patch_134">
    <path clip-path="url(#p8a6449ab40)" d="M 178.77157 307.584 
L 182.050909 307.584 
L 182.050909 307.584 
L 178.77157 307.584 
z
" style="fill:#0000ff;opacity:0.5;"/>
   </g>
   <g id="patch_135">
    <path clip-path="url(#p8a6449ab40)" d="M 182.050909 307.584 
L 185.330248 307.584 
L 185.330248 299.9808 
L 182.050909 299.9808 
z
" style="fill:#0000ff;opacity:0.5;"/>
   </g>
   <g id="patch_136">
    <path clip-path="url(#p8a6449ab40)" d="M 185.330248 307.584 
L 188.609587 307.584 
L 188.609587 305.0496 
L 185.330248 305.0496 
z
" style="fill:#0000ff;opacity:0.5;"/>
   </g>
   <g id="patch_137">
    <path clip-path="url(#p8a6449ab40)" d="M 188.609587 307.584 
L 191.888926 307.584 
L 191.888926 302.5152 
L 188.609587 302.5152 
z
" style="fill:#0000ff;opacity:0.5;"/>
   </g>
   <g id="patch_138">
    <path clip-path="url(#p8a6449ab40)" d="M 191.888926 307.584 
L 195.168264 307.584 
L 195.168264 302.5152 
L 191.888926 302.5152 
z
" style="fill:#0000ff;opacity:0.5;"/>
   </g>
   <g id="patch_139">
    <path clip-path="url(#p8a6449ab40)" d="M 195.168264 307.584 
L 198.447603 307.584 
L 198.447603 307.584 
L 195.168264 307.584 
z
" style="fill:#0000ff;opacity:0.5;"/>
   </g>
   <g id="patch_140">
    <path clip-path="url(#p8a6449ab40)" d="M 198.447603 307.584 
L 201.726942 307.584 
L 201.726942 305.0496 
L 198.447603 305.0496 
z
" style="fill:#0000ff;opacity:0.5;"/>
   </g>
   <g id="patch_141">
    <path clip-path="url(#p8a6449ab40)" d="M 201.726942 307.584 
L 205.006281 307.584 
L 205.006281 307.584 
L 201.726942 307.584 
z
" style="fill:#0000ff;opacity:0.5;"/>
   </g>
   <g id="patch_142">
    <path clip-path="url(#p8a6449ab40)" d="M 205.006281 307.584 
L 208.28562 307.584 
L 208.28562 302.5152 
L 205.006281 302.5152 
z
" style="fill:#0000ff;opacity:0.5;"/>
   </g>
   <g id="patch_143">
    <path clip-path="url(#p8a6449ab40)" d="M 208.28562 307.584 
L 211.564959 307.584 
L 211.564959 307.584 
L 208.28562 307.584 
z
" style="fill:#0000ff;opacity:0.5;"/>
   </g>
   <g id="patch_144">
    <path clip-path="url(#p8a6449ab40)" d="M 211.564959 307.584 
L 214.844298 307.584 
L 214.844298 302.5152 
L 211.564959 302.5152 
z
" style="fill:#0000ff;opacity:0.5;"/>
   </g>
   <g id="patch_145">
    <path clip-path="url(#p8a6449ab40)" d="M 214.844298 307.584 
L 218.123636 307.584 
L 218.123636 305.0496 
L 214.844298 305.0496 
z
" style="fill:#0000ff;opacity:0.5;"/>
   </g>
   <g id="patch_146">
    <path clip-path="url(#p8a6449ab40)" d="M 218.123636 307.584 
L 221.402975 307.584 
L 221.402975 302.5152 
L 218.123636 302.5152 
z
" style="fill:#0000ff;opacity:0.5;"/>
   </g>
   <g id="patch_147">
    <path clip-path="url(#p8a6449ab40)" d="M 221.402975 307.584 
L 224.682314 307.584 
L 224.682314 302.5152 
L 221.402975 302.5152 
z
" style="fill:#0000ff;opacity:0.5;"/>
   </g>
   <g id="patch_148">
    <path clip-path="url(#p8a6449ab40)" d="M 224.682314 307.584 
L 227.961653 307.584 
L 227.961653 302.5152 
L 224.682314 302.5152 
z
" style="fill:#0000ff;opacity:0.5;"/>
   </g>
   <g id="patch_149">
    <path clip-path="url(#p8a6449ab40)" d="M 227.961653 307.584 
L 231.240992 307.584 
L 231.240992 302.5152 
L 227.961653 302.5152 
z
" style="fill:#0000ff;opacity:0.5;"/>
   </g>
   <g id="patch_150">
    <path clip-path="url(#p8a6449ab40)" d="M 231.240992 307.584 
L 234.520331 307.584 
L 234.520331 305.0496 
L 231.240992 305.0496 
z
" style="fill:#0000ff;opacity:0.5;"/>
   </g>
   <g id="patch_151">
    <path clip-path="url(#p8a6449ab40)" d="M 234.520331 307.584 
L 237.799669 307.584 
L 237.799669 305.0496 
L 234.520331 305.0496 
z
" style="fill:#0000ff;opacity:0.5;"/>
   </g>
   <g id="patch_152">
    <path clip-path="url(#p8a6449ab40)" d="M 237.799669 307.584 
L 241.079008 307.584 
L 241.079008 305.0496 
L 237.799669 305.0496 
z
" style="fill:#0000ff;opacity:0.5;"/>
   </g>
   <g id="patch_153">
    <path clip-path="url(#p8a6449ab40)" d="M 241.079008 307.584 
L 244.358347 307.584 
L 244.358347 305.0496 
L 241.079008 305.0496 
z
" style="fill:#0000ff;opacity:0.5;"/>
   </g>
   <g id="patch_154">
    <path clip-path="url(#p8a6449ab40)" d="M 244.358347 307.584 
L 247.637686 307.584 
L 247.637686 302.5152 
L 244.358347 302.5152 
z
" style="fill:#0000ff;opacity:0.5;"/>
   </g>
   <g id="patch_155">
    <path clip-path="url(#p8a6449ab40)" d="M 247.637686 307.584 
L 250.917025 307.584 
L 250.917025 305.0496 
L 247.637686 305.0496 
z
" style="fill:#0000ff;opacity:0.5;"/>
   </g>
   <g id="patch_156">
    <path clip-path="url(#p8a6449ab40)" d="M 250.917025 307.584 
L 254.196364 307.584 
L 254.196364 302.5152 
L 250.917025 302.5152 
z
" style="fill:#0000ff;opacity:0.5;"/>
   </g>
   <g id="patch_157">
    <path clip-path="url(#p8a6449ab40)" d="M 254.196364 307.584 
L 257.475702 307.584 
L 257.475702 299.9808 
L 254.196364 299.9808 
z
" style="fill:#0000ff;opacity:0.5;"/>
   </g>
   <g id="patch_158">
    <path clip-path="url(#p8a6449ab40)" d="M 257.475702 307.584 
L 260.755041 307.584 
L 260.755041 299.9808 
L 257.475702 299.9808 
z
" style="fill:#0000ff;opacity:0.5;"/>
   </g>
   <g id="patch_159">
    <path clip-path="url(#p8a6449ab40)" d="M 260.755041 307.584 
L 264.03438 307.584 
L 264.03438 302.5152 
L 260.755041 302.5152 
z
" style="fill:#0000ff;opacity:0.5;"/>
   </g>
   <g id="patch_160">
    <path clip-path="url(#p8a6449ab40)" d="M 264.03438 307.584 
L 267.313719 307.584 
L 267.313719 297.4464 
L 264.03438 297.4464 
z
" style="fill:#0000ff;opacity:0.5;"/>
   </g>
   <g id="patch_161">
    <path clip-path="url(#p8a6449ab40)" d="M 267.313719 307.584 
L 270.593058 307.584 
L 270.593058 307.584 
L 267.313719 307.584 
z
" style="fill:#0000ff;opacity:0.5;"/>
   </g>
   <g id="patch_162">
    <path clip-path="url(#p8a6449ab40)" d="M 270.593058 307.584 
L 273.872397 307.584 
L 273.872397 294.912 
L 270.593058 294.912 
z
" style="fill:#0000ff;opacity:0.5;"/>
   </g>
   <g id="patch_163">
    <path clip-path="url(#p8a6449ab40)" d="M 273.872397 307.584 
L 277.151736 307.584 
L 277.151736 297.4464 
L 273.872397 297.4464 
z
" style="fill:#0000ff;opacity:0.5;"/>
   </g>
   <g id="patch_164">
    <path clip-path="url(#p8a6449ab40)" d="M 277.151736 307.584 
L 280.431074 307.584 
L 280.431074 294.912 
L 277.151736 294.912 
z
" style="fill:#0000ff;opacity:0.5;"/>
   </g>
   <g id="patch_165">
    <path clip-path="url(#p8a6449ab40)" d="M 280.431074 307.584 
L 283.710413 307.584 
L 283.710413 305.0496 
L 280.431074 305.0496 
z
" style="fill:#0000ff;opacity:0.5;"/>
   </g>
   <g id="patch_166">
    <path clip-path="url(#p8a6449ab40)" d="M 283.710413 307.584 
L 286.989752 307.584 
L 286.989752 299.9808 
L 283.710413 299.9808 
z
" style="fill:#0000ff;opacity:0.5;"/>
   </g>
   <g id="patch_167">
    <path clip-path="url(#p8a6449ab40)" d="M 286.989752 307.584 
L 290.269091 307.584 
L 290.269091 299.9808 
L 286.989752 299.9808 
z
" style="fill:#0000ff;opacity:0.5;"/>
   </g>
   <g id="patch_168">
    <path clip-path="url(#p8a6449ab40)" d="M 290.269091 307.584 
L 293.54843 307.584 
L 293.54843 302.5152 
L 290.269091 302.5152 
z
" style="fill:#0000ff;opacity:0.5;"/>
   </g>
   <g id="patch_169">
    <path clip-path="url(#p8a6449ab40)" d="M 293.54843 307.584 
L 296.827769 307.584 
L 296.827769 302.5152 
L 293.54843 302.5152 
z
" style="fill:#0000ff;opacity:0.5;"/>
   </g>
   <g id="patch_170">
    <path clip-path="url(#p8a6449ab40)" d="M 296.827769 307.584 
L 300.107107 307.584 
L 300.107107 299.9808 
L 296.827769 299.9808 
z
" style="fill:#0000ff;opacity:0.5;"/>
   </g>
   <g id="patch_171">
    <path clip-path="url(#p8a6449ab40)" d="M 300.107107 307.584 
L 303.386446 307.584 
L 303.386446 299.9808 
L 300.107107 299.9808 
z
" style="fill:#0000ff;opacity:0.5;"/>
   </g>
   <g id="patch_172">
    <path clip-path="url(#p8a6449ab40)" d="M 303.386446 307.584 
L 306.665785 307.584 
L 306.665785 302.5152 
L 303.386446 302.5152 
z
" style="fill:#0000ff;opacity:0.5;"/>
   </g>
   <g id="patch_173">
    <path clip-path="url(#p8a6449ab40)" d="M 306.665785 307.584 
L 309.945124 307.584 
L 309.945124 299.9808 
L 306.665785 299.9808 
z
" style="fill:#0000ff;opacity:0.5;"/>
   </g>
   <g id="patch_174">
    <path clip-path="url(#p8a6449ab40)" d="M 309.945124 307.584 
L 313.224463 307.584 
L 313.224463 302.5152 
L 309.945124 302.5152 
z
" style="fill:#0000ff;opacity:0.5;"/>
   </g>
   <g id="patch_175">
    <path clip-path="url(#p8a6449ab40)" d="M 313.224463 307.584 
L 316.503802 307.584 
L 316.503802 302.5152 
L 313.224463 302.5152 
z
" style="fill:#0000ff;opacity:0.5;"/>
   </g>
   <g id="patch_176">
    <path clip-path="url(#p8a6449ab40)" d="M 316.503802 307.584 
L 319.78314 307.584 
L 319.78314 305.0496 
L 316.503802 305.0496 
z
" style="fill:#0000ff;opacity:0.5;"/>
   </g>
   <g id="patch_177">
    <path clip-path="url(#p8a6449ab40)" d="M 319.78314 307.584 
L 323.062479 307.584 
L 323.062479 299.9808 
L 319.78314 299.9808 
z
" style="fill:#0000ff;opacity:0.5;"/>
   </g>
   <g id="patch_178">
    <path clip-path="url(#p8a6449ab40)" d="M 323.062479 307.584 
L 326.341818 307.584 
L 326.341818 297.4464 
L 323.062479 297.4464 
z
" style="fill:#0000ff;opacity:0.5;"/>
   </g>
   <g id="patch_179">
    <path clip-path="url(#p8a6449ab40)" d="M 326.341818 307.584 
L 329.621157 307.584 
L 329.621157 297.4464 
L 326.341818 297.4464 
z
" style="fill:#0000ff;opacity:0.5;"/>
   </g>
   <g id="patch_180">
    <path clip-path="url(#p8a6449ab40)" d="M 329.621157 307.584 
L 332.900496 307.584 
L 332.900496 292.3776 
L 329.621157 292.3776 
z
" style="fill:#0000ff;opacity:0.5;"/>
   </g>
   <g id="patch_181">
    <path clip-path="url(#p8a6449ab40)" d="M 332.900496 307.584 
L 336.179835 307.584 
L 336.179835 302.5152 
L 332.900496 302.5152 
z
" style="fill:#0000ff;opacity:0.5;"/>
   </g>
   <g id="patch_182">
    <path clip-path="url(#p8a6449ab40)" d="M 336.179835 307.584 
L 339.459174 307.584 
L 339.459174 307.584 
L 336.179835 307.584 
z
" style="fill:#0000ff;opacity:0.5;"/>
   </g>
   <g id="patch_183">
    <path clip-path="url(#p8a6449ab40)" d="M 339.459174 307.584 
L 342.738512 307.584 
L 342.738512 302.5152 
L 339.459174 302.5152 
z
" style="fill:#0000ff;opacity:0.5;"/>
   </g>
   <g id="patch_184">
    <path clip-path="url(#p8a6449ab40)" d="M 342.738512 307.584 
L 346.017851 307.584 
L 346.017851 305.0496 
L 342.738512 305.0496 
z
" style="fill:#0000ff;opacity:0.5;"/>
   </g>
   <g id="patch_185">
    <path clip-path="url(#p8a6449ab40)" d="M 346.017851 307.584 
L 349.29719 307.584 
L 349.29719 305.0496 
L 346.017851 305.0496 
z
" style="fill:#0000ff;opacity:0.5;"/>
   </g>
   <g id="patch_186">
    <path clip-path="url(#p8a6449ab40)" d="M 349.29719 307.584 
L 352.576529 307.584 
L 352.576529 307.584 
L 349.29719 307.584 
z
" style="fill:#0000ff;opacity:0.5;"/>
   </g>
   <g id="patch_187">
    <path clip-path="url(#p8a6449ab40)" d="M 352.576529 307.584 
L 355.855868 307.584 
L 355.855868 302.5152 
L 352.576529 302.5152 
z
" style="fill:#0000ff;opacity:0.5;"/>
   </g>
   <g id="patch_188">
    <path clip-path="url(#p8a6449ab40)" d="M 355.855868 307.584 
L 359.135207 307.584 
L 359.135207 305.0496 
L 355.855868 305.0496 
z
" style="fill:#0000ff;opacity:0.5;"/>
   </g>
   <g id="patch_189">
    <path clip-path="url(#p8a6449ab40)" d="M 359.135207 307.584 
L 362.414545 307.584 
L 362.414545 307.584 
L 359.135207 307.584 
z
" style="fill:#0000ff;opacity:0.5;"/>
   </g>
   <g id="patch_190">
    <path clip-path="url(#p8a6449ab40)" d="M 362.414545 307.584 
L 365.693884 307.584 
L 365.693884 307.584 
L 362.414545 307.584 
z
" style="fill:#0000ff;opacity:0.5;"/>
   </g>
   <g id="patch_191">
    <path clip-path="url(#p8a6449ab40)" d="M 365.693884 307.584 
L 368.973223 307.584 
L 368.973223 307.584 
L 365.693884 307.584 
z
" style="fill:#0000ff;opacity:0.5;"/>
   </g>
   <g id="patch_192">
    <path clip-path="url(#p8a6449ab40)" d="M 368.973223 307.584 
L 372.252562 307.584 
L 372.252562 305.0496 
L 368.973223 305.0496 
z
" style="fill:#0000ff;opacity:0.5;"/>
   </g>
   <g id="patch_193">
    <path clip-path="url(#p8a6449ab40)" d="M 372.252562 307.584 
L 375.531901 307.584 
L 375.531901 307.584 
L 372.252562 307.584 
z
" style="fill:#0000ff;opacity:0.5;"/>
   </g>
   <g id="patch_194">
    <path clip-path="url(#p8a6449ab40)" d="M 375.531901 307.584 
L 378.81124 307.584 
L 378.81124 307.584 
L 375.531901 307.584 
z
" style="fill:#0000ff;opacity:0.5;"/>
   </g>
   <g id="patch_195">
    <path clip-path="url(#p8a6449ab40)" d="M 378.81124 307.584 
L 382.090579 307.584 
L 382.090579 307.584 
L 378.81124 307.584 
z
" style="fill:#0000ff;opacity:0.5;"/>
   </g>
   <g id="patch_196">
    <path clip-path="url(#p8a6449ab40)" d="M 382.090579 307.584 
L 385.369917 307.584 
L 385.369917 307.584 
L 382.090579 307.584 
z
" style="fill:#0000ff;opacity:0.5;"/>
   </g>
   <g id="patch_197">
    <path clip-path="url(#p8a6449ab40)" d="M 385.369917 307.584 
L 388.649256 307.584 
L 388.649256 305.0496 
L 385.369917 305.0496 
z
" style="fill:#0000ff;opacity:0.5;"/>
   </g>
   <g id="patch_198">
    <path clip-path="url(#p8a6449ab40)" d="M 388.649256 307.584 
L 391.928595 307.584 
L 391.928595 307.584 
L 388.649256 307.584 
z
" style="fill:#0000ff;opacity:0.5;"/>
   </g>
   <g id="patch_199">
    <path clip-path="url(#p8a6449ab40)" d="M 391.928595 307.584 
L 395.207934 307.584 
L 395.207934 307.584 
L 391.928595 307.584 
z
" style="fill:#0000ff;opacity:0.5;"/>
   </g>
   <g id="patch_200">
    <path clip-path="url(#p8a6449ab40)" d="M 395.207934 307.584 
L 398.487273 307.584 
L 398.487273 307.584 
L 395.207934 307.584 
z
" style="fill:#0000ff;opacity:0.5;"/>
   </g>
   <g id="matplotlib.axis_1">
    <g id="xtick_1">
     <g id="line2d_1">
      <defs>
       <path d="M 0 0 
L 0 3.5 
" id="m0b85a5a631" style="stroke:#000000;stroke-width:0.8;"/>
      </defs>
      <g>
       <use style="stroke:#000000;stroke-width:0.8;" x="75.472397" xlink:href="#m0b85a5a631" y="307.584"/>
      </g>
     </g>
     <g id="text_1">
      <!-- 0 -->
      <defs>
       <path d="M 31.78125 66.40625 
Q 24.171875 66.40625 20.328125 58.90625 
Q 16.5 51.421875 16.5 36.375 
Q 16.5 21.390625 20.328125 13.890625 
Q 24.171875 6.390625 31.78125 6.390625 
Q 39.453125 6.390625 43.28125 13.890625 
Q 47.125 21.390625 47.125 36.375 
Q 47.125 51.421875 43.28125 58.90625 
Q 39.453125 66.40625 31.78125 66.40625 
z
M 31.78125 74.21875 
Q 44.046875 74.21875 50.515625 64.515625 
Q 56.984375 54.828125 56.984375 36.375 
Q 56.984375 17.96875 50.515625 8.265625 
Q 44.046875 -1.421875 31.78125 -1.421875 
Q 19.53125 -1.421875 13.0625 8.265625 
Q 6.59375 17.96875 6.59375 36.375 
Q 6.59375 54.828125 13.0625 64.515625 
Q 19.53125 74.21875 31.78125 74.21875 
z
" id="DejaVuSans-30"/>
      </defs>
      <g transform="translate(72.291147 322.182437)scale(0.1 -0.1)">
       <use xlink:href="#DejaVuSans-30"/>
      </g>
     </g>
    </g>
    <g id="xtick_2">
     <g id="line2d_2">
      <g>
       <use style="stroke:#000000;stroke-width:0.8;" x="116.464132" xlink:href="#m0b85a5a631" y="307.584"/>
      </g>
     </g>
     <g id="text_2">
      <!-- 25 -->
      <defs>
       <path d="M 19.1875 8.296875 
L 53.609375 8.296875 
L 53.609375 0 
L 7.328125 0 
L 7.328125 8.296875 
Q 12.9375 14.109375 22.625 23.890625 
Q 32.328125 33.6875 34.8125 36.53125 
Q 39.546875 41.84375 41.421875 45.53125 
Q 43.3125 49.21875 43.3125 52.78125 
Q 43.3125 58.59375 39.234375 62.25 
Q 35.15625 65.921875 28.609375 65.921875 
Q 23.96875 65.921875 18.8125 64.3125 
Q 13.671875 62.703125 7.8125 59.421875 
L 7.8125 69.390625 
Q 13.765625 71.78125 18.9375 73 
Q 24.125 74.21875 28.421875 74.21875 
Q 39.75 74.21875 46.484375 68.546875 
Q 53.21875 62.890625 53.21875 53.421875 
Q 53.21875 48.921875 51.53125 44.890625 
Q 49.859375 40.875 45.40625 35.40625 
Q 44.1875 33.984375 37.640625 27.21875 
Q 31.109375 20.453125 19.1875 8.296875 
z
" id="DejaVuSans-32"/>
       <path d="M 10.796875 72.90625 
L 49.515625 72.90625 
L 49.515625 64.59375 
L 19.828125 64.59375 
L 19.828125 46.734375 
Q 21.96875 47.46875 24.109375 47.828125 
Q 26.265625 48.1875 28.421875 48.1875 
Q 40.625 48.1875 47.75 41.5 
Q 54.890625 34.8125 54.890625 23.390625 
Q 54.890625 11.625 47.5625 5.09375 
Q 40.234375 -1.421875 26.90625 -1.421875 
Q 22.3125 -1.421875 17.546875 -0.640625 
Q 12.796875 0.140625 7.71875 1.703125 
L 7.71875 11.625 
Q 12.109375 9.234375 16.796875 8.0625 
Q 21.484375 6.890625 26.703125 6.890625 
Q 35.15625 6.890625 40.078125 11.328125 
Q 45.015625 15.765625 45.015625 23.390625 
Q 45.015625 31 40.078125 35.4375 
Q 35.15625 39.890625 26.703125 39.890625 
Q 22.75 39.890625 18.8125 39.015625 
Q 14.890625 38.140625 10.796875 36.28125 
z
" id="DejaVuSans-35"/>
      </defs>
      <g transform="translate(110.101632 322.182437)scale(0.1 -0.1)">
       <use xlink:href="#DejaVuSans-32"/>
       <use x="63.623047" xlink:href="#DejaVuSans-35"/>
      </g>
     </g>
    </g>
    <g id="xtick_3">
     <g id="line2d_3">
      <g>
       <use style="stroke:#000000;stroke-width:0.8;" x="157.455868" xlink:href="#m0b85a5a631" y="307.584"/>
      </g>
     </g>
     <g id="text_3">
      <!-- 50 -->
      <g transform="translate(151.093368 322.182437)scale(0.1 -0.1)">
       <use xlink:href="#DejaVuSans-35"/>
       <use x="63.623047" xlink:href="#DejaVuSans-30"/>
      </g>
     </g>
    </g>
    <g id="xtick_4">
     <g id="line2d_4">
      <g>
       <use style="stroke:#000000;stroke-width:0.8;" x="198.447603" xlink:href="#m0b85a5a631" y="307.584"/>
      </g>
     </g>
     <g id="text_4">
      <!-- 75 -->
      <defs>
       <path d="M 8.203125 72.90625 
L 55.078125 72.90625 
L 55.078125 68.703125 
L 28.609375 0 
L 18.3125 0 
L 43.21875 64.59375 
L 8.203125 64.59375 
z
" id="DejaVuSans-37"/>
      </defs>
      <g transform="translate(192.085103 322.182437)scale(0.1 -0.1)">
       <use xlink:href="#DejaVuSans-37"/>
       <use x="63.623047" xlink:href="#DejaVuSans-35"/>
      </g>
     </g>
    </g>
    <g id="xtick_5">
     <g id="line2d_5">
      <g>
       <use style="stroke:#000000;stroke-width:0.8;" x="239.439339" xlink:href="#m0b85a5a631" y="307.584"/>
      </g>
     </g>
     <g id="text_5">
      <!-- 100 -->
      <defs>
       <path d="M 12.40625 8.296875 
L 28.515625 8.296875 
L 28.515625 63.921875 
L 10.984375 60.40625 
L 10.984375 69.390625 
L 28.421875 72.90625 
L 38.28125 72.90625 
L 38.28125 8.296875 
L 54.390625 8.296875 
L 54.390625 0 
L 12.40625 0 
z
" id="DejaVuSans-31"/>
      </defs>
      <g transform="translate(229.895589 322.182437)scale(0.1 -0.1)">
       <use xlink:href="#DejaVuSans-31"/>
       <use x="63.623047" xlink:href="#DejaVuSans-30"/>
       <use x="127.246094" xlink:href="#DejaVuSans-30"/>
      </g>
     </g>
    </g>
    <g id="xtick_6">
     <g id="line2d_6">
      <g>
       <use style="stroke:#000000;stroke-width:0.8;" x="280.431074" xlink:href="#m0b85a5a631" y="307.584"/>
      </g>
     </g>
     <g id="text_6">
      <!-- 125 -->
      <g transform="translate(270.887324 322.182437)scale(0.1 -0.1)">
       <use xlink:href="#DejaVuSans-31"/>
       <use x="63.623047" xlink:href="#DejaVuSans-32"/>
       <use x="127.246094" xlink:href="#DejaVuSans-35"/>
      </g>
     </g>
    </g>
    <g id="xtick_7">
     <g id="line2d_7">
      <g>
       <use style="stroke:#000000;stroke-width:0.8;" x="321.42281" xlink:href="#m0b85a5a631" y="307.584"/>
      </g>
     </g>
     <g id="text_7">
      <!-- 150 -->
      <g transform="translate(311.87906 322.182437)scale(0.1 -0.1)">
       <use xlink:href="#DejaVuSans-31"/>
       <use x="63.623047" xlink:href="#DejaVuSans-35"/>
       <use x="127.246094" xlink:href="#DejaVuSans-30"/>
      </g>
     </g>
    </g>
    <g id="xtick_8">
     <g id="line2d_8">
      <g>
       <use style="stroke:#000000;stroke-width:0.8;" x="362.414545" xlink:href="#m0b85a5a631" y="307.584"/>
      </g>
     </g>
     <g id="text_8">
      <!-- 175 -->
      <g transform="translate(352.870795 322.182437)scale(0.1 -0.1)">
       <use xlink:href="#DejaVuSans-31"/>
       <use x="63.623047" xlink:href="#DejaVuSans-37"/>
       <use x="127.246094" xlink:href="#DejaVuSans-35"/>
      </g>
     </g>
    </g>
    <g id="xtick_9">
     <g id="line2d_9">
      <g>
       <use style="stroke:#000000;stroke-width:0.8;" x="403.406281" xlink:href="#m0b85a5a631" y="307.584"/>
      </g>
     </g>
     <g id="text_9">
      <!-- 200 -->
      <g transform="translate(393.862531 322.182437)scale(0.1 -0.1)">
       <use xlink:href="#DejaVuSans-32"/>
       <use x="63.623047" xlink:href="#DejaVuSans-30"/>
       <use x="127.246094" xlink:href="#DejaVuSans-30"/>
      </g>
     </g>
    </g>
    <g id="text_10">
     <!-- ISI (ms) -->
     <defs>
      <path d="M 9.8125 72.90625 
L 19.671875 72.90625 
L 19.671875 0 
L 9.8125 0 
z
" id="DejaVuSans-49"/>
      <path d="M 53.515625 70.515625 
L 53.515625 60.890625 
Q 47.90625 63.578125 42.921875 64.890625 
Q 37.9375 66.21875 33.296875 66.21875 
Q 25.25 66.21875 20.875 63.09375 
Q 16.5 59.96875 16.5 54.203125 
Q 16.5 49.359375 19.40625 46.890625 
Q 22.3125 44.4375 30.421875 42.921875 
L 36.375 41.703125 
Q 47.40625 39.59375 52.65625 34.296875 
Q 57.90625 29 57.90625 20.125 
Q 57.90625 9.515625 50.796875 4.046875 
Q 43.703125 -1.421875 29.984375 -1.421875 
Q 24.8125 -1.421875 18.96875 -0.25 
Q 13.140625 0.921875 6.890625 3.21875 
L 6.890625 13.375 
Q 12.890625 10.015625 18.65625 8.296875 
Q 24.421875 6.59375 29.984375 6.59375 
Q 38.421875 6.59375 43.015625 9.90625 
Q 47.609375 13.234375 47.609375 19.390625 
Q 47.609375 24.75 44.3125 27.78125 
Q 41.015625 30.8125 33.5 32.328125 
L 27.484375 33.5 
Q 16.453125 35.6875 11.515625 40.375 
Q 6.59375 45.0625 6.59375 53.421875 
Q 6.59375 63.09375 13.40625 68.65625 
Q 20.21875 74.21875 32.171875 74.21875 
Q 37.3125 74.21875 42.625 73.28125 
Q 47.953125 72.359375 53.515625 70.515625 
z
" id="DejaVuSans-53"/>
      <path id="DejaVuSans-20"/>
      <path d="M 31 75.875 
Q 24.46875 64.65625 21.28125 53.65625 
Q 18.109375 42.671875 18.109375 31.390625 
Q 18.109375 20.125 21.3125 9.0625 
Q 24.515625 -2 31 -13.1875 
L 23.1875 -13.1875 
Q 15.875 -1.703125 12.234375 9.375 
Q 8.59375 20.453125 8.59375 31.390625 
Q 8.59375 42.28125 12.203125 53.3125 
Q 15.828125 64.359375 23.1875 75.875 
z
" id="DejaVuSans-28"/>
      <path d="M 52 44.1875 
Q 55.375 50.25 60.0625 53.125 
Q 64.75 56 71.09375 56 
Q 79.640625 56 84.28125 50.015625 
Q 88.921875 44.046875 88.921875 33.015625 
L 88.921875 0 
L 79.890625 0 
L 79.890625 32.71875 
Q 79.890625 40.578125 77.09375 44.375 
Q 74.3125 48.1875 68.609375 48.1875 
Q 61.625 48.1875 57.5625 43.546875 
Q 53.515625 38.921875 53.515625 30.90625 
L 53.515625 0 
L 44.484375 0 
L 44.484375 32.71875 
Q 44.484375 40.625 41.703125 44.40625 
Q 38.921875 48.1875 33.109375 48.1875 
Q 26.21875 48.1875 22.15625 43.53125 
Q 18.109375 38.875 18.109375 30.90625 
L 18.109375 0 
L 9.078125 0 
L 9.078125 54.6875 
L 18.109375 54.6875 
L 18.109375 46.1875 
Q 21.1875 51.21875 25.484375 53.609375 
Q 29.78125 56 35.6875 56 
Q 41.65625 56 45.828125 52.96875 
Q 50 49.953125 52 44.1875 
z
" id="DejaVuSans-6d"/>
      <path d="M 44.28125 53.078125 
L 44.28125 44.578125 
Q 40.484375 46.53125 36.375 47.5 
Q 32.28125 48.484375 27.875 48.484375 
Q 21.1875 48.484375 17.84375 46.4375 
Q 14.5 44.390625 14.5 40.28125 
Q 14.5 37.15625 16.890625 35.375 
Q 19.28125 33.59375 26.515625 31.984375 
L 29.59375 31.296875 
Q 39.15625 29.25 43.1875 25.515625 
Q 47.21875 21.78125 47.21875 15.09375 
Q 47.21875 7.46875 41.1875 3.015625 
Q 35.15625 -1.421875 24.609375 -1.421875 
Q 20.21875 -1.421875 15.453125 -0.5625 
Q 10.6875 0.296875 5.421875 2 
L 5.421875 11.28125 
Q 10.40625 8.6875 15.234375 7.390625 
Q 20.0625 6.109375 24.8125 6.109375 
Q 31.15625 6.109375 34.5625 8.28125 
Q 37.984375 10.453125 37.984375 14.40625 
Q 37.984375 18.0625 35.515625 20.015625 
Q 33.0625 21.96875 24.703125 23.78125 
L 21.578125 24.515625 
Q 13.234375 26.265625 9.515625 29.90625 
Q 5.8125 33.546875 5.8125 39.890625 
Q 5.8125 47.609375 11.28125 51.796875 
Q 16.75 56 26.8125 56 
Q 31.78125 56 36.171875 55.265625 
Q 40.578125 54.546875 44.28125 53.078125 
z
" id="DejaVuSans-73"/>
      <path d="M 8.015625 75.875 
L 15.828125 75.875 
Q 23.140625 64.359375 26.78125 53.3125 
Q 30.421875 42.28125 30.421875 31.390625 
Q 30.421875 20.453125 26.78125 9.375 
Q 23.140625 -1.703125 15.828125 -13.1875 
L 8.015625 -13.1875 
Q 14.5 -2 17.703125 9.0625 
Q 20.90625 20.125 20.90625 31.390625 
Q 20.90625 42.671875 17.703125 53.65625 
Q 14.5 64.65625 8.015625 75.875 
z
" id="DejaVuSans-29"/>
     </defs>
     <g transform="translate(205.61625 340.419625)scale(0.16 -0.16)">
      <use xlink:href="#DejaVuSans-49"/>
      <use x="29.492188" xlink:href="#DejaVuSans-53"/>
      <use x="92.96875" xlink:href="#DejaVuSans-49"/>
      <use x="122.460938" xlink:href="#DejaVuSans-20"/>
      <use x="154.248047" xlink:href="#DejaVuSans-28"/>
      <use x="193.261719" xlink:href="#DejaVuSans-6d"/>
      <use x="290.673828" xlink:href="#DejaVuSans-73"/>
      <use x="342.773438" xlink:href="#DejaVuSans-29"/>
     </g>
    </g>
   </g>
   <g id="matplotlib.axis_2">
    <g id="ytick_1">
     <g id="line2d_10">
      <defs>
       <path d="M 0 0 
L -3.5 0 
" id="m7a7ed5929f" style="stroke:#000000;stroke-width:0.8;"/>
      </defs>
      <g>
       <use style="stroke:#000000;stroke-width:0.8;" x="57.6" xlink:href="#m7a7ed5929f" y="307.584"/>
      </g>
     </g>
     <g id="text_11">
      <!-- 0 -->
      <g transform="translate(44.2375 311.383219)scale(0.1 -0.1)">
       <use xlink:href="#DejaVuSans-30"/>
      </g>
     </g>
    </g>
    <g id="ytick_2">
     <g id="line2d_11">
      <g>
       <use style="stroke:#000000;stroke-width:0.8;" x="57.6" xlink:href="#m7a7ed5929f" y="256.896"/>
      </g>
     </g>
     <g id="text_12">
      <!-- 20 -->
      <g transform="translate(37.875 260.695219)scale(0.1 -0.1)">
       <use xlink:href="#DejaVuSans-32"/>
       <use x="63.623047" xlink:href="#DejaVuSans-30"/>
      </g>
     </g>
    </g>
    <g id="ytick_3">
     <g id="line2d_12">
      <g>
       <use style="stroke:#000000;stroke-width:0.8;" x="57.6" xlink:href="#m7a7ed5929f" y="206.208"/>
      </g>
     </g>
     <g id="text_13">
      <!-- 40 -->
      <defs>
       <path d="M 37.796875 64.3125 
L 12.890625 25.390625 
L 37.796875 25.390625 
z
M 35.203125 72.90625 
L 47.609375 72.90625 
L 47.609375 25.390625 
L 58.015625 25.390625 
L 58.015625 17.1875 
L 47.609375 17.1875 
L 47.609375 0 
L 37.796875 0 
L 37.796875 17.1875 
L 4.890625 17.1875 
L 4.890625 26.703125 
z
" id="DejaVuSans-34"/>
      </defs>
      <g transform="translate(37.875 210.007219)scale(0.1 -0.1)">
       <use xlink:href="#DejaVuSans-34"/>
       <use x="63.623047" xlink:href="#DejaVuSans-30"/>
      </g>
     </g>
    </g>
    <g id="ytick_4">
     <g id="line2d_13">
      <g>
       <use style="stroke:#000000;stroke-width:0.8;" x="57.6" xlink:href="#m7a7ed5929f" y="155.52"/>
      </g>
     </g>
     <g id="text_14">
      <!-- 60 -->
      <defs>
       <path d="M 33.015625 40.375 
Q 26.375 40.375 22.484375 35.828125 
Q 18.609375 31.296875 18.609375 23.390625 
Q 18.609375 15.53125 22.484375 10.953125 
Q 26.375 6.390625 33.015625 6.390625 
Q 39.65625 6.390625 43.53125 10.953125 
Q 47.40625 15.53125 47.40625 23.390625 
Q 47.40625 31.296875 43.53125 35.828125 
Q 39.65625 40.375 33.015625 40.375 
z
M 52.59375 71.296875 
L 52.59375 62.3125 
Q 48.875 64.0625 45.09375 64.984375 
Q 41.3125 65.921875 37.59375 65.921875 
Q 27.828125 65.921875 22.671875 59.328125 
Q 17.53125 52.734375 16.796875 39.40625 
Q 19.671875 43.65625 24.015625 45.921875 
Q 28.375 48.1875 33.59375 48.1875 
Q 44.578125 48.1875 50.953125 41.515625 
Q 57.328125 34.859375 57.328125 23.390625 
Q 57.328125 12.15625 50.6875 5.359375 
Q 44.046875 -1.421875 33.015625 -1.421875 
Q 20.359375 -1.421875 13.671875 8.265625 
Q 6.984375 17.96875 6.984375 36.375 
Q 6.984375 53.65625 15.1875 63.9375 
Q 23.390625 74.21875 37.203125 74.21875 
Q 40.921875 74.21875 44.703125 73.484375 
Q 48.484375 72.75 52.59375 71.296875 
z
" id="DejaVuSans-36"/>
      </defs>
      <g transform="translate(37.875 159.319219)scale(0.1 -0.1)">
       <use xlink:href="#DejaVuSans-36"/>
       <use x="63.623047" xlink:href="#DejaVuSans-30"/>
      </g>
     </g>
    </g>
    <g id="ytick_5">
     <g id="line2d_14">
      <g>
       <use style="stroke:#000000;stroke-width:0.8;" x="57.6" xlink:href="#m7a7ed5929f" y="104.832"/>
      </g>
     </g>
     <g id="text_15">
      <!-- 80 -->
      <defs>
       <path d="M 31.78125 34.625 
Q 24.75 34.625 20.71875 30.859375 
Q 16.703125 27.09375 16.703125 20.515625 
Q 16.703125 13.921875 20.71875 10.15625 
Q 24.75 6.390625 31.78125 6.390625 
Q 38.8125 6.390625 42.859375 10.171875 
Q 46.921875 13.96875 46.921875 20.515625 
Q 46.921875 27.09375 42.890625 30.859375 
Q 38.875 34.625 31.78125 34.625 
z
M 21.921875 38.8125 
Q 15.578125 40.375 12.03125 44.71875 
Q 8.5 49.078125 8.5 55.328125 
Q 8.5 64.0625 14.71875 69.140625 
Q 20.953125 74.21875 31.78125 74.21875 
Q 42.671875 74.21875 48.875 69.140625 
Q 55.078125 64.0625 55.078125 55.328125 
Q 55.078125 49.078125 51.53125 44.71875 
Q 48 40.375 41.703125 38.8125 
Q 48.828125 37.15625 52.796875 32.3125 
Q 56.78125 27.484375 56.78125 20.515625 
Q 56.78125 9.90625 50.3125 4.234375 
Q 43.84375 -1.421875 31.78125 -1.421875 
Q 19.734375 -1.421875 13.25 4.234375 
Q 6.78125 9.90625 6.78125 20.515625 
Q 6.78125 27.484375 10.78125 32.3125 
Q 14.796875 37.15625 21.921875 38.8125 
z
M 18.3125 54.390625 
Q 18.3125 48.734375 21.84375 45.5625 
Q 25.390625 42.390625 31.78125 42.390625 
Q 38.140625 42.390625 41.71875 45.5625 
Q 45.3125 48.734375 45.3125 54.390625 
Q 45.3125 60.0625 41.71875 63.234375 
Q 38.140625 66.40625 31.78125 66.40625 
Q 25.390625 66.40625 21.84375 63.234375 
Q 18.3125 60.0625 18.3125 54.390625 
z
" id="DejaVuSans-38"/>
      </defs>
      <g transform="translate(37.875 108.631219)scale(0.1 -0.1)">
       <use xlink:href="#DejaVuSans-38"/>
       <use x="63.623047" xlink:href="#DejaVuSans-30"/>
      </g>
     </g>
    </g>
    <g id="ytick_6">
     <g id="line2d_15">
      <g>
       <use style="stroke:#000000;stroke-width:0.8;" x="57.6" xlink:href="#m7a7ed5929f" y="54.144"/>
      </g>
     </g>
     <g id="text_16">
      <!-- 100 -->
      <g transform="translate(31.5125 57.943219)scale(0.1 -0.1)">
       <use xlink:href="#DejaVuSans-31"/>
       <use x="63.623047" xlink:href="#DejaVuSans-30"/>
       <use x="127.246094" xlink:href="#DejaVuSans-30"/>
      </g>
     </g>
    </g>
    <g id="text_17">
     <!-- Count -->
     <defs>
      <path d="M 64.40625 67.28125 
L 64.40625 56.890625 
Q 59.421875 61.53125 53.78125 63.8125 
Q 48.140625 66.109375 41.796875 66.109375 
Q 29.296875 66.109375 22.65625 58.46875 
Q 16.015625 50.828125 16.015625 36.375 
Q 16.015625 21.96875 22.65625 14.328125 
Q 29.296875 6.6875 41.796875 6.6875 
Q 48.140625 6.6875 53.78125 8.984375 
Q 59.421875 11.28125 64.40625 15.921875 
L 64.40625 5.609375 
Q 59.234375 2.09375 53.4375 0.328125 
Q 47.65625 -1.421875 41.21875 -1.421875 
Q 24.65625 -1.421875 15.125 8.703125 
Q 5.609375 18.84375 5.609375 36.375 
Q 5.609375 53.953125 15.125 64.078125 
Q 24.65625 74.21875 41.21875 74.21875 
Q 47.75 74.21875 53.53125 72.484375 
Q 59.328125 70.75 64.40625 67.28125 
z
" id="DejaVuSans-43"/>
      <path d="M 30.609375 48.390625 
Q 23.390625 48.390625 19.1875 42.75 
Q 14.984375 37.109375 14.984375 27.296875 
Q 14.984375 17.484375 19.15625 11.84375 
Q 23.34375 6.203125 30.609375 6.203125 
Q 37.796875 6.203125 41.984375 11.859375 
Q 46.1875 17.53125 46.1875 27.296875 
Q 46.1875 37.015625 41.984375 42.703125 
Q 37.796875 48.390625 30.609375 48.390625 
z
M 30.609375 56 
Q 42.328125 56 49.015625 48.375 
Q 55.71875 40.765625 55.71875 27.296875 
Q 55.71875 13.875 49.015625 6.21875 
Q 42.328125 -1.421875 30.609375 -1.421875 
Q 18.84375 -1.421875 12.171875 6.21875 
Q 5.515625 13.875 5.515625 27.296875 
Q 5.515625 40.765625 12.171875 48.375 
Q 18.84375 56 30.609375 56 
z
" id="DejaVuSans-6f"/>
      <path d="M 8.5 21.578125 
L 8.5 54.6875 
L 17.484375 54.6875 
L 17.484375 21.921875 
Q 17.484375 14.15625 20.5 10.265625 
Q 23.53125 6.390625 29.59375 6.390625 
Q 36.859375 6.390625 41.078125 11.03125 
Q 45.3125 15.671875 45.3125 23.6875 
L 45.3125 54.6875 
L 54.296875 54.6875 
L 54.296875 0 
L 45.3125 0 
L 45.3125 8.40625 
Q 42.046875 3.421875 37.71875 1 
Q 33.40625 -1.421875 27.6875 -1.421875 
Q 18.265625 -1.421875 13.375 4.4375 
Q 8.5 10.296875 8.5 21.578125 
z
M 31.109375 56 
z
" id="DejaVuSans-75"/>
      <path d="M 54.890625 33.015625 
L 54.890625 0 
L 45.90625 0 
L 45.90625 32.71875 
Q 45.90625 40.484375 42.875 44.328125 
Q 39.84375 48.1875 33.796875 48.1875 
Q 26.515625 48.1875 22.3125 43.546875 
Q 18.109375 38.921875 18.109375 30.90625 
L 18.109375 0 
L 9.078125 0 
L 9.078125 54.6875 
L 18.109375 54.6875 
L 18.109375 46.1875 
Q 21.34375 51.125 25.703125 53.5625 
Q 30.078125 56 35.796875 56 
Q 45.21875 56 50.046875 50.171875 
Q 54.890625 44.34375 54.890625 33.015625 
z
" id="DejaVuSans-6e"/>
      <path d="M 18.3125 70.21875 
L 18.3125 54.6875 
L 36.8125 54.6875 
L 36.8125 47.703125 
L 18.3125 47.703125 
L 18.3125 18.015625 
Q 18.3125 11.328125 20.140625 9.421875 
Q 21.96875 7.515625 27.59375 7.515625 
L 36.8125 7.515625 
L 36.8125 0 
L 27.59375 0 
Q 17.1875 0 13.234375 3.875 
Q 9.28125 7.765625 9.28125 18.015625 
L 9.28125 47.703125 
L 2.6875 47.703125 
L 2.6875 54.6875 
L 9.28125 54.6875 
L 9.28125 70.21875 
z
" id="DejaVuSans-74"/>
     </defs>
     <g transform="translate(24.185 198.2855)rotate(-90)scale(0.16 -0.16)">
      <use xlink:href="#DejaVuSans-43"/>
      <use x="69.824219" xlink:href="#DejaVuSans-6f"/>
      <use x="131.005859" xlink:href="#DejaVuSans-75"/>
      <use x="194.384766" xlink:href="#DejaVuSans-6e"/>
      <use x="257.763672" xlink:href="#DejaVuSans-74"/>
     </g>
    </g>
   </g>
   <g id="patch_201">
    <path d="M 57.6 307.584 
L 57.6 41.472 
" style="fill:none;stroke:#000000;stroke-linecap:square;stroke-linejoin:miter;stroke-width:0.8;"/>
   </g>
   <g id="patch_202">
    <path d="M 414.72 307.584 
L 414.72 41.472 
" style="fill:none;stroke:#000000;stroke-linecap:square;stroke-linejoin:miter;stroke-width:0.8;"/>
   </g>
   <g id="patch_203">
    <path d="M 57.6 307.584 
L 414.72 307.584 
" style="fill:none;stroke:#000000;stroke-linecap:square;stroke-linejoin:miter;stroke-width:0.8;"/>
   </g>
   <g id="patch_204">
    <path d="M 57.6 41.472 
L 414.72 41.472 
" style="fill:none;stroke:#000000;stroke-linecap:square;stroke-linejoin:miter;stroke-width:0.8;"/>
   </g>
   <g id="legend_1">
    <g id="patch_205">
     <path d="M 310.695 101.242 
L 403.52 101.242 
Q 406.72 101.242 406.72 98.042 
L 406.72 52.672 
Q 406.72 49.472 403.52 49.472 
L 310.695 49.472 
Q 307.495 49.472 307.495 52.672 
L 307.495 98.042 
Q 307.495 101.242 310.695 101.242 
z
" style="fill:#ffffff;opacity:0.8;stroke:#cccccc;stroke-linejoin:miter;"/>
    </g>
    <g id="patch_206">
     <path d="M 313.895 68.0295 
L 345.895 68.0295 
L 345.895 56.8295 
L 313.895 56.8295 
z
" style="fill:#ff0000;opacity:0.5;"/>
    </g>
    <g id="text_18">
     <!-- into -->
     <defs>
      <path d="M 9.421875 54.6875 
L 18.40625 54.6875 
L 18.40625 0 
L 9.421875 0 
z
M 9.421875 75.984375 
L 18.40625 75.984375 
L 18.40625 64.59375 
L 9.421875 64.59375 
z
" id="DejaVuSans-69"/>
     </defs>
     <g transform="translate(358.695 68.0295)scale(0.16 -0.16)">
      <use xlink:href="#DejaVuSans-69"/>
      <use x="27.783203" xlink:href="#DejaVuSans-6e"/>
      <use x="91.162109" xlink:href="#DejaVuSans-74"/>
      <use x="130.371094" xlink:href="#DejaVuSans-6f"/>
     </g>
    </g>
    <g id="patch_207">
     <path d="M 313.895 91.5145 
L 345.895 91.5145 
L 345.895 80.3145 
L 313.895 80.3145 
z
" style="fill:#0000ff;opacity:0.5;"/>
    </g>
    <g id="text_19">
     <!-- outof -->
     <defs>
      <path d="M 37.109375 75.984375 
L 37.109375 68.5 
L 28.515625 68.5 
Q 23.6875 68.5 21.796875 66.546875 
Q 19.921875 64.59375 19.921875 59.515625 
L 19.921875 54.6875 
L 34.71875 54.6875 
L 34.71875 47.703125 
L 19.921875 47.703125 
L 19.921875 0 
L 10.890625 0 
L 10.890625 47.703125 
L 2.296875 47.703125 
L 2.296875 54.6875 
L 10.890625 54.6875 
L 10.890625 58.5 
Q 10.890625 67.625 15.140625 71.796875 
Q 19.390625 75.984375 28.609375 75.984375 
z
" id="DejaVuSans-66"/>
     </defs>
     <g transform="translate(358.695 91.5145)scale(0.16 -0.16)">
      <use xlink:href="#DejaVuSans-6f"/>
      <use x="61.181641" xlink:href="#DejaVuSans-75"/>
      <use x="124.560547" xlink:href="#DejaVuSans-74"/>
      <use x="163.769531" xlink:href="#DejaVuSans-6f"/>
      <use x="224.951172" xlink:href="#DejaVuSans-66"/>
     </g>
    </g>
   </g>
  </g>
 </g>
 <defs>
  <clipPath id="p8a6449ab40">
   <rect height="266.112" width="357.12" x="57.6" y="41.472"/>
  </clipPath>
 </defs>
</svg>
